<svg width="910" height="800" fill="none" xmlns="http://www.w3.org/2000/svg"><path fill-rule="evenodd" clip-rule="evenodd" d="M590 50c0-27.614-22.386-50-50-50H60C26.863 0 0 26.863 0 60v680c0 33.137 26.863 60 60 60h790c33.137 0 60-26.863 60-60V160c0-33.137-26.863-60-60-60H640c-27.614 0-50-22.386-50-50z" fill="url(#paint0_radial_8_839)"/><g filter="url(#filter0_d_8_839)"><rect x="500.594" y="232.02" width="373" height="373" rx="20" transform="rotate(20 500.594 232.02)" fill="#fff"/><g clip-path="url(#clip0_8_839)"><mask id="a" style="mask-type:luminance" maskUnits="userSpaceOnUse" x="-686" y="-52" width="2192" height="2190"><path d="M-685.403 1552.76l1606.961 584.89L1505.55 533.149-101.414-51.737-685.403 1552.76z" fill="#fff"/></mask><g mask="url(#a)" fill="#D91920"><path d="M604.228 502.552c-3.2-1.412-6.773-3.362-9.442-5.311-.5-.365-2.505-2.056-2.995-2.54-8.637-8.583-12.055-21.701-7.628-33.865 6.073-16.685 24.614-25.327 41.335-19.241 16.572 6.032 25.213 24.305 19.441 40.885l10.952 3.987c7.966-22.608-3.804-47.563-26.418-55.793-22.749-8.28-47.99 3.457-56.259 26.177-5.701 15.662-1.837 32.496 8.547 44.157 1.884 2.081 4.769 4.568 5.779 5.33 3.284 2.434 7.538 4.807 11.45 6.575 1.328.6 6.079 2.39 7.467 2.901l75.419 27.451 3.965-10.892-75.293-27.404c-1.001-.365-5.363-1.995-6.32-2.417zm12.582-14.788c-.796-.29-4.952-1.833-5.697-2.178-1.264-.585-3.083-1.467-4.197-2.186-1.238-.866-2.349-1.82-2.813-2.349-3.269-3.678-4.478-8.983-2.677-13.932 2.621-7.199 10.585-10.912 17.798-8.287 7.062 2.571 10.762 10.27 8.441 17.361l10.523 3.83c4.438-12.884-2.259-27.006-15.141-31.695-13.025-4.74-27.419 1.956-32.151 14.958-3.338 9.17-.956 19.005 5.299 25.674.928 1.119 2.884 2.649 3.456 3.044 1.958 1.357 4.724 2.803 7.021 3.834.845.39 5.104 1.977 6.004 2.311l-.006.016 75.603 27.517 3.827-10.515-75.29-27.403zm-65.392 7.972l-11.025-4.013 26.057-71.592-16.11-5.864 4.007-11.01 27.136 9.876-30.065 82.603zm-15.185-80.373l-3.854 10.587 12.105 4.406-20.202 55.503 10.593 3.856 24.055-66.091-22.697-8.261zM692.195 454.3c-3.971-1.446-8.415.517-9.859 4.485-1.444 3.968.653 8.455 4.624 9.9 4.092 1.49 8.455-.646 9.9-4.614 1.444-3.967-.572-8.282-4.665-9.771zm-4.81 13.215c-3.28-1.194-5.169-4.796-3.891-8.308 1.214-3.335 5.001-4.945 8.28-3.751 3.278 1.193 5.13 4.856 3.917 8.19-1.279 3.512-5.028 5.062-8.306 3.869z"/><path d="M691.655 464.39c.292-.801.444-1.588-.367-2.216 1.295.02 1.682-.691 1.848-1.146.67-1.841-.918-2.685-1.607-2.935l-3.166-1.153-2.595 7.129 1.32.481 1.064-2.925 1.04.379c1.495.544 1.369 1.276 1.141 1.904-.443 1.216-.526 1.445-.3 1.714l1.323.481c-.181-.392.013-.575.299-1.713zm-1.566-3.238l-1.558-.567.817-2.245 1.334.485c.923.336 1.443.855 1.128 1.72-.165.456-.62 1.008-1.721.607z"/></g></g></g><g filter="url(#filter1_d_8_839)"><rect x="74" y="268.655" width="373" height="373" rx="20" transform="rotate(-9.359 74 268.655)" fill="#fff"/><path fill-rule="evenodd" clip-rule="evenodd" d="M291.703 408.571l5.747-8.685 22.378 17.267-41.231 61.559-65.816-9.926-10.907-66.176 59.151-30.522 15.38 11.988-5.841 8.61-10.547-8.275-46.751 24.125 8.402 50.981 52.02 7.847 32.082-47.894-14.067-10.899zm-6.716 27.549l-5.755 8.687-22.37-17.268 41.231-61.56 65.817 9.927 10.907 66.183-59.152 30.515-15.407-12 5.841-8.618 10.566 8.296 46.759-24.127-8.402-50.981-52.028-7.845-32.074 47.893 14.067 10.898z" fill="#307FE2"/></g><rect x="396" y="331" width="140" height="140" rx="70" fill="#F6F7FB"/><path d="M478.5 425.15a2.5 2.5 0 01-2.5-2.5v-9.15a2.5 2.5 0 115 0v9.15a2.5 2.5 0 01-2.5 2.5z" fill="#2196F3"/><path d="M453.5 391a2.501 2.501 0 01-2.5-2.5v-9.15a2.5 2.5 0 115 0v9.15a2.501 2.501 0 01-2.5 2.5z" fill="#1565C0"/><path d="M478.5 425.155a2.499 2.499 0 01-1.25-4.662 22.501 22.501 0 002.455-37.347A22.503 22.503 0 00466 378.5a2.5 2.5 0 110-5 27.497 27.497 0 0125.412 38.028 27.497 27.497 0 01-11.662 13.292c-.38.219-.811.335-1.25.335z" fill="#2196F3"/><path d="M466 428.5a27.503 27.503 0 01-26.571-20.383 27.497 27.497 0 0112.821-30.937c.38-.22.811-.336 1.25-.337a2.5 2.5 0 011.25 4.657 22.5 22.5 0 0011.25 42 2.501 2.501 0 010 5z" fill="#1565C0"/><defs><filter id="filter0_d_8_839" x="333.02" y="196.02" width="558.079" height="558.079" filterUnits="userSpaceOnUse" color-interpolation-filters="sRGB"><feFlood flood-opacity="0" result="BackgroundImageFix"/><feColorMatrix in="SourceAlpha" values="0 0 0 0 0 0 0 0 0 0 0 0 0 0 0 0 0 0 127 0" result="hardAlpha"/><feOffset dy="4"/><feGaussianBlur stdDeviation="20"/><feComposite in2="hardAlpha" operator="out"/><feColorMatrix values="0 0 0 0 0.37375 0 0 0 0 0.468687 0 0 0 0 0.8625 0 0 0 1 0"/><feBlend in2="BackgroundImageFix" result="effect1_dropShadow_8_839"/><feBlend in="SourceGraphic" in2="effect1_dropShadow_8_839" result="shape"/></filter><filter id="filter1_d_8_839" x="34" y="172" width="508.69" height="508.69" filterUnits="userSpaceOnUse" color-interpolation-filters="sRGB"><feFlood flood-opacity="0" result="BackgroundImageFix"/><feColorMatrix in="SourceAlpha" values="0 0 0 0 0 0 0 0 0 0 0 0 0 0 0 0 0 0 127 0" result="hardAlpha"/><feOffset dy="4"/><feGaussianBlur stdDeviation="20"/><feComposite in2="hardAlpha" operator="out"/><feColorMatrix values="0 0 0 0 0.37375 0 0 0 0 0.468687 0 0 0 0 0.8625 0 0 0 0.2 0"/><feBlend in2="BackgroundImageFix" result="effect1_dropShadow_8_839"/><feBlend in="SourceGraphic" in2="effect1_dropShadow_8_839" result="shape"/></filter><radialGradient id="paint0_radial_8_839" cx="0" cy="0" r="1" gradientUnits="userSpaceOnUse" gradientTransform="rotate(40.499 -231.34 416.402) scale(846.898 425.063)"><stop stop-color="#5AC9FA"/><stop offset=".58" stop-color="#66C6FC"/><stop offset="1" stop-color="#7362FE"/></radialGradient><clipPath id="clip0_8_839"><path fill="#fff" transform="rotate(20 -859.88 1737.03)" d="M0 0h180.605v87.947H0z"/></clipPath></defs></svg>