<svg width="1711" height="3061" fill="none" xmlns="http://www.w3.org/2000/svg"><g filter="url(#filter0_f_42_832)"><g opacity=".4"><mask id="a" style="mask-type:alpha" maskUnits="userSpaceOnUse" x="988" y="855" width="1427" height="1528"><path transform="rotate(28.421 1565.64 855.875)" fill="url(#paint0_linear_42_832)" d="M1565.64 855.875h965.079v1213.44H1565.64z"/></mask><g mask="url(#a)"><path d="M1929.03 1938.74c-93.57 172.92-309.6 237.23-482.52 143.65-172.91-93.57-237.22-309.6-143.65-482.51 93.58-172.92 183.52-4.24 356.43 89.34 172.91 93.57 363.32 76.61 269.74 249.52z" fill="#579AFF"/><g filter="url(#filter1_f_42_832)"><path d="M1925.65 1944.99c-72.43 133.85-271.33 166.49-444.24 72.92-172.91-93.58-254.36-277.94-181.93-411.79 72.44-133.85 271.33-166.5 444.25-72.92 172.91 93.57 254.36 277.94 181.92 411.79z" fill="#579AFF"/></g><g filter="url(#filter2_f_42_832)"><ellipse cx="1619.32" cy="1763.07" rx="355.991" ry="275.568" transform="rotate(28.421 1619.32 1763.07)" fill="#579AFF"/></g><g filter="url(#filter3_f_42_832)"><ellipse cx="1637.9" cy="1728.74" rx="355.991" ry="276.75" transform="rotate(28.421 1637.9 1728.74)" fill="#579AFF"/></g><g filter="url(#filter4_f_42_832)"><ellipse cx="1693.63" cy="1625.77" rx="355.991" ry="275.568" transform="rotate(28.421 1693.63 1625.77)" fill="#579AFF"/></g><g filter="url(#filter5_f_42_832)"><ellipse cx="1769.05" cy="1486.39" rx="299.222" ry="275.568" transform="rotate(28.421 1769.05 1486.39)" fill="#579AFF"/></g></g><mask id="b" style="mask-type:alpha" maskUnits="userSpaceOnUse" x="1306" y="1371" width="1258" height="1022"><path transform="rotate(87.333 2519.08 1371.86)" fill="url(#paint1_linear_42_832)" d="M2519.08 1371.86h965.079V2585.3H2519.08z"/></mask><g mask="url(#b)"><path d="M1779.38 2242.21c-196.4 9.14-363.02-142.65-372.17-339.04-9.15-196.4 142.64-363.03 339.04-372.18 196.39-9.14 98.38 154.98 107.53 351.37 9.15 196.4 122 350.7-74.4 359.85z" fill="#FF4DED"/><g filter="url(#filter6_f_42_832)"><path d="M1772.29 2242.54c-152.03 7.08-282.68-146.39-291.83-342.79-9.15-196.39 106.67-361.34 258.7-368.42 152.03-7.09 282.69 146.38 291.83 342.78 9.15 196.39-106.67 361.34-258.7 368.43z" fill="#FF4DED"/></g><g filter="url(#filter7_f_42_832)"><ellipse cx="1769.9" cy="1886.27" rx="355.991" ry="275.568" transform="rotate(87.333 1769.9 1886.27)" fill="#FF4DED"/></g><g filter="url(#filter8_f_42_832)"><ellipse cx="1808.89" cy="1884.45" rx="355.991" ry="276.75" transform="rotate(87.333 1808.89 1884.45)" fill="#FF4DED"/></g><g filter="url(#filter9_f_42_832)"><ellipse cx="1925.85" cy="1879.01" rx="355.991" ry="275.568" transform="rotate(87.333 1925.85 1879.01)" fill="#FF4DED"/></g><g filter="url(#filter10_f_42_832)"><ellipse cx="2084.16" cy="1871.63" rx="299.222" ry="275.568" transform="rotate(87.333 2084.16 1871.63)" fill="#FF4DED"/></g></g></g><g opacity=".4"><mask id="c" style="mask-type:alpha" maskUnits="userSpaceOnUse" x="1142" y="1523" width="1481" height="1050"><path transform="rotate(118.537 2622.13 2225.28)" fill="url(#paint2_linear_42_832)" d="M2622.13 2225.28h394.765v1469.55H2622.13z"/></mask><g mask="url(#c)"><path d="M1629.75 2074.42c-209.18-113.75-347.61-263.23-309.19-333.88 38.42-70.66 239.14-35.72 448.32 78.03 209.17 113.74 65.74 109.96 27.32 180.61-38.42 70.65 42.72 188.99-166.45 75.24z" fill="#57AEFF"/><g filter="url(#filter11_f_42_832)"><path d="M1622.19 2070.31c-161.92-88.05-262.03-216.7-223.61-287.35 38.42-70.66 200.82-56.55 362.74 31.5 161.92 88.05 262.04 216.7 223.62 287.35-38.42 70.66-200.82 56.55-362.75-31.5z" fill="#57AEFF"/></g><g filter="url(#filter12_f_42_832)"><ellipse cx="1706.86" cy="1950.59" rx="145.618" ry="333.728" transform="rotate(118.537 1706.86 1950.59)" fill="#57AEFF"/></g><g filter="url(#filter13_f_42_832)"><ellipse cx="1748.39" cy="1973.18" rx="145.618" ry="335.16" transform="rotate(118.537 1748.39 1973.18)" fill="#57AEFF"/></g><g filter="url(#filter14_f_42_832)"><ellipse cx="1872.95" cy="2040.92" rx="145.618" ry="333.728" transform="rotate(118.537 1872.95 2040.92)" fill="#57AEFF"/></g><g filter="url(#filter15_f_42_832)"><ellipse cx="2041.57" cy="2132.6" rx="122.397" ry="333.728" transform="rotate(118.537 2041.57 2132.6)" fill="#57AEFF"/></g></g><mask id="d" style="mask-type:alpha" maskUnits="userSpaceOnUse" x="970" y="1580" width="1441" height="1035"><path transform="matrix(-.95621 -.29267 -.53274 -.84628 2410.29 2614.86)" fill="url(#paint3_linear_42_832)" d="M0 0h1021.29v869.477H0z"/></mask><g mask="url(#d)"><path d="M1267.52 1883.41c-75.11-119.24 25.3-166.51 224.27-105.58 198.97 60.93 421.16 206.98 496.27 326.22 75.1 119.24-126.51 5.84-325.48-55.09-198.97-60.93-319.95-46.31-395.06-165.55z" fill="#4A46FF"/><g filter="url(#filter16_f_42_832)"><path d="M1264.81 1879.11c-58.15-92.3 56.02-117.74 254.99-56.81 198.97 60.93 407.4 185.15 465.54 277.45 58.14 92.3-56.02 117.73-254.99 56.8-198.97-60.92-407.4-185.14-465.54-277.44z" fill="#4A46FF"/></g><g filter="url(#filter17_f_42_832)"><ellipse cx="376.724" cy="197.454" rx="376.724" ry="197.454" transform="matrix(-.95632 -.29284 -.53316 -.8464 2096.04 2275.48)" fill="#4A46FF"/></g><g filter="url(#filter18_f_42_832)"><ellipse cx="376.724" cy="198.302" rx="376.724" ry="198.302" transform="matrix(-.95632 -.29284 -.53316 -.8464 2111.4 2299.87)" fill="#4A46FF"/></g><g filter="url(#filter19_f_42_832)"><ellipse cx="376.724" cy="197.454" rx="376.724" ry="197.454" transform="matrix(-.95632 -.29284 -.53316 -.8464 2155.68 2370.16)" fill="#4A46FF"/></g><g filter="url(#filter20_f_42_832)"><ellipse cx="316.649" cy="197.454" rx="316.649" ry="197.454" transform="matrix(-.95632 -.29284 -.53316 -.8464 2158.77 2448.68)" fill="#4A46FF"/></g></g></g><g opacity=".4"><mask id="e" style="mask-type:alpha" maskUnits="userSpaceOnUse" x="959" y="808" width="1031" height="1295"><path transform="rotate(-.136 959.139 811.306)" fill="url(#paint4_linear_42_832)" d="M959.139 811.306h1027.05v1291.36H959.139z"/></mask><g mask="url(#e)"><path d="M1849.7 1638.64c.49 209.23-168.72 379.25-377.95 379.75-209.23.49-379.25-168.72-379.75-377.95-.49-209.24 169.39-97.32 378.62-97.82 209.23-.49 378.58-113.21 379.08 96.02z" fill="#2C67FF"/><g filter="url(#filter21_f_42_832)"><path d="M1849.72 1646.19c.39 161.96-168.92 293.66-378.15 294.16-209.23.49-379.16-130.4-379.54-292.37-.39-161.96 168.92-293.66 378.15-294.15 209.23-.5 379.16 130.4 379.54 292.36z" fill="#2C67FF"/></g><g filter="url(#filter22_f_42_832)"><ellipse cx="1470.83" cy="1631.99" rx="378.849" ry="293.262" transform="rotate(-.136 1470.83 1631.99)" fill="#2C67FF"/></g><g filter="url(#filter23_f_42_832)"><ellipse cx="1470.74" cy="1590.45" rx="378.849" ry="294.52" transform="rotate(-.136 1470.74 1590.45)" fill="#2C67FF"/></g><g filter="url(#filter24_f_42_832)"><ellipse cx="1470.44" cy="1465.85" rx="378.849" ry="293.262" transform="rotate(-.136 1470.44 1465.85)" fill="#2C67FF"/></g><g filter="url(#filter25_f_42_832)"><ellipse cx="1470.04" cy="1297.19" rx="318.435" ry="293.262" transform="rotate(-.136 1470.04 1297.19)" fill="#2C67FF"/></g></g><mask id="f" style="mask-type:alpha" maskUnits="userSpaceOnUse" x="710" y="1105" width="1014" height="958"><path transform="rotate(-59.047 710.099 1651.49)" fill="url(#paint5_linear_42_832)" d="M710.099 1651.49h636.095v799.796H710.099z"/></mask><g mask="url(#f)"><path d="M1433.71 1443.74c111.13 66.65 147.19 210.77 80.54 321.9-66.65 111.14-210.77 147.2-321.9 80.55-111.13-66.65 2.55-120.97 69.2-232.1s61.03-237 172.16-170.35z" fill="#094EFF"/><g filter="url(#filter26_f_42_832)"><path d="M1437.72 1446.15c86.03 51.59 101.74 183.5 35.09 294.64-66.66 111.13-190.42 159.4-276.45 107.8-86.03-51.59-101.73-183.51-35.08-294.64s190.42-159.4 276.44-107.8z" fill="#094EFF"/></g><g filter="url(#filter27_f_42_832)"><ellipse cx="1309.02" cy="1642.56" rx="234.638" ry="181.63" transform="rotate(-59.047 1309.02 1642.56)" fill="#094EFF"/></g><g filter="url(#filter28_f_42_832)"><ellipse cx="1286.95" cy="1629.33" rx="234.638" ry="182.409" transform="rotate(-59.047 1286.95 1629.33)" fill="#094EFF"/></g><g filter="url(#filter29_f_42_832)"><ellipse cx="1220.77" cy="1589.63" rx="234.638" ry="181.63" transform="rotate(-59.047 1220.77 1589.63)" fill="#094EFF"/></g><g filter="url(#filter30_f_42_832)"><ellipse cx="1131.19" cy="1535.91" rx="197.221" ry="181.63" transform="rotate(-59.047 1131.19 1535.91)" fill="#094EFF"/></g></g></g><g opacity=".4"><mask id="g" style="mask-type:alpha" maskUnits="userSpaceOnUse" x="923" y="1450" width="1112" height="1002"><path transform="rotate(-110.481 1177.81 2451.56)" fill="url(#paint6_linear_42_832)" d="M1177.81 2451.56h726.957v914.042H1177.81z"/></mask><g mask="url(#g)"><path d="M1507.72 1656.94c138.74-51.82 293.21 18.64 345.03 157.38 51.82 138.73-18.64 293.21-157.38 345.03-138.74 51.81-106.27-88.47-158.09-227.21-51.81-138.73-168.3-223.38-29.56-275.2z" fill="#06F"/><g filter="url(#filter31_f_42_832)"><path d="M1512.72 1655.06c107.4-40.11 236.47 39.84 288.28 178.58 51.82 138.74 6.77 283.72-100.63 323.83-107.39 40.11-236.46-39.84-288.27-178.57-51.82-138.74-6.77-283.72 100.62-323.84z" fill="#06F"/></g><g filter="url(#filter32_f_42_832)"><ellipse cx="1596.54" cy="1910.01" rx="268.154" ry="207.575" transform="rotate(-110.481 1596.54 1910.01)" fill="#06F"/></g><g filter="url(#filter33_f_42_832)"><ellipse cx="1569" cy="1920.3" rx="268.154" ry="208.466" transform="rotate(-110.481 1569 1920.3)" fill="#06F"/></g><g filter="url(#filter34_f_42_832)"><ellipse cx="1486.37" cy="1951.16" rx="268.154" ry="207.575" transform="rotate(-110.481 1486.37 1951.16)" fill="#06F"/></g><g filter="url(#filter35_f_42_832)"><ellipse cx="1374.54" cy="1992.93" rx="225.392" ry="207.575" transform="rotate(-110.481 1374.54 1992.93)" fill="#06F"/></g></g><mask id="h" style="mask-type:alpha" maskUnits="userSpaceOnUse" x="1354" y="1770" width="547" height="641"><path transform="rotate(-169.392 1796.69 2410.08)" fill="url(#paint7_linear_42_832)" d="M1796.69 2410.08h450.236v566.106H1796.69z"/></mask><g mask="url(#h)"><path d="M1480.74 1980.97c16.89-90.15 103.66-149.55 193.82-132.66 90.15 16.88 149.55 103.65 132.66 193.81-16.88 90.16-80.9 28.07-171.06 11.19-90.15-16.89-172.3 17.82-155.42-72.34z" fill="#096BFF"/><g filter="url(#filter36_f_42_832)"><path d="M1481.35 1977.72c13.07-69.79 96.75-112.67 186.91-95.79 90.15 16.89 152.64 87.15 139.57 156.94-13.07 69.78-96.75 112.67-186.9 95.79-90.16-16.89-152.65-87.15-139.58-156.94z" fill="#096BFF"/></g><g filter="url(#filter37_f_42_832)"><ellipse cx="1643.37" cy="2014.8" rx="166.08" ry="128.56" transform="rotate(-169.392 1643.37 2014.8)" fill="#096BFF"/></g><g filter="url(#filter38_f_42_832)"><ellipse cx="1640.02" cy="2032.7" rx="166.08" ry="129.112" transform="rotate(-169.392 1640.02 2032.7)" fill="#096BFF"/></g><g filter="url(#filter39_f_42_832)"><ellipse cx="1629.97" cy="2086.39" rx="166.08" ry="128.56" transform="rotate(-169.392 1629.97 2086.39)" fill="#096BFF"/></g><g filter="url(#filter40_f_42_832)"><ellipse cx="1616.36" cy="2159.06" rx="139.595" ry="128.56" transform="rotate(-169.392 1616.36 2159.06)" fill="#096BFF"/></g></g></g></g><defs><filter id="filter0_f_42_832" x="745.291" y="803.926" width="1814.5" height="1776.07" filterUnits="userSpaceOnUse" color-interpolation-filters="sRGB"><feFlood flood-opacity="0" result="BackgroundImageFix"/><feBlend in="SourceGraphic" in2="BackgroundImageFix" result="shape"/><feGaussianBlur stdDeviation="100" result="effect1_foregroundBlur_42_832"/></filter><filter id="filter1_f_42_832" x="1266.92" y="1473.71" width="691.287" height="603.686" filterUnits="userSpaceOnUse" color-interpolation-filters="sRGB"><feFlood flood-opacity="0" result="BackgroundImageFix"/><feBlend in="SourceGraphic" in2="BackgroundImageFix" result="shape"/><feGaussianBlur stdDeviation="3.054" result="effect1_foregroundBlur_42_832"/></filter><filter id="filter2_f_42_832" x="1258.4" y="1445.96" width="721.832" height="634.231" filterUnits="userSpaceOnUse" color-interpolation-filters="sRGB"><feFlood flood-opacity="0" result="BackgroundImageFix"/><feBlend in="SourceGraphic" in2="BackgroundImageFix" result="shape"/><feGaussianBlur stdDeviation="10.691" result="effect1_foregroundBlur_42_832"/></filter><filter id="filter3_f_42_832" x="1246.22" y="1380.23" width="783.357" height="697.028" filterUnits="userSpaceOnUse" color-interpolation-filters="sRGB"><feFlood flood-opacity="0" result="BackgroundImageFix"/><feBlend in="SourceGraphic" in2="BackgroundImageFix" result="shape"/><feGaussianBlur stdDeviation="25.963" result="effect1_foregroundBlur_42_832"/></filter><filter id="filter4_f_42_832" x="1241.08" y="1217.02" width="905.102" height="817.501" filterUnits="userSpaceOnUse" color-interpolation-filters="sRGB"><feFlood flood-opacity="0" result="BackgroundImageFix"/><feBlend in="SourceGraphic" in2="BackgroundImageFix" result="shape"/><feGaussianBlur stdDeviation="56.508" result="effect1_foregroundBlur_42_832"/></filter><filter id="filter5_f_42_832" x="1276.42" y="1006.7" width="985.275" height="959.376" filterUnits="userSpaceOnUse" color-interpolation-filters="sRGB"><feFlood flood-opacity="0" result="BackgroundImageFix"/><feBlend in="SourceGraphic" in2="BackgroundImageFix" result="shape"/><feGaussianBlur stdDeviation="99.271" result="effect1_foregroundBlur_42_832"/></filter><filter id="filter6_f_42_832" x="1473.84" y="1524.98" width="563.77" height="723.9" filterUnits="userSpaceOnUse" color-interpolation-filters="sRGB"><feFlood flood-opacity="0" result="BackgroundImageFix"/><feBlend in="SourceGraphic" in2="BackgroundImageFix" result="shape"/><feGaussianBlur stdDeviation="3.054" result="effect1_foregroundBlur_42_832"/></filter><filter id="filter7_f_42_832" x="1472.75" y="1509.05" width="594.315" height="754.445" filterUnits="userSpaceOnUse" color-interpolation-filters="sRGB"><feFlood flood-opacity="0" result="BackgroundImageFix"/><feBlend in="SourceGraphic" in2="BackgroundImageFix" result="shape"/><feGaussianBlur stdDeviation="10.691" result="effect1_foregroundBlur_42_832"/></filter><filter id="filter8_f_42_832" x="1480.01" y="1476.68" width="657.764" height="815.54" filterUnits="userSpaceOnUse" color-interpolation-filters="sRGB"><feFlood flood-opacity="0" result="BackgroundImageFix"/><feBlend in="SourceGraphic" in2="BackgroundImageFix" result="shape"/><feGaussianBlur stdDeviation="25.963" result="effect1_foregroundBlur_42_832"/></filter><filter id="filter9_f_42_832" x="1537.06" y="1410.15" width="777.585" height="937.715" filterUnits="userSpaceOnUse" color-interpolation-filters="sRGB"><feFlood flood-opacity="0" result="BackgroundImageFix"/><feBlend in="SourceGraphic" in2="BackgroundImageFix" result="shape"/><feGaussianBlur stdDeviation="56.508" result="effect1_foregroundBlur_42_832"/></filter><filter id="filter10_f_42_832" x="1609.99" y="1373.91" width="948.34" height="995.441" filterUnits="userSpaceOnUse" color-interpolation-filters="sRGB"><feFlood flood-opacity="0" result="BackgroundImageFix"/><feBlend in="SourceGraphic" in2="BackgroundImageFix" result="shape"/><feGaussianBlur stdDeviation="99.271" result="effect1_foregroundBlur_42_832"/></filter><filter id="filter11_f_42_832" x="1386.09" y="1733.69" width="611.34" height="417.387" filterUnits="userSpaceOnUse" color-interpolation-filters="sRGB"><feFlood flood-opacity="0" result="BackgroundImageFix"/><feBlend in="SourceGraphic" in2="BackgroundImageFix" result="shape"/><feGaussianBlur stdDeviation="2.139" result="effect1_foregroundBlur_42_832"/></filter><filter id="filter12_f_42_832" x="1390.49" y="1731.21" width="632.729" height="438.776" filterUnits="userSpaceOnUse" color-interpolation-filters="sRGB"><feFlood flood-opacity="0" result="BackgroundImageFix"/><feBlend in="SourceGraphic" in2="BackgroundImageFix" result="shape"/><feGaussianBlur stdDeviation="7.486" result="effect1_foregroundBlur_42_832"/></filter><filter id="filter13_f_42_832" x="1409.41" y="1731.87" width="677.957" height="482.625" filterUnits="userSpaceOnUse" color-interpolation-filters="sRGB"><feFlood flood-opacity="0" result="BackgroundImageFix"/><feBlend in="SourceGraphic" in2="BackgroundImageFix" result="shape"/><feGaussianBlur stdDeviation="18.181" result="effect1_foregroundBlur_42_832"/></filter><filter id="filter14_f_42_832" x="1492.42" y="1757.36" width="761.067" height="567.114" filterUnits="userSpaceOnUse" color-interpolation-filters="sRGB"><feFlood flood-opacity="0" result="BackgroundImageFix"/><feBlend in="SourceGraphic" in2="BackgroundImageFix" result="shape"/><feGaussianBlur stdDeviation="39.571" result="effect1_foregroundBlur_42_832"/></filter><filter id="filter15_f_42_832" x="1603.52" y="1801.25" width="876.094" height="662.704" filterUnits="userSpaceOnUse" color-interpolation-filters="sRGB"><feFlood flood-opacity="0" result="BackgroundImageFix"/><feBlend in="SourceGraphic" in2="BackgroundImageFix" result="shape"/><feGaussianBlur stdDeviation="69.516" result="effect1_foregroundBlur_42_832"/></filter><filter id="filter16_f_42_832" x="1245.36" y="1784.87" width="759.422" height="409.107" filterUnits="userSpaceOnUse" color-interpolation-filters="sRGB"><feFlood flood-opacity="0" result="BackgroundImageFix"/><feBlend in="SourceGraphic" in2="BackgroundImageFix" result="shape"/><feGaussianBlur stdDeviation="2.139" result="effect1_foregroundBlur_42_832"/></filter><filter id="filter17_f_42_832" x="1240.09" y="1782.79" width="780.811" height="430.496" filterUnits="userSpaceOnUse" color-interpolation-filters="sRGB"><feFlood flood-opacity="0" result="BackgroundImageFix"/><feBlend in="SourceGraphic" in2="BackgroundImageFix" result="shape"/><feGaussianBlur stdDeviation="7.486" result="effect1_foregroundBlur_42_832"/></filter><filter id="filter18_f_42_832" x="1233.48" y="1784.47" width="823.845" height="474.475" filterUnits="userSpaceOnUse" color-interpolation-filters="sRGB"><feFlood flood-opacity="0" result="BackgroundImageFix"/><feBlend in="SourceGraphic" in2="BackgroundImageFix" result="shape"/><feGaussianBlur stdDeviation="18.181" result="effect1_foregroundBlur_42_832"/></filter><filter id="filter19_f_42_832" x="1235.56" y="1813.3" width="909.149" height="558.834" filterUnits="userSpaceOnUse" color-interpolation-filters="sRGB"><feFlood flood-opacity="0" result="BackgroundImageFix"/><feBlend in="SourceGraphic" in2="BackgroundImageFix" result="shape"/><feGaussianBlur stdDeviation="39.571" result="effect1_foregroundBlur_42_832"/></filter><filter id="filter20_f_42_832" x="1290.97" y="1858.64" width="919.429" height="660.387" filterUnits="userSpaceOnUse" color-interpolation-filters="sRGB"><feFlood flood-opacity="0" result="BackgroundImageFix"/><feBlend in="SourceGraphic" in2="BackgroundImageFix" result="shape"/><feGaussianBlur stdDeviation="69.516" result="effect1_foregroundBlur_42_832"/></filter><filter id="filter21_f_42_832" x="1084.95" y="1346.75" width="771.851" height="600.679" filterUnits="userSpaceOnUse" color-interpolation-filters="sRGB"><feFlood flood-opacity="0" result="BackgroundImageFix"/><feBlend in="SourceGraphic" in2="BackgroundImageFix" result="shape"/><feGaussianBlur stdDeviation="3.538" result="effect1_foregroundBlur_42_832"/></filter><filter id="filter22_f_42_832" x="1067.22" y="1313.95" width="807.235" height="636.064" filterUnits="userSpaceOnUse" color-interpolation-filters="sRGB"><feFlood flood-opacity="0" result="BackgroundImageFix"/><feBlend in="SourceGraphic" in2="BackgroundImageFix" result="shape"/><feGaussianBlur stdDeviation="12.384" result="effect1_foregroundBlur_42_832"/></filter><filter id="filter23_f_42_832" x="1031.74" y="1235.78" width="878.004" height="709.349" filterUnits="userSpaceOnUse" color-interpolation-filters="sRGB"><feFlood flood-opacity="0" result="BackgroundImageFix"/><feBlend in="SourceGraphic" in2="BackgroundImageFix" result="shape"/><feGaussianBlur stdDeviation="30.077" result="effect1_foregroundBlur_42_832"/></filter><filter id="filter24_f_42_832" x="960.672" y="1041.66" width="1019.54" height="848.37" filterUnits="userSpaceOnUse" color-interpolation-filters="sRGB"><feFlood flood-opacity="0" result="BackgroundImageFix"/><feBlend in="SourceGraphic" in2="BackgroundImageFix" result="shape"/><feGaussianBlur stdDeviation="65.461" result="effect1_foregroundBlur_42_832"/></filter><filter id="filter25_f_42_832" x="921.608" y="773.927" width="1096.87" height="1046.52" filterUnits="userSpaceOnUse" color-interpolation-filters="sRGB"><feFlood flood-opacity="0" result="BackgroundImageFix"/><feBlend in="SourceGraphic" in2="BackgroundImageFix" result="shape"/><feGaussianBlur stdDeviation="114.999" result="effect1_foregroundBlur_42_832"/></filter><filter id="filter26_f_42_832" x="1112.91" y="1418.39" width="408.261" height="457.962" filterUnits="userSpaceOnUse" color-interpolation-filters="sRGB"><feFlood flood-opacity="0" result="BackgroundImageFix"/><feBlend in="SourceGraphic" in2="BackgroundImageFix" result="shape"/><feGaussianBlur stdDeviation="3.538" result="effect1_foregroundBlur_42_832"/></filter><filter id="filter27_f_42_832" x="1087.2" y="1395.88" width="443.646" height="493.347" filterUnits="userSpaceOnUse" color-interpolation-filters="sRGB"><feFlood flood-opacity="0" result="BackgroundImageFix"/><feBlend in="SourceGraphic" in2="BackgroundImageFix" result="shape"/><feGaussianBlur stdDeviation="12.384" result="effect1_foregroundBlur_42_832"/></filter><filter id="filter28_f_42_832" x="1029.22" y="1347.1" width="515.473" height="564.452" filterUnits="userSpaceOnUse" color-interpolation-filters="sRGB"><feFlood flood-opacity="0" result="BackgroundImageFix"/><feBlend in="SourceGraphic" in2="BackgroundImageFix" result="shape"/><feGaussianBlur stdDeviation="30.077" result="effect1_foregroundBlur_42_832"/></filter><filter id="filter29_f_42_832" x="892.799" y="1236.81" width="655.952" height="705.653" filterUnits="userSpaceOnUse" color-interpolation-filters="sRGB"><feFlood flood-opacity="0" result="BackgroundImageFix"/><feBlend in="SourceGraphic" in2="BackgroundImageFix" result="shape"/><feGaussianBlur stdDeviation="65.461" result="effect1_foregroundBlur_42_832"/></filter><filter id="filter30_f_42_832" x="715.293" y="1112.66" width="831.803" height="846.505" filterUnits="userSpaceOnUse" color-interpolation-filters="sRGB"><feFlood flood-opacity="0" result="BackgroundImageFix"/><feBlend in="SourceGraphic" in2="BackgroundImageFix" result="shape"/><feGaussianBlur stdDeviation="114.999" result="effect1_foregroundBlur_42_832"/></filter><filter id="filter31_f_42_832" x="1383.52" y="1637.63" width="446.065" height="537.275" filterUnits="userSpaceOnUse" color-interpolation-filters="sRGB"><feFlood flood-opacity="0" result="BackgroundImageFix"/><feBlend in="SourceGraphic" in2="BackgroundImageFix" result="shape"/><feGaussianBlur stdDeviation="3.538" result="effect1_foregroundBlur_42_832"/></filter><filter id="filter32_f_42_832" x="1355.81" y="1623.68" width="481.45" height="572.659" filterUnits="userSpaceOnUse" color-interpolation-filters="sRGB"><feFlood flood-opacity="0" result="BackgroundImageFix"/><feBlend in="SourceGraphic" in2="BackgroundImageFix" result="shape"/><feGaussianBlur stdDeviation="12.384" result="effect1_foregroundBlur_42_832"/></filter><filter id="filter33_f_42_832" x="1292.14" y="1598.49" width="553.723" height="643.603" filterUnits="userSpaceOnUse" color-interpolation-filters="sRGB"><feFlood flood-opacity="0" result="BackgroundImageFix"/><feBlend in="SourceGraphic" in2="BackgroundImageFix" result="shape"/><feGaussianBlur stdDeviation="30.077" result="effect1_foregroundBlur_42_832"/></filter><filter id="filter34_f_42_832" x="1139.5" y="1558.67" width="693.756" height="784.966" filterUnits="userSpaceOnUse" color-interpolation-filters="sRGB"><feFlood flood-opacity="0" result="BackgroundImageFix"/><feBlend in="SourceGraphic" in2="BackgroundImageFix" result="shape"/><feGaussianBlur stdDeviation="65.461" result="effect1_foregroundBlur_42_832"/></filter><filter id="filter35_f_42_832" x="934.65" y="1539.58" width="879.783" height="906.694" filterUnits="userSpaceOnUse" color-interpolation-filters="sRGB"><feFlood flood-opacity="0" result="BackgroundImageFix"/><feBlend in="SourceGraphic" in2="BackgroundImageFix" result="shape"/><feGaussianBlur stdDeviation="114.999" result="effect1_foregroundBlur_42_832"/></filter><filter id="filter36_f_42_832" x="1472.55" y="1871.18" width="344.093" height="274.232" filterUnits="userSpaceOnUse" color-interpolation-filters="sRGB"><feFlood flood-opacity="0" result="BackgroundImageFix"/><feBlend in="SourceGraphic" in2="BackgroundImageFix" result="shape"/><feGaussianBlur stdDeviation="3.538" result="effect1_foregroundBlur_42_832"/></filter><filter id="filter37_f_42_832" x="1453.63" y="1859.99" width="379.477" height="309.616" filterUnits="userSpaceOnUse" color-interpolation-filters="sRGB"><feFlood flood-opacity="0" result="BackgroundImageFix"/><feBlend in="SourceGraphic" in2="BackgroundImageFix" result="shape"/><feGaussianBlur stdDeviation="12.384" result="effect1_foregroundBlur_42_832"/></filter><filter id="filter38_f_42_832" x="1414.88" y="1841.98" width="450.276" height="381.44" filterUnits="userSpaceOnUse" color-interpolation-filters="sRGB"><feFlood flood-opacity="0" result="BackgroundImageFix"/><feBlend in="SourceGraphic" in2="BackgroundImageFix" result="shape"/><feGaussianBlur stdDeviation="30.077" result="effect1_foregroundBlur_42_832"/></filter><filter id="filter39_f_42_832" x="1334.07" y="1825.43" width="591.784" height="521.923" filterUnits="userSpaceOnUse" color-interpolation-filters="sRGB"><feFlood flood-opacity="0" result="BackgroundImageFix"/><feBlend in="SourceGraphic" in2="BackgroundImageFix" result="shape"/><feGaussianBlur stdDeviation="65.461" result="effect1_foregroundBlur_42_832"/></filter><filter id="filter40_f_42_832" x="1247.1" y="1800.09" width="738.514" height="717.946" filterUnits="userSpaceOnUse" color-interpolation-filters="sRGB"><feFlood flood-opacity="0" result="BackgroundImageFix"/><feBlend in="SourceGraphic" in2="BackgroundImageFix" result="shape"/><feGaussianBlur stdDeviation="114.999" result="effect1_foregroundBlur_42_832"/></filter><linearGradient id="paint0_linear_42_832" x1="2274.08" y1="1822.14" x2="2274.08" y2="855.875" gradientUnits="userSpaceOnUse"><stop stop-color="#fff"/><stop offset="1" stop-color="#fff" stop-opacity="0"/></linearGradient><linearGradient id="paint1_linear_42_832" x1="3227.51" y1="2338.12" x2="3227.51" y2="1371.86" gradientUnits="userSpaceOnUse"><stop stop-color="#fff"/><stop offset="1" stop-color="#fff" stop-opacity="0"/></linearGradient><linearGradient id="paint2_linear_42_832" x1="2911.92" y1="3395.48" x2="2911.92" y2="2225.28" gradientUnits="userSpaceOnUse"><stop stop-color="#fff"/><stop offset="1" stop-color="#fff" stop-opacity="0"/></linearGradient><linearGradient id="paint3_linear_42_832" x1="749.694" y1="692.361" x2="749.694" y2="0" gradientUnits="userSpaceOnUse"><stop stop-color="#fff"/><stop offset="1" stop-color="#fff" stop-opacity="0"/></linearGradient><linearGradient id="paint4_linear_42_832" x1="1713.06" y1="1839.61" x2="1713.06" y2="811.306" gradientUnits="userSpaceOnUse"><stop stop-color="#fff"/><stop offset="1" stop-color="#fff" stop-opacity="0"/></linearGradient><linearGradient id="paint5_linear_42_832" x1="1177.04" y1="2288.37" x2="1177.04" y2="1651.49" gradientUnits="userSpaceOnUse"><stop stop-color="#fff"/><stop offset="1" stop-color="#fff" stop-opacity="0"/></linearGradient><linearGradient id="paint6_linear_42_832" x1="1711.44" y1="3179.41" x2="1711.44" y2="2451.56" gradientUnits="userSpaceOnUse"><stop stop-color="#fff"/><stop offset="1" stop-color="#fff" stop-opacity="0"/></linearGradient><linearGradient id="paint7_linear_42_832" x1="2127.19" y1="2860.87" x2="2127.19" y2="2410.08" gradientUnits="userSpaceOnUse"><stop stop-color="#fff"/><stop offset="1" stop-color="#fff" stop-opacity="0"/></linearGradient></defs></svg>