<svg width="190" height="190" fill="none" xmlns="http://www.w3.org/2000/svg"><rect width="190" height="190" rx="6" fill="#F6F7FB"/><path fill-rule="evenodd" clip-rule="evenodd" d="M15 109.08a4 4 0 014-4h152a4 4 0 014 4v7a4 4 0 01-4 4H19a4 4 0 01-4-4v-7z" fill="#fff" stroke="#DAE4ED" stroke-width="1.5"/><rect x="135" y="105.08" width="40" height="15" rx="4" fill="#2C7BE5"/><path fill-rule="evenodd" clip-rule="evenodd" d="M90.577 82.623a4.118 4.118 0 01-.93-1.4 4.273 4.273 0 01-.31-1.59c0-.541.103-1.075.31-1.601.206-.527.516-.997.93-1.41.413-.414.88-.72 1.4-.921a4.422 4.422 0 013.201 0c.52.2.987.507 1.4.92.414.414.724.884.93 1.41.208.527.311 1.061.311 1.601s-.103 1.07-.31 1.59c-.207.52-.517.988-.93 1.401-.414.414-.88.724-1.4.93a4.3 4.3 0 01-3.202 0 4.117 4.117 0 01-1.4-.93zm-2.401-8.402a7.433 7.433 0 00-1.68 2.53 7.716 7.716 0 00-.56 2.871c0 .974.186 1.93.56 2.871.373.94.933 1.784 1.68 2.53a7.462 7.462 0 002 1.441c.734.36 1.494.6 2.281.72a7.44 7.44 0 002.371-.02 7.664 7.664 0 002.27-.76l4.501 4.5c.2.2.42.347.66.44.24.094.49.14.75.14s.511-.046.751-.14c.24-.093.46-.24.66-.44s.347-.42.44-.66c.093-.24.14-.49.14-.75s-.047-.51-.14-.75c-.093-.24-.24-.46-.44-.66l-4.38-4.38a7.35 7.35 0 00.98-2.361 7.69 7.69 0 00-.53-4.971 7.444 7.444 0 00-1.51-2.151 7.579 7.579 0 00-2.531-1.66A7.716 7.716 0 0093.578 72c-.974 0-1.931.187-2.871.56a7.576 7.576 0 00-2.531 1.66z" fill="#BFD4E4"/><path d="M0 6a6 6 0 016-6h178a6 6 0 016 6v14H0V6z" fill="#DDEAF3"/><path fill-rule="evenodd" clip-rule="evenodd" d="M10.5 14a3.5 3.5 0 100-7 3.5 3.5 0 000 7zm10 0a3.5 3.5 0 100-7 3.5 3.5 0 000 7zM34 10.5a3.5 3.5 0 11-7 0 3.5 3.5 0 017 0z" fill="#F6F7FB"/></svg>