<svg width="190" height="190" fill="none" xmlns="http://www.w3.org/2000/svg"><rect width="190" height="190" rx="6" fill="#F6F7FB"/><rect x="15" y="35" width="80" height="140" rx="4" fill="#BFD4E4"/><rect x="30" y="60" width="50" height="10" rx="2" fill="#F6F7FB"/><path fill-rule="evenodd" clip-rule="evenodd" d="M45 47a2 2 0 012-2h16a2 2 0 012 2v6a2 2 0 01-2 2H47a2 2 0 01-2-2v-6zm0 53a2 2 0 012-2h31a2 2 0 012 2v6a2 2 0 01-2 2H47a2 2 0 01-2-2v-6zm-10-7a5 5 0 100-10 5 5 0 000 10zm0 15a5 5 0 100-10 5 5 0 000 10zm0 15a5 5 0 100-10 5 5 0 000 10zm10-8a2 2 0 012-2h31a2 2 0 012 2v6a2 2 0 01-2 2H47a2 2 0 01-2-2v-6zm-10 23a5 5 0 100-10 5 5 0 000 10zm10-8a2 2 0 012-2h31a2 2 0 012 2v6a2 2 0 01-2 2H47a2 2 0 01-2-2v-6zm0-45a2 2 0 012-2h31a2 2 0 012 2v6a2 2 0 01-2 2H47a2 2 0 01-2-2v-6z" fill="#DDEAF3"/><path fill-rule="evenodd" clip-rule="evenodd" d="M30 154a4 4 0 014-4h42a4 4 0 014 4v7a4 4 0 01-4 4H34a4 4 0 01-4-4v-7z" fill="#2C7BE5"/><rect x="100" y="35" width="80" height="140" rx="4" fill="#fff" stroke="#DAE4ED" stroke-width="1.5"/><rect x="115" y="60" width="50" height="10" rx="2" fill="#DDEAF3"/><path fill-rule="evenodd" clip-rule="evenodd" d="M130 47a2 2 0 012-2h16a2 2 0 012 2v6a2 2 0 01-2 2h-16a2 2 0 01-2-2v-6z" fill="#BFD4E4"/><path fill-rule="evenodd" clip-rule="evenodd" d="M130 100a2 2 0 012-2h31a2 2 0 012 2v6a2 2 0 01-2 2h-31a2 2 0 01-2-2v-6zm-10-7a5 5 0 100-10 5 5 0 000 10zm0 15a5 5 0 10-.001-10.001A5 5 0 00120 108zm0 15a5 5 0 10-.001-10.001A5 5 0 00120 123zm10-8a2 2 0 012-2h31a2 2 0 012 2v6a2 2 0 01-2 2h-31a2 2 0 01-2-2v-6zm-10 23a5 5 0 10-.001-10.001A5 5 0 00120 138zm10-8a2 2 0 012-2h31a2 2 0 012 2v6a2 2 0 01-2 2h-31a2 2 0 01-2-2v-6zm0-45a2 2 0 012-2h31a2 2 0 012 2v6a2 2 0 01-2 2h-31a2 2 0 01-2-2v-6z" fill="#DDEAF3"/><path fill-rule="evenodd" clip-rule="evenodd" d="M115 154a4 4 0 014-4h42a4 4 0 014 4v7a4 4 0 01-4 4h-42a4 4 0 01-4-4v-7z" fill="#2C7BE5"/><path d="M0 6a6 6 0 016-6h178a6 6 0 016 6v14H0V6z" fill="#DDEAF3"/><path fill-rule="evenodd" clip-rule="evenodd" d="M10.5 14a3.5 3.5 0 100-7 3.5 3.5 0 000 7zm10 0a3.5 3.5 0 100-7 3.5 3.5 0 000 7zM34 10.5a3.5 3.5 0 11-7 0 3.5 3.5 0 017 0z" fill="#F6F7FB"/></svg>