<svg width="190" height="190" fill="none" xmlns="http://www.w3.org/2000/svg"><rect width="190" height="190" rx="6" fill="#F6F7FB"/><rect x="70" y="30" width="50" height="58" rx="4" fill="#BFD4E4"/><path fill-rule="evenodd" clip-rule="evenodd" d="M95 76c-9.389 0-17-7.611-17-17s7.611-17 17-17 17 7.611 17 17-7.611 17-17 17zm0-2c8.284 0 15-6.716 15-15 0-8.284-6.716-15-15-15-8.284 0-15 6.716-15 15 0 8.284 6.716 15 15 15z" fill="#DDEAF3"/><path fill-rule="evenodd" clip-rule="evenodd" d="M78 59c0 9.389 7.611 17 17 17s17-7.611 17-17-7.611-17-17-17a1 1 0 100 2c8.284 0 15 6.716 15 15 0 8.284-6.716 15-15 15-8.284 0-15-6.716-15-15a1 1 0 10-2 0z" fill="#DDEAF3"/><rect x="90" y="54" width="10" height="10" rx="2" fill="#F6F7FB"/><rect x="130" y="30" width="50" height="58" rx="4" fill="#BFD4E4"/><path fill-rule="evenodd" clip-rule="evenodd" d="M155 76c-9.389 0-17-7.611-17-17s7.611-17 17-17 17 7.611 17 17-7.611 17-17 17zm0-2c8.284 0 15-6.716 15-15 0-8.284-6.716-15-15-15-8.284 0-15 6.716-15 15 0 8.284 6.716 15 15 15z" fill="#DDEAF3"/><path fill-rule="evenodd" clip-rule="evenodd" d="M155 76c9.389 0 17-7.611 17-17s-7.611-17-17-17a1 1 0 000 2c8.284 0 15 6.716 15 15 0 8.284-6.716 15-15 15a1 1 0 000 2z" fill="#DDEAF3"/><rect x="150" y="54" width="10" height="10" rx="2" fill="#F6F7FB"/><rect x="10" y="30" width="50" height="58" rx="4" fill="#BFD4E4"/><path fill-rule="evenodd" clip-rule="evenodd" d="M17 56a2 2 0 012-2h31a2 2 0 012 2v6a2 2 0 01-2 2H19a2 2 0 01-2-2v-6zm0 15a2 2 0 012-2h23.097a2 2 0 012 2v6a2 2 0 01-2 2H19a2 2 0 01-2-2v-6zm0-30a2 2 0 012-2h15.301a2 2 0 012 2v6a2 2 0 01-2 2H19a2 2 0 01-2-2v-6z" fill="#DDEAF3"/><path fill-rule="evenodd" clip-rule="evenodd" d="M180 177H10s5.824-36.282 24-36.282c18.176 0 12.928 17.282 31 17.282s9.121-35 25-35 8 27.405 23 27.405S133 89 150 111s8.617 39.405 18.239 39.405C177.862 150.405 180 177 180 177z" fill="#BFD4E4"/><path fill-rule="evenodd" clip-rule="evenodd" d="M34.5 145a4.5 4.5 0 100-9 4.5 4.5 0 000 9z" fill="#DDEAF3"/><path fill-rule="evenodd" clip-rule="evenodd" d="M26 116a2 2 0 00-2 2v6a2 2 0 002 2h6.772l.936 1.214a1 1 0 001.584 0l.936-1.214H62a2 2 0 002-2v-6a2 2 0 00-2-2H26z" fill="#BFD4E4"/><path d="M0 6a6 6 0 016-6h178a6 6 0 016 6v14H0V6z" fill="#DDEAF3"/><path fill-rule="evenodd" clip-rule="evenodd" d="M10.5 14a3.5 3.5 0 100-7 3.5 3.5 0 000 7zm10 0a3.5 3.5 0 100-7 3.5 3.5 0 000 7zM34 10.5a3.5 3.5 0 11-7 0 3.5 3.5 0 017 0z" fill="#F6F7FB"/></svg>