<svg width="190" height="190" fill="none" xmlns="http://www.w3.org/2000/svg"><rect width="190" height="190" rx="6" fill="#F6F7FB"/><path fill-rule="evenodd" clip-rule="evenodd" d="M94 36a1 1 0 112 0v138a1 1 0 01-2 0V36z" fill="#DDEAF3"/><path fill-rule="evenodd" clip-rule="evenodd" d="M95 55a4 4 0 100-8 4 4 0 000 8zm0 45a4 4 0 100-8 4 4 0 000 8zm0 46a4 4 0 100-8 4 4 0 000 8z" fill="#DDEAF3"/><path fill-rule="evenodd" clip-rule="evenodd" d="M14 40a4 4 0 00-4 4v31a4 4 0 004 4h60a4 4 0 004-4V61.98l3.195-2.662a1 1 0 000-1.536L78 55.119V44a4 4 0 00-4-4H14z" fill="#BFD4E4"/><path fill-rule="evenodd" clip-rule="evenodd" d="M17 49a2 2 0 012-2h49.479a2 2 0 012 2v6a2 2 0 01-2 2H19a2 2 0 01-2-2v-6zm0 15a2 2 0 012-2h26a2 2 0 012 2v6a2 2 0 01-2 2H19a2 2 0 01-2-2v-6z" fill="#DDEAF3"/><path fill-rule="evenodd" clip-rule="evenodd" d="M14 124a4 4 0 00-4 4v31a4 4 0 004 4h60a4 4 0 004-4v-13.019l3.195-2.663a1 1 0 000-1.536L78 139.119V128a4 4 0 00-4-4H14z" fill="#BFD4E4"/><path fill-rule="evenodd" clip-rule="evenodd" d="M17 133a2 2 0 012-2h49.479a2 2 0 012 2v6a2 2 0 01-2 2H19a2 2 0 01-2-2v-6zm0 15a2 2 0 012-2h26a2 2 0 012 2v6a2 2 0 01-2 2H19a2 2 0 01-2-2v-6z" fill="#DDEAF3"/><path fill-rule="evenodd" clip-rule="evenodd" d="M175 123a4 4 0 004-4V88a4 4 0 00-4-4h-60a4 4 0 00-4 4v11.084l-3.178 2.648a1 1 0 000 1.536l3.178 2.648V119a4 4 0 004 4h60z" fill="#BFD4E4"/><path fill-rule="evenodd" clip-rule="evenodd" d="M159 114a2 2 0 01-2 2h-36a2 2 0 01-2-2v-6a2 2 0 012-2h36a2 2 0 012 2v6zm13-15a2 2 0 01-2 2h-49.479a2 2 0 01-2-2v-6a2 2 0 012-2H170a2 2 0 012 2v6z" fill="#DDEAF3"/><path d="M0 6a6 6 0 016-6h178a6 6 0 016 6v14H0V6z" fill="#DDEAF3"/><path fill-rule="evenodd" clip-rule="evenodd" d="M10.5 14a3.5 3.5 0 100-7 3.5 3.5 0 000 7zm10 0a3.5 3.5 0 100-7 3.5 3.5 0 000 7zM34 10.5a3.5 3.5 0 11-7 0 3.5 3.5 0 017 0z" fill="#F6F7FB"/></svg>