<svg width="1920" height="3371" fill="none" xmlns="http://www.w3.org/2000/svg"><g filter="url(#filter0_f_42_920)"><g opacity=".4"><mask id="a" style="mask-type:alpha" maskUnits="userSpaceOnUse" x="-189" y="1034" width="1548" height="1531"><path transform="rotate(47.828 710.512 1034.57)" fill="url(#paint0_linear_42_920)" d="M710.512 1034.57h965.079v1213.44H710.512z"/></mask><g mask="url(#a)"><path d="M693.458 2176.66c-145.712 132-370.839 120.88-502.835-24.84-131.996-145.71-120.877-370.83 24.835-502.83 145.711-132 174.496 56.98 306.492 202.7 131.996 145.71 317.219 192.97 171.508 324.97z" fill="#579AFF"/><g filter="url(#filter1_f_42_920)"><path d="M688.195 2181.42c-112.793 102.18-311.234 66.89-443.231-78.82-131.996-145.72-147.562-346.67-34.769-448.85 112.794-102.17 311.235-66.88 443.231 78.83 131.996 145.71 147.563 346.67 34.769 448.84z" fill="#579AFF"/></g><g filter="url(#filter2_f_42_920)"><ellipse cx="459.71" cy="1908.06" rx="355.991" ry="275.568" transform="rotate(47.828 459.71 1908.06)" fill="#579AFF"/></g><g filter="url(#filter3_f_42_920)"><ellipse cx="488.641" cy="1881.86" rx="355.991" ry="276.75" transform="rotate(47.828 488.641 1881.86)" fill="#579AFF"/></g><g filter="url(#filter4_f_42_920)"><ellipse cx="575.415" cy="1803.25" rx="355.991" ry="275.568" transform="rotate(47.828 575.415 1803.25)" fill="#579AFF"/></g><g filter="url(#filter5_f_42_920)"><ellipse cx="692.868" cy="1696.85" rx="299.222" ry="275.568" transform="rotate(47.828 692.868 1696.85)" fill="#579AFF"/></g></g><mask id="b" style="mask-type:alpha" maskUnits="userSpaceOnUse" x="-2" y="1488" width="1441" height="1275"><path transform="rotate(106.739 1438.34 1838.03)" fill="url(#paint1_linear_42_920)" d="M1438.34 1838.03h965.079v1213.44H1438.34z"/></mask><g mask="url(#b)"><path d="M451.479 2413.16c-188.277-56.63-295.003-255.16-238.377-443.44 56.625-188.28 255.159-295 443.436-238.38 188.278 56.63 41.305 178.86-15.321 367.14-56.625 188.28-1.46 371.3-189.738 314.68z" fill="#FF4DED"/><g filter="url(#filter6_f_42_920)"><path d="M444.683 2411.11c-145.743-43.83-217.987-231.99-161.361-420.27 56.625-188.28 220.677-305.37 366.42-261.54 145.743 43.83 217.987 232 161.362 420.27-56.626 188.28-220.678 305.38-366.421 261.54z" fill="#FF4DED"/></g><g filter="url(#filter7_f_42_920)"><ellipse cx="560.806" cy="2074.29" rx="355.991" ry="275.568" transform="rotate(106.739 560.806 2074.29)" fill="#FF4DED"/></g><g filter="url(#filter8_f_42_920)"><ellipse cx="598.178" cy="2085.53" rx="355.991" ry="276.75" transform="rotate(106.739 598.178 2085.53)" fill="#FF4DED"/></g><g filter="url(#filter9_f_42_920)"><ellipse cx="710.305" cy="2119.26" rx="355.991" ry="275.568" transform="rotate(106.739 710.305 2119.26)" fill="#FF4DED"/></g><g filter="url(#filter10_f_42_920)"><ellipse cx="862.071" cy="2164.9" rx="299.222" ry="275.568" transform="rotate(106.739 862.071 2164.9)" fill="#FF4DED"/></g></g></g><g opacity=".4"><mask id="c" style="mask-type:alpha" maskUnits="userSpaceOnUse" x="-26" y="1586" width="1278" height="1356"><path transform="rotate(137.943 1251.98 2677.21)" fill="url(#paint2_linear_42_920)" d="M1251.98 2677.21h394.765v1469.55H1251.98z"/></mask><g mask="url(#c)"><path d="M366.096 2205.19c-159.499-176.79-240.393-363.77-180.681-417.65 59.712-53.87 237.417 45.77 396.916 222.56 159.499 176.78 25.473 125.56-34.239 179.43-59.712 53.87-22.497 192.44-181.996 15.66z" fill="#57AEFF"/><g filter="url(#filter11_f_42_920)"><path d="M360.337 2198.8c-123.466-136.84-175.149-291.45-115.437-345.33 59.712-53.87 208.207 13.39 331.673 150.24 123.466 136.85 175.149 291.46 115.437 345.33-59.712 53.88-208.207-13.39-331.673-150.24z" fill="#57AEFF"/></g><g filter="url(#filter12_f_42_920)"><ellipse cx="479.967" cy="2114.02" rx="145.618" ry="333.728" transform="rotate(137.943 479.967 2114.02)" fill="#57AEFF"/></g><g filter="url(#filter13_f_42_920)"><ellipse cx="511.633" cy="2149.12" rx="145.618" ry="335.16" transform="rotate(137.943 511.633 2149.12)" fill="#57AEFF"/></g><g filter="url(#filter14_f_42_920)"><ellipse cx="606.618" cy="2254.4" rx="145.618" ry="333.728" transform="rotate(137.943 606.618 2254.4)" fill="#57AEFF"/></g><g filter="url(#filter15_f_42_920)"><ellipse cx="735.186" cy="2396.9" rx="122.397" ry="333.728" transform="rotate(137.943 735.186 2396.9)" fill="#57AEFF"/></g></g><mask id="d" style="mask-type:alpha" maskUnits="userSpaceOnUse" x="-92" y="1519" width="1015" height="1456"><path transform="matrix(-.80465 -.59376 -.22129 -.9752 922.723 2974.26)" fill="url(#paint3_linear_42_920)" d="M0 0h1021.29v869.477H0z"/></mask><g mask="url(#d)"><path d="M87.91 1904.68c-31.224-137.42 79.187-148.65 246.61-25.07 167.423 123.58 328.458 335.16 359.682 472.58 31.224 137.42-121.261-36.53-288.684-160.11-167.423-123.57-286.385-149.98-317.609-287.4z" fill="#4A46FF"/><g filter="url(#filter16_f_42_920)"><path d="M86.782 1899.72c-24.17-106.38 91.96-92.44 259.383 31.14s322.74 309.99 346.91 416.37c24.169 106.37-91.96 92.43-259.383-31.15-167.424-123.58-322.74-309.99-346.91-416.36z" fill="#4A46FF"/></g><g filter="url(#filter17_f_42_920)"><ellipse cx="376.724" cy="197.454" rx="376.724" ry="197.454" transform="matrix(-.80469 -.59395 -.22164 -.97547 739.094 2549.76)" fill="#4A46FF"/></g><g filter="url(#filter18_f_42_920)"><ellipse cx="376.724" cy="198.302" rx="376.724" ry="198.302" transform="matrix(-.80469 -.59395 -.22164 -.97547 745.478 2577.86)" fill="#4A46FF"/></g><g filter="url(#filter19_f_42_920)"><ellipse cx="376.724" cy="197.454" rx="376.724" ry="197.454" transform="matrix(-.80469 -.59395 -.22164 -.97547 763.886 2658.87)" fill="#4A46FF"/></g><g filter="url(#filter20_f_42_920)"><ellipse cx="316.649" cy="197.454" rx="316.649" ry="197.454" transform="matrix(-.80469 -.59395 -.22164 -.97547 740.712 2733.96)" fill="#4A46FF"/></g></g></g><g opacity=".4"><mask id="e" style="mask-type:alpha" maskUnits="userSpaceOnUse" x="-273" y="791" width="1396" height="1558"><path transform="rotate(19.27 153.272 791.016)" fill="url(#paint4_linear_42_920)" d="M153.272 791.016h1027.05v1291.36H153.272z"/></mask><g mask="url(#e)"><path d="M718.344 1867.24c-69.052 197.51-285.143 301.65-482.653 232.6-197.51-69.05-301.645-285.15-232.593-482.66 69.052-197.5 192.098-35.5 389.607 33.55 197.51 69.05 394.691 19.01 325.639 216.51z" fill="#2C67FF"/><g filter="url(#filter21_f_42_920)"><path d="M715.858 1874.37c-53.453 152.89-256.898 220.86-454.407 151.8C63.941 1957.12-52.84 1777.2.612 1624.31c53.452-152.89 256.897-220.85 454.407-151.8 197.51 69.05 314.291 248.97 260.839 401.86z" fill="#2C67FF"/></g><g filter="url(#filter22_f_42_920)"><ellipse cx="363.216" cy="1735.09" rx="378.849" ry="293.262" transform="rotate(19.27 363.216 1735.09)" fill="#2C67FF"/></g><g filter="url(#filter23_f_42_920)"><ellipse cx="376.924" cy="1695.88" rx="378.849" ry="294.52" transform="rotate(19.27 376.924 1695.88)" fill="#2C67FF"/></g><g filter="url(#filter24_f_42_920)"><ellipse cx="418.048" cy="1578.26" rx="378.849" ry="293.262" transform="rotate(19.27 418.048 1578.26)" fill="#2C67FF"/></g><g filter="url(#filter25_f_42_920)"><ellipse cx="473.708" cy="1419.05" rx="318.435" ry="293.262" transform="rotate(19.27 473.708 1419.05)" fill="#2C67FF"/></g></g><mask id="f" style="mask-type:alpha" maskUnits="userSpaceOnUse" x="-361" y="1094" width="1001" height="1023"><path transform="rotate(-39.641 -360.782 1500.72)" fill="url(#paint5_linear_42_920)" d="M-360.782 1500.72h636.095v799.795h-636.095z"/></mask><g mask="url(#f)"><path d="M390.748 1545.2c82.674 99.79 68.799 247.71-30.99 330.38-99.789 82.67-247.705 68.8-330.378-30.99-82.673-99.79 42.601-113.24 142.391-195.92 99.789-82.67 136.304-203.26 218.977-103.47z" fill="#094EFF"/><g filter="url(#filter26_f_42_920)"><path d="M393.732 1548.8c63.997 77.25 34.981 206.89-64.808 289.56-99.789 82.68-232.564 87.08-296.56 9.83-63.996-77.24-34.98-206.88 64.809-289.56 99.789-82.67 232.563-87.07 296.559-9.83z" fill="#094EFF"/></g><g filter="url(#filter27_f_42_920)"><ellipse cx="207.083" cy="1691.29" rx="234.638" ry="181.63" transform="rotate(-39.641 207.083 1691.29)" fill="#094EFF"/></g><g filter="url(#filter28_f_42_920)"><ellipse cx="190.666" cy="1671.48" rx="234.638" ry="182.409" transform="rotate(-39.641 190.666 1671.48)" fill="#094EFF"/></g><g filter="url(#filter29_f_42_920)"><ellipse cx="141.435" cy="1612.06" rx="234.638" ry="181.63" transform="rotate(-39.641 141.435 1612.06)" fill="#094EFF"/></g><g filter="url(#filter30_f_42_920)"><ellipse cx="74.794" cy="1531.62" rx="197.22" ry="181.63" transform="rotate(-39.641 74.794 1531.62)" fill="#094EFF"/></g></g></g><g opacity=".4"><mask id="g" style="mask-type:alpha" maskUnits="userSpaceOnUse" x="-200" y="1666" width="929" height="745"><path transform="rotate(-91.075 -185.478 2410.74)" fill="url(#paint6_linear_42_920)" d="M-185.478 2410.74h726.957v914.042h-726.957z"/></mask><g mask="url(#g)"><path d="M389.715 1770.88c148.071-2.78 270.358 115 273.136 263.08 2.777 148.07-115.008 270.36-263.079 273.13-148.072 2.78-70.837-118.75-73.614-266.82-2.778-148.07-84.515-266.62 63.557-269.39z" fill="#06F"/><g filter="url(#filter31_f_42_920)"><path d="M395.058 1770.77c114.62-2.15 209.789 116.15 212.567 264.22 2.777 148.07-87.89 269.85-202.51 272-114.62 2.15-209.79-116.14-212.567-264.22-2.777-148.07 87.89-269.85 202.51-272z" fill="#06F"/></g><g filter="url(#filter32_f_42_920)"><ellipse cx="389.399" cy="2039.08" rx="268.154" ry="207.575" transform="rotate(-91.075 389.399 2039.08)" fill="#06F"/></g><g filter="url(#filter33_f_42_920)"><ellipse cx="360.007" cy="2039.63" rx="268.154" ry="208.466" transform="rotate(-91.075 360.007 2039.63)" fill="#06F"/></g><g filter="url(#filter34_f_42_920)"><ellipse cx="271.823" cy="2041.29" rx="268.154" ry="207.575" transform="rotate(-91.075 271.823 2041.29)" fill="#06F"/></g><g filter="url(#filter35_f_42_920)"><ellipse cx="152.466" cy="2043.53" rx="225.392" ry="207.575" transform="rotate(-91.075 152.466 2043.53)" fill="#06F"/></g></g><mask id="h" style="mask-type:alpha" maskUnits="userSpaceOnUse" x="22" y="1861" width="674" height="717"><path transform="rotate(-149.986 412.027 2577.24)" fill="url(#paint7_linear_42_920)" d="M412.027 2577.24h450.236v566.106H412.027z"/></mask><g mask="url(#h)"><path d="M256.604 2067.54c45.881-79.42 147.46-106.61 226.884-60.73 79.423 45.88 106.615 147.46 60.734 226.88-45.881 79.42-85.638-.4-165.061-46.29-79.424-45.88-168.438-40.44-122.557-119.86z" fill="#096BFF"/><g filter="url(#filter36_f_42_920)"><path d="M258.26 2064.67c35.516-61.48 128.693-74.12 208.117-28.24 79.423 45.88 115.017 132.91 79.501 194.39-35.516 61.48-128.692 74.13-208.116 28.25-79.423-45.88-115.018-132.92-79.502-194.4z" fill="#096BFF"/></g><g filter="url(#filter37_f_42_920)"><ellipse cx="398.757" cy="2153.48" rx="166.08" ry="128.56" transform="rotate(-149.986 398.757 2153.48)" fill="#096BFF"/></g><g filter="url(#filter38_f_42_920)"><ellipse cx="389.649" cy="2169.25" rx="166.08" ry="129.112" transform="rotate(-149.986 389.649 2169.25)" fill="#096BFF"/></g><g filter="url(#filter39_f_42_920)"><ellipse cx="362.325" cy="2216.55" rx="166.08" ry="128.56" transform="rotate(-149.986 362.325 2216.55)" fill="#096BFF"/></g><g filter="url(#filter40_f_42_920)"><ellipse cx="325.342" cy="2280.57" rx="139.595" ry="128.56" transform="rotate(-149.986 325.342 2280.57)" fill="#096BFF"/></g></g></g></g><defs><filter id="filter0_f_42_920" x="-316.244" y="922.86" width="1656" height="1935.11" filterUnits="userSpaceOnUse" color-interpolation-filters="sRGB"><feFlood flood-opacity="0" result="BackgroundImageFix"/><feBlend in="SourceGraphic" in2="BackgroundImageFix" result="shape"/><feGaussianBlur stdDeviation="100" result="effect1_foregroundBlur_42_920"/></filter><filter id="filter1_f_42_920" x="128.706" y="1589.22" width="640.978" height="656.745" filterUnits="userSpaceOnUse" color-interpolation-filters="sRGB"><feFlood flood-opacity="0" result="BackgroundImageFix"/><feBlend in="SourceGraphic" in2="BackgroundImageFix" result="shape"/><feGaussianBlur stdDeviation="3.054" result="effect1_foregroundBlur_42_920"/></filter><filter id="filter2_f_42_920" x="123.949" y="1564.42" width="671.523" height="687.29" filterUnits="userSpaceOnUse" color-interpolation-filters="sRGB"><feFlood flood-opacity="0" result="BackgroundImageFix"/><feBlend in="SourceGraphic" in2="BackgroundImageFix" result="shape"/><feGaussianBlur stdDeviation="10.691" result="effect1_foregroundBlur_42_920"/></filter><filter id="filter3_f_42_920" x="121.764" y="1507.21" width="733.753" height="749.292" filterUnits="userSpaceOnUse" color-interpolation-filters="sRGB"><feFlood flood-opacity="0" result="BackgroundImageFix"/><feBlend in="SourceGraphic" in2="BackgroundImageFix" result="shape"/><feGaussianBlur stdDeviation="25.963" result="effect1_foregroundBlur_42_920"/></filter><filter id="filter4_f_42_920" x="148.018" y="1367.97" width="854.793" height="870.56" filterUnits="userSpaceOnUse" color-interpolation-filters="sRGB"><feFlood flood-opacity="0" result="BackgroundImageFix"/><feBlend in="SourceGraphic" in2="BackgroundImageFix" result="shape"/><feGaussianBlur stdDeviation="56.508" result="effect1_foregroundBlur_42_920"/></filter><filter id="filter5_f_42_920" x="207.855" y="1209.5" width="970.028" height="974.699" filterUnits="userSpaceOnUse" color-interpolation-filters="sRGB"><feFlood flood-opacity="0" result="BackgroundImageFix"/><feBlend in="SourceGraphic" in2="BackgroundImageFix" result="shape"/><feGaussianBlur stdDeviation="99.271" result="effect1_foregroundBlur_42_920"/></filter><filter id="filter6_f_42_920" x="257.918" y="1714" width="578.589" height="712.421" filterUnits="userSpaceOnUse" color-interpolation-filters="sRGB"><feFlood flood-opacity="0" result="BackgroundImageFix"/><feBlend in="SourceGraphic" in2="BackgroundImageFix" result="shape"/><feGaussianBlur stdDeviation="3.054" result="effect1_foregroundBlur_42_920"/></filter><filter id="filter7_f_42_920" x="256.239" y="1702.81" width="609.134" height="742.966" filterUnits="userSpaceOnUse" color-interpolation-filters="sRGB"><feFlood flood-opacity="0" result="BackgroundImageFix"/><feBlend in="SourceGraphic" in2="BackgroundImageFix" result="shape"/><feGaussianBlur stdDeviation="10.691" result="effect1_foregroundBlur_42_920"/></filter><filter id="filter8_f_42_920" x="262.01" y="1683.43" width="672.336" height="804.211" filterUnits="userSpaceOnUse" color-interpolation-filters="sRGB"><feFlood flood-opacity="0" result="BackgroundImageFix"/><feBlend in="SourceGraphic" in2="BackgroundImageFix" result="shape"/><feGaussianBlur stdDeviation="25.963" result="effect1_foregroundBlur_42_920"/></filter><filter id="filter9_f_42_920" x="314.103" y="1656.14" width="792.404" height="926.236" filterUnits="userSpaceOnUse" color-interpolation-filters="sRGB"><feFlood flood-opacity="0" result="BackgroundImageFix"/><feBlend in="SourceGraphic" in2="BackgroundImageFix" result="shape"/><feGaussianBlur stdDeviation="56.508" result="effect1_foregroundBlur_42_920"/></filter><filter id="filter10_f_42_920" x="385.847" y="1668.95" width="952.448" height="991.899" filterUnits="userSpaceOnUse" color-interpolation-filters="sRGB"><feFlood flood-opacity="0" result="BackgroundImageFix"/><feBlend in="SourceGraphic" in2="BackgroundImageFix" result="shape"/><feGaussianBlur stdDeviation="99.271" result="effect1_foregroundBlur_42_920"/></filter><filter id="filter11_f_42_920" x="215.793" y="1830.61" width="505.323" height="541.286" filterUnits="userSpaceOnUse" color-interpolation-filters="sRGB"><feFlood flood-opacity="0" result="BackgroundImageFix"/><feBlend in="SourceGraphic" in2="BackgroundImageFix" result="shape"/><feGaussianBlur stdDeviation="2.139" result="effect1_foregroundBlur_42_920"/></filter><filter id="filter12_f_42_920" x="216.61" y="1832.68" width="526.713" height="562.676" filterUnits="userSpaceOnUse" color-interpolation-filters="sRGB"><feFlood flood-opacity="0" result="BackgroundImageFix"/><feBlend in="SourceGraphic" in2="BackgroundImageFix" result="shape"/><feGaussianBlur stdDeviation="7.486" result="effect1_foregroundBlur_42_920"/></filter><filter id="filter13_f_42_920" x="226.022" y="1845.4" width="571.221" height="607.435" filterUnits="userSpaceOnUse" color-interpolation-filters="sRGB"><feFlood flood-opacity="0" result="BackgroundImageFix"/><feBlend in="SourceGraphic" in2="BackgroundImageFix" result="shape"/><feGaussianBlur stdDeviation="18.181" result="effect1_foregroundBlur_42_920"/></filter><filter id="filter14_f_42_920" x="279.092" y="1908.89" width="655.05" height="691.013" filterUnits="userSpaceOnUse" color-interpolation-filters="sRGB"><feFlood flood-opacity="0" result="BackgroundImageFix"/><feBlend in="SourceGraphic" in2="BackgroundImageFix" result="shape"/><feGaussianBlur stdDeviation="39.571" result="effect1_foregroundBlur_42_920"/></filter><filter id="filter15_f_42_920" x="354.77" y="1996.8" width="760.832" height="800.201" filterUnits="userSpaceOnUse" color-interpolation-filters="sRGB"><feFlood flood-opacity="0" result="BackgroundImageFix"/><feBlend in="SourceGraphic" in2="BackgroundImageFix" result="shape"/><feGaussianBlur stdDeviation="69.516" result="effect1_foregroundBlur_42_920"/></filter><filter id="filter16_f_42_920" x="79.322" y="1823.95" width="621.213" height="599.04" filterUnits="userSpaceOnUse" color-interpolation-filters="sRGB"><feFlood flood-opacity="0" result="BackgroundImageFix"/><feBlend in="SourceGraphic" in2="BackgroundImageFix" result="shape"/><feGaussianBlur stdDeviation="2.139" result="effect1_foregroundBlur_42_920"/></filter><filter id="filter17_f_42_920" x="70.883" y="1823.18" width="642.603" height="620.43" filterUnits="userSpaceOnUse" color-interpolation-filters="sRGB"><feFlood flood-opacity="0" result="BackgroundImageFix"/><feBlend in="SourceGraphic" in2="BackgroundImageFix" result="shape"/><feGaussianBlur stdDeviation="7.486" result="effect1_foregroundBlur_42_920"/></filter><filter id="filter18_f_42_920" x="55.662" y="1828.53" width="685.436" height="664.288" filterUnits="userSpaceOnUse" color-interpolation-filters="sRGB"><feFlood flood-opacity="0" result="BackgroundImageFix"/><feBlend in="SourceGraphic" in2="BackgroundImageFix" result="shape"/><feGaussianBlur stdDeviation="18.181" result="effect1_foregroundBlur_42_920"/></filter><filter id="filter19_f_42_920" x="31.506" y="1868.13" width="770.94" height="748.767" filterUnits="userSpaceOnUse" color-interpolation-filters="sRGB"><feFlood flood-opacity="0" result="BackgroundImageFix"/><feBlend in="SourceGraphic" in2="BackgroundImageFix" result="shape"/><feGaussianBlur stdDeviation="39.571" result="effect1_foregroundBlur_42_920"/></filter><filter id="filter20_f_42_920" x="44.536" y="1945.05" width="795.218" height="816.47" filterUnits="userSpaceOnUse" color-interpolation-filters="sRGB"><feFlood flood-opacity="0" result="BackgroundImageFix"/><feBlend in="SourceGraphic" in2="BackgroundImageFix" result="shape"/><feGaussianBlur stdDeviation="69.516" result="effect1_foregroundBlur_42_920"/></filter><filter id="filter21_f_42_920" x="-19.422" y="1438.44" width="755.314" height="621.816" filterUnits="userSpaceOnUse" color-interpolation-filters="sRGB"><feFlood flood-opacity="0" result="BackgroundImageFix"/><feBlend in="SourceGraphic" in2="BackgroundImageFix" result="shape"/><feGaussianBlur stdDeviation="3.538" result="effect1_foregroundBlur_42_920"/></filter><filter id="filter22_f_42_920" x="-32.134" y="1406.49" width="790.699" height="657.2" filterUnits="userSpaceOnUse" color-interpolation-filters="sRGB"><feFlood flood-opacity="0" result="BackgroundImageFix"/><feBlend in="SourceGraphic" in2="BackgroundImageFix" result="shape"/><feGaussianBlur stdDeviation="12.384" result="effect1_foregroundBlur_42_920"/></filter><filter id="filter23_f_42_920" x="-53.919" y="1330.81" width="861.686" height="730.136" filterUnits="userSpaceOnUse" color-interpolation-filters="sRGB"><feFlood flood-opacity="0" result="BackgroundImageFix"/><feBlend in="SourceGraphic" in2="BackgroundImageFix" result="shape"/><feGaussianBlur stdDeviation="30.077" result="effect1_foregroundBlur_42_920"/></filter><filter id="filter24_f_42_920" x="-83.454" y="1143.5" width="1003.01" height="869.507" filterUnits="userSpaceOnUse" color-interpolation-filters="sRGB"><feFlood flood-opacity="0" result="BackgroundImageFix"/><feBlend in="SourceGraphic" in2="BackgroundImageFix" result="shape"/><feGaussianBlur stdDeviation="65.461" result="effect1_foregroundBlur_42_920"/></filter><filter id="filter25_f_42_920" x="-72.166" y="892.862" width="1091.75" height="1052.37" filterUnits="userSpaceOnUse" color-interpolation-filters="sRGB"><feFlood flood-opacity="0" result="BackgroundImageFix"/><feBlend in="SourceGraphic" in2="BackgroundImageFix" result="shape"/><feGaussianBlur stdDeviation="114.999" result="effect1_foregroundBlur_42_920"/></filter><filter id="filter26_f_42_920" x="-8.703" y="1486.55" width="443.503" height="423.888" filterUnits="userSpaceOnUse" color-interpolation-filters="sRGB"><feFlood flood-opacity="0" result="BackgroundImageFix"/><feBlend in="SourceGraphic" in2="BackgroundImageFix" result="shape"/><feGaussianBlur stdDeviation="3.538" result="effect1_foregroundBlur_42_920"/></filter><filter id="filter27_f_42_920" x="-32.361" y="1461.66" width="478.888" height="459.273" filterUnits="userSpaceOnUse" color-interpolation-filters="sRGB"><feFlood flood-opacity="0" result="BackgroundImageFix"/><feBlend in="SourceGraphic" in2="BackgroundImageFix" result="shape"/><feGaussianBlur stdDeviation="12.384" result="effect1_foregroundBlur_42_920"/></filter><filter id="filter28_f_42_920" x="-84.43" y="1406.05" width="550.194" height="530.863" filterUnits="userSpaceOnUse" color-interpolation-filters="sRGB"><feFlood flood-opacity="0" result="BackgroundImageFix"/><feBlend in="SourceGraphic" in2="BackgroundImageFix" result="shape"/><feGaussianBlur stdDeviation="30.077" result="effect1_foregroundBlur_42_920"/></filter><filter id="filter29_f_42_920" x="-204.162" y="1276.27" width="691.194" height="671.579" filterUnits="userSpaceOnUse" color-interpolation-filters="sRGB"><feFlood flood-opacity="0" result="BackgroundImageFix"/><feBlend in="SourceGraphic" in2="BackgroundImageFix" result="shape"/><feGaussianBlur stdDeviation="65.461" result="effect1_foregroundBlur_42_920"/></filter><filter id="filter30_f_42_920" x="-346.243" y="1113.49" width="842.074" height="836.263" filterUnits="userSpaceOnUse" color-interpolation-filters="sRGB"><feFlood flood-opacity="0" result="BackgroundImageFix"/><feBlend in="SourceGraphic" in2="BackgroundImageFix" result="shape"/><feGaussianBlur stdDeviation="114.999" result="effect1_foregroundBlur_42_920"/></filter><filter id="filter31_f_42_920" x="185.409" y="1763.67" width="429.355" height="550.426" filterUnits="userSpaceOnUse" color-interpolation-filters="sRGB"><feFlood flood-opacity="0" result="BackgroundImageFix"/><feBlend in="SourceGraphic" in2="BackgroundImageFix" result="shape"/><feGaussianBlur stdDeviation="3.538" result="effect1_foregroundBlur_42_920"/></filter><filter id="filter32_f_42_920" x="157.029" y="1746.18" width="464.739" height="585.811" filterUnits="userSpaceOnUse" color-interpolation-filters="sRGB"><feFlood flood-opacity="0" result="BackgroundImageFix"/><feBlend in="SourceGraphic" in2="BackgroundImageFix" result="shape"/><feGaussianBlur stdDeviation="12.384" result="effect1_foregroundBlur_42_920"/></filter><filter id="filter33_f_42_920" x="91.363" y="1711.34" width="537.289" height="656.58" filterUnits="userSpaceOnUse" color-interpolation-filters="sRGB"><feFlood flood-opacity="0" result="BackgroundImageFix"/><feBlend in="SourceGraphic" in2="BackgroundImageFix" result="shape"/><feGaussianBlur stdDeviation="30.077" result="effect1_foregroundBlur_42_920"/></filter><filter id="filter34_f_42_920" x="-66.699" y="1642.23" width="677.045" height="798.117" filterUnits="userSpaceOnUse" color-interpolation-filters="sRGB"><feFlood flood-opacity="0" result="BackgroundImageFix"/><feBlend in="SourceGraphic" in2="BackgroundImageFix" result="shape"/><feGaussianBlur stdDeviation="65.461" result="effect1_foregroundBlur_42_920"/></filter><filter id="filter35_f_42_920" x="-285.114" y="1588.14" width="875.162" height="910.771" filterUnits="userSpaceOnUse" color-interpolation-filters="sRGB"><feFlood flood-opacity="0" result="BackgroundImageFix"/><feBlend in="SourceGraphic" in2="BackgroundImageFix" result="shape"/><feGaussianBlur stdDeviation="114.999" result="effect1_foregroundBlur_42_920"/></filter><filter id="filter36_f_42_920" x="237.421" y="2001.76" width="329.297" height="291.975" filterUnits="userSpaceOnUse" color-interpolation-filters="sRGB"><feFlood flood-opacity="0" result="BackgroundImageFix"/><feBlend in="SourceGraphic" in2="BackgroundImageFix" result="shape"/><feGaussianBlur stdDeviation="3.538" result="effect1_foregroundBlur_42_920"/></filter><filter id="filter37_f_42_920" x="216.416" y="1989.8" width="364.681" height="327.359" filterUnits="userSpaceOnUse" color-interpolation-filters="sRGB"><feFlood flood-opacity="0" result="BackgroundImageFix"/><feBlend in="SourceGraphic" in2="BackgroundImageFix" result="shape"/><feGaussianBlur stdDeviation="12.384" result="effect1_foregroundBlur_42_920"/></filter><filter id="filter38_f_42_920" x="171.811" y="1969.8" width="435.676" height="398.894" filterUnits="userSpaceOnUse" color-interpolation-filters="sRGB"><feFlood flood-opacity="0" result="BackgroundImageFix"/><feBlend in="SourceGraphic" in2="BackgroundImageFix" result="shape"/><feGaussianBlur stdDeviation="30.077" result="effect1_foregroundBlur_42_920"/></filter><filter id="filter39_f_42_920" x="73.831" y="1946.71" width="576.988" height="539.666" filterUnits="userSpaceOnUse" color-interpolation-filters="sRGB"><feFlood flood-opacity="0" result="BackgroundImageFix"/><feBlend in="SourceGraphic" in2="BackgroundImageFix" result="shape"/><feGaussianBlur stdDeviation="65.461" result="effect1_foregroundBlur_42_920"/></filter><filter id="filter40_f_42_920" x="-41.601" y="1919.14" width="733.887" height="722.848" filterUnits="userSpaceOnUse" color-interpolation-filters="sRGB"><feFlood flood-opacity="0" result="BackgroundImageFix"/><feBlend in="SourceGraphic" in2="BackgroundImageFix" result="shape"/><feGaussianBlur stdDeviation="114.999" result="effect1_foregroundBlur_42_920"/></filter><linearGradient id="paint0_linear_42_920" x1="1418.95" y1="2000.83" x2="1418.95" y2="1034.57" gradientUnits="userSpaceOnUse"><stop stop-color="#fff"/><stop offset="1" stop-color="#fff" stop-opacity="0"/></linearGradient><linearGradient id="paint1_linear_42_920" x1="2146.77" y1="2804.29" x2="2146.77" y2="1838.03" gradientUnits="userSpaceOnUse"><stop stop-color="#fff"/><stop offset="1" stop-color="#fff" stop-opacity="0"/></linearGradient><linearGradient id="paint2_linear_42_920" x1="1541.76" y1="3847.41" x2="1541.76" y2="2677.21" gradientUnits="userSpaceOnUse"><stop stop-color="#fff"/><stop offset="1" stop-color="#fff" stop-opacity="0"/></linearGradient><linearGradient id="paint3_linear_42_920" x1="749.694" y1="692.361" x2="749.694" y2="0" gradientUnits="userSpaceOnUse"><stop stop-color="#fff"/><stop offset="1" stop-color="#fff" stop-opacity="0"/></linearGradient><linearGradient id="paint4_linear_42_920" x1="907.194" y1="1819.32" x2="907.194" y2="791.016" gradientUnits="userSpaceOnUse"><stop stop-color="#fff"/><stop offset="1" stop-color="#fff" stop-opacity="0"/></linearGradient><linearGradient id="paint5_linear_42_920" x1="106.155" y1="2137.6" x2="106.155" y2="1500.72" gradientUnits="userSpaceOnUse"><stop stop-color="#fff"/><stop offset="1" stop-color="#fff" stop-opacity="0"/></linearGradient><linearGradient id="paint6_linear_42_920" x1="348.158" y1="3138.59" x2="348.158" y2="2410.74" gradientUnits="userSpaceOnUse"><stop stop-color="#fff"/><stop offset="1" stop-color="#fff" stop-opacity="0"/></linearGradient><linearGradient id="paint7_linear_42_920" x1="742.531" y1="3028.03" x2="742.531" y2="2577.24" gradientUnits="userSpaceOnUse"><stop stop-color="#fff"/><stop offset="1" stop-color="#fff" stop-opacity="0"/></linearGradient></defs></svg>