<svg width="1383" height="800" fill="none" xmlns="http://www.w3.org/2000/svg"><g opacity=".4"><mask id="a" style="mask-type:alpha" maskUnits="userSpaceOnUse" x="-321" y="-462" width="1138" height="1378"><path transform="rotate(174.912 816.875 824.91)" fill="url(#paint0_linear_45_2843)" d="M816.875 824.91h1027.05v1291.36H816.875z"/></mask><g mask="url(#a)"><path d="M-141.777 77.54c-18.555-208.41 135.35-392.4 343.759-410.955C410.39-351.97 594.38-198.064 612.936 10.344c18.555 208.408-160.354 111.575-368.762 130.131C35.766 159.03-123.221 285.947-141.777 77.539z" fill="#2C67FF"/><g filter="url(#filter0_f_45_2843)"><path d="M-142.452 70.02C-156.816-91.308.488-237.13 208.897-255.686c208.408-18.555 389 97.183 403.363 258.51 14.364 161.325-142.94 307.148-351.348 325.703-208.409 18.556-389.001-97.183-403.364-258.509z" fill="#2C67FF"/></g><g filter="url(#filter1_f_45_2843)"><ellipse cx="236.247" cy="51.464" rx="378.849" ry="293.262" transform="rotate(174.912 236.247 51.464)" fill="#2C67FF"/></g><g filter="url(#filter2_f_45_2843)"><ellipse cx="239.928" cy="92.833" rx="378.849" ry="294.52" transform="rotate(174.912 239.928 92.833)" fill="#2C67FF"/></g><g filter="url(#filter3_f_45_2843)"><ellipse cx="250.979" cy="216.949" rx="378.849" ry="293.262" transform="rotate(174.912 250.979 216.949)" fill="#2C67FF"/></g><g filter="url(#filter4_f_45_2843)"><ellipse cx="265.937" cy="384.943" rx="318.435" ry="293.262" transform="rotate(174.912 265.937 384.943)" fill="#2C67FF"/></g></g><mask id="b" style="mask-type:alpha" maskUnits="userSpaceOnUse" x="-6" y="-385" width="999" height="924"><path transform="rotate(116.001 992.458 -33.64)" fill="url(#paint1_linear_45_2843)" d="M992.458-33.641h636.095v799.795H992.458z"/></mask><g mask="url(#b)"><path d="M289.481 235.802C173.01 178.994 124.644 38.522 181.453-77.948c56.808-116.472 197.279-164.838 313.75-108.029 116.472 56.808 7.897 120.732-48.912 237.203s-40.338 241.385-156.81 184.576z" fill="#094EFF"/><g filter="url(#filter5_f_45_2843)"><path d="M285.277 233.751c-90.159-43.975-117.194-174.042-60.386-290.513C281.7-173.233 400.84-232.003 490.999-188.029c90.159 43.975 117.195 174.042 60.386 290.514-56.809 116.471-175.949 175.241-266.108 131.266z" fill="#094EFF"/></g><g filter="url(#filter6_f_45_2843)"><ellipse cx="396.543" cy="26.963" rx="234.638" ry="181.63" transform="rotate(116.001 396.543 26.963)" fill="#094EFF"/></g><g filter="url(#filter7_f_45_2843)"><ellipse cx="419.669" cy="38.239" rx="234.638" ry="182.409" transform="rotate(116.001 419.669 38.24)" fill="#094EFF"/></g><g filter="url(#filter8_f_45_2843)"><ellipse cx="489.029" cy="72.071" rx="234.638" ry="181.63" transform="rotate(116.001 489.029 72.071)" fill="#094EFF"/></g><g filter="url(#filter9_f_45_2843)"><ellipse cx="582.912" cy="117.863" rx="197.22" ry="181.63" transform="rotate(116.001 582.912 117.863)" fill="#094EFF"/></g></g></g><defs><filter id="filter0_f_45_2843" x="-150.439" y="-264.715" width="770.687" height="602.273" filterUnits="userSpaceOnUse" color-interpolation-filters="sRGB"><feFlood flood-opacity="0" result="BackgroundImageFix"/><feBlend in="SourceGraphic" in2="BackgroundImageFix" result="shape"/><feGaussianBlur stdDeviation="3.538" result="effect1_foregroundBlur_45_2843"/></filter><filter id="filter1_f_45_2843" x="-166.789" y="-267.365" width="806.071" height="637.657" filterUnits="userSpaceOnUse" color-interpolation-filters="sRGB"><feFlood flood-opacity="0" result="BackgroundImageFix"/><feBlend in="SourceGraphic" in2="BackgroundImageFix" result="shape"/><feGaussianBlur stdDeviation="12.384" result="effect1_foregroundBlur_45_2843"/></filter><filter id="filter2_f_45_2843" x="-198.5" y="-262.625" width="876.856" height="710.916" filterUnits="userSpaceOnUse" color-interpolation-filters="sRGB"><feFlood flood-opacity="0" result="BackgroundImageFix"/><feBlend in="SourceGraphic" in2="BackgroundImageFix" result="shape"/><feGaussianBlur stdDeviation="30.077" result="effect1_foregroundBlur_45_2843"/></filter><filter id="filter3_f_45_2843" x="-258.21" y="-208.033" width="1018.38" height="849.964" filterUnits="userSpaceOnUse" color-interpolation-filters="sRGB"><feFlood flood-opacity="0" result="BackgroundImageFix"/><feBlend in="SourceGraphic" in2="BackgroundImageFix" result="shape"/><feGaussianBlur stdDeviation="65.461" result="effect1_foregroundBlur_45_2843"/></filter><filter id="filter4_f_45_2843" x="-282.323" y="-138.545" width="1096.52" height="1046.97" filterUnits="userSpaceOnUse" color-interpolation-filters="sRGB"><feFlood flood-opacity="0" result="BackgroundImageFix"/><feBlend in="SourceGraphic" in2="BackgroundImageFix" result="shape"/><feGaussianBlur stdDeviation="114.999" result="effect1_foregroundBlur_45_2843"/></filter><filter id="filter5_f_45_2843" x="188.085" y="-209.697" width="400.105" height="465.117" filterUnits="userSpaceOnUse" color-interpolation-filters="sRGB"><feFlood flood-opacity="0" result="BackgroundImageFix"/><feBlend in="SourceGraphic" in2="BackgroundImageFix" result="shape"/><feGaussianBlur stdDeviation="3.538" result="effect1_foregroundBlur_45_2843"/></filter><filter id="filter6_f_45_2843" x="178.799" y="-223.288" width="435.49" height="500.501" filterUnits="userSpaceOnUse" color-interpolation-filters="sRGB"><feFlood flood-opacity="0" result="BackgroundImageFix"/><feBlend in="SourceGraphic" in2="BackgroundImageFix" result="shape"/><feGaussianBlur stdDeviation="12.384" result="effect1_foregroundBlur_45_2843"/></filter><filter id="filter7_f_45_2843" x="165.946" y="-247.517" width="507.446" height="571.512" filterUnits="userSpaceOnUse" color-interpolation-filters="sRGB"><feFlood flood-opacity="0" result="BackgroundImageFix"/><feBlend in="SourceGraphic" in2="BackgroundImageFix" result="shape"/><feGaussianBlur stdDeviation="30.077" result="effect1_foregroundBlur_45_2843"/></filter><filter id="filter8_f_45_2843" x="165.131" y="-284.332" width="647.796" height="712.807" filterUnits="userSpaceOnUse" color-interpolation-filters="sRGB"><feFlood flood-opacity="0" result="BackgroundImageFix"/><feBlend in="SourceGraphic" in2="BackgroundImageFix" result="shape"/><feGaussianBlur stdDeviation="65.461" result="effect1_foregroundBlur_45_2843"/></filter><filter id="filter9_f_45_2843" x="168.149" y="-306.505" width="829.528" height="848.737" filterUnits="userSpaceOnUse" color-interpolation-filters="sRGB"><feFlood flood-opacity="0" result="BackgroundImageFix"/><feBlend in="SourceGraphic" in2="BackgroundImageFix" result="shape"/><feGaussianBlur stdDeviation="114.999" result="effect1_foregroundBlur_45_2843"/></filter><linearGradient id="paint0_linear_45_2843" x1="1570.8" y1="1853.21" x2="1570.8" y2="824.91" gradientUnits="userSpaceOnUse"><stop stop-color="#fff"/><stop offset="1" stop-color="#fff" stop-opacity="0"/></linearGradient><linearGradient id="paint1_linear_45_2843" x1="1459.4" y1="603.234" x2="1459.4" y2="-33.641" gradientUnits="userSpaceOnUse"><stop stop-color="#fff"/><stop offset="1" stop-color="#fff" stop-opacity="0"/></linearGradient></defs></svg>