<svg width="40" height="40" fill="none" xmlns="http://www.w3.org/2000/svg"><g clip-path="url(#clip0_45_3186)"><path d="M3.934 9.18H2.623A2.623 2.623 0 000 11.803v20.983a2.623 2.623 0 002.623 2.623h34.098a2.623 2.623 0 002.623-2.623V11.803a2.623 2.623 0 00-2.623-2.623H3.934z" fill="#8C95A4"/><path d="M2.623 9.18h34.098a2.623 2.623 0 012.623 2.623v19.672H0V11.803A2.623 2.623 0 012.623 9.18z" fill="#39C3FC"/><path d="M0 30.164h39.344v1.311H0v-1.31z" fill="#148CE0"/><path d="M12.459 35.41h14.426v3.935H12.46V35.41z" fill="#798699"/><path d="M3.934 0H35.41v28.852H3.934V0z" fill="#ECECEC"/><path d="M27.803 26.282a7.946 7.946 0 00-.57-1.364l1.252-2.105-2.787-2.787-2.091 1.265a7.942 7.942 0 00-1.351-.57l-.617-2.36h-3.934l-.603 2.36a8.02 8.02 0 00-1.351.57l-2.105-1.252-2.787 2.787 1.252 2.092a7.957 7.957 0 00-.57 1.35l-2.36.617v1.967h6.557a3.935 3.935 0 117.869 0h6.557v-1.967l-2.36-.603z" fill="#FEA82F"/><path d="M19.672 22.295a6.557 6.557 0 00-6.557 6.557h2.623a3.934 3.934 0 117.869 0h2.623a6.558 6.558 0 00-6.558-6.557z" fill="#FFC729"/><path d="M3.934 0H35.41v5.246H3.934V0z" fill="#FB5968"/><path d="M3.934 3.28H35.41v1.967H3.934V3.279z" fill="#CD2C5A"/><path d="M6.557 3.278a.656.656 0 100-1.311.656.656 0 000 1.311zm2.623 0a.656.656 0 100-1.311.656.656 0 000 1.311zm2.623 0a.656.656 0 100-1.311.656.656 0 000 1.311zM22.95 15.081a.656.656 0 01-.36-1.2l3.115-2.078-3.115-2.079a.656.656 0 01.721-1.089l3.935 2.623a.656.656 0 010 1.089l-3.934 2.623a.616.616 0 01-.361.111zm-6.557 0a.616.616 0 01-.36-.111l-3.935-2.623a.656.656 0 010-1.089l3.935-2.623a.656.656 0 01.721 1.089l-3.115 2.079 3.115 2.078a.656.656 0 01-.36 1.2zm1.968 1.312a.657.657 0 01-.623-.866l2.623-7.869a.658.658 0 011.245.42l-2.622 7.869a.656.656 0 01-.623.446z" fill="#31353D"/><path d="M29.508 40H9.836a.656.656 0 010-1.312h19.672a.656.656 0 010 1.312z" fill="#8C95A4"/><path d="M1.967 13.114a.656.656 0 100-1.311.656.656 0 000 1.311zm0 9.836a.656.656 0 01-.655-.655V15.08a.656.656 0 011.311 0v7.214a.656.656 0 01-.656.655z" fill="#fff"/></g><defs><clipPath id="clip0_45_3186"><path fill="#fff" d="M0 0h40v40H0z"/></clipPath></defs></svg>