<svg width="40" height="40" fill="none" xmlns="http://www.w3.org/2000/svg"><g clip-path="url(#clip0_45_3152)" fill-rule="evenodd" clip-rule="evenodd"><path d="M3.398 31.705a.764.764 0 01-.773-.328L.094 27.206a.73.73 0 01.258-.985l2.718-1.64a.633.633 0 01.539-.093.708.708 0 01.445.328l2.53 4.147a.778.778 0 01.071.563.776.776 0 01-.328.445l-2.718 1.64a.833.833 0 01-.211.094z" fill="#FBA617"/><path d="M1.617 25.448l1.453-.867a.633.633 0 01.539-.093.708.708 0 01.445.328l2.53 4.147a.778.778 0 01.071.563.776.776 0 01-.328.445l-1.43.867-3.28-5.39z" fill="#FB9515"/><path d="M34.751 24.488h-.07L13.497 26.83a.756.756 0 01-.703-.351L9.14 20.457a.751.751 0 01.023-.797L20.996 1.97a.747.747 0 01.633-.328.69.69 0 01.585.351l12.935 21.3c.07.094.141.211.164.329.07.398-.164.773-.562.843v.024z" fill="#FBA617"/><path d="M15.653 26.596l-2.156.234a.757.757 0 01-.703-.351L9.14 20.456a.751.751 0 01.023-.796l1.195-1.781c.047.07.118.14.164.21l4.992 8.25c.046.07.093.163.14.257z" fill="#FB9515"/><path d="M14.247 38.734c-.281.047-.61-.07-.75-.351l-4.803-7.897a.717.717 0 01.234-.984l2.671-1.64a.732.732 0 01.54-.071.708.708 0 01.445.328l4.803 7.897a.65.65 0 01.094.539.708.708 0 01-.328.445l-2.671 1.64c-.07.047-.164.07-.235.094z" fill="#E1474F"/><path d="M9.56 31.915l-.866-1.43a.717.717 0 01.234-.983l2.671-1.64a.732.732 0 01.54-.071.708.708 0 01.445.328l.89 1.43-3.913 2.366z" fill="#CB4047"/><path d="M7.334 32.103a.674.674 0 01-.304-.023.708.708 0 01-.445-.328l-4.992-8.225a.685.685 0 01-.093-.563.856.856 0 01.328-.445l6.889-4.17c.328-.212.773-.095.984.257l4.991 8.225a.745.745 0 01-.234 1.008l-6.89 4.17a.7.7 0 01-.234.094z" fill="#FEE14D"/><path d="M33.978 23.129c-.024.023-.047.023-.07.023l-4.195 1.687-10.99-19.05L21.44 1.71a.736.736 0 01.61-.328c.257 0 .468.14.609.351l11.716 20.223c.07.094.14.21.164.328.07.398-.164.773-.562.844z" fill="#FB9515"/><path d="M34.095 25.706a2.812 2.812 0 01-3.843-1.03L19.192 5.53a2.822 2.822 0 011.03-3.843 2.781 2.781 0 013.844 1.03l11.06 19.145c.797 1.336.328 3.07-1.031 3.843z" fill="#FEE14D"/><path d="M29.432 7.381a.684.684 0 01-.211-.046c-.234-.118-.328-.399-.211-.61l2.53-5.202a.502.502 0 01.633-.234.47.47 0 01.211.633L29.83 7.124a.433.433 0 01-.398.257zm10.1 7.874h-.024l-5.788-.375a.451.451 0 01-.422-.492.471.471 0 01.492-.445l5.765.398c.258 0 .445.234.445.492a.48.48 0 01-.469.422zm-8.272-3.75a.483.483 0 01-.399-.234c-.117-.234-.047-.515.164-.632l4.57-2.648a.488.488 0 01.632.164c.117.234.047.515-.164.632l-4.57 2.648a.452.452 0 01-.233.07z" fill="#CCC"/></g><defs><clipPath id="clip0_45_3152"><path fill="#fff" d="M0 0h40v40H0z"/></clipPath></defs></svg>