<svg width="40" height="40" fill="none" xmlns="http://www.w3.org/2000/svg"><g clip-path="url(#clip0_45_3213)"><path d="M39.767 22.72v-5.667l-4.816-2.28-.797-1.924 1.793-5.017-4.01-4.009-5.02 1.795-1.92-.796-2.28-4.82H17.05l-2.282 4.82-1.92.796L7.83 3.823l-4.01 4.01 1.794 5.017-.798 1.924L0 17.053v5.667L4.816 25l.797 1.924-1.793 5.017 4.01 4.009 5.017-1.793 1.924.797 2.28 4.816h5.666l2.28-4.816 1.924-.797 5.017 1.793 4.009-4.01-1.794-5.017.799-1.924 4.815-2.28zm-19.884 4.623a7.456 7.456 0 110-14.913 7.456 7.456 0 010 14.913z" fill="#FFCB5A"/><path d="M19.884 8.702c-6.177 0-11.185 5.008-11.185 11.185 0 6.177 5.008 11.184 11.185 11.184 6.176 0 11.184-5.007 11.184-11.184-.007-6.175-5.01-11.178-11.184-11.185zm0 18.64a7.456 7.456 0 110-14.911 7.456 7.456 0 010 14.912z" fill="#FBA61F"/><path d="M37.654 26.598l2.353-3.213-2.601-4.507-3.96.431-1.296-.745-1.607-3.648h-5.199l-1.608 3.645-1.298.745-3.957-.43-2.6 4.505 2.352 3.217v1.491l-2.351 3.216 2.6 4.504 3.958-.431 1.297.745 1.607 3.647h5.2l1.606-3.644 1.297-.746 3.959.43 2.6-4.502-2.352-3.22v-1.49zm-9.71 3.23a2.485 2.485 0 110-4.97 2.485 2.485 0 010 4.97z" fill="#77959E"/><path d="M27.944 32.314a4.97 4.97 0 110-9.942 4.97 4.97 0 010 9.942zm0-7.456a2.485 2.485 0 100 4.97 2.485 2.485 0 000-4.97z" fill="#62808C"/></g><defs><clipPath id="clip0_45_3213"><path fill="#fff" d="M0 0h40.007v40H0z"/></clipPath></defs></svg>