<svg width="40" height="40" fill="none" xmlns="http://www.w3.org/2000/svg"><g clip-path="url(#clip0_45_2944)"><path d="M20 40c11.046 0 20-8.954 20-20S31.046 0 20 0 0 8.954 0 20s8.954 20 20 20z" fill="#F90"/><path d="M20 35.06c8.317 0 15.06-6.743 15.06-15.06 0-8.318-6.743-15.06-15.06-15.06-8.318 0-15.06 6.742-15.06 15.06 0 8.317 6.742 15.06 15.06 15.06z" fill="#FFB039"/><path fill-rule="evenodd" clip-rule="evenodd" d="M20.06 8.574a1.085 1.085 0 011.085 1.085v1.345c2.543.44 4.638 2.397 4.638 4.988a1.084 1.084 0 11-2.169 0c0-1.462-1.434-2.912-3.554-2.912s-3.554 1.45-3.554 2.912 1.434 2.912 3.554 2.912c3.004 0 5.723 2.129 5.723 5.08 0 2.592-2.095 4.549-4.638 4.988v1.49a1.084 1.084 0 01-2.17 0v-1.49c-2.543-.44-4.638-2.396-4.638-4.987a1.084 1.084 0 012.169 0c0 1.462 1.434 2.912 3.554 2.912s3.554-1.45 3.554-2.912-1.434-2.912-3.554-2.912c-3.003 0-5.723-2.129-5.723-5.08 0-2.592 2.096-4.549 4.639-4.988V9.659a1.084 1.084 0 011.084-1.085z" fill="#fff"/></g><defs><clipPath id="clip0_45_2944"><path fill="#fff" d="M0 0h40v40H0z"/></clipPath></defs></svg>