<svg width="40" height="40" fill="none" xmlns="http://www.w3.org/2000/svg"><path d="M21.29 3.516v1.68l.585.742h1.875a.625.625 0 00.625-.625V3.438a.625.625 0 00-.625-.626h-1.875l-.586.704z" fill="#FF8086"/><path d="M20 2.813h1.875v3.124H20V2.813z" fill="#E5646E"/><path d="M20.625 9.688h-1.25V2.811a.625.625 0 111.25 0v6.876z" fill="#FFC269"/><path d="M36.469 14.063H3.53a.626.626 0 00-.57.37l-1.78 4.005 1.592.507h34.61l1.436-.508-1.779-4.003a.625.625 0 00-.571-.371z" fill="#FF8086"/><path d="M38.984 18.809l-.165-.372H1.181l-.165.372a.625.625 0 00.57.878h.289l.41.586H37.63l.495-.585h.288a.625.625 0 00.571-.88z" fill="#E5646E"/><path d="M38.125 37.187H2.63V20.312H10l10-9.088 10 9.088 8.125.625v16.25z" fill="#FFC269"/><path d="M16.25 29.688v6.25h7.5v-6.25a.624.624 0 00-.625-.625h-2.5l-.599.677-.651-.677h-2.5a.624.624 0 00-.625.625z" fill="#C38C66"/><path d="M19.375 29.063h1.25v6.25h-1.25v-6.25z" fill="#B57F5F"/><path d="M20 24.688a3.75 3.75 0 100-7.5 3.75 3.75 0 000 7.5z" fill="#FFF0AF"/><path d="M20 23.438a2.5 2.5 0 100-5 2.5 2.5 0 000 5z" fill="#fff"/><path d="M21.81 20.033a.626.626 0 00-.84-.28l-1.25.625-.345.56v1.25a.625.625 0 101.25 0v-.864l.904-.453a.623.623 0 00.28-.838z" fill="#857E87"/><path d="M15 35.313v1.874h10v-1.874a.624.624 0 00-.625-.626h-8.75a.624.624 0 00-.625.626z" fill="#C8C5C9"/><path d="M30 19.688l-10-10-10 10H1.875v17.5h1.25v-15c0-.69.56-1.25 1.25-1.25h6.25a1.875 1.875 0 001.326-.55L20 12.34l8.05 8.05a1.876 1.876 0 001.325.548h8.75v-1.25H30z" fill="#FFA95F"/><path d="M30 20.313a.622.622 0 01-.442-.184L20 10.571l-9.558 9.558a.625.625 0 11-.884-.883l10-10a.625.625 0 01.884 0l10 10A.624.624 0 0130 20.313z" fill="#DB4655"/><path d="M39.375 37.813H.625a.625.625 0 110-1.25h38.75a.625.625 0 110 1.25z" fill="#DAD8DB"/><path d="M5.625 32.188H12.5a.624.624 0 00.625-.626v-1.875a.624.624 0 00-.625-.625H9.375l-.651.443-.599-.442h-2.5a.625.625 0 00-.625.625v1.875a.625.625 0 00.625.625z" fill="#EDF4FF"/><path d="M5.625 30.313v-1.25H5a.625.625 0 00-.625.625v2.5a.625.625 0 00.625.624h3.125l.625-.36.625.36H12.5a.624.624 0 00.625-.624v-.626h-6.25c-.69 0-1.25-.56-1.25-1.25z" fill="#DBEAFF"/><path d="M8.72 31.934l-.595-.372v-2.5h1.25v2.5l-.654.372z" fill="#FFE09F"/><path d="M8.125 31.563h1.25v1.25h-1.25v-1.25z" fill="#FFC269"/><path d="M20 21.563a.625.625 0 100-1.25.625.625 0 000 1.25z" fill="#4B3F4E"/><path d="M5.625 25.938H12.5a.624.624 0 00.625-.625v-1.875a.624.624 0 00-.625-.625H9.375l-.651.442-.599-.442h-2.5a.625.625 0 00-.625.625v1.875a.625.625 0 00.625.625z" fill="#EDF4FF"/><path d="M5.625 24.063v-1.25H5a.625.625 0 00-.625.625v2.5a.625.625 0 00.625.625h3.125l.625-.362.625.361H12.5a.624.624 0 00.625-.625v-.625h-6.25c-.69 0-1.25-.56-1.25-1.25z" fill="#DBEAFF"/><path d="M8.72 25.684l-.595-.372v-2.5h1.25v2.5l-.654.372z" fill="#FFE09F"/><path d="M8.125 25.313h1.25v1.25h-1.25v-1.25z" fill="#FFC269"/><path d="M28.125 32.188H35a.624.624 0 00.625-.626v-1.875a.624.624 0 00-.625-.625h-3.125l-.651.443-.599-.442h-2.5a.624.624 0 00-.625.625v1.875a.624.624 0 00.625.625z" fill="#EDF4FF"/><path d="M28.125 30.313v-1.25H27.5a.624.624 0 00-.625.625v2.5a.624.624 0 00.625.624h3.125l.625-.36.625.36H35a.624.624 0 00.625-.624v-.626h-6.25c-.69 0-1.25-.56-1.25-1.25z" fill="#DBEAFF"/><path d="M31.22 31.934l-.595-.372v-2.5h1.25v2.5l-.654.372z" fill="#FFE09F"/><path d="M30.625 31.563h1.25v1.25h-1.25v-1.25z" fill="#FFC269"/><path d="M28.125 25.938H35a.624.624 0 00.625-.625v-1.875a.624.624 0 00-.625-.625h-3.125l-.651.442-.599-.442h-2.5a.624.624 0 00-.625.625v1.875a.624.624 0 00.625.625z" fill="#EDF4FF"/><path d="M28.125 24.063v-1.25H27.5a.624.624 0 00-.625.625v2.5a.624.624 0 00.625.625h3.125l.625-.362.625.361H35a.624.624 0 00.625-.625v-.625h-6.25c-.69 0-1.25-.56-1.25-1.25z" fill="#DBEAFF"/><path d="M31.22 25.684l-.595-.372v-2.5h1.25v2.5l-.654.372z" fill="#FFE09F"/><path d="M30.625 25.313h1.25v1.25h-1.25v-1.25z" fill="#FFC269"/></svg>