<svg width="40" height="40" fill="none" xmlns="http://www.w3.org/2000/svg"><g clip-path="url(#clip0_45_2902)"><path d="M16.068 23.284l-1.97-1.97L.682 33.696a2.124 2.124 0 103.002 3.002l12.383-13.414z" fill="#873F30"/><path d="M3.626 36.76a2.125 2.125 0 01-3.522-.848c.736.24 1.575.064 2.156-.516l.06-.063L14.703 21.92l1.365 1.364L3.685 36.697l-.06.062z" fill="#6C3328"/><path d="M18.008 16.645l-4.537 5.412 1.853 1.854 5.413-4.538-2.729-2.729z" fill="#873F30"/><path d="M18.008 16.645l-1.466 1.748.44.44a.83.83 0 010 1.173L14.2 22.787l1.123 1.123 5.413-4.537-2.729-2.729z" fill="#6C3328"/><path d="M14.222 24.958l-1.8-1.8a1.332 1.332 0 011.885-1.883l1.799 1.8a1.332 1.332 0 01-1.884 1.883z" fill="#BA5D4F"/><path d="M16.105 24.959a1.329 1.329 0 01-1.883 0l-1.364-1.364a1.323 1.323 0 00.942.39 1.325 1.325 0 00.941-.39c.521-.52.52-1.364 0-1.884l1.364 1.364c.52.52.521 1.363 0 1.884z" fill="#A34F41"/><path d="M20.36 4.273l3.994 3.996-6.272 6.272-3.995-3.995 6.272-6.273z" fill="#BA5D4F"/><path d="M26.833 23.298l-3.995-3.995 6.272-6.273 3.995 3.995-6.272 6.273z" fill="#A34F41"/><path d="M12.963 11.923l-.139-.139a1.348 1.348 0 010-1.906l6.866-6.865a1.348 1.348 0 011.905 0l.14.139a1.349 1.349 0 010 1.905l-6.866 6.866a1.348 1.348 0 01-1.906 0z" fill="#873F30"/><path d="M25.458 24.418l.139.139c.526.526 1.38.526 1.906 0l6.865-6.866a1.348 1.348 0 000-1.906l-.139-.138a1.348 1.348 0 00-1.905 0l-6.866 6.865a1.348 1.348 0 000 1.906z" fill="#6C3328"/><path d="M26.088 6.8l4.487 4.487-9.473 9.473-4.487-4.486L26.088 6.8z" fill="#FCC16D"/><path d="M18.828 18.495l9.473-9.473 2.27 2.271-9.472 9.473-2.27-2.27z" fill="#FCA62F"/><path d="M26.11 6.612l-1.1-.449a1.01 1.01 0 00-1.096.22l-7.719 7.72a1.01 1.01 0 00-.22 1.097l.449 1.099a.674.674 0 001.1.221l8.807-8.807a.674.674 0 00-.221-1.1z" fill="#873F30"/><path d="M30.768 11.27l.45 1.1a1.01 1.01 0 01-.221 1.097l-7.718 7.718a1.01 1.01 0 01-1.098.221l-1.099-.45a.674.674 0 01-.221-1.1l8.807-8.807a.674.674 0 011.1.222z" fill="#6C3328"/><path d="M34.838 32.873H18.472v-2.297c0-.474.384-.858.858-.858h14.65c.473 0 .858.384.858.858v2.297z" fill="#BA5D4F"/><path d="M34.837 30.576v2.297h-1.796v-2.297a.859.859 0 00-.858-.858h1.796c.474 0 .858.384.858.858z" fill="#A34F41"/><path d="M38.444 37.38H14.865a.859.859 0 01-.78-1.216l.833-1.82a4.434 4.434 0 014.031-2.587H34.36a4.434 4.434 0 014.031 2.587l.834 1.82a.859.859 0 01-.78 1.216z" fill="#873F30"/><path d="M38.445 37.38h-2.296a.858.858 0 00.78-1.215l-.833-1.82a4.435 4.435 0 00-4.03-2.588h2.294a4.435 4.435 0 014.032 2.587l.833 1.821a.858.858 0 01-.78 1.216z" fill="#6C3328"/><path d="M37.194 28.296a.595.595 0 01-.42-1.016l.644-.64a.595.595 0 01.839.844l-.644.64a.593.593 0 01-.419.172zm-1.877-1.33a.593.593 0 01-.577-.74l.223-.89a.595.595 0 011.154.29l-.223.89a.595.595 0 01-.577.45zm3.196 3.214a.594.594 0 01-.14-1.172l.891-.218a.594.594 0 11.283 1.155l-.892.218a.594.594 0 01-.142.017z" fill="#FCC16D"/></g><defs><clipPath id="clip0_45_2902"><path fill="#fff" d="M0 0h40v40H0z"/></clipPath></defs></svg>