<svg width="40" height="40" fill="none" xmlns="http://www.w3.org/2000/svg"><g clip-path="url(#clip0_45_2930)"><path d="M22.748 2.139h-5.496a.687.687 0 00-.687.687v2.06a.686.686 0 00.378.612l2.37 1.188v1.635a.689.689 0 00.309.57l1.14.763a1.373 1.373 0 01.612 1.148v.268a1.374 1.374 0 11-2.748 0v-.688h-1.374v.688a2.748 2.748 0 005.496 0v-.268a2.747 2.747 0 00-1.223-2.288l-.838-.563V6.686l2.37-1.188a.686.686 0 00.378-.611V2.826a.686.686 0 00-.687-.687zM22.06 4.46L20 5.49l-2.061-1.03v-.948h4.122v.948z" fill="#DE4C3C"/><path d="M38.995 23.043L20 13.22 1.005 23.043a.687.687 0 01-.926-.293l-.002-.002a.687.687 0 01.294-.926l.002-.002 19.31-9.988a.69.69 0 01.633 0l19.311 9.988c.338.174.47.588.297.926l-.001.002a.688.688 0 01-.926.297l-.002-.002z" fill="#126099"/><path d="M.077 22.746h39.846V37.86H.077V22.746z" fill="#FFA230"/><path d="M9.31 37.862h30.613V22.748h-5.757L9.31 37.862z" fill="#FA962A"/><path d="M19.31 24.808h1.375V35.8H19.31V24.808zm-3.434 0h1.374V35.8h-1.374V24.808zm-3.435 0h1.374V35.8H12.44V24.808zm-3.435 0h1.374V35.8H9.006V24.808zm-3.433 0h1.374V35.8H5.573V24.808zm-3.435 0h1.374V35.8H2.138V24.808zm34.348 0h1.374V35.8h-1.374V24.808zm-3.435 0h1.374V35.8H33.05V24.808zm-3.435 0h1.374V35.8h-1.374V24.808zm-3.435 0h1.374V35.8H26.18V24.808zm-3.435 0h1.374V35.8h-1.374V24.808z" fill="#F08222"/></g><defs><clipPath id="clip0_45_2930"><path fill="#fff" d="M0 0h40v40H0z"/></clipPath></defs></svg>