<svg width="40" height="40" fill="none" xmlns="http://www.w3.org/2000/svg"><path d="M28.934 15.553a1.055 1.055 0 00-1.291.746l-2.45 9.14a1.055 1.055 0 102.038.546l2.45-9.14a1.055 1.055 0 00-.747-1.291z" fill="#2D4860"/><path d="M29.736 16.86l5.542 1.486c-.202-1.54-1.207-2.845-2.678-3.239-1.112-.298-2.253-.011-3.152.679l4.057-4.057c-1.434-.595-3.066-.377-4.143.7-.814.814-1.136 1.945-.988 3.069-.434-1.047-1.279-1.866-2.39-2.164-1.472-.394-2.995.233-3.94 1.466l5.543 1.485c-1.123-.148-2.255.174-3.069.988-1.077 1.077-1.296 2.709-.7 4.143l4.843-4.843 1.773 6.616c1.233-.945 1.86-2.467 1.466-3.938-.298-1.113-1.117-1.957-2.164-2.39z" fill="#1299A0"/><path d="M34.379 29.294c-.078.035-.138.078-.21.115-.932.232-1.622.578-2.256.902-.987.504-1.84.94-3.65.94-1.813 0-2.665-.436-3.653-.94-1.073-.548-2.29-1.17-4.61-1.17v-7.32a17.553 17.553 0 0114.379 7.473z" fill="#F2A00F"/><path d="M5.621 29.294c.078.035.138.078.21.115.932.232 1.622.578 2.256.902.987.504 1.84.94 3.651.94 1.812 0 2.665-.436 3.652-.94 1.073-.548 2.29-1.17 4.61-1.17v-7.32a17.552 17.552 0 00-14.379 7.473z" fill="#FFB115"/><path d="M12.61 9.248l2.711 15.374a1.054 1.054 0 00.856-1.222l-2.345-13.297a1.054 1.054 0 00-1.221-.855z" fill="#36546B"/><path d="M15.321 24.621l-2.71-15.374a1.055 1.055 0 00-.856 1.222L14.1 23.766a1.055 1.055 0 001.221.855z" fill="#45617F"/><path d="M9.45 14.332c-.752 2.067-.72 4.09-.04 5.249l3.384-9.295c-1.267.451-2.591 1.98-3.344 4.046z" fill="#20ABB2"/><path d="M12.794 10.286c-2.24.097-4.243 1.379-4.995 3.445-.752 2.066-.043 4.336 1.612 5.85-.68-1.16-.713-3.182.04-5.249.752-2.066 2.076-3.595 3.343-4.046z" fill="#2AB7C6"/><path d="M17.32 12.945c1.413 1.684 2.075 3.596 1.832 4.918l-6.358-7.577c1.344-.01 3.112.974 4.525 2.659z" fill="#20ABB2"/><path d="M12.794 10.286c2.138-.675 4.458-.156 5.872 1.529 1.413 1.684 1.522 4.06.486 6.048.243-1.322-.42-3.234-1.833-4.918-1.413-1.685-3.18-2.668-4.525-2.659z" fill="#2AB7C6"/><path d="M7.618 9.413c-2.165.382-3.901 1.42-4.565 2.59l9.74-1.717c-1.023-.872-3.01-1.255-5.175-.873z" fill="#20ABB2"/><path d="M12.794 10.287C11.59 8.393 9.479 7.3 7.313 7.683c-2.166.382-3.776 2.131-4.26 4.321.664-1.17 2.4-2.208 4.565-2.59 2.166-.382 4.152 0 5.176.873z" fill="#2AB7C6"/><path d="M17.36 7.696c-2.166.382-3.902 1.421-4.566 2.59l9.74-1.717c-1.023-.872-3.01-1.254-5.175-.873z" fill="#20ABB2"/><path d="M22.535 8.569c-1.204-1.892-3.316-2.986-5.481-2.604-2.166.382-3.776 2.132-4.26 4.321.664-1.169 2.4-2.208 4.565-2.59 2.166-.381 4.152.001 5.176.873z" fill="#2AB7C6"/><path d="M10.961 5.368c-1.413-1.685-3.18-2.669-4.525-2.659l6.358 7.577c.243-1.322-.419-3.234-1.833-4.918z" fill="#20ABB2"/><path d="M12.794 10.286c1.037-1.989.928-4.364-.486-6.048-1.413-1.685-3.734-2.205-5.872-1.53 1.344-.009 3.112.975 4.525 2.66 1.414 1.684 2.076 3.596 1.833 4.918z" fill="#2AB7C6"/><path d="M20 33.36c2.32 0 3.537.621 4.61 1.17.988.503 1.84.939 3.652.939 1.811 0 2.664-.436 3.651-.94 1.074-.548 2.291-1.17 4.61-1.17a1.055 1.055 0 110 2.11c-1.811 0-2.664.435-3.65.939-1.075.548-2.292 1.17-4.61 1.17-2.32 0-3.538-.622-4.612-1.17-.987-.504-1.84-.94-3.65-.94L20 33.36z" fill="#0D8DCE"/><path d="M20 33.36c-2.32 0-3.537.621-4.61 1.17-.988.503-1.84.939-3.652.939s-2.664-.436-3.651-.94c-1.074-.548-2.291-1.17-4.61-1.17a1.055 1.055 0 100 2.11c1.811 0 2.664.435 3.65.939 1.075.548 2.292 1.17 4.611 1.17 2.32 0 3.537-.622 4.61-1.17.988-.504 1.84-.94 3.652-.94V33.36z" fill="#289FE8"/><path d="M20 29.14c2.32 0 3.537.622 4.61 1.17.988.505 1.84.94 3.652.94 1.811 0 2.664-.435 3.651-.94 1.074-.548 2.291-1.17 4.61-1.17a1.055 1.055 0 110 2.11c-1.811 0-2.664.435-3.65.94-1.075.548-2.292 1.17-4.61 1.17-2.32 0-3.538-.622-4.612-1.17-.987-.505-1.84-.94-3.65-.94L20 29.14z" fill="#0D8DCE"/><path d="M20 29.14c-2.32 0-3.537.622-4.61 1.17-.988.505-1.84.94-3.652.94s-2.664-.435-3.651-.94c-1.074-.548-2.291-1.17-4.61-1.17a1.055 1.055 0 100 2.11c1.811 0 2.664.435 3.65.94 1.075.548 2.292 1.17 4.611 1.17 2.32 0 3.537-.622 4.61-1.17.988-.505 1.84-.94 3.652-.94v-2.11z" fill="#289FE8"/></svg>