<svg width="40" height="40" fill="none" xmlns="http://www.w3.org/2000/svg"><g clip-path="url(#clip0_45_2964)"><path d="M18.839 35.74v.247a2.668 2.668 0 01-2.552 1.901 2.666 2.666 0 01-2.663-2.663 1.056 1.056 0 00-2.112 0A4.78 4.78 0 0016.287 40a4.78 4.78 0 004.27-2.64v-.275l-1.718-1.346z" fill="#707487"/><path d="M13.098 35.225c0-.267.1-.51.263-.696a1.056 1.056 0 00-1.849.696 4.78 4.78 0 005.57 4.708 4.782 4.782 0 01-3.984-4.708z" fill="#676A77"/><path d="M20 22.795a.595.595 0 01-.595-.594v-7.137a.595.595 0 011.19 0v7.137a.595.595 0 01-.595.594z" fill="#E4EAF8"/><path d="M29.724 21.523a5.176 5.176 0 00-4.546 2.64s-.29.358-.675.36c-.385-.002-.674-.36-.674-.36a5.176 5.176 0 00-4.546-2.64 5.196 5.196 0 00-5.21 5.22c.008 5.758 4.942 10.3 10.074 12.775.13.042.251.055.357.053a1.09 1.09 0 00.356-.053c1.446-.697 7.069-3.673 9.225-8.714 2.284-5.339-.437-9.277-4.361-9.281z" fill="#FF5050"/><path d="M15.66 26.82a5.215 5.215 0 014.395-5.244h.046a7.52 7.52 0 00-.818-.053c-2.945.003-5.21 2.371-5.21 5.22.01 5.756 4.931 10.295 10.074 12.775.13.042.251.055.357.053.12.002.241-.016.356-.053.146-.071.292-.144.436-.218-4.914-2.527-9.591-6.914-9.636-12.48z" fill="#ED3A3A"/><path d="M20 3.223a.595.595 0 01-.595-.594V.595a.595.595 0 011.19 0v2.034a.595.595 0 01-.595.594z" fill="#707487"/><path d="M22.99 34.077h-.002a.596.596 0 01-.557-.393l-1.95-5.4-.656 1.373a.596.596 0 01-.536.338h-6.55a.595.595 0 010-1.189h6.174l1.107-2.319a.593.593 0 011.096.054l1.881 5.21.949-2.557a.594.594 0 01.557-.388h3.043c.219 0 .42.12.524.313l.78 1.45.703-1.43a.594.594 0 01.533-.333h6.429a.594.594 0 110 1.19h-6.058l-1.049 2.135a.595.595 0 01-1.057.02l-1.16-2.156h-2.274l-1.37 3.694a.596.596 0 01-.557.388z" fill="#E4EAF8"/><path d="M4.795 13.882a6 6 0 014.92 2.56.181.181 0 00.297 0 6 6 0 014.92-2.56 6.001 6.001 0 014.92 2.56.181.181 0 00.296 0 6.001 6.001 0 014.92-2.56 6.001 6.001 0 014.92 2.56.181.181 0 00.297 0 6.001 6.001 0 014.92-2.56c1.096 0 2.123.294 3.007.807.156.09.338-.07.262-.234C35.254 7.474 28.193 2.629 20 2.629S4.747 7.474 1.526 14.455c-.076.164.105.325.262.234a5.977 5.977 0 013.007-.807z" fill="#06B0F2"/><path d="M16.814 2.878C10.007 3.949 4.32 8.398 1.526 14.455c-.076.164.105.325.262.234.43-.25.89-.444 1.37-.58 2.605-5.694 7.624-9.93 13.656-11.231z" fill="#03A6D8"/><path d="M20 2.629v13.89a.18.18 0 00.148-.077 6 6 0 014.92-2.56 6.001 6.001 0 014.92 2.56.181.181 0 00.297 0 6 6 0 014.92-2.56c1.096 0 2.123.294 3.007.807.156.09.338-.07.262-.234C35.254 7.474 28.193 2.629 20 2.629z" fill="#29D4FC"/><path d="M9.913 16.511a.178.178 0 00.099-.069 6.022 6.022 0 014.92-2.56 6.026 6.026 0 014.92 2.56.182.182 0 00.296 0 6.021 6.021 0 014.92-2.56c1.659 0 3.258.69 4.4 1.921.517.557.485.67.619.708C28.137 8.241 24.352 2.63 20 2.63c-4.352 0-8.137 5.611-10.087 13.882z" fill="#06B0F2"/><path d="M20 2.629c-4.352 0-8.137 5.611-10.087 13.882a.178.178 0 00.099-.069 6.022 6.022 0 014.92-2.56 6.026 6.026 0 014.92 2.56.18.18 0 00.148.077V2.63z" fill="#29D4FC"/><path d="M11.96 14.671C13.677 7.419 16.636 2.629 20 2.629c-4.352 0-8.137 5.611-10.087 13.882a.178.178 0 00.099-.069 6.042 6.042 0 011.948-1.771z" fill="#00C3FF"/></g><defs><clipPath id="clip0_45_2964"><path fill="#fff" d="M0 0h40v40H0z"/></clipPath></defs></svg>