<svg width="40" height="40" fill="none" xmlns="http://www.w3.org/2000/svg"><g clip-path="url(#clip0_45_3049)"><path d="M30.572 21.774L27.5 20l3.072-1.774a1.207 1.207 0 00.442-1.649l-2.543-4.404a1.207 1.207 0 00-1.649-.442l-3.072 1.774V9.957c0-.666-.54-1.207-1.207-1.207h-5.086c-.666 0-1.207.54-1.207 1.207v3.548l-3.072-1.774a1.207 1.207 0 00-1.65.442l-2.542 4.404a1.207 1.207 0 00.442 1.65L12.5 20l-3.072 1.774a1.207 1.207 0 00-.442 1.649l2.543 4.404a1.207 1.207 0 001.649.442l3.072-1.774v3.548c0 .666.54 1.207 1.207 1.207h5.086c.666 0 1.207-.54 1.207-1.207v-3.548l3.072 1.774a1.207 1.207 0 001.65-.442l2.542-4.404a1.207 1.207 0 00-.442-1.65z" fill="#E94444"/><path d="M30.572 21.774L27.5 20l3.072-1.773a1.207 1.207 0 00.442-1.65l-2.543-4.404a1.207 1.207 0 00-1.649-.442l-.672.388 1.069 1.85a2.36 2.36 0 01-.864 3.224l-.345.2a1.153 1.153 0 000 1.996l.345.2a2.36 2.36 0 01.863 3.223l-1.39 2.407a2.36 2.36 0 01-3.223.864l-.345-.199a1.153 1.153 0 00-1.73.998v.399a2.36 2.36 0 01-2.36 2.36h-1.92v.402c0 .667.54 1.207 1.207 1.207h5.086c.666 0 1.207-.54 1.207-1.207v-3.547l3.072 1.773a1.207 1.207 0 001.65-.442l2.542-4.404a1.207 1.207 0 00-.442-1.649z" fill="#D83131"/><path d="M20 0C8.954 0 0 8.954 0 20s8.954 20 20 20 20-8.954 20-20S31.046 0 20 0zm0 35c-8.284 0-15-6.716-15-15 0-8.284 6.716-15 15-15 8.284 0 15 6.716 15 15 0 8.284-6.716 15-15 15z" fill="#0055A3"/><path d="M27.287 1.37c5.698 3.524 9.494 9.829 9.494 17.02 0 11.046-8.955 20-20 20-2.572 0-5.03-.485-7.288-1.369A19.907 19.907 0 0020 40c11.046 0 20-8.954 20-20 0-8.475-5.27-15.718-12.713-18.63z" fill="#004281"/></g><defs><clipPath id="clip0_45_3049"><path fill="#fff" d="M0 0h40v40H0z"/></clipPath></defs></svg>