<svg width="40" height="40" fill="none" xmlns="http://www.w3.org/2000/svg"><g clip-path="url(#clip0_45_3063)"><path d="M20 25.658L0 32.18l20 6.523 20-6.523-20-6.52z" fill="#FF8E31"/><path d="M20.904.31h-1.808L8.047 32.179c0 .917 5.353 1.66 11.953 1.66s11.952-.743 11.952-1.66L20.904.309z" fill="#FF9D4D"/><path d="M29.366 24.721l-.037-.11-2.173-6.266c0 .549-3.204.993-7.156.993-3.951 0-7.155-.445-7.155-.993l-2.174 6.267-.037.11v.007c0 .72 4.194 1.302 9.366 1.302s9.368-.583 9.368-1.302c0-.003 0-.006-.002-.008zm-3.69-10.643l-2.209-6.372c-.016.264-1.563.478-3.467.478-1.902 0-3.45-.214-3.468-.478l-2.208 6.372c-.002.001-.002.001-.002.003v.007c0 .435 2.541.788 5.678.788 3.136 0 5.677-.353 5.677-.788v-.01z" fill="#F2F9FD"/><path d="M20.903.31c0 .068-.405.124-.903.124s-.902-.056-.902-.124c0-.07.404-.125.902-.125s.903.056.903.125zM20 39.815l20-6.517v-1.119l-20 6.523v1.113zm0 0L0 33.298v-1.119l20 6.523v1.113z" fill="#F28124"/><path d="M16.803 19.233l.66-4.44c-1.033-.072-1.887-.186-2.442-.326l-1.294 4.356c.699.177 1.775.32 3.076.41zm-5.017 6.122L9.521 32.98c1.168.295 2.963.537 5.137.686l1.155-7.77c-1.704-.12-3.112-.308-4.027-.54zm6.666-17.222L19.598.425a2.14 2.14 0 01-.39-.054l-2.246 7.563c.34.086.861.155 1.49.2z" fill="#FFBF69"/></g><defs><clipPath id="clip0_45_3063"><path fill="#fff" d="M0 0h40v40H0z"/></clipPath></defs></svg>