<svg width="1690" height="3027" fill="none" xmlns="http://www.w3.org/2000/svg"><g filter="url(#filter0_f_42_1136)"><g opacity=".4"><mask id="a" style="mask-type:alpha" maskUnits="userSpaceOnUse" x="833" y="797" width="1270" height="1438"><path transform="rotate(163.534 2102.97 1960.83)" fill="url(#paint0_linear_42_1136)" d="M2102.97 1960.83h965.079v1213.44H2102.97z"/></mask><g mask="url(#a)"><path d="M1081.31 1450.06c-55.73-188.54 51.95-386.57 240.49-442.29 188.55-55.73 386.57 51.94 442.3 240.49 55.72 188.54-127.04 132.5-315.58 188.23-188.55 55.73-311.48 202.12-367.21 13.57z" fill="#579AFF"/><g filter="url(#filter1_f_42_1136)"><path d="M1079.3 1443.25c-43.13-145.95 74.74-309.44 263.29-365.17 188.54-55.72 376.36 17.42 419.5 163.37 43.13 145.95-74.74 309.44-263.29 365.17-188.54 55.72-376.36-17.42-419.5-163.37z" fill="#579AFF"/></g><g filter="url(#filter2_f_42_1136)"><ellipse cx="1424.72" cy="1355.96" rx="355.991" ry="275.568" transform="rotate(163.534 1424.72 1355.96)" fill="#579AFF"/></g><g filter="url(#filter3_f_42_1136)"><ellipse cx="1435.78" cy="1393.39" rx="355.991" ry="276.75" transform="rotate(163.534 1435.78 1393.39)" fill="#579AFF"/></g><g filter="url(#filter4_f_42_1136)"><ellipse cx="1468.97" cy="1505.67" rx="355.991" ry="275.568" transform="rotate(163.534 1468.97 1505.67)" fill="#579AFF"/></g><g filter="url(#filter5_f_42_1136)"><ellipse cx="1513.89" cy="1657.65" rx="299.222" ry="275.568" transform="rotate(163.534 1513.89 1657.65)" fill="#579AFF"/></g></g><mask id="b" style="mask-type:alpha" maskUnits="userSpaceOnUse" x="351" y="721" width="1532" height="1548"><path transform="rotate(-137.554 1063.33 2268.1)" fill="url(#paint1_linear_42_1136)" d="M1063.33 2268.1h965.079v1213.44H1063.33z"/></mask><g mask="url(#b)"><path d="M973.186 1129.45c132.694-145.082 357.864-155.127 502.944-22.44 145.08 132.69 155.13 357.87 22.44 502.95-132.69 145.08-179.07-40.37-324.15-173.06-145.08-132.68-333.923-162.37-201.234-307.45z" fill="#FF4DED"/><g filter="url(#filter6_f_42_1136)"><path d="M977.975 1124.21c102.715-112.3 303.585-95.78 448.675 36.91 145.08 132.69 179.42 331.3 76.71 443.6-102.71 112.31-303.59 95.78-448.67-36.91-145.082-132.69-179.428-331.29-76.715-443.6z" fill="#FF4DED"/></g><g filter="url(#filter7_f_42_1136)"><ellipse cx="1231.09" cy="1374.94" rx="355.991" ry="275.568" transform="rotate(-137.554 1231.09 1374.94)" fill="#FF4DED"/></g><g filter="url(#filter8_f_42_1136)"><ellipse cx="1204.75" cy="1403.74" rx="355.991" ry="276.75" transform="rotate(-137.554 1204.75 1403.74)" fill="#FF4DED"/></g><g filter="url(#filter9_f_42_1136)"><ellipse cx="1125.73" cy="1490.14" rx="355.991" ry="275.568" transform="rotate(-137.554 1125.73 1490.14)" fill="#FF4DED"/></g><g filter="url(#filter10_f_42_1136)"><ellipse cx="1018.77" cy="1607.09" rx="299.222" ry="275.568" transform="rotate(-137.554 1018.77 1607.09)" fill="#FF4DED"/></g></g></g><g opacity=".4"><mask id="c" style="mask-type:alpha" maskUnits="userSpaceOnUse" x="276" y="943" width="1523" height="794"><path transform="rotate(-106.35 388.038 1736.18)" fill="url(#paint2_linear_42_1136)" d="M388.038 1736.18h394.765v1469.55H388.038z"/></mask><g mask="url(#c)"><path d="M1197.61 1142.72c228.47-67.03 432.04-58.81 454.68 18.37 22.64 77.17-144.22 194.06-372.7 261.09-228.47 67.03-124.18-31.51-146.82-108.68-22.64-77.17-163.637-103.75 64.84-170.78z" fill="#57AEFF"/><g filter="url(#filter11_f_42_1136)"><path d="M1205.86 1140.31c176.86-51.89 338.58-31.39 361.22 45.78 22.64 77.17-102.38 181.79-279.24 233.67-176.85 51.89-338.58 31.39-361.22-45.78-22.64-77.17 102.38-181.79 279.24-233.67z" fill="#57AEFF"/></g><g filter="url(#filter12_f_42_1136)"><ellipse cx="1230.36" cy="1284.87" rx="145.618" ry="333.728" transform="rotate(-106.35 1230.36 1284.87)" fill="#57AEFF"/></g><g filter="url(#filter13_f_42_1136)"><ellipse cx="1185" cy="1298.18" rx="145.618" ry="335.16" transform="rotate(-106.35 1185 1298.18)" fill="#57AEFF"/></g><g filter="url(#filter14_f_42_1136)"><ellipse cx="1048.94" cy="1338.1" rx="145.618" ry="333.728" transform="rotate(-106.35 1048.94 1338.1)" fill="#57AEFF"/></g><g filter="url(#filter15_f_42_1136)"><ellipse cx="864.774" cy="1392.12" rx="122.397" ry="333.728" transform="rotate(-106.35 864.774 1392.12)" fill="#57AEFF"/></g></g><mask id="d" style="mask-type:alpha" maskUnits="userSpaceOnUse" x="263" y="833" width="1751" height="673"><path transform="matrix(.88402 -.46746 .97467 .22362 263.204 1310.66)" fill="url(#paint3_linear_42_1136)" d="M0 0h1021.29v869.477H0z"/></mask><g mask="url(#d)"><path d="M1589.04 1022.42c137.37 31.48 99.59 135.83-84.38 233.08s-444.46 150.57-581.824 119.09c-137.364-31.47 85.514-93.41 269.474-190.66 183.97-97.25 259.37-192.983 396.73-161.51z" fill="#4A46FF"/><g filter="url(#filter16_f_42_1136)"><path d="M1594 1023.56c106.33 24.36 43.4 122.95-140.57 220.2-183.97 97.25-419.3 156.33-525.635 131.97-106.331-24.37-43.394-122.95 140.575-220.2 183.97-97.25 419.3-156.336 525.63-131.97z" fill="#4A46FF"/></g><g filter="url(#filter17_f_42_1136)"><ellipse cx="376.724" cy="197.454" rx="376.724" ry="197.454" transform="matrix(.88421 -.46741 .97506 .22342 725.347 1329.34)" fill="#4A46FF"/></g><g filter="url(#filter18_f_42_1136)"><ellipse cx="376.724" cy="198.302" rx="376.724" ry="198.302" transform="matrix(.88421 -.46741 .97506 .22342 697.255 1322.9)" fill="#4A46FF"/></g><g filter="url(#filter19_f_42_1136)"><ellipse cx="376.724" cy="197.454" rx="376.724" ry="197.454" transform="matrix(.88421 -.46741 .97506 .22342 616.276 1304.35)" fill="#4A46FF"/></g><g filter="url(#filter20_f_42_1136)"><ellipse cx="316.649" cy="197.454" rx="316.649" ry="197.454" transform="matrix(.88421 -.46741 .97506 .22342 558.67 1250.9)" fill="#4A46FF"/></g></g></g><g opacity=".4"><mask id="e" style="mask-type:alpha" maskUnits="userSpaceOnUse" x="924" y="651" width="1641" height="1640"><path transform="rotate(134.977 2564.13 1564.41)" fill="url(#paint4_linear_42_1136)" d="M2564.13 1564.41h1027.05v1291.36H2564.13z"/></mask><g mask="url(#e)"><path d="M1349.31 1606.72c-148.01-147.89-148.1-387.76-.21-535.77 147.89-148.011 387.76-148.106 535.77-.22 148.01 147.9-51.33 188.49-199.22 336.5s-188.33 347.38-336.34 199.49z" fill="#2C67FF"/><g filter="url(#filter21_f_42_1136)"><path d="M1343.96 1601.39c-114.57-114.48-87.56-327.27 60.33-475.28 147.9-148.007 360.66-175.188 475.23-60.71 114.58 114.48 87.57 327.27-60.33 475.28-147.89 148.01-360.65 175.19-475.23 60.71z" fill="#2C67FF"/></g><g filter="url(#filter22_f_42_1136)"><ellipse cx="1622.43" cy="1344.07" rx="378.849" ry="293.262" transform="rotate(134.977 1622.43 1344.07)" fill="#2C67FF"/></g><g filter="url(#filter23_f_42_1136)"><ellipse cx="1651.81" cy="1373.42" rx="378.849" ry="294.52" transform="rotate(134.977 1651.81 1373.42)" fill="#2C67FF"/></g><g filter="url(#filter24_f_42_1136)"><ellipse cx="1739.95" cy="1461.5" rx="378.849" ry="293.262" transform="rotate(134.977 1739.95 1461.5)" fill="#2C67FF"/></g><g filter="url(#filter25_f_42_1136)"><ellipse cx="1859.26" cy="1580.71" rx="318.435" ry="293.262" transform="rotate(134.977 1859.26 1580.71)" fill="#2C67FF"/></g></g><mask id="f" style="mask-type:alpha" maskUnits="userSpaceOnUse" x="1371" y="793" width="930" height="811"><path transform="rotate(76.066 2147.64 793.385)" fill="url(#paint5_linear_42_1136)" d="M2147.64 793.385h636.095v799.795H2147.64z"/></mask><g mask="url(#f)"><path d="M1781.58 1451.24c-125.78 31.21-253.03-45.46-284.24-171.23-31.2-125.77 45.46-253.03 171.23-284.235 125.78-31.206 83.56 87.505 114.76 213.275 31.21 125.78 124.02 210.99-1.75 242.19z" fill="#094EFF"/><g filter="url(#filter26_f_42_1136)"><path d="M1777.04 1452.37c-97.36 24.15-201.58-58.23-232.79-184-31.21-125.77 22.42-247.31 119.78-271.47 97.36-24.156 201.58 58.22 232.79 184 31.21 125.77-22.42 247.31-119.78 271.47z" fill="#094EFF"/></g><g filter="url(#filter27_f_42_1136)"><ellipse cx="1729.61" cy="1222.38" rx="234.638" ry="181.63" transform="rotate(76.066 1729.61 1222.38)" fill="#094EFF"/></g><g filter="url(#filter28_f_42_1136)"><ellipse cx="1754.58" cy="1216.18" rx="234.638" ry="182.409" transform="rotate(76.066 1754.58 1216.18)" fill="#094EFF"/></g><g filter="url(#filter29_f_42_1136)"><ellipse cx="1829.48" cy="1197.6" rx="234.638" ry="181.63" transform="rotate(76.066 1829.48 1197.6)" fill="#094EFF"/></g><g filter="url(#filter30_f_42_1136)"><ellipse cx="1930.87" cy="1172.45" rx="197.22" ry="181.63" transform="rotate(76.066 1930.87 1172.45)" fill="#094EFF"/></g></g></g><g opacity=".4"><mask id="g" style="mask-type:alpha" maskUnits="userSpaceOnUse" x="870" y="556" width="1043" height="1135"><path transform="rotate(24.632 1251.66 556.582)" fill="url(#paint6_linear_42_1136)" d="M1251.66 556.582h726.957v914.042H1251.66z"/></mask><g mask="url(#g)"><path d="M1578.69 1352.39c-61.73 134.62-220.9 193.72-355.52 131.99-134.62-61.72-193.71-220.9-131.99-355.52 61.73-134.617 137.72-12.31 272.35 49.41 134.62 61.73 276.88 39.5 215.16 174.12z" fill="#06F"/><g filter="url(#filter31_f_42_1136)"><path d="M1576.46 1357.25c-47.78 104.21-195.64 138.65-330.26 76.93-134.63-61.73-205.02-196.25-157.24-300.46 47.78-104.2 195.65-138.642 330.27-76.92 134.62 61.73 205.02 196.25 157.23 300.45z" fill="#06F"/></g><g filter="url(#filter32_f_42_1136)"><ellipse cx="1337.16" cy="1235.77" rx="268.154" ry="207.575" transform="rotate(24.632 1337.16 1235.77)" fill="#06F"/></g><g filter="url(#filter33_f_42_1136)"><ellipse cx="1349.42" cy="1209.05" rx="268.154" ry="208.466" transform="rotate(24.632 1349.42 1209.05)" fill="#06F"/></g><g filter="url(#filter34_f_42_1136)"><ellipse cx="1386.18" cy="1128.88" rx="268.154" ry="207.575" transform="rotate(24.632 1386.18 1128.88)" fill="#06F"/></g><g filter="url(#filter35_f_42_1136)"><ellipse cx="1435.93" cy="1020.36" rx="225.392" ry="207.575" transform="rotate(24.632 1435.93 1020.36)" fill="#06F"/></g></g><mask id="h" style="mask-type:alpha" maskUnits="userSpaceOnUse" x="842" y="769" width="692" height="722"><path transform="rotate(-34.28 842.452 1022.72)" fill="url(#paint7_linear_42_1136)" d="M842.452 1022.72h450.236v566.106H842.452z"/></mask><g mask="url(#h)"><path d="M1369.13 1103.78c51.66 75.79 32.09 179.11-43.7 230.77s-179.11 32.1-230.77-43.69c-51.66-75.79 37.51-76.99 113.3-128.65 75.8-51.66 109.5-134.22 161.17-58.43z" fill="#096BFF"/><g filter="url(#filter36_f_42_1136)"><path d="M1370.99 1106.51c39.99 58.67 10.97 148.11-64.82 199.77-75.8 51.66-169.65 45.98-209.64-12.69-39.99-58.67-10.97-148.11 64.82-199.77 75.79-51.66 169.65-45.98 209.64 12.69z" fill="#096BFF"/></g><g filter="url(#filter37_f_42_1136)"><ellipse cx="1230.03" cy="1194.58" rx="166.08" ry="128.56" transform="rotate(-34.28 1230.03 1194.58)" fill="#096BFF"/></g><g filter="url(#filter38_f_42_1136)"><ellipse cx="1219.77" cy="1179.54" rx="166.08" ry="129.112" transform="rotate(-34.28 1219.77 1179.54)" fill="#096BFF"/></g><g filter="url(#filter39_f_42_1136)"><ellipse cx="1189.01" cy="1134.4" rx="166.08" ry="128.56" transform="rotate(-34.28 1189.01 1134.4)" fill="#096BFF"/></g><g filter="url(#filter40_f_42_1136)"><ellipse cx="1147.37" cy="1073.31" rx="139.595" ry="128.56" transform="rotate(-34.28 1147.37 1073.31)" fill="#096BFF"/></g></g></g></g><defs><filter id="filter0_f_42_1136" x="342.667" y="609.537" width="2022.69" height="1525.73" filterUnits="userSpaceOnUse" color-interpolation-filters="sRGB"><feFlood flood-opacity="0" result="BackgroundImageFix"/><feBlend in="SourceGraphic" in2="BackgroundImageFix" result="shape"/><feGaussianBlur stdDeviation="100" result="effect1_foregroundBlur_42_1136"/></filter><filter id="filter1_f_42_1136" x="1064.3" y="1053.29" width="712.798" height="578.12" filterUnits="userSpaceOnUse" color-interpolation-filters="sRGB"><feFlood flood-opacity="0" result="BackgroundImageFix"/><feBlend in="SourceGraphic" in2="BackgroundImageFix" result="shape"/><feGaussianBlur stdDeviation="3.054" result="effect1_foregroundBlur_42_1136"/></filter><filter id="filter2_f_42_1136" x="1053.05" y="1051.62" width="743.343" height="608.665" filterUnits="userSpaceOnUse" color-interpolation-filters="sRGB"><feFlood flood-opacity="0" result="BackgroundImageFix"/><feBlend in="SourceGraphic" in2="BackgroundImageFix" result="shape"/><feGaussianBlur stdDeviation="10.691" result="effect1_foregroundBlur_42_1136"/></filter><filter id="filter3_f_42_1136" x="1033.49" y="1057.45" width="804.583" height="671.876" filterUnits="userSpaceOnUse" color-interpolation-filters="sRGB"><feFlood flood-opacity="0" result="BackgroundImageFix"/><feBlend in="SourceGraphic" in2="BackgroundImageFix" result="shape"/><feGaussianBlur stdDeviation="25.963" result="effect1_foregroundBlur_42_1136"/></filter><filter id="filter4_f_42_1136" x="1005.66" y="1109.71" width="926.613" height="791.935" filterUnits="userSpaceOnUse" color-interpolation-filters="sRGB"><feFlood flood-opacity="0" result="BackgroundImageFix"/><feBlend in="SourceGraphic" in2="BackgroundImageFix" result="shape"/><feGaussianBlur stdDeviation="56.508" result="effect1_foregroundBlur_42_1136"/></filter><filter id="filter5_f_42_1136" x="1017.88" y="1181.49" width="992.016" height="952.319" filterUnits="userSpaceOnUse" color-interpolation-filters="sRGB"><feFlood flood-opacity="0" result="BackgroundImageFix"/><feBlend in="SourceGraphic" in2="BackgroundImageFix" result="shape"/><feGaussianBlur stdDeviation="99.271" result="effect1_foregroundBlur_42_1136"/></filter><filter id="filter6_f_42_1136" x="912.67" y="1043.59" width="655.994" height="641.745" filterUnits="userSpaceOnUse" color-interpolation-filters="sRGB"><feFlood flood-opacity="0" result="BackgroundImageFix"/><feBlend in="SourceGraphic" in2="BackgroundImageFix" result="shape"/><feGaussianBlur stdDeviation="3.054" result="effect1_foregroundBlur_42_1136"/></filter><filter id="filter7_f_42_1136" x="887.82" y="1038.8" width="686.539" height="672.29" filterUnits="userSpaceOnUse" color-interpolation-filters="sRGB"><feFlood flood-opacity="0" result="BackgroundImageFix"/><feBlend in="SourceGraphic" in2="BackgroundImageFix" result="shape"/><feGaussianBlur stdDeviation="10.691" result="effect1_foregroundBlur_42_1136"/></filter><filter id="filter8_f_42_1136" x="830.473" y="1036.48" width="748.551" height="734.509" filterUnits="userSpaceOnUse" color-interpolation-filters="sRGB"><feFlood flood-opacity="0" result="BackgroundImageFix"/><feBlend in="SourceGraphic" in2="BackgroundImageFix" result="shape"/><feGaussianBlur stdDeviation="25.963" result="effect1_foregroundBlur_42_1136"/></filter><filter id="filter9_f_42_1136" x="690.823" y="1062.36" width="869.809" height="855.56" filterUnits="userSpaceOnUse" color-interpolation-filters="sRGB"><feFlood flood-opacity="0" result="BackgroundImageFix"/><feBlend in="SourceGraphic" in2="BackgroundImageFix" result="shape"/><feGaussianBlur stdDeviation="56.508" result="effect1_foregroundBlur_42_1136"/></filter><filter id="filter10_f_42_1136" x="531.532" y="1121.96" width="974.475" height="970.253" filterUnits="userSpaceOnUse" color-interpolation-filters="sRGB"><feFlood flood-opacity="0" result="BackgroundImageFix"/><feBlend in="SourceGraphic" in2="BackgroundImageFix" result="shape"/><feGaussianBlur stdDeviation="99.271" result="effect1_foregroundBlur_42_1136"/></filter><filter id="filter11_f_42_1136" x="919.694" y="1107.36" width="654.314" height="345.343" filterUnits="userSpaceOnUse" color-interpolation-filters="sRGB"><feFlood flood-opacity="0" result="BackgroundImageFix"/><feBlend in="SourceGraphic" in2="BackgroundImageFix" result="shape"/><feGaussianBlur stdDeviation="2.139" result="effect1_foregroundBlur_42_1136"/></filter><filter id="filter12_f_42_1136" x="892.509" y="1101.51" width="675.704" height="366.733" filterUnits="userSpaceOnUse" color-interpolation-filters="sRGB"><feFlood flood-opacity="0" result="BackgroundImageFix"/><feBlend in="SourceGraphic" in2="BackgroundImageFix" result="shape"/><feGaussianBlur stdDeviation="7.486" result="effect1_foregroundBlur_42_1136"/></filter><filter id="filter13_f_42_1136" x="824.395" y="1093.2" width="721.209" height="409.961" filterUnits="userSpaceOnUse" color-interpolation-filters="sRGB"><feFlood flood-opacity="0" result="BackgroundImageFix"/><feBlend in="SourceGraphic" in2="BackgroundImageFix" result="shape"/><feGaussianBlur stdDeviation="18.181" result="effect1_foregroundBlur_42_1136"/></filter><filter id="filter14_f_42_1136" x="646.92" y="1090.56" width="804.041" height="495.07" filterUnits="userSpaceOnUse" color-interpolation-filters="sRGB"><feFlood flood-opacity="0" result="BackgroundImageFix"/><feBlend in="SourceGraphic" in2="BackgroundImageFix" result="shape"/><feGaussianBlur stdDeviation="39.571" result="effect1_foregroundBlur_42_1136"/></filter><filter id="filter15_f_42_1136" x="403.635" y="1102.69" width="922.277" height="578.873" filterUnits="userSpaceOnUse" color-interpolation-filters="sRGB"><feFlood flood-opacity="0" result="BackgroundImageFix"/><feBlend in="SourceGraphic" in2="BackgroundImageFix" result="shape"/><feGaussianBlur stdDeviation="69.516" result="effect1_foregroundBlur_42_1136"/></filter><filter id="filter16_f_42_1136" x="871.815" y="1013.8" width="778.166" height="371.696" filterUnits="userSpaceOnUse" color-interpolation-filters="sRGB"><feFlood flood-opacity="0" result="BackgroundImageFix"/><feBlend in="SourceGraphic" in2="BackgroundImageFix" result="shape"/><feGaussianBlur stdDeviation="2.139" result="effect1_foregroundBlur_42_1136"/></filter><filter id="filter17_f_42_1136" x="851.202" y="1000.83" width="799.556" height="393.086" filterUnits="userSpaceOnUse" color-interpolation-filters="sRGB"><feFlood flood-opacity="0" result="BackgroundImageFix"/><feBlend in="SourceGraphic" in2="BackgroundImageFix" result="shape"/><feGaussianBlur stdDeviation="7.486" result="effect1_foregroundBlur_42_1136"/></filter><filter id="filter18_f_42_1136" x="802.134" y="973.146" width="843.162" height="435.957" filterUnits="userSpaceOnUse" color-interpolation-filters="sRGB"><feFlood flood-opacity="0" result="BackgroundImageFix"/><feBlend in="SourceGraphic" in2="BackgroundImageFix" result="shape"/><feGaussianBlur stdDeviation="18.181" result="effect1_foregroundBlur_42_1136"/></filter><filter id="filter19_f_42_1136" x="677.962" y="911.669" width="927.893" height="521.423" filterUnits="userSpaceOnUse" color-interpolation-filters="sRGB"><feFlood flood-opacity="0" result="BackgroundImageFix"/><feBlend in="SourceGraphic" in2="BackgroundImageFix" result="shape"/><feGaussianBlur stdDeviation="39.571" result="effect1_foregroundBlur_42_1136"/></filter><filter id="filter20_f_42_1136" x="552.328" y="853.497" width="957.712" height="587.025" filterUnits="userSpaceOnUse" color-interpolation-filters="sRGB"><feFlood flood-opacity="0" result="BackgroundImageFix"/><feBlend in="SourceGraphic" in2="BackgroundImageFix" result="shape"/><feGaussianBlur stdDeviation="69.516" result="effect1_foregroundBlur_42_1136"/></filter><filter id="filter21_f_42_1136" x="1265.92" y="987.499" width="691.656" height="691.792" filterUnits="userSpaceOnUse" color-interpolation-filters="sRGB"><feFlood flood-opacity="0" result="BackgroundImageFix"/><feBlend in="SourceGraphic" in2="BackgroundImageFix" result="shape"/><feGaussianBlur stdDeviation="3.538" result="effect1_foregroundBlur_42_1136"/></filter><filter id="filter22_f_42_1136" x="1258.91" y="980.479" width="727.041" height="727.177" filterUnits="userSpaceOnUse" color-interpolation-filters="sRGB"><feFlood flood-opacity="0" result="BackgroundImageFix"/><feBlend in="SourceGraphic" in2="BackgroundImageFix" result="shape"/><feGaussianBlur stdDeviation="12.384" result="effect1_foregroundBlur_42_1136"/></filter><filter id="filter23_f_42_1136" x="1252.36" y="973.907" width="798.901" height="799.035" filterUnits="userSpaceOnUse" color-interpolation-filters="sRGB"><feFlood flood-opacity="0" result="BackgroundImageFix"/><feBlend in="SourceGraphic" in2="BackgroundImageFix" result="shape"/><feGaussianBlur stdDeviation="30.077" result="effect1_foregroundBlur_42_1136"/></filter><filter id="filter24_f_42_1136" x="1270.28" y="991.757" width="939.347" height="939.483" filterUnits="userSpaceOnUse" color-interpolation-filters="sRGB"><feFlood flood-opacity="0" result="BackgroundImageFix"/><feBlend in="SourceGraphic" in2="BackgroundImageFix" result="shape"/><feGaussianBlur stdDeviation="65.461" result="effect1_foregroundBlur_42_1136"/></filter><filter id="filter25_f_42_1136" x="1323.16" y="1044.59" width="1072.19" height="1072.24" filterUnits="userSpaceOnUse" color-interpolation-filters="sRGB"><feFlood flood-opacity="0" result="BackgroundImageFix"/><feBlend in="SourceGraphic" in2="BackgroundImageFix" result="shape"/><feGaussianBlur stdDeviation="114.999" result="effect1_foregroundBlur_42_1136"/></filter><filter id="filter26_f_42_1136" x="1528.29" y="985.618" width="384.491" height="478.029" filterUnits="userSpaceOnUse" color-interpolation-filters="sRGB"><feFlood flood-opacity="0" result="BackgroundImageFix"/><feBlend in="SourceGraphic" in2="BackgroundImageFix" result="shape"/><feGaussianBlur stdDeviation="3.538" result="effect1_foregroundBlur_42_1136"/></filter><filter id="filter27_f_42_1136" x="1519.68" y="965.676" width="419.876" height="513.413" filterUnits="userSpaceOnUse" color-interpolation-filters="sRGB"><feFlood flood-opacity="0" result="BackgroundImageFix"/><feBlend in="SourceGraphic" in2="BackgroundImageFix" result="shape"/><feGaussianBlur stdDeviation="12.384" result="effect1_foregroundBlur_42_1136"/></filter><filter id="filter28_f_42_1136" x="1508.54" y="924.057" width="492.086" height="584.254" filterUnits="userSpaceOnUse" color-interpolation-filters="sRGB"><feFlood flood-opacity="0" result="BackgroundImageFix"/><feBlend in="SourceGraphic" in2="BackgroundImageFix" result="shape"/><feGaussianBlur stdDeviation="30.077" result="effect1_foregroundBlur_42_1136"/></filter><filter id="filter29_f_42_1136" x="1513.39" y="834.744" width="632.182" height="725.72" filterUnits="userSpaceOnUse" color-interpolation-filters="sRGB"><feFlood flood-opacity="0" result="BackgroundImageFix"/><feBlend in="SourceGraphic" in2="BackgroundImageFix" result="shape"/><feGaussianBlur stdDeviation="65.461" result="effect1_foregroundBlur_42_1136"/></filter><filter id="filter30_f_42_1136" x="1518.25" y="746.058" width="825.229" height="852.784" filterUnits="userSpaceOnUse" color-interpolation-filters="sRGB"><feFlood flood-opacity="0" result="BackgroundImageFix"/><feBlend in="SourceGraphic" in2="BackgroundImageFix" result="shape"/><feGaussianBlur stdDeviation="114.999" result="effect1_foregroundBlur_42_1136"/></filter><filter id="filter31_f_42_1136" x="1066.91" y="1019.08" width="531.597" height="452.828" filterUnits="userSpaceOnUse" color-interpolation-filters="sRGB"><feFlood flood-opacity="0" result="BackgroundImageFix"/><feBlend in="SourceGraphic" in2="BackgroundImageFix" result="shape"/><feGaussianBlur stdDeviation="3.538" result="effect1_foregroundBlur_42_1136"/></filter><filter id="filter32_f_42_1136" x="1053.67" y="991.665" width="566.981" height="488.212" filterUnits="userSpaceOnUse" color-interpolation-filters="sRGB"><feFlood flood-opacity="0" result="BackgroundImageFix"/><feBlend in="SourceGraphic" in2="BackgroundImageFix" result="shape"/><feGaussianBlur stdDeviation="12.384" result="effect1_foregroundBlur_42_1136"/></filter><filter id="filter33_f_42_1136" x="1030.42" y="928.862" width="637.999" height="560.375" filterUnits="userSpaceOnUse" color-interpolation-filters="sRGB"><feFlood flood-opacity="0" result="BackgroundImageFix"/><feBlend in="SourceGraphic" in2="BackgroundImageFix" result="shape"/><feGaussianBlur stdDeviation="30.077" result="effect1_foregroundBlur_42_1136"/></filter><filter id="filter34_f_42_1136" x="996.535" y="778.617" width="779.288" height="700.518" filterUnits="userSpaceOnUse" color-interpolation-filters="sRGB"><feFlood flood-opacity="0" result="BackgroundImageFix"/><feBlend in="SourceGraphic" in2="BackgroundImageFix" result="shape"/><feGaussianBlur stdDeviation="65.461" result="effect1_foregroundBlur_42_1136"/></filter><filter id="filter35_f_42_1136" x="983.478" y="579.538" width="904.912" height="881.648" filterUnits="userSpaceOnUse" color-interpolation-filters="sRGB"><feFlood flood-opacity="0" result="BackgroundImageFix"/><feBlend in="SourceGraphic" in2="BackgroundImageFix" result="shape"/><feGaussianBlur stdDeviation="114.999" result="effect1_foregroundBlur_42_1136"/></filter><filter id="filter36_f_42_1136" x="1071.49" y="1051.43" width="324.543" height="297.244" filterUnits="userSpaceOnUse" color-interpolation-filters="sRGB"><feFlood flood-opacity="0" result="BackgroundImageFix"/><feBlend in="SourceGraphic" in2="BackgroundImageFix" result="shape"/><feGaussianBlur stdDeviation="3.538" result="effect1_foregroundBlur_42_1136"/></filter><filter id="filter37_f_42_1136" x="1050.07" y="1028.27" width="359.927" height="332.628" filterUnits="userSpaceOnUse" color-interpolation-filters="sRGB"><feFlood flood-opacity="0" result="BackgroundImageFix"/><feBlend in="SourceGraphic" in2="BackgroundImageFix" result="shape"/><feGaussianBlur stdDeviation="12.384" result="effect1_foregroundBlur_42_1136"/></filter><filter id="filter38_f_42_1136" x="1004.28" y="977.495" width="430.986" height="404.082" filterUnits="userSpaceOnUse" color-interpolation-filters="sRGB"><feFlood flood-opacity="0" result="BackgroundImageFix"/><feBlend in="SourceGraphic" in2="BackgroundImageFix" result="shape"/><feGaussianBlur stdDeviation="30.077" result="effect1_foregroundBlur_42_1136"/></filter><filter id="filter39_f_42_1136" x="902.891" y="861.933" width="572.234" height="544.934" filterUnits="userSpaceOnUse" color-interpolation-filters="sRGB"><feFlood flood-opacity="0" result="BackgroundImageFix"/><feBlend in="SourceGraphic" in2="BackgroundImageFix" result="shape"/><feGaussianBlur stdDeviation="65.461" result="effect1_foregroundBlur_42_1136"/></filter><filter id="filter40_f_42_1136" x="781.158" y="711.14" width="732.416" height="724.335" filterUnits="userSpaceOnUse" color-interpolation-filters="sRGB"><feFlood flood-opacity="0" result="BackgroundImageFix"/><feBlend in="SourceGraphic" in2="BackgroundImageFix" result="shape"/><feGaussianBlur stdDeviation="114.999" result="effect1_foregroundBlur_42_1136"/></filter><linearGradient id="paint0_linear_42_1136" x1="2811.4" y1="2927.09" x2="2811.4" y2="1960.83" gradientUnits="userSpaceOnUse"><stop stop-color="#fff"/><stop offset="1" stop-color="#fff" stop-opacity="0"/></linearGradient><linearGradient id="paint1_linear_42_1136" x1="1771.76" y1="3234.36" x2="1771.76" y2="2268.1" gradientUnits="userSpaceOnUse"><stop stop-color="#fff"/><stop offset="1" stop-color="#fff" stop-opacity="0"/></linearGradient><linearGradient id="paint2_linear_42_1136" x1="677.822" y1="2906.37" x2="677.822" y2="1736.18" gradientUnits="userSpaceOnUse"><stop stop-color="#fff"/><stop offset="1" stop-color="#fff" stop-opacity="0"/></linearGradient><linearGradient id="paint3_linear_42_1136" x1="749.694" y1="692.361" x2="749.694" y2="0" gradientUnits="userSpaceOnUse"><stop stop-color="#fff"/><stop offset="1" stop-color="#fff" stop-opacity="0"/></linearGradient><linearGradient id="paint4_linear_42_1136" x1="3318.05" y1="2592.71" x2="3318.05" y2="1564.41" gradientUnits="userSpaceOnUse"><stop stop-color="#fff"/><stop offset="1" stop-color="#fff" stop-opacity="0"/></linearGradient><linearGradient id="paint5_linear_42_1136" x1="2614.58" y1="1430.26" x2="2614.58" y2="793.385" gradientUnits="userSpaceOnUse"><stop stop-color="#fff"/><stop offset="1" stop-color="#fff" stop-opacity="0"/></linearGradient><linearGradient id="paint6_linear_42_1136" x1="1785.29" y1="1284.43" x2="1785.29" y2="556.582" gradientUnits="userSpaceOnUse"><stop stop-color="#fff"/><stop offset="1" stop-color="#fff" stop-opacity="0"/></linearGradient><linearGradient id="paint7_linear_42_1136" x1="1172.96" y1="1473.51" x2="1172.96" y2="1022.72" gradientUnits="userSpaceOnUse"><stop stop-color="#fff"/><stop offset="1" stop-color="#fff" stop-opacity="0"/></linearGradient></defs></svg>