<svg width="74" height="68" fill="none" xmlns="http://www.w3.org/2000/svg"><path d="M55.657 25.706l-.015 3.517-9.404 2.083.015-2.234c-10.823-2.023-22.823-.363-30.868 4.332-4.996 2.883-8.015 6.611-8.71 10.626.695 4.076 3.774 7.864 8.846 10.808l-.015 3.517-4.046 2.354C4.608 56.74.804 51.487.774 45.887l.015-3.517c-.046-5.615 3.698-10.883 10.536-14.838 9.962-5.826 25.026-7.713 38.324-4.815l1.494-2.234 4.514 5.223z" fill="#78E75A"/><path d="M73.226 42.355v.06l-.015 3.457c.03 5.6-3.698 10.883-10.52 14.838-6.899 4-16.151 6.143-25.616 6.143-4.286 0-8.603-.438-12.77-1.343l-1.162 1.826-4.664-5.192.015-3.517 9.359-2.144-.015 2.687c10.807 1.992 22.732.332 30.792-4.332 4.981-2.898 8-6.627 8.694-10.642-.694-4.075-3.773-7.849-8.86-10.792l.015-3.517 4.046-2.355c6.867 3.955 10.671 9.223 10.701 14.823z" fill="#DF3260"/><path d="M47.581 25.828l-.01 3.518c-11.173-2.412-23.807-.827-32.185 4.051-5.747 3.332-8.89 7.765-8.864 12.473l.01-3.517c-.027-4.71 3.116-9.143 8.865-12.473 8.377-4.88 21.011-6.464 32.184-4.052z" fill="#72D561"/><path d="M55.655 25.701l-.01 3.517-9.4 2.08.01-3.517 9.4-2.08z" fill="#6DCB60"/><path d="M15.52 54.834l-.011 3.519-4.043 2.349.011-3.517 4.042-2.35z" fill="#5EC363"/><path d="M11.476 57.185l-.01 3.517C4.606 56.742.804 51.48.772 45.88l.01-3.517c.03 5.6 3.833 10.859 10.694 14.82z" fill="#72D561"/><path d="M51.15 20.489l4.505 5.212-9.4 2.078 1.326-1.951C36.407 23.416 23.773 25 15.397 29.88c-5.75 3.33-8.89 7.763-8.865 12.472.035 4.714 3.218 9.152 8.987 12.483l-4.043 2.349C4.614 53.222.813 47.962.78 42.362c-.032-5.61 3.701-10.876 10.536-14.838 9.974-5.816 25.032-7.704 38.332-4.803l1.5-2.232z" fill="#78E75A"/><path d="M67.475 42.358l-.009 3.517c-.036-4.714-3.22-9.141-8.996-12.477l.01-3.517c5.777 3.336 8.96 7.763 8.995 12.477z" fill="#DF3260"/><path d="M27.851 56.478l-.01 3.519-1.525 2.386.01-3.517 1.525-2.388z" fill="#CC104A"/><path d="M73.226 42.357l-.01 3.517c.03 5.6-3.703 10.877-10.528 14.834-6.89 4.003-16.151 6.14-25.608 6.146-4.295.003-8.58-.45-12.779-1.352l.01-3.517c4.171.905 8.485 1.345 12.78 1.35 9.456-.005 18.717-2.143 25.607-6.146 6.826-3.955 10.56-9.232 10.528-14.832zM23.15 63.82l-.01 3.516-4.653-5.19.01-3.517 4.652 5.19z" fill="#DF3260"/><path d="M24.312 61.985l-.01 3.517-1.163 1.834.01-3.517 1.163-1.834z" fill="#CC104A"/><path d="M62.53 27.524c6.862 3.963 10.672 9.228 10.695 14.834.032 5.6-3.701 10.875-10.527 14.831-6.889 4.005-16.15 6.14-25.607 6.147-4.296.002-8.58-.45-12.78-1.353L23.15 63.82l-4.652-5.193 9.354-2.148-1.524 2.387c11.19 2.445 23.86.87 32.302-4.024 5.731-3.34 8.874-7.774 8.846-12.483-.034-4.714-3.218-9.143-8.996-12.479l4.052-2.355z" fill="#F45170"/><path d="M29.12 53.525l-5.026 2.913-4.996-2.913-.045-16.378 5.026-2.898 4.997 2.898.045 16.378z" fill="#F34B58"/><path d="M38.494 48.513l-5.237 3.019-5.193-3.02-.03-18.988 5.223-3.019 5.192 3.02.045 18.988z" fill="#FEBC1F"/><path d="M47.732 43.32l-5.298 3.065-5.268-3.064-.045-21.253 5.313-3.064 5.268 3.064.03 21.253z" fill="#E9E7FC"/><path d="M56.955 38.098l-5.344 3.094-5.313-3.094-.045-23.457 5.343-3.094 5.314 3.094.045 23.457z" fill="#5EC363"/><path d="M46.253 14.634l.042 23.468 5.313 3.089-.04-23.469-5.315-3.088z" fill="#72D561"/><path d="M51.568 17.722l.042 23.469 5.35-3.089-.043-23.468-5.35 3.088z" fill="#5EC363"/><path d="M46.253 14.634l5.315 3.088 5.349-3.088-5.313-3.089-5.351 3.089z" fill="#78E75A"/><path d="M37.127 22.064l.04 21.258 5.268 3.061-.04-21.258-5.268-3.061z" fill="#F3F1FC"/><path d="M42.395 25.125l.04 21.258 5.303-3.06-.04-21.261-5.303 3.063z" fill="#E9E7FC"/><path d="M37.127 22.063l5.268 3.061 5.302-3.062-5.268-3.06-5.302 3.061z" fill="#F8F9FE"/><path d="M28.03 29.526l.04 18.982 5.193 3.018-.041-18.984-5.191-3.016z" fill="#FFD06C"/><path d="M33.222 32.542l.04 18.984 5.226-3.017-.04-18.985-5.226 3.018z" fill="#FEBC1F"/><path d="M28.03 29.526l5.192 3.016 5.225-3.017-5.19-3.016-5.226 3.017z" fill="#FFDE9B"/><path d="M19.053 37.155l.04 16.374 4.995 2.904-.037-16.376-4.998-2.902z" fill="#FA5F7F"/><path d="M24.05 40.057l.038 16.376 5.031-2.904-.039-16.376-5.03 2.904z" fill="#F34B58"/><path d="M19.053 37.155l4.996 2.902 5.031-2.904-4.996-2.904-5.031 2.906z" fill="#FE90A9"/><path d="M58.087 3.185l-2.34 7.154-1.902-.8c-5.207 7.563-10.913 11.759-17.117 16.514-5.645 4.317-11.471 8.77-17.811 16.105l-4.528-2.898-.121-2.173c6.37-7.381 12.226-11.85 17.872-16.181 5.403-4.136 10.55-8.06 15.184-14.068l-.603-.257-.076-2.506L58.011.665l.076 2.52z" fill="#7E5AF2"/><path d="M46.647 4.068l.07 2.51 9.024 3.756-.068-2.51-9.026-3.756z" fill="#986FF9"/><path d="M55.672 7.825l.07 2.508 2.345-7.153-.068-2.509-2.347 7.154z" fill="#7E5AF2"/><path d="M46.647 4.068l9.026 3.757L58.02.67 46.647 4.068z" fill="#B28AFD"/><path d="M53.842 7.066l-4.535-2.963c-5.142 7.604-10.98 12.072-17.16 16.804-5.654 4.326-11.502 8.803-17.871 16.181l4.535 2.91c6.37-7.378 12.218-11.855 17.872-16.18 6.18-4.731 12.018-9.148 17.16-16.752z" fill="#B28AFD"/><path d="M18.811 39.999l-4.536-2.91.11 2.164 4.535 2.91L18.811 40z" fill="#986FF9"/><path d="M53.842 7.065c-5.14 7.605-10.98 12.022-17.159 16.752-5.654 4.326-11.502 8.803-17.872 16.181l.109 2.165c6.34-7.34 12.166-11.801 17.804-16.116 6.211-4.755 11.917-8.951 17.117-16.503l.001-2.479z" fill="#7E5AF2"/></svg>