<svg width="62" height="74" fill="none" xmlns="http://www.w3.org/2000/svg"><path d="M61.657 12.53c.015 6.899-4.83 15.291-10.808 18.733-3.019 1.75-5.75 1.917-7.743.77-.076-.03-.136-.076-.212-.121l-6.822-3.97a5.566 5.566 0 01-.393-.241c-1.283-.921-2.188-2.446-2.58-4.484a12.948 12.948 0 01-.197-2.233c-.015-6.884 4.83-15.246 10.853-18.718 3.003-1.735 5.736-1.901 7.713-.77l7.019 4.091c1.947 1.132 3.154 3.517 3.17 6.944z" fill="#986FF9"/><path d="M61.762 50.87c.015 6.899-4.83 15.29-10.807 18.732-3.02 1.751-5.766 1.917-7.744.77a.956.956 0 00-.211-.12l-6.823-3.97c-1.947-1.132-3.154-3.532-3.17-6.959 0-.785.06-1.6.182-2.415.377-2.49 1.268-5.072 2.566-7.472 1.977-3.698 4.875-6.973 8.105-8.845 3.004-1.736 5.736-1.887 7.714-.74l7.034 4.076a2.27 2.27 0 00-.332-.166c2.143 1.041 3.471 3.502 3.486 7.11z" fill="#E93565"/><path d="M40.873 63.05c.936-.086 1.963-.43 3.039-1.051l7.032 4.086c-1.078.624-2.104.966-3.038 1.05l-7.033-4.085z" fill="#E98C82"/><path d="M39.352 62.947c.47.116.98.15 1.521.102l7.033 4.086a4.551 4.551 0 01-1.523-.104l-4.073-2.366-2.958-1.718z" fill="#E98C82"/><path d="M39.352 62.947c.11.044.241.139.345.2l.366.212.768.447 1.48.86 4.072 2.365a3.798 3.798 0 01-.96-.382l-7.033-4.086c.298.17.62.3.962.384zM51.654 48.57c-.006-2.45-.873-4.17-2.265-4.981l7.031 4.087c1.394.81 2.258 2.532 2.264 4.98.016 4.939-3.46 10.959-7.74 13.428l-7.032-4.086c4.28-2.471 7.755-8.49 7.742-13.428z" fill="#E98C82"/><path d="M38.36 62.546l.03.018 3.517 2.042 3.516 2.044-7.063-4.104z" fill="#E98C82"/><path d="M49.388 43.592l7.032 4.086c-1.414-.821-3.372-.705-5.527.539l-7.031-4.086c2.155-1.245 4.113-1.362 5.526-.539zm-3.997 23.04l-7.031-4.086c-1.398-.812-2.264-2.537-2.27-4.989-.014-4.934 3.461-10.939 7.772-13.426l7.03 4.086c-4.309 2.489-7.783 8.494-7.77 13.426.006 2.452.873 4.177 2.269 4.989z" fill="#fff"/><path d="M50.894 48.217c4.28-2.471 7.778-.492 7.792 4.44.015 4.94-3.461 10.96-7.743 13.429-4.31 2.49-7.807.496-7.82-4.443-.016-4.932 3.462-10.937 7.771-13.426z" fill="#fff"/><path d="M51.574 39.852c-1.978-1.148-4.71-.997-7.714.74-3.23 1.87-6.128 5.146-8.105 8.844-1.298 2.4-2.189 4.981-2.566 7.472a16.56 16.56 0 00-.181 2.415c.015 3.427 1.222 5.827 3.17 6.959l7.033 4.09c-1.322-.77-.23-2.2.606-4.111-1.416-1.952-1.759-4.65-.99-6.951 0-2.093-1.204-3.628-.038-5.783 1.011-1.891 2.883-2.81 4.9-3.508.867-2.457 2.99-4.417 6.37-4.417a7.89 7.89 0 011.586.157c1.077-1.394 1.687-2.573 2.962-1.832l-7.033-4.075z" fill="#F45170"/><path d="M50.891 44.682c5.972-3.446 10.85-.69 10.868 6.195.021 6.89-4.825 15.285-10.797 18.732-6.016 3.473-10.895.695-10.915-6.196-.002-.79.06-1.598.18-2.415.365-2.49 1.268-5.072 2.557-7.472 1.983-3.701 4.877-6.978 8.107-8.844zm.053 21.404c4.28-2.472 7.756-8.49 7.742-13.43-.015-4.932-3.512-6.913-7.793-4.44-4.31 2.489-7.784 8.494-7.77 13.426.014 4.94 3.51 6.933 7.821 4.444z" fill="#E93565"/><path d="M25.244 55.394c1.26-2.396 2.232-4.921 2.825-7.422l6.211 3.607.821.479c-.593 2.502-1.564 5.026-2.824 7.422l-7.033-4.086z" fill="#7E4F76"/><path d="M35.101 52.058l7.683 1.467c-1.287 2.403-2.192 4.982-2.557 7.471l-7.95-1.517c1.26-2.395 2.232-4.92 2.824-7.421z" fill="#E9E7FC"/><path d="M35.101 52.058l-7.032-4.086 7.683 1.467 7.034 4.086-7.685-1.467z" fill="#F3F1FC"/><path d="M38.282 24.224c1.414.804 3.366.679 5.521-.565l7.033 4.088c-2.156 1.243-4.108 1.367-5.524.563l-7.03-4.086zM51.544 10.23c-.006-2.451-.871-4.172-2.264-4.981l7.03 4.086c1.394.81 2.259 2.53 2.265 4.981.015 4.939-3.46 10.959-7.74 13.43l-7.033-4.088c4.28-2.47 7.756-8.49 7.742-13.428z" fill="#BBE1F7"/><path d="M38.251 24.206l.03.018 7.031 4.086-.03-.018-7.03-4.086z" fill="#BBE1F7"/><path d="M10.549 63.928c1.227-.112 2.575-.56 3.99-1.378l7.032 4.086c-1.416.818-2.763 1.268-3.99 1.38l-7.032-4.088z" fill="#E8C78F"/><path d="M49.28 5.25l7.033 4.086c-1.414-.821-3.372-.705-5.529.54l-7.03-4.086c2.156-1.245 4.114-1.361 5.528-.54h-.003z" fill="#fff"/><path d="M25.622 34.226a6.969 6.969 0 00-.432-.344l7.033 4.087c.148.108.291.224.431.344.942.808 1.697 1.898 2.227 3.253.072.181.138.365.199.55l-2.595-1.508-4.438-2.578a8.813 8.813 0 00-.199-.551c-.528-1.356-1.283-2.446-2.226-3.253z" fill="#7E4F76"/><path d="M45.282 28.292l-7.03-4.086c-1.398-.812-2.265-2.537-2.27-4.989-.014-4.938 3.46-10.937 7.771-13.426l7.031 4.086c-4.31 2.49-7.784 8.488-7.77 13.426.006 2.452.872 4.177 2.268 4.99z" fill="#fff"/><path d="M58.493 5.593c-1.974-1.152-2.91.675-5.917 2.412-6.02 3.472-11.492 10.46-11.472 17.344.006.798-1.094 1.267-.967 1.954.377 2.049 1.289 3.572 2.58 4.483.126.086.253.172.386.245l-7.031-4.083a4.839 4.839 0 01-.385-.254c-1.29-.91-2.203-2.433-2.581-4.483a12.22 12.22 0 01-.2-2.22c-.02-6.89 4.83-15.26 10.849-18.73 3.005-1.738 5.732-1.904 7.708-.76l7.03 4.091z" fill="#B28AFD"/><path d="M42.713 31.79l-7.638 10.325a5.777 5.777 0 00-.166-.468c0-.03-.015-.06-.03-.075-.528-1.359-1.283-2.446-2.219-3.26-.15-.122-.286-.242-.437-.348l-7.034-4.075 7.91-10.672 7.033 4.09c.377 2.038 1.298 3.563 2.581 4.483z" fill="#E9E7FC"/><path d="M32.223 37.969L25.19 33.88l7.914-10.667 7.031 4.086-7.912 10.669z" fill="#F3F1FC"/><path d="M40.135 27.3c.38 2.048 1.292 3.573 2.581 4.483l-7.638 10.332a10.791 10.791 0 00-.197-.55c-.53-1.355-1.285-2.445-2.227-3.252a6.9 6.9 0 00-.431-.345L40.135 27.3z" fill="#DEDFFB"/><path d="M50.783 6.344c5.971-3.447 10.85-.692 10.868 6.194.02 6.89-4.826 15.285-10.797 18.732-3.234 1.866-6.14 1.928-8.136.514-1.29-.91-2.203-2.435-2.581-4.483a12.413 12.413 0 01-.198-2.227c-.02-6.886 4.827-15.257 10.844-18.73zm.053 21.403c4.28-2.472 7.755-8.49 7.741-13.43-.015-4.938-3.512-6.912-7.793-4.44-4.31 2.49-7.784 8.488-7.77 13.426.015 4.94 3.51 6.932 7.822 4.444z" fill="#986FF9"/><path d="M50.784 9.877c4.28-2.47 7.78-.498 7.793 4.44.015 4.94-3.46 10.96-7.743 13.43-4.31 2.488-7.807.495-7.82-4.443-.016-4.94 3.46-10.938 7.77-13.427z" fill="#fff"/><path d="M24.694 44.933c-.01-3.215-1.145-5.47-2.973-6.533l7.033 4.086c1.826 1.063 2.961 3.32 2.97 6.533.019 6.476-4.54 14.376-10.153 17.617L14.54 62.55c5.613-3.24 10.172-11.141 10.154-17.617zM7.249 63.268c.936.544 2.056.776 3.3.661l7.032 4.087c-1.244.114-2.364-.118-3.3-.662L7.25 63.268z" fill="#E8C78F"/><path d="M21.721 38.4l7.033 4.087c-1.855-1.078-4.423-.924-7.25.709l-7.03-4.087c2.826-1.634 5.394-1.785 7.247-.708z" fill="#fff"/><path d="M14.281 67.354L7.25 63.268c-1.834-1.065-2.969-3.33-2.978-6.544-.018-6.476 4.54-14.348 10.202-17.616l7.031 4.086c-5.66 3.268-10.219 11.14-10.2 17.615.008 3.216 1.143 5.48 2.977 6.545z" fill="#fff"/><path d="M21.503 42.117c6.13-3.539 11.14-.71 11.16 6.36.02 7.07-4.957 15.697-11.088 19.236-6.18 3.569-11.19.708-11.21-6.362-.02-7.07 4.957-15.666 11.138-19.234z" fill="#fff"/><path d="M11.423 72.263L4.39 68.177C1.833 66.692.25 63.533.238 59.048c-.026-9.037 6.335-20.018 14.23-24.575 3.946-2.28 7.528-2.493 10.115-.99l7.031 4.088c-2.587-1.504-3.416.748-7.361 3.026-7.895 4.558-15.96 13.633-15.935 22.672.013 4.484.548 7.508 3.105 8.994z" fill="#FFD06C"/><path d="M35.08 42.117c.436 1.311.675 2.84.68 4.569a23.132 23.132 0 01-.659 5.372c-.593 2.502-1.564 5.026-2.824 7.422-2.598 4.94-6.423 9.322-10.685 11.782-7.895 4.559-14.298.91-14.323-8.128-.026-9.037 6.336-20.017 14.23-24.574 4.266-2.464 8.106-2.514 10.724-.591.148.107.291.223.431.344.936.81 1.692 1.9 2.224 3.245l.036.094c.057.15.113.308.166.465zM21.57 66.636c5.616-3.24 10.174-11.141 10.154-17.617-.018-6.475-4.606-9.065-10.22-5.825-5.66 3.268-10.219 11.14-10.2 17.615.018 6.476 4.606 9.096 10.267 5.827z" fill="#FEBC1F"/><path d="M20.512 41.057c-.849.3-1.62.785-2.26 1.42a5.464 5.464 0 00-1.38 2.26.306.306 0 01-.575 0 5.857 5.857 0 00-3.68-3.68c-.27-.077-.27-.46 0-.537a5.975 5.975 0 002.26-1.419 5.392 5.392 0 001.42-2.26c.114-.307.46-.307.573 0a5.73 5.73 0 001.381 2.262 6.68 6.68 0 002.261 1.419c.308.075.308.459 0 .535zm9.332 9.054c.009 2.765-1.007 5.848-2.634 8.538-1.483 2.45-3.473 4.578-5.67 5.843-2.205 1.272-4.214 1.445-5.705.697-1.624-.81-2.643-2.708-2.65-5.46-.016-5.283 3.7-11.72 8.303-14.377 4.599-2.657 8.342-.522 8.356 4.76z" fill="#fff"/><path d="M24.58 54.79a7.233 7.233 0 01-.872 2.452c-.664 1.184-1.592 2.135-2.476 2.654-.74.42-1.46.553-1.989.264-.453-.241-.774-.773-.874-1.668-1.657-.211-.486-2.354-.43-2.475l-.033-.642a4.573 4.573 0 001.038-.442c2.1-1.215 4.421-4.133 4.465-4.178.01.023.023.045.045.056.408.463 1.547.42 1.612.407a5.93 5.93 0 01-.11.785c1.271.631-.287 2.676-.376 2.787z" fill="#F4D6D4"/><path d="M20.885 48.966c1.425-.822 2.664-.74 2.73-.735 1.566-.332 1.57 1.789 1.448 2.992 0 .001-1.198.051-1.61-.408a.58.58 0 01-.046-.06c-.037.047-2.359 2.958-4.467 4.175a4.27 4.27 0 01-1.033.448l-.063-1.06c-.058-1.018.29-2.265.985-3.352a6.005 6.005 0 012.056-2z" fill="#AA6256"/><path d="M23.71 57.907c-.004.141.012.282.046.418l.003.293c.008 1.436-.996 3.18-2.246 3.907-1.256.724-2.264.15-2.272-1.283l-.004-1.083c.536.289 1.253.16 1.99-.265.895-.517 1.817-1.469 2.48-2.648l.004.661z" fill="#F5C9C6"/><path d="M27.211 58.648c-1.483 2.451-3.474 4.578-5.67 5.843-2.206 1.273-4.215 1.446-5.706.698.453-.737 1.055-1.374 1.72-1.762.465-.267.89-.726 1.191-1.259.05-.083.091-.166.132-.25.223-.467.355-.956.355-1.407v-.352l.007 1.082c0 .062.003.124.01.185 0 .039.002.075.01.111.007.12.03.238.067.352.047.173.124.336.227.483.021.023.038.045.057.065a1.1 1.1 0 00.746.394c.084.01.17.011.254.004.081-.005.162-.018.241-.039a.616.616 0 00.13-.036.918.918 0 00.216-.08.14.14 0 00.043-.02c.016-.006.034-.012.053-.022.06-.025.119-.055.174-.09.014-.002.023-.012.036-.019.003 0 .003-.003.006-.006.144-.08.28-.172.408-.276.03-.023.06-.046.09-.073l.088-.078a1.6 1.6 0 00.184-.175 1.21 1.21 0 00.09-.09l.091-.098a3.64 3.64 0 00.21-.252c.095-.119.187-.244.272-.375.154-.238.29-.488.407-.746.035-.072.064-.148.094-.22l.072-.194c.03-.086.06-.172.082-.256.02-.056.033-.12.045-.175a.362.362 0 00.024-.096c.015-.064.03-.137.04-.203.002-.012.005-.023.005-.037l.003-.015a2.893 2.893 0 00.044-.526v-.313l.003.01.02.069c.003.01.003.02.01.03.011.033.023.066.037.098v.005l.009.022c.015.033.033.065.05.095l.012.023v.003a.862.862 0 00.619.412l.117.009c.273-.004.54-.084.77-.23.14-.08.266-.144.391-.194.374-.151.703-.196.993-.157a1.1 1.1 0 01.421.128z" fill="#7E5AF2"/></svg>