<svg width="56" height="74" fill="none" xmlns="http://www.w3.org/2000/svg"><path d="M9.52 72.879l-7.698-4.483C.886 67.852.297 66.705.297 65.06l-.075-28.8 7.698 4.468 10 22.612c0 1.63-9.336 8.995-8.4 9.539z" fill="#D9DDDD"/><path d="M55.712 13.145l.081 28.804c.01 3.301-2.31 7.32-5.185 8.981L13.226 72.51c-2.871 1.66-5.21.328-5.218-2.973l-.083-28.803 47.787-27.59z" fill="#EAEFEF"/><path d="M54.184 5.604c-.95-.544-.397 4.3-1.83 5.13L17.087 31.883c-2.868 1.66-6.649 1.46-6.634 4.767L7.92 40.728.222 36.26l-.015-4.21c-.015-3.306 2.31-7.32 5.177-8.981L42.773 1.483c1.449-.83 2.762-.906 3.698-.362l7.713 4.483z" fill="#7DD17D"/><path d="M50.481 5.966c2.873-1.66 5.208-.326 5.219 2.974l.012 4.205-47.786 27.59-.012-4.206c-.01-3.3 2.31-7.32 5.183-8.981L50.481 5.966z" fill="#69B769"/><path d="M50.845 35.963c0 .377-.15.845-.422 1.237l-8.166 12.121a2.2 2.2 0 01-.695.664c-.332.197-.649.212-.875.015.03.03.06.046.09.076l-1.252-.725c-.03-.03-.06-.045-.076-.075-.392-.332-.302-1.178.181-1.887l6.928-10.294-5.63-2.008c-.06-.03-.105-.06-.15-.09.03.03.03.045.06.06l-1.238-.725c-.392-.241-.438-.95-.075-1.675.21-.423.528-.77.86-.966.226-.136.468-.181.664-.12h.03l.015.014 7.683 2.642c.015 0 .015.015.03.015l.046.015 1.66.966h-.03c.226.106.362.377.362.74zM27.872 56.808l-.317.92c-.212.363-.483.68-.77.846-.242.136-.483.181-.694.12l-8.167-2.777a.606.606 0 01-.226-.211c.045.06.076.12.136.166l-1.253-.724c-.196-.121-.317-.378-.317-.725 0-.377.151-.83.408-1.238l8.12-12.166c.212-.317.453-.543.695-.679.287-.166.573-.211.785-.09l1.253.724c-.016-.015-.03-.015-.06 0 .06.015.09.03.135.06.392.332.317 1.178-.166 1.902l-6.823 10.22.665.226 1.947.664 2.596.89c.03 0 .06.015.09.03l1.66.966c-.03-.015-.06-.03-.105-.045.317.106.438.468.408.92z" fill="#4878FE"/><path d="M40.113 30.514l-9.78 29.298c-.182.573-.574 1.056-.997 1.298-.166.09-.317.15-.483.15a.434.434 0 01-.302-.075h-.015l-.015-.015-1.223-.71c-.317-.18-.422-.694-.211-1.313l.468-1.418.317-.921 8.996-26.959c.181-.573.573-1.071.996-1.298a.829.829 0 01.483-.15.434.434 0 01.302.075l1.132.664c-.06-.015-.12-.03-.181-.015.09 0 .181.015.257.06.362.166.468.695.256 1.329z" fill="#FF5230"/><path d="M48.868 34.271l1.656.962a.532.532 0 00-.088-.041l-1.656-.962c.03.011.06.025.088.041z" fill="#0074D1"/><path d="M40.87 48.107l-1.246-.724 7.088-10.512 1.247.725-7.088 10.511z" fill="#638DFF"/><path d="M40.776 50.07l-1.247-.725a.535.535 0 01-.086-.063c-.382-.334-.299-1.187.181-1.9l1.247.725c-.48.713-.563 1.566-.181 1.9a.57.57 0 00.086.063z" fill="#638DFF"/><path d="M28.546 61.194l-1.246-.725c-.322-.187-.423-.706-.216-1.328l1.247.724c-.207.622-.106 1.141.215 1.328z" fill="#FF5230"/><path d="M42.284 32.287l-1.262-.727 7.83 2.697 1.654.961-8.222-2.93z" fill="#638DFF"/><path d="M41.629 32.42l-1.247-.724c.246-.143.495-.192.702-.118l1.247.725c-.207-.076-.456-.026-.702.118z" fill="#638DFF"/><path d="M40.844 35.05l-1.247-.724c-.395-.23-.438-.942-.075-1.663.217-.436.537-.782.86-.968l1.247.725a2.33 2.33 0 00-.86.967c-.363.722-.32 1.434.075 1.664z" fill="#638DFF"/><path d="M41.629 32.42c.246-.143.495-.191.702-.117l8.105 2.889c.263.093.415.377.412.765-.001.388-.157.846-.422 1.238l-8.177 12.128a2.167 2.167 0 01-.684.669c-.33.19-.656.211-.875.015-.382-.334-.3-1.186.18-1.899l7.09-10.511-7.027-2.506c-.477-.17-.553-.93-.166-1.703.219-.436.54-.782.862-.967z" fill="#4878FE"/><path d="M38.65 28.468l1.247.725a.577.577 0 00-.31-.074 1.03 1.03 0 00-.48.15l-1.247-.724c.145-.09.31-.141.48-.15a.577.577 0 01.31.075v-.002zM28.33 59.866l-1.246-.725L36.86 29.85l1.247.725-9.776 29.292zm9.777-29.291l-1.247-.725c.19-.568.586-1.066 1-1.304l1.246.724c-.413.239-.809.737-.999 1.305z" fill="#FF5230"/><path d="M39.106 29.271c.145-.09.31-.141.48-.15.556-.016.79.61.529 1.4l-9.777 29.29c-.19.568-.587 1.065-1 1.305-.146.09-.312.14-.482.15-.554.016-.79-.612-.525-1.4l9.776-29.292c.19-.568.586-1.064 1-1.303z" fill="#E5392C"/><path d="M25.91 54.973l1.657.963a.538.538 0 00-.097-.045l-1.654-.962a.531.531 0 01.095.044zm-5.515-1.487l-1.655-.962 7.076 2.405 1.654.962-7.075-2.405z" fill="#638DFF"/><path d="M27.47 55.89l-4.546-1.544-1.655-.963 4.547 1.547 1.654.96zm-1.195-15.633l1.247.724c-.215-.125-.502-.087-.79.079l-1.247-.725c.289-.166.575-.203.79-.078z" fill="#638DFF"/><path d="M26.04 41.74l-1.246-.725c.204-.306.448-.539.691-.68l1.247.725a2.17 2.17 0 00-.691.68zm-8.12 12.176l-1.247-.724 8.121-12.177 1.247.725-8.121 12.176zm-.09 1.952l-1.246-.724c-.207-.12-.326-.375-.326-.713 0-.386.153-.845.415-1.24l1.247.725c-.263.394-.417.853-.415 1.24 0 .338.12.593.326.712z" fill="#638DFF"/><path d="M26.732 41.06c.326-.188.65-.211.871-.02.383.327.308 1.177-.169 1.894l-7.039 10.552 7.075 2.406c.48.165.56.92.18 1.694-.219.442-.542.794-.868.98-.243.143-.488.192-.694.121l-8.162-2.775c-.264-.09-.42-.37-.423-.755 0-.388.154-.845.417-1.24l8.12-12.177c.205-.307.45-.54.692-.68z" fill="#4878FE"/><path d="M16.01 30.796c-.392-.226-.147 2.554-.766 2.901-1.208.71-1.365-.246-1.35 1.143 0 .528-1.521.832-1.28 1.103a.59.59 0 00.257.212l.015.015-1.283-.755h-.015a1.11 1.11 0 01-.468-.513 2.208 2.208 0 01-.166-.876v-.03c0-1.389.981-3.094 2.189-3.804.618-.347 1.177-.377 1.57-.15l1.298.754z" fill="#FFD651"/><path d="M14.444 30.967c1.216-.703 2.207-.14 2.21 1.259.004 1.398-.979 3.102-2.197 3.804-1.216.703-2.205.137-2.21-1.26-.002-1.399.98-3.1 2.197-3.803z" fill="#DDB040"/><path d="M23.437 26.525c-.393-.242-.306 2.095-.925 2.442-1.208.71-1.83.163-1.83 1.567 0 .166-.182.116-.152.267.06.302.12.522.271.688.091.09-.58.334-.473.394l-.06-.03-1.239-.71a1.284 1.284 0 01-.468-.543c-.12-.241-.18-.528-.18-.875 0-1.389.98-3.095 2.203-3.804.604-.347 1.162-.377 1.57-.151l1.283.755z" fill="#FF5230"/><path d="M21.872 26.677c1.218-.704 2.206-.14 2.211 1.26.005 1.398-.98 3.1-2.196 3.804-1.217.702-2.206.136-2.21-1.26-.005-1.4.98-3.103 2.195-3.804z" fill="#E5392C"/><path d="M30.863 22.238c-.392-.242-.025 1.471-.629 1.819-1.223.694-2.068.569-2.068 1.972 0 .348.006.609.112.835.06.12.081.02.157.11.06.076-.817.547-.741.592l-1.223-.71a1.81 1.81 0 01-.272-.226c-.241-.241-.392-.664-.392-1.192 0-1.404.98-3.095 2.204-3.804.603-.347 1.162-.378 1.57-.151l1.282.755z" fill="#fff"/><path d="M29.301 22.389c1.218-.703 2.207-.14 2.212 1.259.002 1.398-.98 3.102-2.197 3.803-1.216.704-2.207.138-2.21-1.26-.004-1.398.978-3.099 2.195-3.802z" fill="#EAEFEF"/></svg>