<svg width="69" height="77" fill="none" xmlns="http://www.w3.org/2000/svg"><path d="M41.877 8.982c.015 5.102-3.562 11.306-8.015 13.872-2.264 1.313-4.317 1.404-5.781.513l-2.536-1.479c-1.434-.845-2.34-2.626-2.34-5.147-.015-5.102 3.578-11.306 8-13.872 2.234-1.283 4.257-1.404 5.721-.558l2.551 1.494c1.48.815 2.385 2.611 2.4 5.177z" fill="#5EC363"/><path d="M6.134 73.677l-.212-.12a3.579 3.579 0 01-.754-.68c.286.332.603.589.966.8z" fill="#5094FF"/><path d="M19.854 59.262c0 5.102-3.577 11.305-8.015 13.871-2.234 1.284-4.256 1.404-5.705.544a3.744 3.744 0 01-.966-.8c.226.272.467.483.754.68l-2.4-1.39c-1.434-.845-2.34-2.626-2.34-5.147-.014-5.102 3.563-11.305 8-13.871 2.235-1.284 4.257-1.404 5.721-.559l2.491 1.464c1.51.8 2.445 2.611 2.46 5.208z" fill="#5094FF"/><path d="M6.134 73.677l-.212-.12a3.579 3.579 0 01-.754-.68c.286.332.603.589.966.8z" fill="#5094FF"/><path d="M64.82 32.997c.016 5.102-3.562 11.306-8 13.872-2.234 1.283-4.256 1.404-5.705.558-.06-.03-.121-.075-.166-.105l-2.446-1.42c-.724-.422-1.313-1.07-1.72-1.946-.408-.86-.634-1.933-.634-3.2h.015c-.015-5.102 3.562-11.306 8-13.872 2.234-1.283 4.256-1.404 5.705-.559l2.566 1.495c1.465.83 2.37 2.611 2.385 5.177z" fill="#BF7D5A"/><path d="M22.192 70.169c-2.347 0-4.52-.545-6.448-1.642a.859.859 0 01.85-1.49c4.125 2.35 9.663 1.76 15.59-1.663 6.073-3.507 11.785-9.537 16.084-16.982a57.36 57.36 0 001.268-2.317.86.86 0 011.521.787 57.365 57.365 0 01-1.305 2.388c-4.446 7.7-10.38 13.955-16.71 17.609-3.81 2.2-7.502 3.31-10.85 3.31z" fill="#4C5C75"/><path d="M62.49 27.852c-1.464-.845-3.487-.725-5.72.558-4.439 2.566-8.016 8.755-8 13.857 0 2.536.89 4.317 2.339 5.162l-2.612-1.524c-.724-.423-1.313-1.072-1.72-1.947-.408-.86-.634-1.932-.634-3.2h.015c-.015-5.102 3.562-11.306 8-13.872 2.234-1.283 4.256-1.404 5.706-.559l2.626 1.525z" fill="#DBA660"/><path d="M62.452 40.885c3.137-5.406 3.142-11.261.011-13.079-3.131-1.817-8.213 1.092-11.35 6.498-3.138 5.406-3.143 11.262-.012 13.08 3.131 1.817 8.213-1.093 11.35-6.499z" fill="#BF7D5A"/><path d="M60.307 36.62c-.785-.468-1.56 2.553-2.783 3.262-2.28 1.313-4.477 1.432-4.673 4.104-.015.151.03.242.105.287l-.83-.483c-.075-.045-.12-.136-.106-.287.197-2.672 2.068-5.75 4.348-7.064 1.207-.71 2.309-.77 3.109-.302l.83.483z" fill="#fff"/><path d="M57.2 36.922c2.275-1.315 4.153-.394 4.368 2.04.02.24-.156.562-.376.69l-7.958 4.594c-.222.128-.4.012-.38-.254.2-2.673 2.066-5.755 4.345-7.07z" fill="#E2E5EF"/><path d="M58.692 31.594c-.377-.212-.09 2.576-.68 2.908-1.176.68-1.85-.302-1.85 1.042 0 .664-.851 1-.474 1.227l-.83-.483c-.377-.226-.619-.694-.619-1.359 0-1.343.936-2.988 2.114-3.668.588-.332 1.116-.362 1.509-.15l.83.483z" fill="#fff"/><path d="M55.756 27.411h-.012a.857.857 0 01-.845-.87c.098-7.072-2.183-12.297-6.42-14.712-1.806-1.026-3.892-1.49-6.205-1.393-.465.04-.874-.345-.895-.818a.859.859 0 01.82-.894c2.638-.12 5.037.426 7.127 1.615 4.808 2.739 7.395 8.5 7.288 16.227a.857.857 0 01-.858.845z" fill="#4C5C75"/><path d="M39.531 3.837c-1.464-.845-3.486-.724-5.72.559-4.423 2.566-8.015 8.755-8 13.856.015 2.536.905 4.317 2.34 5.163l-2.612-1.525c-1.434-.845-2.34-2.626-2.34-5.147-.015-5.102 3.578-11.306 8-13.872 2.234-1.283 4.257-1.404 5.721-.558l2.611 1.524z" fill="#78E75A"/><path d="M39.5 16.89c3.137-5.406 3.142-11.262.011-13.079-3.131-1.817-8.213 1.092-11.35 6.498-3.138 5.406-3.143 11.262-.012 13.08 3.131 1.817 8.213-1.093 11.35-6.499z" fill="#5EC363"/><path d="M37.364 12.605c-.8-.468-1.378 1.85-2.601 2.544-2.28 1.313-4.66 2.15-4.856 4.822-.015.151.03.242.106.287l-.83-.483c-.076-.045-.121-.136-.121-.287.211-2.671 2.068-5.75 4.347-7.064 1.223-.71 2.325-.77 3.125-.302l.83.483z" fill="#fff"/><path d="M34.247 12.907c2.276-1.313 4.154-.392 4.368 2.041.021.242-.155.562-.376.69l-7.956 4.593c-.222.128-.4.012-.38-.252.2-2.675 2.065-5.755 4.344-7.072z" fill="#E2E5EF"/><path d="M35.749 7.594c-.393-.226-.245 2.693-.849 3.025-1.162.68-1.803-.139-1.803 1.204 0 .665-.745.707-.367.933l-.83-.483c-.378-.226-.62-.694-.62-1.358 0-1.344.952-2.989 2.114-3.668.589-.332 1.132-.362 1.51-.136l.845.483z" fill="#fff"/><path d="M34.232 7.735c1.173-.677 2.125-.135 2.128 1.211.005 1.346-.942 2.989-2.115 3.663-1.172.678-2.125.136-2.128-1.212-.005-1.345.943-2.985 2.115-3.662z" fill="#E2E5EF"/><path d="M17.509 54.116c-1.465-.86-3.487-.725-5.721.558-4.423 2.566-8.015 8.755-8 13.857.015 2.535.906 4.317 2.34 5.147l-2.612-1.51c-1.434-.845-2.34-2.626-2.34-5.147-.014-5.102 3.563-11.305 8-13.871 2.235-1.283 4.257-1.404 5.721-.559l2.612 1.525z" fill="#57B3FE"/><path d="M17.505 67.155c3.138-5.406 3.143-11.262.012-13.08-3.132-1.817-8.214 1.093-11.351 6.499-3.138 5.406-3.143 11.262-.012 13.079 3.132 1.817 8.214-1.092 11.351-6.498z" fill="#5094FF"/><path d="M15.085 62.749c-.785-.317-1.228 2.056-2.314 2.69-2.28 1.313-4.69 2.14-4.886 4.812-.016.136.03.241.105.286l-.83-.483c-.075-.045-.12-.15-.12-.286.21-2.672 2.067-5.751 4.346-7.065 1.223-.709 2.325-.77 3.11-.301l.588.347z" fill="#fff"/><path d="M12.223 63.185c2.277-1.315 4.154-.394 4.37 2.039.02.242-.156.563-.378.69L8.26 70.508c-.223.129-.402.013-.38-.253.199-2.672 2.064-5.756 4.344-7.07z" fill="#E2E5EF"/><path d="M13.71 57.858c-.376-.211-.452 2.446-1.056 2.778-1.162.679-.338-.212-.338 1.132 0 .664-1.986 1.041-1.609 1.268l-.83-.483c-.377-.227-.619-.695-.619-1.359 0-1.343.951-2.989 2.113-3.668.589-.332 1.132-.362 1.51-.15l.83.482z" fill="#fff"/><path d="M12.208 58.011c1.172-.676 2.126-.132 2.13 1.213.004 1.346-.944 2.987-2.115 3.663-1.173.678-2.127.134-2.13-1.214-.005-1.343.943-2.984 2.115-3.662z" fill="#E2E5EF"/><path d="M9.355 55.307A.857.857 0 018.5 54.5c-.436-7.563 2.05-16.639 6.82-24.9 2.412-4.178 5.248-7.917 8.429-11.114a.859.859 0 011.215 1.21c-3.076 3.092-5.82 6.712-8.16 10.761-4.605 7.98-7.008 16.707-6.592 23.945a.857.857 0 01-.857.905z" fill="#4C5C75"/><path d="M40.12 28.999c-1.494-.876-2.04 4.985-4.2 5.665-.8.256-2.645 1.159-3.506 1.657-2.098 1.207-3.497 6.832-5.188 8.945-2.49 3.124 3.52.367 2.72 4.095-.286 1.298-4.095 1.69-4.095 2.943.015 3.593-3.874 3.23-1.837 4.408l-2.747-1.57c-2.038-1.193-3.305-3.713-3.32-7.29 0-1.253.15-2.551.437-3.865.8-3.728 2.672-7.547 5.162-10.671 1.691-2.099 3.638-3.895 5.736-5.102.86-.498 1.706-.86 2.506-1.117 2.158-.695 4.09-.559 5.585.317l2.747 1.585z" fill="#E9E7FC"/><path d="M43.442 36.285c.014 3.776-1.373 7.987-3.595 11.66-2.024 3.347-4.746 6.251-7.744 7.98-3.012 1.737-5.755 1.976-7.793.95-2.219-1.101-3.609-3.697-3.618-7.455-.023-7.213 5.055-16.007 11.339-19.634 6.28-3.627 11.393-.714 11.411 6.5z" fill="#F8F9FE"/><path d="M36.256 42.675c-.181 1.192-.619 2.34-1.193 3.35-.905 1.616-2.173 2.914-3.38 3.623-1.012.574-1.993.755-2.718.362-.619-.332-1.056-1.056-1.192-2.279-2.264-.287-.664-3.215-.589-3.381l-.045-.876a6.24 6.24 0 001.419-.603c2.868-1.66 6.038-5.646 6.098-5.706.015.03.03.06.06.075.559.634 2.114.574 2.204.559-.06.634-.136 1.041-.15 1.072 1.735.86-.393 3.652-.514 3.803z" fill="#F4D6D4"/><path d="M31.208 34.724c1.948-1.126 3.638-1.013 3.729-1.007 2.139-.451 2.143 2.444 1.98 4.086 0 .003-1.64.071-2.202-.558a.797.797 0 01-.062-.079c-.05.062-3.223 4.04-6.098 5.7a5.878 5.878 0 01-1.413.613l-.088-1.45c-.077-1.388.397-3.094 1.347-4.573.847-1.322 1.847-2.18 2.807-2.732z" fill="#1C2841"/><path d="M35.068 46.933c.003.432.095.786.257 1.053a1.695 1.695 0 01-.194-.482l.003.4c.01 1.962-1.361 4.344-3.068 5.335-1.715.989-3.09.204-3.102-1.754l-.006-1.476c.732.393 1.71.218 2.717-.362 1.222-.706 2.483-2.008 3.388-3.617l.005.903z" fill="#F5C9C6"/><path d="M39.847 47.944c-2.024 3.348-4.746 6.252-7.744 7.98-3.012 1.737-5.755 1.976-7.793.951.62-1.004 1.442-1.875 2.352-2.404.634-.364 1.212-.992 1.626-1.721.067-.112.125-.224.18-.34.304-.637.484-1.307.484-1.921v-.48l.009 1.476c0 .086.004.17.013.252a.81.81 0 00.014.15c.009.119.027.232.054.333a.691.691 0 00.04.15c.064.237.17.46.31.659.026.032.049.063.076.09a1.497 1.497 0 001.019.54 2.038 2.038 0 00.853-.1 1.31 1.31 0 00.296-.107c.018-.005.04-.018.06-.028l.07-.03c.076-.033.158-.072.238-.122.018-.005.032-.018.05-.027.004 0 .004-.005.009-.01.197-.108.383-.234.557-.377.04-.03.08-.061.12-.098.041-.036.087-.072.121-.108.09-.071.175-.151.252-.237a5.316 5.316 0 00.533-.602c.131-.162.257-.333.374-.512.211-.325.397-.666.556-1.02.045-.097.086-.201.127-.301a7.935 7.935 0 00.21-.614c.027-.076.045-.162.063-.237a.5.5 0 00.03-.13 2.95 2.95 0 00.056-.28c.005-.018.009-.03.009-.048 0-.009.005-.015.005-.022.016-.121.034-.242.045-.355.008-.121.012-.242.012-.364v-.427c0 .005.004.009.004.015l.028.094c.004.013.004.027.013.039a1.486 1.486 0 00.045.131s0 .005.005.005v.004l.014.03c.02.046.045.091.066.132l.018.03v.005c.234.347.513.516.845.561.133.015.147.015.16.015.319.003.68-.095 1.05-.317.194-.106.365-.196.535-.263.514-.206.96-.27 1.356-.215.211.022.401.08.575.175z" fill="#F45170"/><path d="M57.184 31.75c1.173-.677 2.125-.135 2.129 1.21.004 1.348-.942 2.988-2.114 3.665-1.174.676-2.128.134-2.131-1.214-.003-1.345.943-2.986 2.116-3.662z" fill="#E2E5EF"/></svg>