<svg width="74" height="68" fill="none" xmlns="http://www.w3.org/2000/svg"><path d="M50.737 3.213c-.092 0-.015.23-.323.415l-8.462 4.877-26.338 15.2c-.754.462-1.385 1.539-1.385 2.416l-.492 25.2-2.646-1.508-.092-25.477c0-.892.63-1.954 1.384-2.4l34.8-20.092c.385-.216.739-.246 1-.093l2.554 1.462z" fill="#1C2841"/><path d="M50.832 3.256c-.243-.143-.032.144-.42.375l-8.458 4.877-26.339 15.205c-.763.452-1.381 1.524-1.381 2.409l-.499 25.2-2.652-1.51-.077-25.476c0-.885.619-1.957 1.382-2.4l34.797-20.09c.387-.221.741-.243.995-.098l2.652 1.508z" fill="#4C5C75"/><path d="M51.312 29.627L13.74 51.324l-.077-25.48c0-.886.618-1.957 1.387-2.403L49.843 3.35c.77-.446 1.394-.089 1.4.797l.07 25.479z" fill="#1C2841"/><path d="M50.25 29L14.83 49.466l-.078-23.63c0-.491.416-1.213.86-1.473l34.576-19.96L50.249 29z" fill="#fff"/><path d="M13.739 51.32l.01 3.424L35.775 67.53c.765.445 2.004.445 2.774 0l34.794-20.087c.388-.223.582-.52.582-.811l-.011-3.402c0 .293-.194.582-.582.805L13.74 51.321z" fill="#E9E7FC"/><path d="M13.74 51.318l22.028 12.8c.763.447 2.004.447 2.773 0l34.793-20.086c.772-.446.777-1.164.012-1.609l-22.028-12.8L13.74 51.318z" fill="#F8F9FE"/><path d="M57.523 51.13a.754.754 0 01-.262.301l-7.913 4.591a1.328 1.328 0 01-1.39 0l-5.033-2.9a.674.674 0 01-.282-.301.672.672 0 01.282-.886l7.914-4.591a1.293 1.293 0 011.369 0l5.053 2.9c.324.181.404.584.262.886z" fill="#B0B8CF"/><path d="M57.523 51.13a.754.754 0 01-.262.3l-7.913 4.592a1.328 1.328 0 01-1.39 0l-5.033-2.9a.674.674 0 01-.282-.302c.04-.142.14-.242.282-.323l7.914-4.59a1.293 1.293 0 011.369 0l5.053 2.9a.514.514 0 01.262.322z" fill="#E9E7FC"/><path d="M20.422 47.28c.061-.037.149-.03.246.023a.81.81 0 01.361.637l28.454-16.455a.802.802 0 00-.357-.636c-.098-.057-.188-.06-.25-.023L20.421 47.28z" fill="#101C32"/><path d="M20.67 47.303c-.2-.115-.36-.01-.36.22l.72.415a.807.807 0 00-.36-.635z" fill="#4D5C75"/><path d="M52.217 34.036l-1.757-1.042 1.838-1.07.082.02 1.758 1.04-1.809 1.052h-.112zm-2.305 1.332l-1.758-1.042 1.832-1.067.092.015 1.747 1.035-1.8 1.059h-.113zM22 54.128l-1.772-1.05 3.35-1.935.094.019 1.751 1.037-3.31 1.929H22zm6.843 3.977l-1.766-1.046 2.43-1.403.08.018 1.76 1.042-2.392 1.389h-.112zm-2.283-1.326l-1.758-1.042 5.866-3.395.081.018 1.757 1.042-5.835 3.377h-.111zM44.43 46.46l-1.764-1.046 1.846-1.066.08.018 1.765 1.047-1.816 1.046-.11.001zm-12.692 9.974l-1.758-1.041 2.428-1.413.081.019 1.766 1.046-2.404 1.389h-.113zM53.24 36.091l-1.772-1.05 3.107-1.795.085.023 1.77 1.047-3.078 1.775h-.112zm-5.632.606l-1.765-1.046 1.838-1.062.093.016 1.746 1.037-1.8 1.055h-.112zm3.367.702l-1.772-1.05 1.846-1.066.085.022 1.761 1.041-1.807 1.053h-.113zm-5.674.629l-1.756-1.042 1.83-1.066.082.019 1.766 1.046-1.81 1.043h-.111zm3.44.698l-1.807-1.05 1.83-1.074.085.021 1.762 1.042-1.831 1.068-.038-.007zm-5.7.645l-1.8-1.045 1.831-1.075.08.018 1.759 1.042-1.831 1.066-.038-.006zm12.877.494l-1.8-1.046 5.023-2.919.082.019 1.758 1.041-5.026 2.911-.037-.006zm-9.506.167l-1.772-1.049 1.84-1.061.095.017 1.75 1.037-1.8 1.056h-.113zm3.908.384l-1.762-1.04 1.839-1.071.081.018 1.773 1.05-1.813 1.046-.118-.003zm-9.634.278l-1.758-1.041 1.838-1.07.082.019 1.757 1.04-1.807 1.052h-.112zm12.934.498l-1.8-1.046 1.83-1.074.082.019 1.757 1.04-1.83 1.068-.039-.006zm-9.492.16l-1.773-1.05 1.847-1.066.084.023 1.77 1.046-1.816 1.046-.112.002zm3.9.387l-1.76-1.04 1.838-1.071.082.018 1.77 1.05-1.812 1.046-.118-.003zm-9.648.286l-1.757-1.042 1.83-1.066.093.015 1.746 1.036-1.8 1.057h-.112zm12.955.486l-1.8-1.046 1.831-1.074.08.018 1.759 1.042-1.831 1.066-.039-.006zm-9.441.168l-1.808-1.05 1.83-1.073.086.021 1.761 1.042-1.83 1.066-.04-.006zm3.843.383l-1.762-1.04 1.839-1.071.081.018 1.773 1.05-1.814 1.046-.117-.003zm-9.662.294l-1.758-1.042 1.83-1.066.093.015 1.748 1.036-1.8 1.057h-.113zm18.454-.042l-1.8-1.046 2.33-1.365.092.016 1.746 1.037-2.332 1.364-.036-.006zm-5.478.517l-1.8-1.046 1.83-1.076.08.019 1.759 1.041-1.83 1.067-.04-.005zm-9.485.154l-1.772-1.048 1.838-1.061.086.02 1.76 1.041-1.8 1.05-.112-.002zm3.88.4l-1.761-1.042 1.838-1.069.08.018 1.774 1.05-1.816 1.046-.115-.003zm-9.677.301l-1.757-1.041 1.831-1.066.083.018 1.759 1.042-1.802 1.047h-.114zm12.997.463l-1.8-1.046 1.83-1.074.08.019 1.76 1.04-1.831 1.068-.039-.007zm-9.484.156l-1.774-1.05 1.846-1.066.086.022 1.76 1.041-1.806 1.053h-.112zm3.872.403l-1.77-1.046 1.847-1.065.081.019 1.773 1.049-1.814 1.046-.117-.003zm-9.645.323l-1.8-1.046 1.831-1.076.08.019 1.758 1.041-1.83 1.067-.039-.005zm3.537.602l-1.821-1.059 1.846-1.066.083.023 1.77 1.046-1.841 1.062-.037-.007zm3.812.398l-1.749-1.037 1.831-1.075.082.018 1.772 1.05-1.81 1.044h-.126zm-9.704.322l-1.759-1.042 1.839-1.07.081.018 1.759 1.041-1.808 1.053h-.112zm12.992.426l-1.758-1.04 1.838-1.073.082.019 1.766 1.046-1.816 1.048h-.112zm-9.428.16l-1.773-1.05 1.84-1.061.084.021 1.77 1.047-1.808 1.043h-.113zm3.85.415l-1.751-1.037 1.83-1.074.082.019 1.773 1.049-1.808 1.043h-.126zm-9.72.33l-1.759-1.042 1.84-1.071.082.018 1.758 1.042-1.809 1.052h-.112zm13.014.415l-1.759-1.042 1.838-1.07.082.018 1.758 1.041-1.807 1.053h-.112zm-9.43.16l-1.77-1.05 1.838-1.061.095.017 1.751 1.037-1.8 1.057h-.114zm3.845.418l-1.752-1.037 1.83-1.075.083.018 1.771 1.05-1.808 1.046-.124-.002zm-9.734.337l-1.765-1.046 1.839-1.062.092.016 1.746 1.035-1.8 1.057h-.112zm13.032.403l-1.758-1.041 1.84-1.071.081.018 1.759 1.042-1.81 1.052h-.112zm-9.426.162l-1.774-1.051 1.846-1.066.087.021 1.76 1.042-1.806 1.054h-.113zm3.836.421l-1.751-1.037 1.83-1.074.082.019 1.772 1.05L32.111 51h-.126zm8.624.35l-1.8-1.047 13.416-7.764.092.015 1.746 1.035-13.417 7.767-.037-.007zm-5.317.386l-1.758-1.04 1.838-1.071.082.018 1.757 1.042-1.806 1.05h-.113zm-9.377.169l-1.809-1.051 1.83-1.074.087.023 1.76 1.042-1.83 1.066-.038-.006zm3.777.418l-1.75-1.037 1.83-1.075.083.018 1.771 1.05-1.808 1.044h-.126zm-9.977.477l-1.757-1.041 4.354-2.523.08.02 1.766 1.046-4.33 2.498h-.113zm13.293.256l-1.759-1.042 1.839-1.07.081.018 1.759 1.041-1.808 1.053h-.112zm4.526.03l-1.759-1.041 2.505-1.454.09.015 1.748 1.036-2.472 1.446-.112-.002zM34.64 54.76l-1.766-1.047 2.429-1.403.082.019 1.757 1.041-2.39 1.39h-.112zm-10.362.692l-1.76-1.042 4.944-2.863.081.019 1.772 1.049-4.918 2.84-.119-.003zm33.084-13.774l-1.8-1.046 5.863-3.403.081.018 1.765 1.046-5.873 3.391-.037-.006zm-4.751-2.584l-1.762-1.04 1.833-1.068.092.015 1.754 1.042-1.8 1.054-.117-.003zm2.237-1.293l-1.76-1.04 3.77-2.184.082.017 1.77 1.049-3.744 2.163-.118-.005z" fill="#475675"/><path d="M46.532 1.133c-.33-.194-.237.629-.747.923l-24.14 14.457c-1.016.583-2.379 1.02-2.379 2.184l-.67 1.003-1.487-.872-.007-.95c0-1.165.82-2.59 1.835-3.171L43.737.39c.51-.296.97-.324 1.308-.13l1.487.873z" fill="#DBA660"/><path d="M19.172 41.324l-1.487-.873c-.331-.186-.533-.597-.533-1.18l-.043-20.443 1.488.872 7.194 10.757c0 .585-6.95 10.68-6.619 10.867z" fill="#DEDFFB"/><path d="M47.115 23.703c0 1.173-.82 2.59-1.834 3.18L20.482 41.2c-1.015.584-1.841.115-1.841-1.05l-.043-20.452L47.074 3.262l.041 20.441z" fill="#F3F1FC"/><path d="M45.959 23.709c0 .752-.591 1.79-1.254 2.184L19.908 40.21l-.108.054v-.11l-.054-19.803L45.923 5.25l.035 18.459z" fill="#fff"/><path d="M47.072 2.311v.95L18.597 19.698l-.008-.943c0-1.173.82-2.59 1.836-3.179l24.8-14.317c1.014-.589 1.841-.115 1.847 1.051z" fill="#BF7D5A"/><path d="M35.923 8.175c0-.35.25-.78.554-.96l8.677-5.009c.312-.18.561-.04.561.32a1.238 1.238 0 01-.554.96l-8.678 5.01c-.312.18-.56.04-.56-.32zm-10.677 6.953c-.377.218-.684.043-.686-.391 0-.434.305-.963.683-1.181.377-.219.685-.044.686.39a1.504 1.504 0 01-.683 1.182zm-2.308 1.334c-.377.217-.684.041-.686-.393 0-.433.305-.963.683-1.181.377-.219.685-.043.687.39a1.504 1.504 0 01-.682 1.182l-.002.002zm-2.307 1.33c-.377.219-.685.043-.686-.39 0-.434.304-.963.683-1.182.377-.218.684-.043.686.39a1.504 1.504 0 01-.682 1.182h-.001z" fill="#F8F9FE"/><path d="M44.09 9.252c-.002-.626-.436-.872-.98-.558L22.56 20.558c-.545.314-.97 1.056-.966 1.682l.021 7.643c.002.634.428.877.973.563l20.549-11.865c.544-.315.975-1.052.974-1.686l-.022-7.643zM24.685 22.874l2.456-1.419.007 2.816-2.455 1.415-.008-2.812zm2.774-1.602l2.455-1.418.008 2.815-2.455 1.416-.008-2.813zm2.774-1.601l2.455-1.419.008 2.816-2.456 1.415-.007-2.812zm2.774-1.602l2.453-1.417.008 2.813-2.455 1.418-.006-2.814zm2.766-1.597l2.461-1.421.01 2.812-2.462 1.422-.01-2.813zm2.774-1.601l2.461-1.422.01 2.813-2.462 1.421-.01-2.812zm2.773-1.602l2.456-1.418.008 2.814-2.456 1.416-.008-2.812zm1.79-4.21c.375-.214.658-.054.66.378l.006 2.057-2.456 1.417-.009-2.813L43.11 9.06l-2.108 1.217.006 2.814-2.461 1.421-.01-2.812 2.465-1.423L43.11 9.06zm-4.876 5.633l-2.461 1.422-.01-2.814 2.464-1.422.007 2.814zm-2.773 1.602l-2.456 1.417-.008-2.813 2.456-1.418.008 2.814zm-2.774 1.6l-2.456 1.418-.007-2.812 2.455-1.418.008 2.812zm-2.774 1.603l-2.456 1.417-.007-2.813 2.455-1.418.008 2.814zm-2.774 1.6l-2.455 1.418-.008-2.812 2.455-1.418.008 2.812zm-5.235.963c0-.43.289-.923.656-1.135l1.805-1.044.008 2.816-2.462 1.42-.007-2.057zm.683 8.028c-.37.212-.66.046-.662-.385l-.004-2.05v-.364l-.01-2.815 2.462-1.42.01 2.812-2.462 1.423v.365l2.461-1.422.01 2.814-1.805 1.042zm2.115-1.222l-.008-2.814 2.456-1.417.007 2.814-2.455 1.417zm2.774-1.6l-.008-2.815 2.456-1.417.007 2.814-2.455 1.418zm2.774-1.603l-.008-2.814 2.455-1.417.008 2.814-2.455 1.417zm2.774-1.6l-.008-2.815 2.455-1.417.008 2.814-2.455 1.418zm2.766-1.6l-.008-2.812 2.462-1.422.009 2.814-2.463 1.42zm2.774-1.6l-.008-2.814 2.461-1.421.01 2.814-2.463 1.421zm4.572-2.64l-1.799 1.039-.007-2.814 2.455-1.417.006 2.049c0 .43-.281.928-.655 1.143z" fill="#DEDFFB"/><path d="M23.886 22.014c.93-.53 1.82-.382 2.41.1.718.597 1.13 1.575 1.738 2.246.17.192.366.346.597.366.246.02.566-.112.894-.258.12-.053.246-.108.372-.182.298-.172.537-.386.662-.665.096-.218.118-.48.147-.78.117-1.163.599-2.392 1.065-3.563.326-.804.726-1.755 1.426-2.323.081-.063.163-.12.246-.166a1.43 1.43 0 011.05-.178c.687.15 1.107.749 1.504 1.3.397.55.823 1.084 1.441 1.181.3.042.665-.04 1.016-.243.37-.215.706-.544.95-.978.268-.48.38-1.04.54-1.631a12.575 12.575 0 012.405-4.543.29.29 0 01.077-.066c.062-.036.12-.031.146.015.046.068.016.205-.066.295a11.82 11.82 0 00-2.248 4.254c-.155.554-.272 1.179-.615 1.803-.28.508-.69.932-1.19 1.228-.415.24-.84.34-1.192.286-.707-.114-1.143-.695-1.547-1.241-.397-.559-.8-1.106-1.406-1.246a1.19 1.19 0 00-.842.135l-.21.139c-.513.4-.884 1.212-1.202 2.015-.466 1.16-.919 2.338-1.02 3.381-.035.279-.035.604-.206.985a2.157 2.157 0 01-.93.983 4.085 4.085 0 01-.409.202c-.328.146-.692.315-1.021.281-.306-.02-.523-.212-.702-.417-.637-.704-1.05-1.666-1.73-2.224-.535-.44-1.347-.57-2.131-.116a3.046 3.046 0 00-.576.436.255.255 0 01-.052.04c-.068.038-.132.027-.157-.04-.03-.077.015-.214.105-.3.215-.21.438-.382.661-.511z" fill="#4C5C75"/><path d="M38.557 18.81a1.281 1.281 0 01-.574.993c-.318.185-.58.036-.58-.326a1.267 1.267 0 01.575-1.001c.317-.182.576-.033.579.334z" fill="#57B3FE"/><path d="M43.139 11.409a1.283 1.283 0 01-.574.993c-.319.185-.58.036-.58-.326a1.266 1.266 0 01.575-1.001c.317-.182.575-.034.578.334z" fill="#72D561"/><path d="M32.546 19.388c0 .485-.347 1.088-.766 1.33-.428.245-.777.047-.777-.438-.006-.489.342-1.09.77-1.338.422-.242.768-.045.773.446z" fill="#FFD06C"/><path d="M23.73 22.357a1.282 1.282 0 01-.575.995c-.318.184-.58.034-.58-.327a1.265 1.265 0 01.576-1c.315-.182.575-.034.578.332z" fill="#E93565"/><path d="M29.932 24.472a1.282 1.282 0 01-.574.996c-.318.183-.58.035-.58-.328a1.268 1.268 0 01.576-1c.317-.181.575-.034.578.332z" fill="#B28AFD"/><path d="M43.212 20.5c.323-.184.585-.038.588.336 0 .37-.262.82-.585 1.006L22.191 33.981c-.323.186-.582.038-.583-.333 0-.374.257-.821.58-1.007L43.212 20.5zm-5.501 6.116c.323-.185.584-.038.587.335 0 .371-.261.82-.584 1.006L22.19 36.922c-.323.184-.582.037-.583-.333 0-.375.257-.823.58-1.009l15.523-8.963z" fill="#DEDFFB"/><path d="M9.368 50.644c.015.8-.554 1.769-1.262 2.184l-5.661 3.277c-.354.2-.677.216-.908.077L.46 55.567c-.215-.139-.354-.416-.37-.816l-.015-6.507c0-.8.554-1.785 1.262-2.185l5.677-3.277c.338-.2.661-.215.892-.092l.908.554c.046.015.077.046.123.061.246.108.415.4.415.83l.016 6.509z" fill="#E93565"/><path d="M1.543 56.187c-.225-.131-.365-.41-.366-.808l-.019-6.512c-.001-.802.557-1.777 1.256-2.18l5.672-3.276c.35-.203.67-.221.9-.087l-1.08-.628c-.23-.134-.548-.115-.9.088L1.334 46.06c-.699.401-1.257 1.375-1.257 2.176l.018 6.513c.002.398.142.677.367.81l1.081.627z" fill="#E93565"/><path d="M8.086 43.411c.699-.403 1.268-.078 1.27.724l.018 6.512c.003.8-.563 1.772-1.262 2.175L2.44 56.1c-.698.402-1.262.082-1.262-.72l-.02-6.512c-.001-.802.557-1.777 1.256-2.18l5.672-3.276z" fill="#F45170"/><path d="M4.01 48.98c.073-.041.145-.048.196-.008.094.071.085.265-.028.437l-.98 1.542.991.4c.108.044.123.224.031.408a.539.539 0 01-.203.218c-.056.032-.117.046-.17.028l-1.215-.5c-.057-.026-.089-.09-.09-.176a.523.523 0 01.089-.277l1.209-1.901a.52.52 0 01.17-.17zm2.12-2.198a.246.246 0 01.112-.036c.13-.006.187.139.127.326l-1.73 5.343a.57.57 0 01-.239.311l-.108.034c-.132.012-.189-.138-.127-.318l1.73-5.351a.569.569 0 01.236-.31zm.382.754c.062-.036.123-.047.173-.027l1.215.5c.057.022.09.083.09.176a.548.548 0 01-.088.277l-1.216 1.903a.493.493 0 01-.168.169c-.073.041-.144.05-.196.01-.093-.076-.08-.272.027-.44l.982-1.54-.988-.405c-.108-.047-.123-.225-.03-.404a.536.536 0 01.2-.22z" fill="#fff"/><path d="M67.506 11.182c.016.738-.523 1.661-1.17 2.03l-7.86 4.54-1.924 3.307-1.184-.693v-.861c-.323.108-.585.046-.739-.17a.377.377 0 00.154.155l-1.184-.693c-.216-.123-.354-.4-.354-.754l-.016-5.769c0-.738.508-1.646 1.17-2.03l10.723-6.185c.323-.185.63-.2.846-.077l1.138.677c.23.107.385.369.385.769l.015 5.754z" fill="#497BFE"/><path d="M65.96 3.978c-.215-.124-.51-.107-.837.08L54.401 10.25c-.658.38-1.175 1.288-1.172 2.03l.016 5.758c0 .367.132.63.346.754l1.19.692c-.212-.123-.343-.386-.344-.754l-.015-5.755c-.004-.745.513-1.652 1.172-2.033l10.723-6.19c.325-.188.621-.205.835-.08l-1.192-.693z" fill="#497BFE"/><path d="M55.354 18.174l.006 2.197 1.192.692-.006-2.195-1.192-.694z" fill="#497BFE"/><path d="M66.315 4.751c.648-.374 1.179-.07 1.182.674l.015 5.757c.003.73-.524 1.657-1.172 2.03l-7.872 4.545-1.916 3.306-.006-2.195-.93.535c-.658.38-1.178.059-1.18-.672l-.014-5.757c-.004-.745.513-1.652 1.172-2.032L66.315 4.75z" fill="#57B3FE"/><path d="M65.09 10.994c-.645.37-1.17.072-1.17-.668-.003-.74.517-1.643 1.162-2.015.646-.371 1.169-.073 1.17.667.002.742-.518 1.643-1.163 2.016zm-3.935 2.27c-.643.373-1.167.074-1.169-.667-.003-.739.519-1.642 1.163-2.016.643-.369 1.168-.07 1.17.67.001.74-.519 1.641-1.164 2.014zm-3.932 2.271c-.646.373-1.17.074-1.17-.667-.004-.739.518-1.642 1.162-2.014.643-.373 1.168-.073 1.17.667.003.74-.519 1.642-1.162 2.014z" fill="#F8F9FE"/></svg>