<svg width="60" height="76" fill="none" xmlns="http://www.w3.org/2000/svg"><path d="M7.291 59.039l-3.518-2.052c-.1-.05-.168-.168-.168-.351L3.522 26.6l3.537 2.053 4.199 26.92c0 .167-4.064 3.416-3.965 3.466H7.29z" fill="#E9E7FC"/><path d="M7.051 28.648l-3.53-2.05 37.47-21.633 3.53 2.05L7.05 28.648z" fill="#E5EAF6"/><path d="M44.52 7.015l.085 30.042a1.155 1.155 0 01-.52.913L7.66 59.001c-.289.166-.523.031-.524-.31L7.05 28.647 44.519 7.015z" fill="#F8F9FE"/><path d="M45.837 2.734v2.764c0 .43-.283.918-.651 1.125l-.667.384L7.051 28.651l-.665.384c-.193.104-.37.104-.488-.015 0 .031.014.045.044.06l-3.536-2.055c-.119-.076-.177-.208-.177-.43l-.016-2.766c0-.43.283-.918.637-1.125L41.65.306c.177-.103.34-.118.458-.044l3.506 2.027c.016 0 .016.015.03.015.118.058.193.208.193.43z" fill="#BF7D5A"/><path d="M45.83 2.726c0-.207-.072-.35-.188-.418l-3.53-2.05c-.115-.07-.28-.059-.462.047L2.85 22.706a1.412 1.412 0 00-.638 1.117L2.22 26.6c0 .209.073.355.19.422l3.529 2.05c.116.068.276.058.452-.044l.658-.381L44.52 7.017l.672-.39a1.417 1.417 0 00.647-1.12l-.007-2.78zm-.395-.46c.029-.002.05.012.077.017-.026-.005-.047-.02-.077-.016z" fill="#BF7D5A"/><path d="M42.114.259l3.528 2.049c-.117-.068-.282-.058-.464.047L41.65.306c.182-.105.345-.116.465-.047zM5.938 29.073l-3.528-2.05c-.116-.068-.188-.213-.188-.422l3.528 2.052c0 .207.072.353.188.42z" fill="#DBA660"/><path d="M5.749 28.651l-3.53-2.05-.007-2.778 3.53 2.05.007 2.778zm.627-3.893l-3.524-2.052L41.65.306l3.53 2.049L6.376 24.758z" fill="#DBA660"/><path d="M5.741 25.873l-3.53-2.05a1.412 1.412 0 01.64-1.117l3.527 2.052a1.412 1.412 0 00-.637 1.115z" fill="#DBA660"/><path d="M45.178 2.354c.362-.208.651-.043.653.372l.007 2.78a1.416 1.416 0 01-.647 1.121l-.672.388L7.051 28.648l-.66.381c-.353.204-.642.04-.644-.377l-.006-2.78a1.412 1.412 0 01.637-1.114l38.8-22.404z" fill="#BF7D5A"/><path d="M28.576 30.898l.037 13.42-4.76 2.75-.022-7.76 4.745-8.41z" fill="#57B3FE"/><path d="M32.882 23.266l1.763.879.047 16.665-4.761 2.748-.042-14.987 2.993-5.305z" fill="#DBA660"/><path d="M18.227 37.185l4.286 2.58.022 8.063-4.76 2.75-.037-12.559.49-.834z" fill="#F45170"/><path d="M11.358 54.283l-.015-5.397 4.745-8.062.031 10.709-4.76 2.75z" fill="#78E75A"/><path d="M34.847 15.426l-.267 4.408-1.223-.608-10.061 17.828-5.056-3.043-6.867 11.671-.007-2.353 6.896-11.72 5.024 3.023 8.996-15.941-1.104-.55 3.67-2.715z" fill="#C9CEE2"/><path d="M15.537 26.284c.916.236 1.514 1.134 1.519 2.534.006 2.323-1.629 5.156-3.652 6.323l-.011-4.209 2.144-4.648z" fill="#FFD06C"/><path d="M13.38 26.722c.805-.464 1.55-.593 2.157-.438l-2.144 4.648.01 4.209c-2.023 1.169-3.667.23-3.673-2.094-.006-2.325 1.628-5.156 3.65-6.323v-.002z" fill="#F45170"/><path d="M22.072 21.65l.013 4.21-3.658 2.11c-.007-2.326 1.626-5.152 3.645-6.32z" fill="#B28AFD"/><path d="M22.072 21.65c2.027-1.17 3.67-.233 3.675 2.087l-3.662 2.122-.013-4.209z" fill="#FFD06C"/><path d="M22.085 25.859l.012 4.208c-2.019 1.166-3.66.223-3.67-2.097l3.658-2.111z" fill="#F45170"/><path d="M25.749 23.745c.003 2.321-1.63 5.156-3.652 6.323l-.012-4.209 3.664-2.114z" fill="#FFD06C"/><path d="M53.118 64.031s-5.493 3.282-13.592 3.593c0 0-7.437.773-8.188-3.127 0 0-.402-14.44 2.141-17.532 0 0 2.356-2.756 6.8-5.218l1.282-1.598s2.638 4.105 7.85 4.213c0 0 1.878-2.514 1.878-5.945l.8-1.424s2.278-1.09 4.033 1.189c.038.047.074.097.11.15 0 0 3.556 4.37 2.668 16.761 0 0-.335 5.73-5.782 8.938z" fill="#B28AFD"/><path d="M53.84 59.6c-.126 1.925-.353 3.498-.722 4.432a390.907 390.907 0 00-1.74-3.18 562.238 562.238 0 00-11.099-19.106l1.282-1.597s2.638 4.105 7.85 4.214c0 0 1.878-2.515 1.878-5.946l.8-1.424 1.123 2.68c.038.37.079.8.12 1.28.378 4.423.873 13.031.508 18.647z" fill="#fff"/><path d="M53.838 59.599c-.125 1.926-.35 3.5-.72 4.434a383.504 383.504 0 00-1.74-3.181c-.423-1.821-.809-3.977-1.17-6.347a273.95 273.95 0 01-1.025-7.627l-.692.01-.504-1.705 1.423-.822 2.07.207v1.082l-.874.678 3.232 13.27z" fill="#E93565"/><path d="M40.28 41.748l3.698 13.105 2.246-.657.247 3.059 6.647 6.776-1.74-3.18-11.099-19.103z" fill="#7E5AF2"/><path d="M41.623 37.715v3.846l5.688 3.34 2.1-.539s2.189-2.771 2.258-2.801c.068-.032-.38-3.142-.38-3.142l-4.591-3.933-5.075 3.229z" fill="#F5C9C6"/><path d="M49.41 44.362c-.564.813-.881 1.977-1.041 3.362-4.121-.98-6.738-3.03-8.09-5.976l1.282-1.599s2.638 4.105 7.85 4.213zm3.922-3.41a11.518 11.518 0 01-.55 3.561 10.035 10.035 0 01-.84 1.876c-.568-1.145-1.438-1.774-2.532-2.027 0 0 1.81-2.572 1.81-6.003l.87-1.364 1.171 2.79c.03.377.05.769.07 1.167z" fill="#E9E7FC"/><path d="M53.118 64.032c.874-4.989.346-12.077-.337-19.517-.229-2.49-.475-5.018-.692-7.522l1.124 2.68.047.112 2.845 6.772-.494 3.451.612 3.606c-.858 4.298-1.484 8.022-3.105 10.418z" fill="#7E5AF2"/><path d="M53.023 29.102c.47 6.106-.934 7.891-.934 7.891-2.666 5.494-8.727 2.245-10.464.722-1.736-1.522-2.805-4.816-2.805-4.816a9.873 9.873 0 01-.473-6.058c1.322-5.692 8.21-8.019 12.62-4.187a6.714 6.714 0 011.637 2.071c1.43 2.936.436 4.35.419 4.377z" fill="#F4D6D4"/><path d="M53.027 29.103s-1.286 1.537-3.937 1.757c0 0-2.165.36-3.278-.424-.173-.11-.33-.204-.518-.25-.36-.095-.894-.095-1.349.532 0 0-1.145 1.02-1.553 3.483 0 0 0 .784-.565.753-.376-.032-.486-1.02-.533-1.616a2.233 2.233 0 00-.423-1.255c-.424-.564-1.177-1.082-2.432-.266a9.943 9.943 0 01-.094-4.973c1.318-5.694 8.204-8.016 12.627-4.188.722.627 1.287 1.364 1.632 2.07 1.427 2.934.44 4.345.423 4.377z" fill="#8A4852"/><path d="M30.994 65.88l-16.418-9.541L.96 64.199l-.003.002.012 2.045 16.42 9.54 13.604-7.855v-2.05l.002-.002z" fill="#DEDFFB"/><path d="M30.993 65.88v2.051l-13.605 7.854L.97 66.246l-.012-2.045 13.619-7.862 16.417 9.54z" fill="#DEDFFB"/><path d="M30.993 65.88v2.051l-13.605 7.854L.97 66.246l-.012-2.045 13.619-7.862 16.417 9.54z" fill="#DEDFFB"/><path d="M.958 64.2l16.42 9.541 13.615-7.862-16.417-9.54-13.618 7.86z" fill="#F3F1FC"/><path d="M29.358 65.88l-11.984 6.91-10.29-5.983 11.976-6.909 10.298 5.982z" fill="#fff"/><path d="M12.259 67.073l.006 1.43c-.63 0-1.263-.139-1.746-.418-.968-.558-.972-1.462-.01-2.022l1.75 1.01zm7.396 2.532c.22.475.006 1-.634 1.374-.499.289-1.146.419-1.703.419h-.04l-.007-1.43 2.384-.363z" fill="#F45170"/><path d="M17.27 69.969l.008 1.43c-.63-.001-1.262-.14-1.745-.418-.968-.56-.973-1.464-.011-2.024l1.749 1.012z" fill="#B28AFD"/><path d="M19.009 68.959c.323.185.538.409.646.646l-2.384.364-1.75-1.01c.957-.56 2.521-.559 3.488 0z" fill="#E9E7FC"/><path d="M14.011 68.086c-.482.281-1.114.42-1.747.42l-.007-1.428-1.747-1.017c.958-.557 2.517-.557 3.488 0 .965.559.973 1.468.013 2.025z" fill="#FFD06C"/><path d="M18.414 59.519L6.43 66.428 2.598 64.2l11.978-6.91 3.838 2.228z" fill="#fff"/><path d="M21.134 61.994L14.84 65.65l-.5-.288 6.295-3.657.5.289zm-1.587 2.312l-3.508 2.038-.5-.29 3.507-2.038.5.29zm.387-3.006l-6.293 3.658-.502-.288 6.295-3.658.5.288zm6.204 3.583l-6.293 3.658-.5-.29 6.293-3.657.5.29zm-1.586 2.312l-3.507 2.04-.502-.29 3.509-2.04.5.29zm.388-3.004l-6.294 3.657-.502-.289 6.295-3.658.5.29z" fill="#DEDFFB"/><path d="M7.6 64.95l-.867.501-2.074-1.197.866-.502L7.6 64.95z" fill="#DBA660"/><path d="M9.788 63.688l-.867.505-2.828-1.633.867-.505 2.828 1.633z" fill="#F45170"/><path d="M11.976 62.428l-.867.504-2.165-1.249.868-.505 2.165 1.25z" fill="#B28AFD"/><path d="M14.165 61.169l-.868.504-1.47-.85.868-.503 1.47.849z" fill="#57B3FE"/><path d="M16.353 59.91l-.866.501-2.842-1.639.867-.503 2.84 1.64z" fill="#78E75A"/></svg>