<svg width="74" height="64" fill="none" xmlns="http://www.w3.org/2000/svg"><path d="M73.184 53.667c0 .151-.015.287-.045.438a6.17 6.17 0 01-.71 2.098c-.862 1.63-2.803 3.135-4.905 2.913a3.46 3.46 0 01-1.208-.347l-2.913-1.449-.06-.03L47.9 49.667l-.181-.09c-.06-.03-.136-.076-.196-.106-.921-.528-1.54-1.404-1.812-2.445l-5.766-2.868a37.813 37.813 0 003.714-6.868l5.51 2.747c1.161-.483 2.414-.468 3.47.151l15.623 7.713.015.015 2.959 1.45c1.529.893 2.178 2.917 1.947 4.301z" fill="#1D2943"/><path d="M72.43 56.204c-1.15 2.188-3.862 3.687-6.114 2.55L47.72 49.578l4.92-9.389 18.597 9.178c2.122 1.23 2.562 4.35 1.192 6.838z" fill="#1D2943"/><path d="M72.426 56.205c-1.168 2.19-3.868 3.69-6.11 2.553l-2.975-1.467c1.873.936 4.592.105 6.11-2.574 1.283-2.406.992-5.56-1.186-6.813l2.975 1.467c2.15 1.237 2.536 4.407 1.186 6.834zM52.64 40.181c2.053 1.187 2.596 4.263 1.185 6.826-1.411 2.561-4.249 3.648-6.302 2.463-2.1-1.212-2.635-4.246-1.224-6.807 1.411-2.562 4.242-3.694 6.341-2.482z" fill="#4C5C75"/><path d="M51.95 46.03c-1.004 1.822-2.99 2.611-4.488 1.876-.337-.166-5.632-2.815-7.51-3.754a37.96 37.96 0 003.702-6.857l7.426 3.701c1.525.871 1.932 3.13.87 5.034z" fill="#E9E7FC"/><path d="M45.546 35.087l3.94 4.377-4.438 7.698L39.237 46c-1.328 1.66-2.762 3.2-4.287 4.528l-1.298 8.664-6.31 3.638-5.901-3.426-.438-2.34-5.087 6.913-4.468-2.55L5.561 58l3.382-7.759-2.25.815-5.901-3.441-.016-7.23L7.63 34.89a34.317 34.317 0 011.766-5.962l-3.94-4.392 4.438-7.683L15.705 18a36.024 36.024 0 014.287-4.528l1.298-8.65 6.31-3.637 5.886 3.426.453 2.325L39.026.022l4.467 2.551 5.902 3.442L46 13.758l2.264-.8 5.887 3.427.03 7.245-6.853 5.48c-.407 1.992-.996 4-1.78 5.977z" fill="#7E5AF2"/><path d="M26.688 44.792a25.932 25.932 0 003.267-2.952l5.898 3.426a25.957 25.957 0 01-3.268 2.954l-5.898-3.426v-.002z" fill="#A5CFEE"/><path d="M26.688 44.792l5.897 3.428c-.692.522-1.4.995-2.124 1.411l-5.897-3.426a20.81 20.81 0 002.123-1.413z" fill="#A5CFEE"/><path d="M27.341 62.828l-5.897-3.426-1.34-7.127 5.898 3.426 1.34 7.127zm19.953-44.006l-5.898-3.426 6.86-2.433 5.897 3.426-6.859 2.434z" fill="#7E5AF2"/><path d="M38.374 22.296c-.013-4.365-1.552-7.435-4.037-8.88l5.898 3.426c2.484 1.445 4.024 4.517 4.036 8.882.02 6.592-3.45 14.258-8.418 19.544l-5.898-3.426c4.967-5.288 8.438-12.954 8.419-19.546zm-23.662 24.87c2.519 1.465 6.007 1.26 9.852-.96l5.207 3.026.69.4c-3.844 2.22-7.333 2.427-9.852.963-1.769-1.028-4.127-2.402-5.897-3.428zm30.21-43.71L39.023.03 43.5 2.581l5.897 3.427-4.475-2.551z" fill="#A5CFEE"/><path d="M11.454 61.426L5.555 58l3.9-8.913 5.898 3.426-3.899 8.913zm27.683-50.12L33.24 7.879 39.024.03l5.898 3.427-5.785 7.849z" fill="#7E5AF2"/><path d="M15.353 52.513l-5.897-3.427c-.788-1.072-1.4-2.38-1.804-3.91l5.897 3.429c.405 1.529 1.016 2.836 1.804 3.908zm19.488-40.785L28.942 8.3c1.525-.42 2.97-.556 4.298-.423l5.897 3.428c-1.328-.134-2.771.003-4.296.423z" fill="#6D4EEA"/><path d="M20.61 50.596l-5.897-3.427c-2.486-1.445-4.027-4.514-4.04-8.88l5.898 3.426c.012 4.367 1.555 7.437 4.04 8.881zm13.726-37.18l5.899 3.427c-2.52-1.465-6.008-1.256-9.863.97l-5.9-3.428c3.855-2.226 7.345-2.434 9.862-.97l.002.001z" fill="#fff"/><path d="M16.571 41.716l-5.899-3.426c-.024-8.79 6.162-19.495 13.801-23.905l5.9 3.426C22.73 22.223 16.545 32.927 16.57 41.716z" fill="#fff"/><path d="M54.174 23.633l-6.853 5.473a35.294 35.294 0 01-1.775 5.985l3.946 4.373-4.447 7.692L39.235 46a35.348 35.348 0 01-4.285 4.534l-1.304 8.654-6.305 3.64-1.339-7.128c-1.533.424-2.969.557-4.306.427L15.92 63.97l-4.468-2.545 3.9-8.913c-.788-1.072-1.4-2.38-1.804-3.908L6.69 51.05l-.021-7.245 6.853-5.483a34.408 34.408 0 011.775-5.965l-3.937-4.388 4.438-7.698 5.8 1.162a36.153 36.153 0 014.295-4.54l1.295-8.638 6.303-3.641 1.35 7.112c1.524-.418 2.969-.555 4.297-.42l5.784-7.85 4.476 2.551-3.908 8.907c.788 1.072 1.398 2.391 1.804 3.91l6.86-2.435.021 7.244zM30.461 49.63c7.657-4.421 13.836-15.12 13.811-23.91-.025-8.787-6.243-12.331-13.901-7.909-7.638 4.41-13.825 15.114-13.8 23.904.024 8.788 6.25 12.326 13.89 7.915z" fill="#986FF9"/><path d="M30.372 17.81c7.657-4.419 13.875-.876 13.899 7.913.026 8.788-6.153 19.487-13.81 23.91-7.64 4.409-13.866.872-13.89-7.917-.025-8.79 6.16-19.495 13.801-23.905z" fill="#fff"/><path d="M13.52 38.323l-5.898-3.427a34.418 34.418 0 011.776-5.965l5.898 3.426a34.411 34.411 0 00-1.777 5.966zm8.076-16.89L15.7 18.007a36.14 36.14 0 014.296-4.54l5.897 3.427a36.145 36.145 0 00-4.296 4.54z" fill="#6D4EEA"/><path d="M6.668 43.805L.77 40.378l6.852-5.483 5.896 3.426-6.851 5.484z" fill="#7E5AF2"/><path d="M6.689 51.049L.792 47.622.77 40.377l5.897 3.428.021 7.244z" fill="#B28AFD"/><path d="M25.89 16.894l-5.895-3.427 1.295-8.64 5.897 3.427-1.297 8.64z" fill="#7E5AF2"/><path d="M27.187 8.255L21.29 4.828l6.303-3.64 5.898 3.426-6.304 3.64z" fill="#B28AFD"/><path d="M15.294 32.358L9.398 28.93l-3.936-4.389 5.897 3.426 3.935 4.39z" fill="#7E5AF2"/><path d="M11.36 27.97l-5.898-3.427L9.9 16.845l5.897 3.426-4.438 7.698z" fill="#B28AFD"/><path d="M15.797 20.271l-5.899-3.426 5.8 1.16 5.898 3.427-5.8-1.16z" fill="#7E5AF2"/><path d="M34.573 24.378l-2.06 10.26c.277.306.434.767.434 1.368 0 1.597-1.117 3.537-2.512 4.341-1.385.803-2.522.166-2.53-1.432 0-1.404.867-3.075 2.022-4.008l4.166-10.603 1.025-2.606-.545 2.68z" fill="#EF526F"/><path d="M30.381 20.779c3.273-1.889 6.214-1.978 8.297-.63l-2.904 4.711a3.626 3.626 0 00-1.197-.483l.538-2.68-1.025 2.608c-1.087-.097-2.35.217-3.695.994-2.26 1.305-4.28 3.644-5.637 6.268l-2.916-1.351c2.074-3.954 5.125-7.466 8.539-9.437z" fill="#F7CE6B"/><path d="M38.678 20.15c1.895 1.241 3.07 3.677 3.08 7.105l-3.928 2.269c-.006-2.264-.79-3.867-2.056-4.664l2.904-4.71z" fill="#57B3FE"/><path d="M21.842 30.216l2.917 1.35c-1.093 2.119-1.755 4.42-1.748 6.514l-3.934 2.272c-.01-3.26 1.044-6.849 2.765-10.136z" fill="#C9CEE2"/></svg>