<svg width="58" height="78" fill="none" xmlns="http://www.w3.org/2000/svg"><path d="M43.77 36.712c.015 5.952-4.177 13.216-9.36 16.224-5.2 2.992-9.424.592-9.44-5.376-.017-5.984 4.175-13.248 9.376-16.256 5.184-2.992 9.408-.576 9.424 5.408z" fill="#9EA9C9"/><path d="M43.77 36.712c.015 5.952-4.177 13.216-9.36 16.224-5.2 2.992-9.424.592-9.44-5.376-.017-5.984 4.175-13.248 9.376-16.256 5.184-2.992 9.408-.576 9.424 5.408z" fill="#9EA9C9"/><path d="M43.77 36.712c.015 5.952-4.177 13.216-9.36 16.224-5.2 2.992-9.424.592-9.44-5.376-.017-5.984 4.175-13.248 9.376-16.256 5.184-2.992 9.408-.576 9.424 5.408z" fill="#9EA9C9"/><path d="M57.145 12.488l-6.8-3.952a16.794 16.794 0 01-.175-1.696L39.433.6C28.074 5.156 17.15 11.684 7.69 18.936v.016C7.658 24.968 5.578 29.56.89 32.536-.23 55.32 4.202 65.048 10.81 68.888l10.736 6.24c3.823 2.208 8.367 2.48 13.008 2.16C51 60.248 58.409 41.992 57.145 12.488zM34.41 52.936c-5.2 2.992-9.424.592-9.44-5.376-.016-5.984 4.176-13.248 9.377-16.256 5.184-2.992 9.408-.576 9.424 5.408.015 5.952-4.177 13.216-9.36 16.224z" fill="#9EA9C9"/><path d="M43.77 36.712c.015 5.952-4.177 13.216-9.36 16.224-5.2 2.992-9.424.592-9.44-5.376-.017-5.984 4.175-13.248 9.376-16.256 5.184-2.992 9.408-.576 9.424 5.408z" fill="#9EA9C9"/><path d="M39.74 37.08l-6.287 10.895c-.192.32-.432.576-.672.72-.354.176-.538.147-.736.048l-3.024-1.728c-.48-.24-.327-1.073-.032-1.584.272-.469.944-1.053 1.408-.784l2.304 1.328 5.6-9.712c.273-.473.96-1.065 1.408-.768.443.199.366 1.042.032 1.584zM21.545 75.121l-10.731-6.235C4.195 65.041-.235 55.32.886 32.535l10.732 6.237c-1.12 22.784 3.308 32.504 9.926 36.35z" fill="#9EA9C9"/><path d="M11.617 38.772L.887 32.536c4.689-2.97 6.777-7.59 6.8-13.6L18.42 25.17c-.024 6.01-2.11 10.63-6.8 13.6l-.002.001z" fill="#B0B8CF"/><path d="M50.168 6.843c-11.04 4.429-21.885 10.773-31.755 18.333L7.677 18.93C17.245 11.603 28.21 5.102 39.432.6l10.736 6.243z" fill="#C9CEE2"/><path d="M50.168 6.84c.33 5.807 2.538 7.898 6.98 5.646C58.417 41.99 51.006 60.242 34.55 77.29c-12.656.858-24.7-2.577-22.932-38.518 4.69-2.97 6.776-7.59 6.8-13.6 9.832-7.514 20.406-13.765 31.75-18.331z" fill="#E3E7F0"/><path d="M48.083 10.094c.91 5.899 4.091 6.427 6.832 5.656.76 25.5-5.033 42.102-20.328 58.336-10.829.568-21.874-2.227-20.76-34.567 2.862-2.44 6.135-6.669 6.8-13.622 8.677-6.424 17.78-11.731 27.456-15.803z" fill="#F45170"/><path d="M44.728 15.72c1.403 3.672 3.829 4.881 6.144 5.048.144 20.945-4.446 34.406-16.26 47.753-8.85.061-16.918-3.259-16.753-28.545 2.947-3.55 5.079-7.808 6.223-12.384 6.596-4.599 13.15-8.463 20.646-11.872z" fill="#fff"/><path d="M34.34 31.307c5.185-2.992 9.41-.586 9.428 5.4.016 5.958-4.18 13.229-9.365 16.222-5.197 3-9.422.592-9.44-5.364-.016-5.986 4.181-13.258 9.378-16.256v-.002z" fill="#57B3FE"/><path d="M39.74 37.08l-6.287 10.895c-.192.32-.432.576-.672.72-.354.176-.538.148-.736.048l-3.024-1.728c-.48-.24-.327-1.073-.032-1.584.272-.468.944-1.052 1.408-.784l2.304 1.328 5.6-9.712c.273-.473.96-1.065 1.408-.768.443.199.366 1.042.032 1.584z" fill="#fff"/></svg>