<svg width="70" height="74" fill="none" xmlns="http://www.w3.org/2000/svg"><path d="M62.783 57.07l-9 5.23-.046-3.646v3.677l.046-.031.03 3.323-.015 3.677c-2.677-.123-5.276-.77-7.307-1.954-2.293-1.323-3.431-3.061-3.431-4.815l.015-3.662c0-1.784 1.185-3.584 3.57-4.969 4.461-2.6 11.492-2.785 16.153-.508l-.015 3.677z" fill="#F9A83D"/><path d="M62.794 53.386l-.011 3.677-9.052 5.262.01-3.677 9.053-5.262z" fill="#FEBC1F"/><path d="M39.368 63.038v3.847c0 1.769-1.17 3.523-3.477 4.876-4.677 2.708-12.262 2.708-16.97 0-2.353-1.369-3.538-3.153-3.538-4.953v-3.831c0-1.77 1.17-3.539 3.492-4.892 4.662-2.708 12.247-2.708 16.939 0 2.37 1.369 3.554 3.153 3.554 4.953z" fill="#111D33"/><path d="M39.366 63.038v3.851c-.006 1.763-1.161 3.523-3.472 4.865-4.676 2.717-12.27 2.712-16.966 0-2.362-1.363-3.543-3.154-3.539-4.94V62.96c-.004 1.788 1.177 3.577 3.539 4.942 4.697 2.712 12.292 2.717 16.966 0 2.31-1.343 3.466-3.102 3.472-4.865z" fill="#1D2943"/><path d="M35.822 58.086c4.696 2.711 4.73 7.111.072 9.816-4.676 2.718-12.27 2.713-16.966 0-4.697-2.714-4.722-7.105-.047-9.822 4.657-2.706 12.245-2.706 16.94.006z" fill="#4C5C75"/><path d="M19.623 66.699c-1.83-1.057-2.84-2.379-2.843-3.722 0-1.332.992-2.645 2.8-3.695 4.23-2.457 11.275-2.457 15.546.007 1.835 1.06 2.846 2.385 2.85 3.734 0 1.33-.985 2.636-2.78 3.677-4.244 2.468-11.298 2.465-15.573-.001z" fill="#111D33"/><path d="M32.775 49.008l-.04 13.946c-.001.795-.523 1.59-1.564 2.194-2.085 1.21-5.503 1.21-7.6 0-1.062-.612-1.593-1.42-1.591-2.225l.04-13.947c-.002.806.528 1.612 1.59 2.226 2.098 1.21 5.516 1.21 7.6 0 1.042-.606 1.562-1.4 1.565-2.194z" fill="#F3F1FC"/><path d="M31.195 46.792c2.099 1.211 2.11 3.193.016 4.41-2.085 1.21-5.503 1.21-7.6 0-2.108-1.217-2.12-3.199-.037-4.41 2.095-1.215 5.514-1.215 7.621 0z" fill="#4C5C75"/><path d="M21.12 56.445l12.622-7.336 1.692.977-12.622 7.336-1.692-.977z" fill="#C9CEE2"/><path d="M50.49 39.93c0 2.062-1.445 4.57-3.245 5.616L8.629 67.838c-.907.524-1.723.57-2.307.231L1.46 65.24c-.585-.324-.938-1.047-.938-2.077l-.077-34.6c-.016-2.062 1.446-4.57 3.23-5.616L42.306.654c.908-.523 1.723-.57 2.308-.23l4.708 2.753a.893.893 0 00-.216-.077c.123.03.246.092.354.154.585.323.938 1.046.954 2.092l.077 34.585z" fill="#1D2943"/><path d="M49.46 3.254a1.446 1.446 0 00-.354-.154.89.89 0 01.215.077.623.623 0 01.139.077z" fill="#1D2943"/><path d="M49.46 3.254a1.446 1.446 0 00-.354-.154.89.89 0 01.215.077.623.623 0 01.139.077z" fill="#1D2943"/><path d="M42.303.662c.906-.53 1.72-.574 2.315-.231l4.848 2.82c-.595-.345-1.41-.299-2.315.217L8.526 25.772c-1.788 1.031-3.243 3.553-3.23 5.616l.067 34.589c.012 1.03.368 1.742.952 2.086l-4.849-2.82C.881 64.911.528 64.19.528 63.17l-.082-34.6c-.01-2.064 1.445-4.573 3.232-5.617L42.303.662z" fill="#9EA9C9"/><path d="M47.152 3.474c1.793-1.036 3.254-.203 3.26 1.866l.077 34.59c.005 2.06-1.446 4.575-3.238 5.608L8.628 67.837c-1.793 1.035-3.254.203-3.26-1.857L5.29 31.39c-.006-2.069 1.446-4.582 3.238-5.618L47.152 3.474z" fill="#1D2943"/><path d="M8.435 31.383c-.003-1.058.745-2.358 1.662-2.886L44.923 8.39a1.57 1.57 0 012.354 1.356l.067 28.483c.004 1.052-.74 2.346-1.653 2.872l-34.833 20.11a1.569 1.569 0 01-2.355-1.354l-.068-28.474z" fill="#fff"/><path d="M27.886 52.73c.668-.386 1.21-.078 1.213.69.003.757-.538 1.701-1.205 2.088-.668.384-1.21.064-1.212-.693-.003-.766.537-1.701 1.204-2.086z" fill="#4C5C75"/><path d="M13.56 43.99l.034 11.86-2.666 1.54-.034-11.86 2.666-1.54z" fill="#F45170"/><path d="M18.785 43.603l.026 9.237-2.666 1.538-.027-9.235 2.667-1.54z" fill="#57B3FE"/><path d="M23.994 37.966l.034 11.862-2.673 1.543-.034-11.862 2.673-1.543z" fill="#78E75A"/><path d="M29.226 40.212l.019 6.603-2.673 1.544-.018-6.604 2.672-1.543z" fill="#FFD06C"/><path d="M34.428 31.941l.034 11.862-2.673 1.543-.034-11.861 2.673-1.544z" fill="#B28AFD"/><path d="M44.861 25.919l.033 11.861-2.67 1.543-.035-11.861 2.672-1.543z" fill="#57B3FE"/><path d="M39.652 31.556l.026 9.237-2.672 1.543-.026-9.237 2.672-1.543z" fill="#F45170"/><path d="M39.625 25.818a.545.545 0 01.409.291c.355.65-.2 1.91-.988 2.366-.717.414-1.245-.064-1.061-.969.055-.27.169-.546.323-.795.28-.454.815-.965 1.317-.893z" fill="#B28AFD"/><path d="M43.26 18.862c.606-.35 1.094-.066 1.095.626.003.969-.915 2.112-1.649 2.032a.54.54 0 01-.418-.274c-.382-.649.194-1.934.972-2.384z" fill="#F45170"/><path d="M42.288 21.246a.538.538 0 00.418.274l-2.672 4.59a.544.544 0 00-.41-.292l2.664-4.572z" fill="#E3E7F0"/><path d="M34.346 24.79c.73-.422 1.262.076 1.059 1-.065.28-.177.547-.333.79-.306.481-.952 1.062-1.458.815a.622.622 0 01-.317-.426c-.177-.692.335-1.768 1.05-2.18z" fill="#DBA660"/><path d="M35.072 26.58c.157-.246.274-.52.333-.789l2.903.92a2.5 2.5 0 00-.323.795l-2.913-.926zm-11.095 7.022a2.33 2.33 0 00.257-.803l3.726.769a2.443 2.443 0 00-.303.79l-3.68-.756z" fill="#E3E7F0"/><path d="M29.457 32.685c.154.074.266.218.322.424.18.682-.331 1.771-1.059 2.193-.708.407-1.223-.062-1.061-.943.046-.267.153-.542.301-.791.302-.51.966-1.134 1.497-.883z" fill="#F45170"/><path d="M33.297 26.97c.054.207.166.353.317.425l-3.836 5.714a.618.618 0 00-.323-.424l3.842-5.716z" fill="#E3E7F0"/><path d="M23.142 32.002c.661-.382 1.181-.02 1.092.797a2.306 2.306 0 01-.257.803c-.2.383-.497.721-.828.912-.326.19-.618.19-.818.043a.723.723 0 01-.262-.506c-.095-.717.422-1.672 1.073-2.05z" fill="#FFD06C"/><path d="M18.455 39.115l3.616-5.064c.03.232.123.404.26.506l-3.511 4.92a.566.566 0 00-.365-.362z" fill="#E3E7F0"/><path d="M18.455 39.116a.565.565 0 01.365.361c.252.662-.259 1.836-1.025 2.277-.71.41-1.23-.061-1.066-.945.05-.266.159-.54.308-.789.29-.483.895-1.061 1.418-.904z" fill="#B28AFD"/><path d="M12.45 38.65c.607-.349 1.095-.065 1.096.627 0 .126-.015.257-.044.39a2.469 2.469 0 01-.33.78 2.17 2.17 0 01-.715.716c-.6.348-1.094.074-1.096-.625-.003-.692.488-1.538 1.09-1.887z" fill="#F45170"/><path d="M13.172 40.446c.154-.243.271-.514.33-.78l3.535.354c-.15.25-.259.523-.308.79l-3.557-.364z" fill="#E3E7F0"/><path d="M45.292 14.36l.003 1.205-34.797 20.092-.004-1.208 34.798-20.09zm-9.394 1.903L10.486 30.935l.003 1.216L35.9 17.48v-1.217z" fill="#DEDFFB"/><path d="M69.552 33.485c.016 1.507-1.061 3.369-2.384 4.123l-21.2 12.246c-.708.415-1.354.415-1.785.092l.077.077-2.03-1.2c-.432-.246-.693-.784-.708-1.538l-.047-15-.015-2.677c0-1.523 1.062-3.37 2.385-4.139l21.8-12.569c.492-.292.953-.323 1.276-.123l2.016 1.185c.338.184.538.584.554 1.169v3.338l.061 15.016z" fill="#C9CEE2"/><path d="M69.492 18.474l.063 15.003c.005 1.523-1.066 3.37-2.384 4.131L45.966 49.851c-1.325.765-2.395.154-2.4-1.37l-.063-15.002 25.99-15.005z" fill="#E3E7F0"/><path d="M44.89 49.366c-.442 0-.508-.554-.51-.886l-.057-15.474L68.689 18.94l.053 14.541c.002 1.234-.902 2.802-1.978 3.423L45.56 49.146c-.317.183-.538.22-.67.22z" fill="#fff"/><path d="M68.737 33.486c.015 1.23-.892 2.8-1.97 3.415L45.553 49.147c-.261.154-.477.2-.6.2-.03.016-.046.016-.061.016-.446 0-.508-.554-.508-.877l-.062-15.477 24.37-14.077.03 11.754.016 2.8z" fill="#fff"/><path d="M44.26 50.017l-2.032-1.197c-.433-.249-.693-.778-.702-1.537l-.058-15.003 2.032 1.197.068 15.003c0 .759.269 1.288.692 1.539v-.002z" fill="#C9CEE2"/><path d="M43.503 33.479l-2.037-1.196 25.995-14.99 2.031 1.181-25.989 15.005z" fill="#C3C7CF"/><path d="M69.49 15.13v3.34L43.507 33.484l-2.03-1.2-.016-2.677c0-1.523 1.062-3.37 2.385-4.139l21.8-12.569c.492-.292.953-.323 1.276-.123l2.031 1.185c-.015-.016-.046-.016-.061-.016.354.154.584.57.6 1.185z" fill="#497BFE"/><path d="M68.957 13.969c-.326-.192-.779-.163-1.288.125l-21.784 12.58c-1.328.769-2.394 2.614-2.394 4.132l.009 2.67-2.03-1.196-.012-2.671c0-1.518 1.057-3.363 2.385-4.132l21.794-12.579c.5-.289.961-.318 1.287-.126l2.033 1.197z" fill="#497BFE"/><path d="M67.674 14.092c.994-.572 1.806-.116 1.81 1.033l.008 3.349-25.989 15.005-.008-2.671c-.004-1.523 1.06-3.366 2.385-4.132l21.794-12.583z" fill="#57B3FE"/><path d="M45.997 28.483c.545-.314.992-.058.994.566.001.62-.443 1.391-.988 1.705-.55.317-.986.055-.988-.563-.003-.626.431-1.391.982-1.708zm3.157-1.822c.544-.315.992-.061.994.565.001.62-.443 1.39-.988 1.705-.55.317-.986.055-.988-.563-.001-.627.431-1.39.982-1.708v.002zm3.158-1.824c.543-.314.991-.058.994.566 0 .62-.443 1.39-.987 1.705-.551.318-.988.057-.99-.563-.001-.627.433-1.39.983-1.708zm15.179-8.335c.264-.154.481-.03.483.275 0 .308-.216.684-.48.837l-9.31 5.375c-.265.154-.484.03-.485-.281 0-.303.215-.677.48-.831l9.312-5.375z" fill="#fff"/><path d="M68.737 33.486c.015 1.23-.892 2.8-1.97 3.415L45.553 49.147c-.261.154-.477.2-.6.2a3.63 3.63 0 00.154-.584c.292-1.554.523-3.062.923-4.646.246-.97.508-1.939.816-2.923.849-2.788 2.267-2.89 3-1.723.23.353.43.769.784.938.451.225 1.022-.148 1.323-.6.237-.38.208-.474 1.416-4.246.541-1.794 1.477-3.619 3-2.523a5.706 5.706 0 011.461 1.569c.172.275.354.42.831-.123 1.383-1.654 2.45-7.092 4.4-8.262.585-.338 1.061-.276 1.462-.123 1.48.554 3.387 3.22 4.2 4.585l.015 2.8z" fill="#78E75A"/><path d="M68.739 33.48c0 .046 0 .092-.016.154-.046 1.2-.923 2.661-1.954 3.261L45.554 49.142l-.093.046a1.06 1.06 0 01-.507.154 3.63 3.63 0 00.154-.585c.292-1.554.523-3.061.923-4.646.246-.97.508-1.939.815-2.923.846-2.788 2.266-2.89 3-1.723.23.354.43.769.785.938.449.225 1.021-.148 1.323-.6.234-.377.201-.458 1.415-4.246.532-1.77 1.492-3.61 3-2.523.57.415 1.062.938 1.462 1.57.17.275.354.42.83-.124 1.38-1.652 2.45-7.092 4.4-8.261.585-.339 1.062-.277 1.462-.123 1.478.553 3.388 3.22 4.2 4.584l.016 2.8z" fill="#72D561"/><path d="M68.723 33.065v.57c-.046 1.2-.923 2.66-1.954 3.26L45.554 49.143l-.093.046c.17-.892.339-1.785.57-2.692.246-.97.508-1.939.815-2.923.846-2.788 2.266-2.89 3-1.724.23.354.43.77.785.939.452.226 1.281-.092 1.646-1.4.87-2.683 1.808-7.615 4.092-5.97.57.416 1.062.94 1.462 1.57.17.275.354.42.83-.123 1.38-1.652 2.45-7.092 4.4-8.262.585-.338 1.062-.277 1.462-.123 1.483.557 3.394 3.231 4.2 4.585z" fill="#78E75A"/><path d="M60.33 27.916l.002.784-15.1 8.719-.001-.785 15.1-8.718zm-5.158.684l-9.946 5.745.002.79 9.944-5.741V28.6z" fill="#DEDFFB"/><path d="M53.783 62.3l-.046.03v-3.676l.046 3.646z" fill="#F9A83D"/><path d="M66.798 58.5l-.015 3.677c0 1.63-1 3.277-2.97 4.6l-7.645-4.416.015-3.676 7.861-4.57c1.847 1.262 2.754 2.816 2.754 4.385z" fill="#986FF9"/><path d="M66.795 58.498l-.01 3.679c-.005 1.63-1 3.274-2.979 4.597l.01-3.677c1.98-1.325 2.975-2.966 2.98-4.599z" fill="#986FF9"/><path d="M64.046 54.11c3.748 2.56 3.655 6.387-.23 8.987l-7.64-4.412 7.87-4.576z" fill="#B28AFD"/><path d="M63.817 63.097l-.01 3.677-7.642-4.411.01-3.678 7.642 4.412z" fill="#7E5AF2"/><path d="M62.568 63.792l-.016 3.693c-2 1-4.43 1.569-6.907 1.707l-.693-6.107.016-3.677 7.6 4.384z" fill="#C9CEE2"/><path d="M55.661 65.507l-.01 3.679-.696-6.095.011-3.679.695 6.095z" fill="#B0B8CF"/><path d="M62.565 63.8l-.011 3.677c-1.997 1.01-4.428 1.58-6.903 1.709l.01-3.677c2.476-.13 4.907-.698 6.904-1.71z" fill="#C9CEE2"/><path d="M62.565 63.8c-1.997 1.009-4.428 1.58-6.904 1.707l-.695-6.095 7.599 4.388z" fill="#E3E7F0"/><path d="M53.783 62.3l-.046.03v-3.676l.046 3.646zm-10.721.235l.01-3.677c-.004 1.753 1.134 3.493 3.425 4.816 2.038 1.177 4.642 1.826 7.312 1.95l-.01 3.679c-4.524-.21-10.75-2.383-10.737-6.768z" fill="#F9A83D"/><path d="M62.794 53.386l-9.052 5.262.067 6.977c-2.67-.125-5.274-.774-7.312-1.951-10.483-6.053 4.615-15.972 16.297-10.288z" fill="#FFD06C"/></svg>