<svg width="40" height="40" fill="none" xmlns="http://www.w3.org/2000/svg"><path d="M20 38.75c10.355 0 18.75-8.395 18.75-18.75S30.355 1.25 20 1.25 1.25 9.645 1.25 20 9.645 38.75 20 38.75z" fill="#D10028"/><path d="M32.861 6.357A18.685 18.685 0 0137.97 19.22c0 10.355-8.395 18.75-18.75 18.75a18.685 18.685 0 01-12.862-5.11A18.696 18.696 0 0020 38.75c10.355 0 18.75-8.395 18.75-18.75a18.696 18.696 0 00-5.889-13.643z" fill="#B7022D"/><path d="M20 35.625c8.63 0 15.625-6.996 15.625-15.625 0-8.63-6.996-15.625-15.625-15.625-8.63 0-15.625 6.996-15.625 15.625 0 8.63 6.996 15.625 15.625 15.625z" fill="#F1F2F2"/><path d="M8.328 29.218a.312.312 0 01-.249-.123A14.85 14.85 0 015 20c0-.357.013-.718.038-1.074a.313.313 0 01.608-.077c.013.04.018.08.016.121-.025.343-.037.686-.037 1.03a14.23 14.23 0 002.95 8.715.313.313 0 01-.247.503zM5.492 18.019a.313.313 0 01-.31-.361l.022-.13a.313.313 0 11.616.104l-.02.123a.313.313 0 01-.308.264z" fill="#fff"/><path d="M30.24 8.198a15.565 15.565 0 013.822 10.24c0 8.629-6.995 15.625-15.625 15.625a15.565 15.565 0 01-10.24-3.823A15.589 15.589 0 0020 35.625c8.63 0 15.625-6.996 15.625-15.625A15.59 15.59 0 0030.24 8.198z" fill="#E6E7E8"/><path d="M30.65 8.568a15.57 15.57 0 014.194 10.65c0 8.63-6.996 15.626-15.625 15.626a15.57 15.57 0 01-10.65-4.194A15.581 15.581 0 0020 35.625c8.63 0 15.625-6.996 15.625-15.625 0-4.514-1.914-8.58-4.975-11.432z" fill="#D1D3D4"/><path d="M15.37 24.206a.778.778 0 01-.366-.091l-6.68-3.549a.782.782 0 010-1.38l6.68-3.548a.781.781 0 01.733 1.38l-5.381 2.858 5.381 2.859a.782.782 0 01-.367 1.471zm9.608 0a.781.781 0 01-.367-1.471l5.382-2.859-5.382-2.858a.78.78 0 11.733-1.38l6.681 3.548a.782.782 0 010 1.38l-6.68 3.549a.778.778 0 01-.367.091zm-6.93 1.972a.781.781 0 01-.728-1.063l4.251-11.04a.782.782 0 011.458.562l-4.251 11.04a.781.781 0 01-.73.5z" fill="#414042"/><path d="M5.815 13.44l26.956 15.563a15.605 15.605 0 001.573-2.8L7.458 10.68a15.617 15.617 0 00-1.643 2.76z" fill="#D10028"/></svg>