<svg width="40" height="40" fill="none" xmlns="http://www.w3.org/2000/svg"><g clip-path="url(#clip0_45_1342)"><path d="M38.162 20.001l1.755-4.577a1.251 1.251 0 00-.38-1.42l-3.805-3.085-.77-4.842a1.25 1.25 0 00-1.04-1.037l-4.842-.77L25.997.463a1.252 1.252 0 00-1.417-.38L20 1.84 15.423.085a1.247 1.247 0 00-1.417.38L10.92 4.272l-4.842.77A1.253 1.253 0 005.04 6.08l-.77 4.842-3.807 3.085a1.25 1.25 0 00-.38 1.417l1.755 4.577-1.755 4.577a1.247 1.247 0 00.38 1.418l3.807 3.082.77 4.842a1.25 1.25 0 001.038 1.04l4.842.77 3.085 3.805a1.244 1.244 0 001.42.38L20 38.163l4.578 1.755a1.246 1.246 0 001.42-.383l3.082-3.805 4.842-.77a1.252 1.252 0 001.04-1.04l.77-4.842 3.804-3.082c.423-.342.573-.912.38-1.418l-1.754-4.577z" fill="#2196F3"/><path d="M8.751 16.252a1.25 1.25 0 000-2.5h-2.5c-.69 0-1.25.56-1.25 1.25V25a1.25 1.25 0 002.5 0v-3.75h1.25a1.25 1.25 0 000-2.5h-1.25v-2.5h1.25zm17.499 0a1.25 1.25 0 000-2.5h-2.5c-.69 0-1.25.56-1.25 1.25V25c0 .69.56 1.25 1.25 1.25h2.5a1.25 1.25 0 000-2.5H25v-2.5h1.25a1.25 1.25 0 000-2.5H25v-2.5h1.25zm7.5 5a1.25 1.25 0 000-2.5H32.5v-2.5h1.25a1.25 1.25 0 000-2.5h-2.5c-.69 0-1.25.56-1.25 1.25V25c0 .69.56 1.25 1.25 1.25h2.5a1.25 1.25 0 000-2.5H32.5v-2.5h1.25zM20 17.501a3.754 3.754 0 00-3.75-3.75h-2.5c-.69 0-1.25.56-1.25 1.25V25a1.25 1.25 0 002.5 0v-2.917l2.75 3.667a1.245 1.245 0 001.748.25 1.249 1.249 0 00.25-1.75l-2.388-3.187C18.883 20.589 20 19.18 20 17.5zm-3.75 1.25H15v-2.5h1.25a1.25 1.25 0 010 2.5z" fill="#FAFAFA"/></g><defs><clipPath id="clip0_45_1342"><path fill="#fff" d="M0 0h40v40H0z"/></clipPath></defs></svg>