<svg width="1217" height="566" fill="none" xmlns="http://www.w3.org/2000/svg"><path fill-rule="evenodd" clip-rule="evenodd" d="M.068 379.905l-.015-8.012s106.428-53.088 107.223-52.633l105.903 53.665v7.225s0 1.032-1.032 1.548l-104.02 59.987c-.795.455-2.044.455-2.839 0L.693 381.438c-.795-.455-.625-1.533-.625-1.533z" fill="#DBDDDE"/><path fill-rule="evenodd" clip-rule="evenodd" d="M.569 370.861l104.828-59.52c.795-.455 2.044-.455 2.839 0l104.413 60.552c.795.454.795 1.193 0 1.647l-103.504 59.488c-.795.454-2.044.454-2.839 0L.626 372.508c-.796-.454-.852-1.193-.057-1.647z" fill="#F3F3F3"/><g clip-path="url(#clip0_36_229)"><path d="M59.377 259.126v113.75c0 4.468 3.655 8.124 8.123 8.124h78.997c4.47 0 8.126-3.657 8.126-8.126v-91.95a9.405 9.405 0 00-2.755-6.651l-20.517-20.518a9.41 9.41 0 00-6.652-2.755H67.503c-4.47 0-8.126 3.657-8.126 8.126z" fill="url(#paint0_linear_36_229)"/><path d="M81.028 313.716h51.944a2.345 2.345 0 002.344-2.344v-5.716a2.342 2.342 0 00-2.344-2.344H81.028a2.343 2.343 0 00-2.344 2.344v5.716a2.345 2.345 0 002.344 2.344zm0 16.241h51.944a2.345 2.345 0 002.344-2.344v-5.716a2.342 2.342 0 00-2.344-2.344H81.028a2.343 2.343 0 00-2.344 2.344v5.716a2.345 2.345 0 002.344 2.344zm0 16.241h51.944a2.345 2.345 0 002.344-2.344v-5.716a2.342 2.342 0 00-2.344-2.344H81.028a2.343 2.343 0 00-2.344 2.344v5.716a2.346 2.346 0 002.344 2.344zm-.647 16.241h26.295a1.694 1.694 0 001.697-1.697v-7.01a1.7 1.7 0 00-1.697-1.697H80.381a1.698 1.698 0 00-1.697 1.697v7.01a1.697 1.697 0 001.697 1.697z" fill="#EBEFF0"/><path d="M131.35 253.755a9.405 9.405 0 00-4.34-2.466v26.489l27.613 27.614v-24.468a9.405 9.405 0 00-2.755-6.651l-20.518-20.518z" fill="url(#paint1_linear_36_229)"/><path d="M154.345 278.642c.03.131.058.258.083.381h-24.891a3.192 3.192 0 01-3.191-3.192v-24.683c.204.036.407.077.61.122a9.985 9.985 0 014.891 2.708l19.794 19.794a10.104 10.104 0 012.704 4.87z" fill="url(#paint2_linear_36_229)"/><path d="M154.623 364.992v7.882c0 4.469-3.656 8.126-8.126 8.126H67.5c-4.468 0-8.123-3.656-8.123-8.124v-7.884h95.246z" fill="url(#paint3_linear_36_229)"/><path d="M154.623 364.992v7.882c0 4.469-3.656 8.126-8.126 8.126H67.5c-4.468 0-8.123-3.656-8.123-8.124v-7.884h95.246z" fill="url(#paint4_linear_36_229)"/></g><path fill-rule="evenodd" clip-rule="evenodd" d="M1003.07 379.905l-.02-8.012s106.43-53.088 107.23-52.633l105.9 53.665v7.225s0 1.032-1.03 1.548l-104.02 59.987c-.8.455-2.05.455-2.84 0l-104.6-60.247c-.79-.455-.62-1.533-.62-1.533z" fill="#DBDDDE"/><path fill-rule="evenodd" clip-rule="evenodd" d="M1003.57 370.861l104.83-59.52c.79-.455 2.04-.455 2.84 0l104.41 60.552c.79.454.79 1.193 0 1.647l-103.51 59.488c-.79.454-2.04.454-2.83 0l-105.68-60.52c-.8-.454-.86-1.193-.06-1.647z" fill="#F3F3F3"/><g clip-path="url(#clip1_36_229)"><path d="M1169.14 381h-118.28a5.858 5.858 0 01-5.86-5.862V256.862a5.858 5.858 0 015.86-5.862h118.28c3.24 0 5.86 2.624 5.86 5.862v118.276a5.858 5.858 0 01-5.86 5.862z" fill="url(#paint5_linear_36_229)"/><path d="M1045 297.188h130v20.953h-130v-20.953z" fill="url(#paint6_linear_36_229)"/><path d="M1045 297.188h130v20.953h-130v-20.953z" fill="url(#paint7_linear_36_229)"/><path d="M1045 339.094h130v20.953h-130v-20.953z" fill="url(#paint8_linear_36_229)"/><path d="M1045 339.094h130v20.953h-130v-20.953z" fill="url(#paint9_linear_36_229)"/><path d="M1175 360.047v15.09a5.866 5.866 0 01-5.86 5.863h-118.28a5.866 5.866 0 01-5.86-5.863v-15.09h130z" fill="url(#paint10_linear_36_229)"/><path d="M1175 360.047v15.09a5.866 5.866 0 01-5.86 5.863h-118.28a5.866 5.866 0 01-5.86-5.863v-15.09h130z" fill="url(#paint11_linear_36_229)"/><path d="M1169.14 251h-118.28a5.858 5.858 0 00-5.86 5.862v19.628h130v-19.628a5.858 5.858 0 00-5.86-5.862z" fill="#2C7BE5"/><path d="M1084.44 268.283h-25.32c-3.32 0-5.65-3.091-4.55-6.042.68-1.817 2.5-3.034 4.55-3.034h25.32c3.33 0 5.65 3.091 4.55 6.042-.68 1.817-2.5 3.034-4.55 3.034zm42.22-4.538c0 .633.25 1.24.7 1.688.45.448 1.05.699 1.69.699h22.98a2.4 2.4 0 001.69-.699c.45-.448.7-1.055.7-1.688s-.25-1.24-.7-1.688a2.4 2.4 0 00-1.69-.699h-22.98c-.64 0-1.24.251-1.69.699-.45.448-.7 1.055-.7 1.688zm30.18 0c0 .633.26 1.24.7 1.688a2.4 2.4 0 001.69.699h4.09c.63 0 1.24-.251 1.68-.699.45-.448.7-1.055.7-1.688s-.25-1.24-.7-1.688a2.36 2.36 0 00-1.68-.699h-4.09a2.4 2.4 0 00-1.69.699c-.44.448-.7 1.055-.7 1.688z" fill="#639FEF"/><path d="M1061.32 293.914a7.02 7.02 0 007.02-7.023 7.02 7.02 0 00-7.02-7.022 7.02 7.02 0 00-7.02 7.022 7.02 7.02 0 007.02 7.023z" fill="url(#paint12_linear_36_229)"/><path d="M1061.32 293.914a7.02 7.02 0 007.02-7.023h-14.04a7.02 7.02 0 007.02 7.023z" fill="url(#paint13_linear_36_229)"/><path d="M1082.05 286.891c0 .634.25 1.241.7 1.688a2.4 2.4 0 001.69.7h22.98c.64 0 1.24-.252 1.69-.7.45-.447.7-1.054.7-1.688 0-.633-.25-1.24-.7-1.687-.45-.448-1.05-.7-1.69-.7h-22.98a2.4 2.4 0 00-1.69.7c-.45.447-.7 1.054-.7 1.687zm42.17 0c0 .634.25 1.241.7 1.688.44.448 1.05.7 1.68.7h4.09a2.4 2.4 0 001.69-.7c.44-.447.7-1.054.7-1.688 0-.633-.26-1.24-.7-1.687a2.4 2.4 0 00-1.69-.7h-4.09c-.63 0-1.24.252-1.68.7-.45.447-.7 1.054-.7 1.687zm16.31 0c0 .634.25 1.241.7 1.688.45.448 1.05.7 1.69.7h4.08c.64 0 1.24-.252 1.69-.7.45-.447.7-1.054.7-1.688 0-.633-.25-1.24-.7-1.687-.45-.448-1.05-.7-1.69-.7h-4.08c-.64 0-1.24.252-1.69.7-.45.447-.7 1.054-.7 1.687zm16.31 0c0 .634.26 1.241.7 1.688a2.4 2.4 0 001.69.7h4.09c.63 0 1.24-.252 1.68-.7.45-.447.7-1.054.7-1.688 0-.633-.25-1.24-.7-1.687a2.36 2.36 0 00-1.68-.7h-4.09a2.4 2.4 0 00-1.69.7c-.44.447-.7 1.054-.7 1.687z" fill="#7BACDF"/><path d="M1061.32 335.973a7.02 7.02 0 007.02-7.023 7.02 7.02 0 10-14.04 0 7.02 7.02 0 007.02 7.023z" fill="url(#paint14_linear_36_229)"/><path d="M1061.32 335.973a7.02 7.02 0 007.02-7.023h-14.04a7.02 7.02 0 007.02 7.023z" fill="url(#paint15_linear_36_229)"/><path d="M1082.05 328.95c0 .633.25 1.241.7 1.688a2.4 2.4 0 001.69.699h22.98c.64 0 1.24-.251 1.69-.699.45-.447.7-1.055.7-1.688s-.25-1.24-.7-1.688a2.387 2.387 0 00-1.69-.699h-22.98c-.63 0-1.24.252-1.69.699-.45.448-.7 1.055-.7 1.688zm42.17 0c0 .633.25 1.241.7 1.688a2.36 2.36 0 001.68.699h4.09a2.4 2.4 0 001.69-.699c.44-.447.7-1.055.7-1.688s-.26-1.24-.7-1.688a2.404 2.404 0 00-1.69-.699h-4.09c-.63 0-1.24.252-1.68.699-.45.448-.7 1.055-.7 1.688zm16.31 0c0 .633.25 1.241.7 1.688.45.448 1.05.699 1.69.699h4.08c.64 0 1.24-.251 1.69-.699.45-.447.7-1.055.7-1.688s-.25-1.24-.7-1.688a2.387 2.387 0 00-1.69-.699h-4.08a2.387 2.387 0 00-2.39 2.387zm16.31 0c0 .633.26 1.241.7 1.688a2.4 2.4 0 001.69.699h4.09c.63 0 1.24-.251 1.68-.699.45-.447.7-1.055.7-1.688s-.25-1.24-.7-1.688a2.363 2.363 0 00-1.68-.699h-4.09c-.63 0-1.24.252-1.69.699-.44.448-.7 1.055-.7 1.688z" fill="#7BACDF"/><path d="M1061.32 378.032a7.02 7.02 0 007.02-7.023 7.02 7.02 0 10-14.04 0 7.02 7.02 0 007.02 7.023z" fill="url(#paint16_linear_36_229)"/><path d="M1061.32 378.032a7.02 7.02 0 007.02-7.023h-14.04a7.02 7.02 0 007.02 7.023z" fill="url(#paint17_linear_36_229)"/><path d="M1082.05 371.009c0 .633.25 1.24.7 1.688a2.4 2.4 0 001.69.699h22.98c.64 0 1.24-.251 1.69-.699.45-.448.7-1.055.7-1.688s-.25-1.24-.7-1.688a2.382 2.382 0 00-1.69-.699h-22.98a2.4 2.4 0 00-1.69.699c-.45.448-.7 1.055-.7 1.688zm42.17 0c0 .633.25 1.24.7 1.688a2.36 2.36 0 001.68.699h4.09a2.4 2.4 0 001.69-.699c.44-.448.7-1.055.7-1.688s-.26-1.24-.7-1.688a2.4 2.4 0 00-1.69-.699h-4.09c-.63 0-1.24.251-1.68.699-.45.448-.7 1.055-.7 1.688zm16.31 0c0 .633.25 1.24.7 1.688.45.448 1.05.699 1.69.699h4.08c.64 0 1.24-.251 1.69-.699.45-.448.7-1.055.7-1.688s-.25-1.24-.7-1.688a2.382 2.382 0 00-1.69-.699h-4.08c-.64 0-1.24.251-1.69.699-.45.448-.7 1.055-.7 1.688zm16.31 0c0 .633.26 1.24.7 1.688a2.4 2.4 0 001.69.699h4.09c.63 0 1.24-.251 1.68-.699.45-.448.7-1.055.7-1.688s-.25-1.24-.7-1.688a2.36 2.36 0 00-1.68-.699h-4.09a2.4 2.4 0 00-1.69.699c-.44.448-.7 1.055-.7 1.688z" fill="#7BACDF"/><path d="M1061.32 356.593a7.02 7.02 0 007.02-7.022 7.02 7.02 0 10-14.04 0 7.02 7.02 0 007.02 7.022z" fill="url(#paint18_linear_36_229)"/><path d="M1061.32 356.593a7.02 7.02 0 007.02-7.022h-14.04a7.02 7.02 0 007.02 7.022z" fill="url(#paint19_linear_36_229)"/><path d="M1082.05 349.571c0 .633.25 1.24.7 1.688.45.447 1.06.699 1.69.699h22.98a2.387 2.387 0 100-4.775h-22.98a2.4 2.4 0 00-1.69.7c-.45.447-.7 1.054-.7 1.688zm42.17 0c0 .633.25 1.24.7 1.688.44.447 1.05.699 1.68.699h4.09c.63 0 1.24-.252 1.69-.699.44-.448.7-1.055.7-1.688 0-.634-.26-1.241-.7-1.688a2.4 2.4 0 00-1.69-.7h-4.09c-.63 0-1.24.252-1.68.7-.45.447-.7 1.054-.7 1.688zm16.31 0a2.387 2.387 0 002.39 2.387h4.08a2.387 2.387 0 100-4.775h-4.08c-.64 0-1.24.252-1.69.7-.45.447-.7 1.054-.7 1.688zm16.31 0c0 .633.26 1.24.7 1.688.45.447 1.06.699 1.69.699h4.09c.63 0 1.24-.252 1.68-.699.45-.448.7-1.055.7-1.688 0-.634-.25-1.241-.7-1.688a2.36 2.36 0 00-1.68-.7h-4.09a2.4 2.4 0 00-1.69.7c-.44.447-.7 1.054-.7 1.688z" fill="#7BACDF"/><path d="M1061.32 314.688a7.02 7.02 0 007.02-7.023 7.02 7.02 0 10-14.04 0 7.02 7.02 0 007.02 7.023z" fill="url(#paint20_linear_36_229)"/><path d="M1061.32 314.687a7.02 7.02 0 007.02-7.022h-14.04a7.02 7.02 0 007.02 7.022z" fill="url(#paint21_linear_36_229)"/><path d="M1082.05 307.665c0 .633.25 1.24.7 1.688.45.447 1.06.699 1.69.699h22.98a2.387 2.387 0 100-4.774h-22.98a2.4 2.4 0 00-1.69.699c-.45.447-.7 1.055-.7 1.688zm42.17 0c0 .633.25 1.24.7 1.688.44.447 1.05.699 1.68.699h4.09c.63 0 1.24-.252 1.69-.699.44-.448.7-1.055.7-1.688a2.42 2.42 0 00-.7-1.688 2.4 2.4 0 00-1.69-.699h-4.09c-.63 0-1.24.251-1.68.699-.45.447-.7 1.055-.7 1.688zm16.31 0a2.387 2.387 0 002.39 2.387h4.08a2.387 2.387 0 100-4.774h-4.08c-.64 0-1.24.251-1.69.699-.45.447-.7 1.055-.7 1.688zm16.31 0c0 .633.26 1.24.7 1.688.45.447 1.06.699 1.69.699h4.09c.63 0 1.24-.252 1.68-.699.45-.448.7-1.055.7-1.688s-.25-1.241-.7-1.688a2.36 2.36 0 00-1.68-.699h-4.09a2.4 2.4 0 00-1.69.699 2.42 2.42 0 00-.7 1.688z" fill="#7BACDF"/></g><path d="M236 373.5C262 356 345.6 321 472 321m509 52.5C955 356 871.4 321 745 321" stroke="#BCC2DA" stroke-width="3" stroke-dasharray="4 4"/><g clip-path="url(#clip2_36_229)"><path d="M359.087 304.267l-18.971 29.412a2.508 2.508 0 00.745 3.456l20.426 13.175a2.507 2.507 0 003.457-.746l15.336-23.775a2.894 2.894 0 00.397-2.179l-1.884-8.728a2.89 2.89 0 00-1.26-1.821l-14.789-9.54a2.508 2.508 0 00-3.457.746z" fill="url(#paint22_linear_36_229)"/><path d="M355.581 321.994l13.431 8.663a.721.721 0 00.997-.215l.954-1.478a.721.721 0 00-.216-.997l-13.431-8.664a.725.725 0 00-.997.215l-.953 1.478a.724.724 0 00.215.998zm-2.709 4.199l13.431 8.663a.717.717 0 00.997-.215l.954-1.478a.726.726 0 00.099-.543.727.727 0 00-.314-.454l-13.431-8.663a.717.717 0 00-.997.215l-.954 1.478a.726.726 0 00-.099.543c.041.187.154.35.314.454zm-2.708 4.199l13.431 8.664a.725.725 0 00.997-.215l.953-1.478a.724.724 0 00-.215-.998l-13.431-8.663a.721.721 0 00-.997.215l-.953 1.478a.717.717 0 00.215.997zm-2.876 4.092l6.799 4.385a.522.522 0 00.721-.155l1.17-1.813a.523.523 0 00-.156-.722l-6.799-4.385a.523.523 0 00-.722.155l-1.169 1.813a.523.523 0 00.156.722z" fill="#EBEFF0"/><path d="M378.593 314.882a2.893 2.893 0 00-.71-1.361l-4.419 6.849 2.535 11.746 4.081-6.327a2.894 2.894 0 00.397-2.179l-1.884-8.728z" fill="url(#paint23_linear_36_229)"/><path d="M380.388 325.153a6.79 6.79 0 01-.042.112l-6.436-4.152a.982.982 0 01-.293-1.357l4.117-6.382a3.077 3.077 0 01.951 1.649l1.816 8.419c.124.57.084 1.162-.113 1.711z" fill="url(#paint24_linear_36_229)"/><path d="M366.059 347.526l-1.315 2.038a2.506 2.506 0 01-3.456.746l-20.427-13.175a2.508 2.508 0 01-.745-3.456l1.315-2.038 24.628 15.885z" fill="url(#paint25_linear_36_229)"/><path d="M366.059 347.526l-1.315 2.038a2.506 2.506 0 01-3.456.746l-20.427-13.175a2.508 2.508 0 01-.745-3.456l1.315-2.038 24.628 15.885z" fill="url(#paint26_linear_36_229)"/></g><path d="M877.122 338.219l.902-3.596a12.126 12.126 0 00-1.371-9.199 12.206 12.206 0 00-7.49-5.547l-35.534-8.913a12.2 12.2 0 00-9.221 1.355 12.129 12.129 0 00-5.551 7.463l-.902 3.595a12.13 12.13 0 001.372 9.199 12.198 12.198 0 007.489 5.547l35.535 8.913a12.2 12.2 0 009.221-1.355 12.128 12.128 0 005.55-7.462z" fill="#7CB3F4"/><path d="M844.771 326.131c-.432-.107-.896-.007-1.292.279a2.2 2.2 0 00-.822 1.244 2.307 2.307 0 00-.064.774c.022.256.088.501.194.72.106.219.25.408.423.556.174.148.374.252.588.307l7.41 1.858c.215.053.44.056.663.007.223-.048.439-.147.636-.29s.37-.327.511-.543c.14-.215.245-.457.308-.713a2.196 2.196 0 00-.137-1.484c-.214-.439-.577-.747-1.008-.856l-7.41-1.859z" fill="#E2F0FA"/><path opacity=".4" d="M328 509.192l171.587-109.575 102.35 60.206L430.35 565.786 328 509.192z" fill="url(#paint27_linear_36_229)"/><path d="M499.587 279.206L601.937 219l102.35 57.196-102.35 60.206-102.35-57.196z" fill="#2C7BE5"/><path d="M517.65 280.441l84.288-49.4 84.288 46.93-84.288 49.4-84.288-46.93z" fill="#3267AE"/><path d="M601.937 279.206v-48.165l84.288 46.93-84.288 49.4v-48.165zm-102.35 0v120.412l102.35 60.206V336.402l-102.35-57.196z" fill="#1E5094"/><path d="M601.937 336.401l102.35-60.206v121.014l-102.35 62.615V336.401z" fill="#2C7BE5"/><g clip-path="url(#clip3_36_229)" fill-rule="evenodd" clip-rule="evenodd" fill="#fff"><path d="M641.252 385.366c-.122.209-.203.442-.285.675l-1.261 4.68c-.326 1.164.122 2.068 1.017 1.923l8.793-1.358c.325-.048.692-.26 1.017-.541v-13.201c-2.198.385-4.192.096-5.821-.777-2.971-1.631-4.844-5.152-4.925-10.218-.081-5.113 1.71-10.796 4.6-15.904 2.89-5.062 6.92-9.527 11.397-12.205l.041-.024c4.518-2.701 8.589-3.006 11.601-1.445 2.972 1.585 4.844 5.106 4.925 10.172v.047c.082 5.112-1.709 10.795-4.599 15.903a38.393 38.393 0 01-5.821 7.731v13.387c.244-.141.529-.352.773-.586l8.711-9.027c.896-.889 1.303-2.286.977-3.12l-1.384-3.06-.122-.208c.57-.84 1.099-1.704 1.588-2.59.488-.84.936-1.656 1.343-2.495.041.023.081-.001.122.022 1.14-.1 2.279-.247 3.379-.324.854-.028 1.872-1.081 2.238-2.315 1.262-3.982 2.483-7.988 3.745-11.97.367-1.234-.04-2.115-.895-2.086-1.14.1-2.239.223-3.379.323-.081.001-.163.001-.203.025.081-1.163.162-2.326.122-3.464l.04-.024-.04-.023c0-.697-.041-1.324-.082-1.998l3.094-3.274c.855-.911 1.262-2.309.896-3.073a876.527 876.527 0 01-3.623-7.763c-.407-.788-1.384-.689-2.28.247l-2.808 2.969c-.652-.554-1.344-1.084-2.117-1.474a7.777 7.777 0 00-1.547-.687l1.058-3.633c.367-1.234-.081-2.138-.936-2.016-2.89.321-5.78.641-8.711.985-.855.075-1.872 1.174-2.198 2.338l-1.058 3.493c-.937.448-1.873.896-2.85 1.506v-.046l-.04.07a25.05 25.05 0 00-2.483 1.619l-1.14-2.27c-.367-.765-1.384-.596-2.239.316-2.849 3.133-5.699 6.219-8.548 9.305-.896.982-1.262 2.355-.896 3.12l1.059 2.085a44.065 44.065 0 00-1.832 3.01 54.371 54.371 0 00-1.832 3.428l-2.849.39c-.896.146-1.873 1.221-2.239 2.455-1.099 3.935-2.198 7.916-3.338 11.921-.326 1.165.122 2.068 1.018 1.923l2.849-.39c-.081.884-.122 1.744-.081 2.604 0 .976.081 1.905.162 2.788-.04.023-.04.07-.081.093-1.099 1.239-2.198 2.478-3.297 3.67-.855.959-1.221 2.379-.814 3.12l4.03 7.296c.407.741 1.424.572 2.279-.387l2.972-3.296c.529.392 1.058.784 1.669 1.082.366.207.732.367 1.139.551z"/><path d="M656.191 357.31c1.181-.682 2.117-.153 2.117 1.195v26.078c0 1.348-.936 3.004-2.117 3.686-1.18.681-2.116.106-2.116-1.242v-26.078c0-1.348.936-2.958 2.116-3.639zm-12.496 42.404c0-1.348.895-2.934 2.035-3.592l21.004-12.127c1.14-.658 2.035-.106 2.035 1.242s-.895 2.981-2.035 3.639l-21.004 12.126c-1.14.659-2.035.06-2.035-1.288zm1.709 5.195c0-1.348.977-3.027 2.117-3.686l17.341-10.011c1.18-.682 2.116-.107 2.116 1.242 0 1.301-.936 2.957-2.116 3.639l-17.341 10.011c-1.14.658-2.117.107-2.117-1.195zm19.824-7.54c-.489 3.675-4.315 8.441-8.996 11.144-4.681 2.702-8.507 2.355-8.996-.757l17.992-10.387z"/></g><g clip-path="url(#clip4_36_229)" fill-rule="evenodd" clip-rule="evenodd" fill="#fff"><path d="M536.252 368.092c-.122.069-.203.208-.285.347l-1.261 3.223c-.326.788.122 2.208 1.017 3.097l8.793 8.795c.325.328.692.539 1.017.634v-13.201c-2.198-2.153-4.192-4.745-5.821-7.498-2.971-5.063-4.844-10.746-4.925-15.906-.081-5.207 1.71-8.821 4.6-10.593 2.89-1.724 6.92-1.536 11.397.956l.041.024c4.518 2.515 8.589 6.911 11.601 11.95 2.972 5.016 4.844 10.699 4.925 15.86v.046c.082 5.207-1.709 8.821-4.599 10.593-1.628.966-3.623 1.301-5.821 1.009v13.387c.244.141.529.259.773.307l8.711 1.032c.896.145 1.303-.782.977-1.993l-1.384-4.657-.122-.349a6.464 6.464 0 001.588-.757 7.302 7.302 0 001.343-.945c.041.07.081.094.122.164 1.14 1.216 2.279 2.385 3.379 3.577.854.959 1.872 1.081 2.238.27 1.262-2.525 2.483-5.121 3.745-7.646.367-.811-.04-2.162-.895-3.12-1.14-1.216-2.239-2.362-3.379-3.578a1.426 1.426 0 00-.203-.21c.081-1.069.162-2.137.122-3.323l.04.023-.04-.07c0-.697-.041-1.371-.082-2.092l3.094.299c.855.075 1.262-.852.896-2.04a2613.326 2613.326 0 01-3.623-11.946c-.407-1.258-1.384-2.287-2.28-2.386l-2.808-.273c-.652-1.306-1.344-2.635-2.117-3.918a40.265 40.265 0 00-1.547-2.474l1.058-2.41c.367-.811-.081-2.232-.936-3.097-2.89-3.017-5.78-6.034-8.711-9.074-.855-.912-1.872-.988-2.198-.2l-1.058 2.271c-.937-.633-1.873-1.267-2.85-1.784v-.047l-.04.023c-.815-.47-1.669-.917-2.483-1.248l-1.14-3.586c-.367-1.188-1.384-2.194-2.239-2.269-2.849-.157-5.699-.362-8.548-.566-.896-.052-1.262.899-.896 2.086l1.059 3.308a8.592 8.592 0 00-1.832.894c-.651.368-1.262.806-1.832 1.314l-2.849-2.901c-.896-.888-1.873-.941-2.239-.13-1.099 2.666-2.198 5.378-3.338 8.067-.326.788.122 2.209 1.018 3.098l2.849 2.9c-.081.79-.122 1.603-.081 2.51 0 .976.081 1.999.162 2.976-.04-.024-.04.023-.081-.001a77.302 77.302 0 01-3.297-.137c-.855-.029-1.221.968-.814 2.18l4.03 11.949c.407 1.211 1.424 2.217 2.279 2.245l2.972.135c.529 1.003 1.058 2.006 1.669 3.009.366.63.732 1.214 1.139 1.867z"/><path d="M551.191 357.286c1.181.682 2.117 2.292 2.117 3.64v26.078c0 1.348-.936 1.923-2.117 1.241-1.18-.681-2.116-2.337-2.116-3.685v-26.078c0-1.349.936-1.877 2.116-1.196zm-12.496 27.974c0-1.348.895-1.9 2.035-1.242l21.004 12.127c1.14.658 2.035 2.244 2.035 3.592 0 1.348-.895 1.947-2.035 1.289l-21.004-12.127c-1.14-.658-2.035-2.29-2.035-3.639zm1.709 7.17c0-1.348.977-1.9 2.117-1.242l17.341 10.012c1.18.682 2.116 2.338 2.116 3.686 0 1.301-.936 1.876-2.116 1.195l-17.341-10.012c-1.14-.658-2.117-2.337-2.117-3.639zm19.824 15.35c-.489 3.111-4.315 3.459-8.996.756-4.681-2.702-8.507-7.468-8.996-11.144l17.992 10.388z"/></g><path fill-rule="evenodd" clip-rule="evenodd" d="M601.483 327.665l-38.621-22.028L447 0h320L640.103 305.637l-38.62 22.028z" fill="url(#paint28_linear_36_229)"/><path d="M624.903 133.685v-5.066a16.59 16.59 0 00-16.591-16.591H558.42a16.591 16.591 0 00-16.591 16.591v5.069a16.59 16.59 0 0016.591 16.59h49.892c4.4 0 8.62-1.748 11.732-4.859a16.598 16.598 0 004.859-11.734z" fill="#7CB3F4"/><path d="M624.903 167.156v-5.061a16.59 16.59 0 00-16.591-16.591H558.42a16.591 16.591 0 00-16.591 16.591v5.061c0 4.4 1.748 8.62 4.859 11.732a16.595 16.595 0 0011.732 4.859h49.892a16.586 16.586 0 0015.328-10.242 16.586 16.586 0 001.263-6.349zm0 66.945v-5.061c0-4.4-1.748-8.62-4.859-11.732a16.595 16.595 0 00-11.732-4.859H558.42c-4.4 0-8.62 1.748-11.732 4.859a16.595 16.595 0 00-4.859 11.732v5.061c0 4.4 1.748 8.62 4.859 11.732a16.595 16.595 0 0011.732 4.859h49.892c4.4 0 8.62-1.748 11.732-4.859a16.595 16.595 0 004.859-11.732z" fill="#4895EF"/><path d="M577.949 128.763a2.393 2.393 0 00-2.384 2.381 2.4 2.4 0 00.695 1.694 2.38 2.38 0 001.689.706h10.836a2.379 2.379 0 001.688-.707 2.39 2.39 0 00-1.688-4.074h-10.836zm0 33.464a2.397 2.397 0 00-1.689.706 2.377 2.377 0 00-.695 1.694 2.393 2.393 0 002.384 2.381h10.836a2.388 2.388 0 002.382-2.381 2.4 2.4 0 00-1.467-2.215 2.397 2.397 0 00-.915-.185h-10.836zm0 66.961a2.39 2.39 0 00-2.384 2.384 2.393 2.393 0 002.384 2.381h10.836a2.392 2.392 0 002.382-2.381 2.394 2.394 0 00-2.382-2.384h-10.836z" fill="#E2F0FA"/><path d="M671.977 200.63v-5.064a16.587 16.587 0 00-16.591-16.59h-49.892a16.587 16.587 0 00-16.591 16.59v5.064a16.59 16.59 0 0016.591 16.591h49.892c4.4 0 8.62-1.748 11.731-4.86a16.587 16.587 0 004.86-11.731z" fill="#7CB3F4"/><path d="M625.02 195.708a2.385 2.385 0 00-1.682.699 2.385 2.385 0 00-.523 2.598 2.403 2.403 0 001.29 1.299c.29.121.601.184.915.185h10.837a2.397 2.397 0 001.689-.706 2.38 2.38 0 00.694-1.694 2.385 2.385 0 00-.701-1.682 2.385 2.385 0 00-1.682-.699H625.02z" fill="#E2F0FA"/><defs><linearGradient id="paint0_linear_36_229" x1="82.059" y1="301.686" x2="143.897" y2="363.524" gradientUnits="userSpaceOnUse"><stop stop-color="#7FAEF4"/><stop offset="1" stop-color="#4C8DF1"/></linearGradient><linearGradient id="paint1_linear_36_229" x1="127.01" y1="251.289" x2="154.623" y2="251.289" gradientUnits="userSpaceOnUse"><stop stop-color="#4C8DF1" stop-opacity="0"/><stop offset="1" stop-color="#4256AC"/></linearGradient><linearGradient id="paint2_linear_36_229" x1="129.501" y1="265.97" x2="140.9" y2="277.37" gradientUnits="userSpaceOnUse"><stop stop-color="#A7C5FD"/><stop offset="1" stop-color="#7FAEF4"/></linearGradient><linearGradient id="paint3_linear_36_229" x1="59.377" y1="364.992" x2="154.623" y2="364.992" gradientUnits="userSpaceOnUse"><stop stop-color="#4C8DF1" stop-opacity="0"/><stop offset="1" stop-color="#4256AC"/></linearGradient><linearGradient id="paint4_linear_36_229" x1="82.059" y1="371.234" x2="83.906" y2="386.235" gradientUnits="userSpaceOnUse"><stop stop-color="#7FAEF4"/><stop offset="1" stop-color="#4C8DF1"/></linearGradient><linearGradient id="paint5_linear_36_229" x1="1062.33" y1="268.333" x2="1163.34" y2="369.337" gradientUnits="userSpaceOnUse"><stop stop-color="#EAF6FF"/><stop offset="1" stop-color="#B3DAFE"/></linearGradient><linearGradient id="paint6_linear_36_229" x1="1045" y1="297.188" x2="1175" y2="297.188" gradientUnits="userSpaceOnUse"><stop stop-color="#8AC9FE" stop-opacity="0"/><stop offset=".063" stop-color="#85C2F3" stop-opacity=".063"/><stop offset=".368" stop-color="#70A3C3" stop-opacity=".368"/><stop offset=".636" stop-color="#608CA0" stop-opacity=".636"/><stop offset=".856" stop-color="#577E8B" stop-opacity=".856"/><stop offset="1" stop-color="#537983"/></linearGradient><linearGradient id="paint7_linear_36_229" x1="1062.33" y1="299.982" x2="1067.45" y2="331.717" gradientUnits="userSpaceOnUse"><stop stop-color="#EAF6FF"/><stop offset="1" stop-color="#B3DAFE"/></linearGradient><linearGradient id="paint8_linear_36_229" x1="1045" y1="339.094" x2="1175" y2="339.094" gradientUnits="userSpaceOnUse"><stop stop-color="#8AC9FE" stop-opacity="0"/><stop offset=".063" stop-color="#85C2F3" stop-opacity=".063"/><stop offset=".368" stop-color="#70A3C3" stop-opacity=".368"/><stop offset=".636" stop-color="#608CA0" stop-opacity=".636"/><stop offset=".856" stop-color="#577E8B" stop-opacity=".856"/><stop offset="1" stop-color="#537983"/></linearGradient><linearGradient id="paint9_linear_36_229" x1="1062.33" y1="341.888" x2="1067.45" y2="373.622" gradientUnits="userSpaceOnUse"><stop stop-color="#EAF6FF"/><stop offset="1" stop-color="#B3DAFE"/></linearGradient><linearGradient id="paint10_linear_36_229" x1="1045" y1="360.047" x2="1175" y2="360.047" gradientUnits="userSpaceOnUse"><stop stop-color="#8AC9FE" stop-opacity="0"/><stop offset=".063" stop-color="#85C2F3" stop-opacity=".063"/><stop offset=".368" stop-color="#70A3C3" stop-opacity=".368"/><stop offset=".636" stop-color="#608CA0" stop-opacity=".636"/><stop offset=".856" stop-color="#577E8B" stop-opacity=".856"/><stop offset="1" stop-color="#537983"/></linearGradient><linearGradient id="paint11_linear_36_229" x1="1062.33" y1="362.841" x2="1067.45" y2="394.575" gradientUnits="userSpaceOnUse"><stop stop-color="#EAF6FF"/><stop offset="1" stop-color="#B3DAFE"/></linearGradient><linearGradient id="paint12_linear_36_229" x1="1059.17" y1="284.747" x2="1067.11" y2="292.686" gradientUnits="userSpaceOnUse"><stop stop-color="#FD4755"/><stop offset="1" stop-color="#D2024E"/></linearGradient><linearGradient id="paint13_linear_36_229" x1="1061.32" y1="287.817" x2="1061.32" y2="294.662" gradientUnits="userSpaceOnUse"><stop stop-color="#C00148" stop-opacity="0"/><stop offset="1" stop-color="#6D3326"/></linearGradient><linearGradient id="paint14_linear_36_229" x1="1055.27" y1="322.902" x2="1062.02" y2="329.653" gradientUnits="userSpaceOnUse"><stop stop-color="#FEE97D"/><stop offset="1" stop-color="#FAC600"/></linearGradient><linearGradient id="paint15_linear_36_229" x1="1061.32" y1="329.876" x2="1061.32" y2="336.721" gradientUnits="userSpaceOnUse"><stop stop-color="#FAC600" stop-opacity="0"/><stop offset=".69" stop-color="#D68C3D" stop-opacity=".69"/><stop offset="1" stop-color="#C5715A"/></linearGradient><linearGradient id="paint16_linear_36_229" x1="1058.09" y1="367.782" x2="1063.2" y2="372.886" gradientUnits="userSpaceOnUse"><stop stop-color="#C5715A"/><stop offset="1" stop-color="#883F2E"/></linearGradient><linearGradient id="paint17_linear_36_229" x1="1061.32" y1="371.934" x2="1061.32" y2="378.78" gradientUnits="userSpaceOnUse"><stop stop-color="#883F2E" stop-opacity="0"/><stop offset="1" stop-color="#6D3326"/></linearGradient><linearGradient id="paint18_linear_36_229" x1="1058.23" y1="346.484" x2="1066.58" y2="354.832" gradientUnits="userSpaceOnUse"><stop stop-color="#8BC727"/><stop offset="1" stop-color="#017B4E"/></linearGradient><linearGradient id="paint19_linear_36_229" x1="1061.32" y1="350.496" x2="1061.32" y2="357.341" gradientUnits="userSpaceOnUse"><stop stop-color="#017B4E" stop-opacity="0"/><stop offset="1" stop-color="#026841"/></linearGradient><linearGradient id="paint20_linear_36_229" x1="1059.56" y1="305.903" x2="1068.17" y2="314.512" gradientUnits="userSpaceOnUse"><stop stop-color="#26A6FE"/><stop offset="1" stop-color="#2740B0"/></linearGradient><linearGradient id="paint21_linear_36_229" x1="1061.32" y1="308.59" x2="1061.32" y2="315.435" gradientUnits="userSpaceOnUse"><stop stop-color="#2740B0" stop-opacity="0"/><stop offset="1" stop-color="#192A7D"/></linearGradient><linearGradient id="paint22_linear_36_229" x1="357.854" y1="319.055" x2="363.53" y2="345.358" gradientUnits="userSpaceOnUse"><stop stop-color="#7FAEF4"/><stop offset="1" stop-color="#4C8DF1"/></linearGradient><linearGradient id="paint23_linear_36_229" x1="377.883" y1="313.521" x2="385.022" y2="318.126" gradientUnits="userSpaceOnUse"><stop stop-color="#4C8DF1" stop-opacity="0"/><stop offset="1" stop-color="#4256AC"/></linearGradient><linearGradient id="paint24_linear_36_229" x1="376.078" y1="317.732" x2="377.124" y2="322.581" gradientUnits="userSpaceOnUse"><stop stop-color="#A7C5FD"/><stop offset="1" stop-color="#7FAEF4"/></linearGradient><linearGradient id="paint25_linear_36_229" x1="341.431" y1="331.641" x2="366.059" y2="347.526" gradientUnits="userSpaceOnUse"><stop stop-color="#4C8DF1" stop-opacity="0"/><stop offset="1" stop-color="#4256AC"/></linearGradient><linearGradient id="paint26_linear_36_229" x1="346.255" y1="337.038" x2="344.23" y2="341.225" gradientUnits="userSpaceOnUse"><stop stop-color="#7FAEF4"/><stop offset="1" stop-color="#4C8DF1"/></linearGradient><linearGradient id="paint27_linear_36_229" x1="451.422" y1="486.916" x2="505.608" y2="399.617" gradientUnits="userSpaceOnUse"><stop offset=".133" stop-color="#C4C4C4" stop-opacity="0"/><stop offset="1" stop-color="#484848"/></linearGradient><linearGradient id="paint28_linear_36_229" x1="594.586" y1="52.316" x2="594.586" y2="329.021" gradientUnits="userSpaceOnUse"><stop stop-color="#C6EAFF" stop-opacity="0"/><stop offset=".645" stop-color="#A4D9FF" stop-opacity=".43"/><stop offset="1" stop-color="#D0E9FF" stop-opacity="0"/></linearGradient><clipPath id="clip0_36_229"><path fill="#fff" transform="translate(42 251)" d="M0 0h130v130H0z"/></clipPath><clipPath id="clip1_36_229"><path fill="#fff" transform="translate(1045 251)" d="M0 0h130v130H0z"/></clipPath><clipPath id="clip2_36_229"><path fill="#fff" transform="rotate(32.823 -330.058 753.89)" d="M0 0h40v40H0z"/></clipPath><clipPath id="clip3_36_229"><path fill="#fff" transform="matrix(.86603 -.5 0 1 629 342.421)" d="M0 0h62.843v81.814H0z"/></clipPath><clipPath id="clip4_36_229"><path fill="#fff" transform="matrix(.86603 .5 0 1 524 311)" d="M0 0h62.843v81.814H0z"/></clipPath></defs></svg>