<svg width="40" height="40" fill="none" xmlns="http://www.w3.org/2000/svg"><path fill-rule="evenodd" clip-rule="evenodd" d="M34.165 5.776v-.999h1.875c1.078 0 1.952.875 1.952 1.953v8.592H2.064V6.73c0-1.078.874-1.953 1.952-1.953h1.875v1a1.407 1.407 0 102.187 0v-1h4.296v1a1.407 1.407 0 102.187 0v-1h4.373v1a1.407 1.407 0 102.187 0v-1h4.335v1.05a1.407 1.407 0 102.226-.05v-1h4.296v1a1.407 1.407 0 102.187 0z" fill="#F7254A"/><path fill-rule="evenodd" clip-rule="evenodd" d="M24.359 37.973c4.992-1.559 6.429-3.464 8.42-5.534 1.68-1.745 2.19.882 3.61 1.043.882.099 1.604-.723 1.604-.723V15.79H2.064v20.178c0 1.106.898 2.005 2.004 2.005H24.36zM6.984 2.043c-.604 0-1.093.49-1.093 1.094v3.437a1.094 1.094 0 002.187 0V3.137c0-.604-.49-1.093-1.094-1.093zm13.044 0c-.604 0-1.093.49-1.093 1.094v3.437a1.094 1.094 0 002.187 0V3.137c0-.604-.49-1.093-1.094-1.093zm6.541 0h-.02c-.603 0-1.093.49-1.093 1.094v3.437c0 .604.49 1.093 1.094 1.093h.039c.604 0 1.094-.49 1.094-1.093V3.137c0-.604-.49-1.093-1.094-1.093h-.02zm-13.102 0c-.604 0-1.094.49-1.094 1.094v3.437a1.094 1.094 0 002.188 0V3.137c0-.604-.49-1.093-1.094-1.093zm19.605 0c-.604 0-1.094.49-1.094 1.094v3.437a1.093 1.093 0 102.187-.001V3.137c0-.604-.49-1.093-1.093-1.093z" fill="#EDF5FF"/><path fill-rule="evenodd" clip-rule="evenodd" d="M14.56 5.777a1.407 1.407 0 11-2.187 0v.797a1.093 1.093 0 102.188 0v-.797zm-8.67 0v.797a1.093 1.093 0 102.188 0v-.797a1.407 1.407 0 11-2.187 0zm28.275 0a1.406 1.406 0 11-2.187 0v.797a1.094 1.094 0 002.187 0v-.798zm-6.482 0a1.407 1.407 0 11-2.226.05v.747c0 .604.49 1.093 1.093 1.093h.039c.604 0 1.094-.49 1.094-1.093v-.797zm-6.561 0a1.407 1.407 0 11-2.187 0v.797a1.093 1.093 0 102.187 0v-.797z" fill="#6D2020"/><path fill-rule="evenodd" clip-rule="evenodd" d="M24.359 37.973h11.629a2.005 2.005 0 002.005-2.005V32.76c-1.405 2.332-3.928 3.863-13.634 5.213z" fill="#E6E6E6"/><path fill-rule="evenodd" clip-rule="evenodd" d="M36.388 33.481c-1.418-.16-1.93-2.787-3.608-1.042-1.992 2.07-3.43 3.976-8.421 5.534 9.706-1.35 12.23-2.881 13.634-5.213 0 0-.722.821-1.605.721zM2.064 15.791h35.929v-.47H2.063v.47zm4.92-8.124V2.044c.604 0 1.094.49 1.094 1.093v3.437c0 .604-.49 1.093-1.094 1.093zm6.483 0V2.044c.604 0 1.094.49 1.094 1.093v3.437c0 .604-.49 1.093-1.094 1.093zm6.561 0V2.044c.604 0 1.094.49 1.094 1.093v3.437c0 .604-.49 1.093-1.094 1.093zm6.561 0V2.044c.604 0 1.094.49 1.094 1.093v3.437c0 .604-.49 1.093-1.094 1.093zm6.483 0V2.044c.604 0 1.093.49 1.093 1.093v3.437c0 .604-.49 1.093-1.093 1.093z" fill="#B5B5B5"/></svg>