<svg width="1883" height="1080" fill="none" xmlns="http://www.w3.org/2000/svg"><g filter="url(#filter0_f_49_5235)"><g opacity=".4"><mask id="a" style="mask-type:alpha" maskUnits="userSpaceOnUse" x="853" y="-21" width="1074" height="1298"><path transform="rotate(5.302 965.273 -20.494)" fill="url(#paint0_linear_49_5235)" d="M965.273-20.494h965.079v1213.44H965.273z"/></mask><g mask="url(#a)"><path d="M1724.66 832.729c-18.17 195.771-191.6 339.741-387.36 321.571-195.77-18.17-339.743-191.597-321.57-387.364 18.16-195.767 167.11-75.95 362.88-57.782 195.77 18.169 364.22-72.192 346.05 123.575z" fill="#579AFF"/><g filter="url(#filter1_f_49_5235)"><path d="M1724 839.797c-14.06 151.541-184.16 259.663-379.93 241.493-195.77-18.17-343.07-155.745-329-307.286 14.06-151.541 184.16-259.66 379.93-241.492 195.77 18.168 343.07 155.744 329 307.285z" fill="#579AFF"/></g><g filter="url(#filter2_f_49_5235)"><ellipse cx="1370.84" cy="792.772" rx="355.991" ry="275.568" transform="rotate(5.302 1370.84 792.772)" fill="#579AFF"/></g><g filter="url(#filter3_f_49_5235)"><ellipse cx="1374.45" cy="753.905" rx="355.991" ry="276.751" transform="rotate(5.302 1374.45 753.905)" fill="#579AFF"/></g><g filter="url(#filter4_f_49_5235)"><ellipse cx="1385.27" cy="637.322" rx="355.991" ry="275.568" transform="rotate(5.302 1385.27 637.322)" fill="#579AFF"/></g><g filter="url(#filter5_f_49_5235)"><ellipse cx="1399.92" cy="479.519" rx="299.222" ry="275.568" transform="rotate(5.302 1399.92 479.519)" fill="#579AFF"/></g></g><mask id="b" style="mask-type:alpha" maskUnits="userSpaceOnUse" x="952" y="79" width="1513" height="1398"><path transform="rotate(64.214 2044.73 79.688)" fill="url(#paint1_linear_49_5235)" d="M2044.73 79.688h965.079v1213.44H2044.73z"/></mask><g mask="url(#b)"><path d="M1706.18 1170.58c-177.03 85.53-389.88 11.35-475.41-165.68-85.52-177.032-11.35-389.878 165.68-475.406 177.04-85.528 151.34 103.896 236.87 280.927 85.52 177.03 249.89 274.629 72.86 360.159z" fill="#FF4DED"/><g filter="url(#filter6_f_49_5235)"><path d="M1699.79 1173.67c-137.04 66.2-317.46-23.64-402.99-200.669-85.53-177.031-43.77-374.213 93.27-440.419 137.03-66.206 317.46 23.635 402.99 200.665 85.52 177.031 43.77 374.213-93.27 440.423z" fill="#FF4DED"/></g><g filter="url(#filter7_f_49_5235)"><ellipse cx="1557.71" cy="846.947" rx="355.991" ry="275.568" transform="rotate(64.214 1557.71 846.947)" fill="#FF4DED"/></g><g filter="url(#filter8_f_49_5235)"><ellipse cx="1592.85" cy="829.972" rx="355.991" ry="276.75" transform="rotate(64.214 1592.85 829.972)" fill="#FF4DED"/></g><g filter="url(#filter9_f_49_5235)"><ellipse cx="1698.28" cy="779.037" rx="355.991" ry="275.568" transform="rotate(64.214 1698.28 779.037)" fill="#FF4DED"/></g><g filter="url(#filter10_f_49_5235)"><ellipse cx="1840.98" cy="710.094" rx="299.222" ry="275.568" transform="rotate(64.214 1840.98 710.094)" fill="#FF4DED"/></g></g></g><g opacity=".4"><mask id="c" style="mask-type:alpha" maskUnits="userSpaceOnUse" x="974" y="685" width="1501" height="533"><path transform="rotate(95.418 2474.61 824.113)" fill="url(#paint2_linear_49_5235)" d="M2474.61 824.113h394.765v1469.55H2474.61z"/></mask><g mask="url(#c)"><path d="M1502.68 1075.02c-237.04-22.48-423.04-105.605-415.45-185.669 7.6-80.063 205.91-126.744 442.95-104.264 237.04 22.48 103.64 75.317 96.05 155.38-7.6 80.063 113.49 157.033-123.55 134.553z" fill="#57AEFF"/><g filter="url(#filter11_f_49_5235)"><path d="M1494.12 1074.21c-183.48-17.4-326.08-96.413-318.48-176.476 7.59-80.064 162.49-130.861 345.98-113.46 183.49 17.401 326.08 96.412 318.49 176.475-7.59 80.061-162.5 130.861-345.99 113.461z" fill="#57AEFF"/></g><g filter="url(#filter12_f_49_5235)"><ellipse cx="1524.98" cy="930.864" rx="145.618" ry="333.728" transform="rotate(95.418 1524.98 930.864)" fill="#57AEFF"/></g><g filter="url(#filter13_f_49_5235)"><ellipse cx="1572.04" cy="935.328" rx="145.618" ry="335.16" transform="rotate(95.418 1572.04 935.328)" fill="#57AEFF"/></g><g filter="url(#filter14_f_49_5235)"><ellipse cx="1713.2" cy="948.714" rx="145.618" ry="333.728" transform="rotate(95.418 1713.2 948.714)" fill="#57AEFF"/></g><g filter="url(#filter15_f_49_5235)"><ellipse cx="1904.27" cy="966.834" rx="122.397" ry="333.728" transform="rotate(95.418 1904.27 966.834)" fill="#57AEFF"/></g></g><mask id="d" style="mask-type:alpha" maskUnits="userSpaceOnUse" x="702" y="770" width="1731" height="605"><path transform="matrix(-.99433 .10629 -.82224 -.56914 2432.74 1265.58)" fill="url(#paint3_linear_49_5235)" d="M0 0h1021.29v869.477H0z"/></mask><g mask="url(#d)"><path d="M1094.55 1041.58c-115.9-80.17-42.11-163.07 164.8-185.16 206.91-22.091 468.6 24.993 584.5 105.165 115.9 80.175-114.05 55.045-320.97 77.135-206.91 22.09-312.44 83.03-428.33 2.86z" fill="#4A46FF"/><g filter="url(#filter16_f_49_5235)"><path d="M1090.36 1038.69c-89.71-62.062 5.3-130.279 212.21-152.37 206.92-22.09 447.38 10.311 537.1 72.371 89.71 62.059-5.3 130.279-212.21 152.369-206.92 22.09-447.38-10.31-537.1-72.37z" fill="#4A46FF"/></g><g filter="url(#filter17_f_49_5235)"><ellipse cx="376.724" cy="197.454" rx="376.724" ry="197.454" transform="matrix(-.9945 .10618 -.82268 -.56909 2010.48 1076.85)" fill="#4A46FF"/></g><g filter="url(#filter18_f_49_5235)"><ellipse cx="376.724" cy="198.302" rx="376.724" ry="198.302" transform="matrix(-.9945 .10618 -.82268 -.56909 2034.18 1093.24)" fill="#4A46FF"/></g><g filter="url(#filter19_f_49_5235)"><ellipse cx="376.724" cy="197.454" rx="376.724" ry="197.454" transform="matrix(-.9945 .10618 -.82268 -.56909 2102.5 1140.51)" fill="#4A46FF"/></g><g filter="url(#filter20_f_49_5235)"><ellipse cx="316.649" cy="197.454" rx="316.649" ry="197.454" transform="matrix(-.9945 .10618 -.82268 -.56909 2136.18 1211.51)" fill="#4A46FF"/></g></g></g><g opacity=".4"><mask id="e" style="mask-type:alpha" maskUnits="userSpaceOnUse" x="389" y="-229" width="1455" height="1593"><path transform="rotate(-23.255 389.976 176.658)" fill="url(#paint4_linear_49_5235)" d="M389.976 176.658h1027.05v1291.36H389.976z"/></mask><g mask="url(#e)"><path d="M1533.86 587.876c82.61 192.234-6.25 415.034-198.49 497.644-192.23 82.61-415.037-6.25-497.647-198.488-82.61-192.234 117.572-156.009 309.807-238.619 192.23-82.61 303.72-252.771 386.33-60.537z" fill="#2C67FF"/><g filter="url(#filter21_f_49_5235)"><path d="M1536.85 594.81c63.95 148.805-40.05 336.405-232.28 419.01-192.24 82.61-399.914 28.95-463.862-119.854-63.947-148.805 40.05-336.405 232.282-419.014 192.24-82.61 399.91-28.948 463.86 119.858z" fill="#2C67FF"/></g><g filter="url(#filter22_f_49_5235)"><ellipse cx="1182.81" cy="730.514" rx="378.849" ry="293.262" transform="rotate(-23.255 1182.81 730.514)" fill="#2C67FF"/></g><g filter="url(#filter23_f_49_5235)"><ellipse cx="1166.42" cy="692.356" rx="378.849" ry="294.52" transform="rotate(-23.255 1166.42 692.356)" fill="#2C67FF"/></g><g filter="url(#filter24_f_49_5235)"><ellipse cx="1117.22" cy="577.871" rx="378.849" ry="293.262" transform="rotate(-23.255 1117.22 577.871)" fill="#2C67FF"/></g><g filter="url(#filter25_f_49_5235)"><ellipse cx="1050.63" cy="422.917" rx="318.435" ry="293.262" transform="rotate(-23.255 1050.63 422.917)" fill="#2C67FF"/></g></g><mask id="f" style="mask-type:alpha" maskUnits="userSpaceOnUse" x="490" y="416" width="880" height="741"><path transform="rotate(-82.166 490.832 1047.16)" fill="url(#paint5_linear_49_5235)" d="M490.832 1047.16h636.095v799.795H490.832z"/></mask><g mask="url(#f)"><path d="M1074.76 571.963c128.37 17.662 218.13 136.05 200.46 264.428-17.66 128.378-136.05 218.129-264.42 200.469-128.382-17.66-45.15-112.253-27.488-240.63 17.658-128.378-36.934-241.93 91.448-224.267z" fill="#094EFF"/><g filter="url(#filter26_f_49_5235)"><path d="M1079.39 572.601c99.38 13.672 165.62 128.826 147.96 257.204-17.67 128.377-112.54 221.365-211.92 207.695-99.375-13.67-165.617-128.829-147.955-257.206 17.663-128.378 112.54-221.365 211.915-207.693z" fill="#094EFF"/></g><g filter="url(#filter27_f_49_5235)"><ellipse cx="1038.14" cy="803.773" rx="234.638" ry="181.63" transform="rotate(-82.166 1038.14 803.773)" fill="#094EFF"/></g><g filter="url(#filter28_f_49_5235)"><ellipse cx="1012.66" cy="800.269" rx="234.638" ry="182.409" transform="rotate(-82.166 1012.66 800.269)" fill="#094EFF"/></g><g filter="url(#filter29_f_49_5235)"><ellipse cx="936.206" cy="789.749" rx="234.638" ry="181.63" transform="rotate(-82.166 936.206 789.749)" fill="#094EFF"/></g><g filter="url(#filter30_f_49_5235)"><ellipse cx="832.725" cy="775.512" rx="197.22" ry="181.63" transform="rotate(-82.166 832.725 775.512)" fill="#094EFF"/></g></g></g><g opacity=".4"><mask id="g" style="mask-type:alpha" maskUnits="userSpaceOnUse" x="733" y="442" width="1165" height="1158"><path transform="rotate(-133.6 1235.12 1599.32)" fill="url(#paint6_linear_49_5235)" d="M1235.12 1599.32h726.957v914.042H1235.12z"/></mask><g mask="url(#g)"><path d="M1226.53 738.98c107.25-102.131 276.99-97.982 379.12 9.267 102.13 107.248 97.98 276.983-9.27 379.113s-132.47-39.63-234.6-146.883c-102.13-107.249-242.49-139.366-135.25-241.497z" fill="#06F"/><g filter="url(#filter31_f_49_5235)"><path d="M1230.4 735.291c83.02-79.058 233.11-56.205 335.25 51.044 102.13 107.248 117.62 258.275 34.6 337.335-83.02 79.06-233.11 56.21-335.25-51.04-102.13-107.249-117.62-258.281-34.6-337.339z" fill="#06F"/></g><g filter="url(#filter32_f_49_5235)"><ellipse cx="1407.59" cy="936.855" rx="268.154" ry="207.575" transform="rotate(-133.6 1407.59 936.855)" fill="#06F"/></g><g filter="url(#filter33_f_49_5235)"><ellipse cx="1386.3" cy="957.127" rx="268.154" ry="208.466" transform="rotate(-133.6 1386.3 957.127)" fill="#06F"/></g><g filter="url(#filter34_f_49_5235)"><ellipse cx="1322.42" cy="1017.95" rx="268.154" ry="207.575" transform="rotate(-133.6 1322.42 1017.95)" fill="#06F"/></g><g filter="url(#filter35_f_49_5235)"><ellipse cx="1235.97" cy="1100.28" rx="225.392" ry="207.575" transform="rotate(-133.6 1235.97 1100.28)" fill="#06F"/></g></g><mask id="h" style="mask-type:alpha" maskUnits="userSpaceOnUse" x="1225" y="765" width="564" height="651"><path transform="rotate(167.489 1788.01 1318.17)" fill="url(#paint7_linear_49_5235)" d="M1788.01 1318.17h450.236v566.106H1788.01z"/></mask><g mask="url(#h)"><path d="M1328.95 1047.59c-19.87-89.549 36.62-178.247 126.16-198.118 89.55-19.87 178.24 36.613 198.12 126.158 19.87 89.55-63.39 57.58-152.94 77.46-89.54 19.87-151.47 84.04-171.34-5.5z" fill="#096BFF"/><g filter="url(#filter36_f_49_5235)"><path d="M1328.24 1044.35c-15.39-69.312 44.74-141.611 134.28-161.481 89.55-19.871 174.61 20.213 189.99 89.529 15.38 69.312-44.74 141.612-134.29 161.482-89.54 19.87-174.6-20.21-189.98-89.53z" fill="#096BFF"/></g><g filter="url(#filter37_f_49_5235)"><ellipse cx="1491.8" cy="1014.84" rx="166.08" ry="128.56" transform="rotate(167.489 1491.8 1014.84)" fill="#096BFF"/></g><g filter="url(#filter38_f_49_5235)"><ellipse cx="1495.75" cy="1032.62" rx="166.08" ry="129.112" transform="rotate(167.489 1495.75 1032.62)" fill="#096BFF"/></g><g filter="url(#filter39_f_49_5235)"><ellipse cx="1507.58" cy="1085.94" rx="166.08" ry="128.56" transform="rotate(167.489 1507.58 1085.94)" fill="#096BFF"/></g><g filter="url(#filter40_f_49_5235)"><ellipse cx="1523.6" cy="1158.12" rx="139.595" ry="128.56" transform="rotate(167.489 1523.6 1158.12)" fill="#096BFF"/></g></g></g></g><defs><filter id="filter0_f_49_5235" x="450.769" y="-74.48" width="1985.95" height="1591.86" filterUnits="userSpaceOnUse" color-interpolation-filters="sRGB"><feFlood flood-opacity="0" result="BackgroundImageFix"/><feBlend in="SourceGraphic" in2="BackgroundImageFix" result="shape"/><feGaussianBlur stdDeviation="100" result="effect1_foregroundBlur_49_5235"/></filter><filter id="filter1_f_49_5235" x="1008.03" y="524.411" width="723.011" height="564.98" filterUnits="userSpaceOnUse" color-interpolation-filters="sRGB"><feFlood flood-opacity="0" result="BackgroundImageFix"/><feBlend in="SourceGraphic" in2="BackgroundImageFix" result="shape"/><feGaussianBlur stdDeviation="3.054" result="effect1_foregroundBlur_49_5235"/></filter><filter id="filter2_f_49_5235" x="994.067" y="495.009" width="753.556" height="595.525" filterUnits="userSpaceOnUse" color-interpolation-filters="sRGB"><feFlood flood-opacity="0" result="BackgroundImageFix"/><feBlend in="SourceGraphic" in2="BackgroundImageFix" result="shape"/><feGaussianBlur stdDeviation="10.691" result="effect1_foregroundBlur_49_5235"/></filter><filter id="filter3_f_49_5235" x="967.122" y="424.428" width="814.663" height="658.954" filterUnits="userSpaceOnUse" color-interpolation-filters="sRGB"><feFlood flood-opacity="0" result="BackgroundImageFix"/><feBlend in="SourceGraphic" in2="BackgroundImageFix" result="shape"/><feGaussianBlur stdDeviation="25.963" result="effect1_foregroundBlur_49_5235"/></filter><filter id="filter4_f_49_5235" x="916.859" y="247.924" width="936.826" height="778.795" filterUnits="userSpaceOnUse" color-interpolation-filters="sRGB"><feFlood flood-opacity="0" result="BackgroundImageFix"/><feBlend in="SourceGraphic" in2="BackgroundImageFix" result="shape"/><feGaussianBlur stdDeviation="56.508" result="effect1_foregroundBlur_49_5235"/></filter><filter id="filter5_f_49_5235" x="902.33" y="5.178" width="995.175" height="948.684" filterUnits="userSpaceOnUse" color-interpolation-filters="sRGB"><feFlood flood-opacity="0" result="BackgroundImageFix"/><feBlend in="SourceGraphic" in2="BackgroundImageFix" result="shape"/><feGaussianBlur stdDeviation="99.271" result="effect1_foregroundBlur_49_5235"/></filter><filter id="filter6_f_49_5235" x="1246.29" y="504.697" width="597.274" height="696.853" filterUnits="userSpaceOnUse" color-interpolation-filters="sRGB"><feFlood flood-opacity="0" result="BackgroundImageFix"/><feBlend in="SourceGraphic" in2="BackgroundImageFix" result="shape"/><feGaussianBlur stdDeviation="3.054" result="effect1_foregroundBlur_49_5235"/></filter><filter id="filter7_f_49_5235" x="1243.8" y="483.248" width="627.819" height="727.398" filterUnits="userSpaceOnUse" color-interpolation-filters="sRGB"><feFlood flood-opacity="0" result="BackgroundImageFix"/><feBlend in="SourceGraphic" in2="BackgroundImageFix" result="shape"/><feGaussianBlur stdDeviation="10.691" result="effect1_foregroundBlur_49_5235"/></filter><filter id="filter8_f_49_5235" x="1247.49" y="435.548" width="690.718" height="788.849" filterUnits="userSpaceOnUse" color-interpolation-filters="sRGB"><feFlood flood-opacity="0" result="BackgroundImageFix"/><feBlend in="SourceGraphic" in2="BackgroundImageFix" result="shape"/><feGaussianBlur stdDeviation="25.963" result="effect1_foregroundBlur_49_5235"/></filter><filter id="filter9_f_49_5235" x="1292.73" y="323.702" width="811.089" height="910.668" filterUnits="userSpaceOnUse" color-interpolation-filters="sRGB"><feFlood flood-opacity="0" result="BackgroundImageFix"/><feBlend in="SourceGraphic" in2="BackgroundImageFix" result="shape"/><feGaussianBlur stdDeviation="56.508" result="effect1_foregroundBlur_49_5235"/></filter><filter id="filter10_f_49_5235" x="1362.18" y="216.587" width="957.593" height="987.014" filterUnits="userSpaceOnUse" color-interpolation-filters="sRGB"><feFlood flood-opacity="0" result="BackgroundImageFix"/><feBlend in="SourceGraphic" in2="BackgroundImageFix" result="shape"/><feGaussianBlur stdDeviation="99.271" result="effect1_foregroundBlur_49_5235"/></filter><filter id="filter11_f_49_5235" x="1171.07" y="776.58" width="673.61" height="305.322" filterUnits="userSpaceOnUse" color-interpolation-filters="sRGB"><feFlood flood-opacity="0" result="BackgroundImageFix"/><feBlend in="SourceGraphic" in2="BackgroundImageFix" result="shape"/><feGaussianBlur stdDeviation="2.139" result="effect1_foregroundBlur_49_5235"/></filter><filter id="filter12_f_49_5235" x="1177.48" y="767.508" width="694.999" height="326.712" filterUnits="userSpaceOnUse" color-interpolation-filters="sRGB"><feFlood flood-opacity="0" result="BackgroundImageFix"/><feBlend in="SourceGraphic" in2="BackgroundImageFix" result="shape"/><feGaussianBlur stdDeviation="7.486" result="effect1_foregroundBlur_49_5235"/></filter><filter id="filter13_f_49_5235" x="1201.73" y="750.554" width="740.627" height="369.549" filterUnits="userSpaceOnUse" color-interpolation-filters="sRGB"><feFlood flood-opacity="0" result="BackgroundImageFix"/><feBlend in="SourceGraphic" in2="BackgroundImageFix" result="shape"/><feGaussianBlur stdDeviation="18.181" result="effect1_foregroundBlur_49_5235"/></filter><filter id="filter14_f_49_5235" x="1301.54" y="721.189" width="823.337" height="455.049" filterUnits="userSpaceOnUse" color-interpolation-filters="sRGB"><feFlood flood-opacity="0" result="BackgroundImageFix"/><feBlend in="SourceGraphic" in2="BackgroundImageFix" result="shape"/><feGaussianBlur stdDeviation="39.571" result="effect1_foregroundBlur_49_5235"/></filter><filter id="filter15_f_49_5235" x="1432.8" y="701.914" width="942.948" height="529.841" filterUnits="userSpaceOnUse" color-interpolation-filters="sRGB"><feFlood flood-opacity="0" result="BackgroundImageFix"/><feBlend in="SourceGraphic" in2="BackgroundImageFix" result="shape"/><feGaussianBlur stdDeviation="69.516" result="effect1_foregroundBlur_49_5235"/></filter><filter id="filter16_f_49_5235" x="1052.28" y="875.103" width="825.468" height="247.172" filterUnits="userSpaceOnUse" color-interpolation-filters="sRGB"><feFlood flood-opacity="0" result="BackgroundImageFix"/><feBlend in="SourceGraphic" in2="BackgroundImageFix" result="shape"/><feGaussianBlur stdDeviation="2.139" result="effect1_foregroundBlur_49_5235"/></filter><filter id="filter17_f_49_5235" x="1049.96" y="870.196" width="846.858" height="268.562" filterUnits="userSpaceOnUse" color-interpolation-filters="sRGB"><feFlood flood-opacity="0" result="BackgroundImageFix"/><feBlend in="SourceGraphic" in2="BackgroundImageFix" result="shape"/><feGaussianBlur stdDeviation="7.486" result="effect1_foregroundBlur_49_5235"/></filter><filter id="filter18_f_49_5235" x="1051.29" y="864.267" width="890.191" height="312.25" filterUnits="userSpaceOnUse" color-interpolation-filters="sRGB"><feFlood flood-opacity="0" result="BackgroundImageFix"/><feBlend in="SourceGraphic" in2="BackgroundImageFix" result="shape"/><feGaussianBlur stdDeviation="18.181" result="effect1_foregroundBlur_49_5235"/></filter><filter id="filter19_f_49_5235" x="1077.81" y="869.687" width="975.195" height="396.899" filterUnits="userSpaceOnUse" color-interpolation-filters="sRGB"><feFlood flood-opacity="0" result="BackgroundImageFix"/><feBlend in="SourceGraphic" in2="BackgroundImageFix" result="shape"/><feGaussianBlur stdDeviation="39.571" result="effect1_foregroundBlur_49_5235"/></filter><filter id="filter20_f_49_5235" x="1165.39" y="876.407" width="986.883" height="512.708" filterUnits="userSpaceOnUse" color-interpolation-filters="sRGB"><feFlood flood-opacity="0" result="BackgroundImageFix"/><feBlend in="SourceGraphic" in2="BackgroundImageFix" result="shape"/><feGaussianBlur stdDeviation="69.516" result="effect1_foregroundBlur_49_5235"/></filter><filter id="filter21_f_49_5235" x="814.779" y="429.083" width="747.999" height="630.609" filterUnits="userSpaceOnUse" color-interpolation-filters="sRGB"><feFlood flood-opacity="0" result="BackgroundImageFix"/><feBlend in="SourceGraphic" in2="BackgroundImageFix" result="shape"/><feGaussianBlur stdDeviation="3.538" result="effect1_foregroundBlur_49_5235"/></filter><filter id="filter22_f_49_5235" x="791.121" y="397.518" width="783.384" height="665.994" filterUnits="userSpaceOnUse" color-interpolation-filters="sRGB"><feFlood flood-opacity="0" result="BackgroundImageFix"/><feBlend in="SourceGraphic" in2="BackgroundImageFix" result="shape"/><feGaussianBlur stdDeviation="12.384" result="effect1_foregroundBlur_49_5235"/></filter><filter id="filter23_f_49_5235" x="739.183" y="322.962" width="854.467" height="738.787" filterUnits="userSpaceOnUse" color-interpolation-filters="sRGB"><feFlood flood-opacity="0" result="BackgroundImageFix"/><feBlend in="SourceGraphic" in2="BackgroundImageFix" result="shape"/><feGaussianBlur stdDeviation="30.077" result="effect1_foregroundBlur_49_5235"/></filter><filter id="filter24_f_49_5235" x="619.374" y="138.721" width="995.69" height="878.3" filterUnits="userSpaceOnUse" color-interpolation-filters="sRGB"><feFlood flood-opacity="0" result="BackgroundImageFix"/><feBlend in="SourceGraphic" in2="BackgroundImageFix" result="shape"/><feGaussianBlur stdDeviation="65.461" result="effect1_foregroundBlur_49_5235"/></filter><filter id="filter25_f_49_5235" x="505.902" y="-104.479" width="1089.45" height="1054.79" filterUnits="userSpaceOnUse" color-interpolation-filters="sRGB"><feFlood flood-opacity="0" result="BackgroundImageFix"/><feBlend in="SourceGraphic" in2="BackgroundImageFix" result="shape"/><feGaussianBlur stdDeviation="114.999" result="effect1_foregroundBlur_49_5235"/></filter><filter id="filter26_f_49_5235" x="857.548" y="564.19" width="379.725" height="481.718" filterUnits="userSpaceOnUse" color-interpolation-filters="sRGB"><feFlood flood-opacity="0" result="BackgroundImageFix"/><feBlend in="SourceGraphic" in2="BackgroundImageFix" result="shape"/><feGaussianBlur stdDeviation="3.538" result="effect1_foregroundBlur_49_5235"/></filter><filter id="filter27_f_49_5235" x="830.59" y="545.222" width="415.109" height="517.102" filterUnits="userSpaceOnUse" color-interpolation-filters="sRGB"><feFlood flood-opacity="0" result="BackgroundImageFix"/><feBlend in="SourceGraphic" in2="BackgroundImageFix" result="shape"/><feGaussianBlur stdDeviation="12.384" result="effect1_foregroundBlur_49_5235"/></filter><filter id="filter28_f_49_5235" x="768.957" y="506.322" width="487.399" height="587.894" filterUnits="userSpaceOnUse" color-interpolation-filters="sRGB"><feFlood flood-opacity="0" result="BackgroundImageFix"/><feBlend in="SourceGraphic" in2="BackgroundImageFix" result="shape"/><feGaussianBlur stdDeviation="30.077" result="effect1_foregroundBlur_49_5235"/></filter><filter id="filter29_f_49_5235" x="622.499" y="425.044" width="627.416" height="729.409" filterUnits="userSpaceOnUse" color-interpolation-filters="sRGB"><feFlood flood-opacity="0" result="BackgroundImageFix"/><feBlend in="SourceGraphic" in2="BackgroundImageFix" result="shape"/><feGaussianBlur stdDeviation="65.461" result="effect1_foregroundBlur_49_5235"/></filter><filter id="filter30_f_49_5235" x="420.77" y="348.55" width="823.909" height="853.924" filterUnits="userSpaceOnUse" color-interpolation-filters="sRGB"><feFlood flood-opacity="0" result="BackgroundImageFix"/><feBlend in="SourceGraphic" in2="BackgroundImageFix" result="shape"/><feGaussianBlur stdDeviation="114.999" result="effect1_foregroundBlur_49_5235"/></filter><filter id="filter31_f_49_5235" x="1169.93" y="681.14" width="490.794" height="496.683" filterUnits="userSpaceOnUse" color-interpolation-filters="sRGB"><feFlood flood-opacity="0" result="BackgroundImageFix"/><feBlend in="SourceGraphic" in2="BackgroundImageFix" result="shape"/><feGaussianBlur stdDeviation="3.538" result="effect1_foregroundBlur_49_5235"/></filter><filter id="filter32_f_49_5235" x="1144.5" y="670.822" width="526.179" height="532.068" filterUnits="userSpaceOnUse" color-interpolation-filters="sRGB"><feFlood flood-opacity="0" result="BackgroundImageFix"/><feBlend in="SourceGraphic" in2="BackgroundImageFix" result="shape"/><feGaussianBlur stdDeviation="12.384" result="effect1_foregroundBlur_49_5235"/></filter><filter id="filter33_f_49_5235" x="1087.41" y="655.345" width="597.763" height="603.566" filterUnits="userSpaceOnUse" color-interpolation-filters="sRGB"><feFlood flood-opacity="0" result="BackgroundImageFix"/><feBlend in="SourceGraphic" in2="BackgroundImageFix" result="shape"/><feGaussianBlur stdDeviation="30.077" result="effect1_foregroundBlur_49_5235"/></filter><filter id="filter34_f_49_5235" x="953.182" y="645.764" width="738.485" height="744.374" filterUnits="userSpaceOnUse" color-interpolation-filters="sRGB"><feFlood flood-opacity="0" result="BackgroundImageFix"/><feBlend in="SourceGraphic" in2="BackgroundImageFix" result="shape"/><feGaussianBlur stdDeviation="65.461" result="effect1_foregroundBlur_49_5235"/></filter><filter id="filter35_f_49_5235" x="789.745" y="653.174" width="892.46" height="894.205" filterUnits="userSpaceOnUse" color-interpolation-filters="sRGB"><feFlood flood-opacity="0" result="BackgroundImageFix"/><feBlend in="SourceGraphic" in2="BackgroundImageFix" result="shape"/><feGaussianBlur stdDeviation="114.999" result="effect1_foregroundBlur_49_5235"/></filter><filter id="filter36_f_49_5235" x="1318.76" y="870.703" width="343.228" height="275.346" filterUnits="userSpaceOnUse" color-interpolation-filters="sRGB"><feFlood flood-opacity="0" result="BackgroundImageFix"/><feBlend in="SourceGraphic" in2="BackgroundImageFix" result="shape"/><feGaussianBlur stdDeviation="3.538" result="effect1_foregroundBlur_49_5235"/></filter><filter id="filter37_f_49_5235" x="1302.5" y="859.474" width="378.612" height="310.73" filterUnits="userSpaceOnUse" color-interpolation-filters="sRGB"><feFlood flood-opacity="0" result="BackgroundImageFix"/><feBlend in="SourceGraphic" in2="BackgroundImageFix" result="shape"/><feGaussianBlur stdDeviation="12.384" result="effect1_foregroundBlur_49_5235"/></filter><filter id="filter38_f_49_5235" x="1271.04" y="841.35" width="449.422" height="382.535" filterUnits="userSpaceOnUse" color-interpolation-filters="sRGB"><feFlood flood-opacity="0" result="BackgroundImageFix"/><feBlend in="SourceGraphic" in2="BackgroundImageFix" result="shape"/><feGaussianBlur stdDeviation="30.077" result="effect1_foregroundBlur_49_5235"/></filter><filter id="filter39_f_49_5235" x="1212.12" y="824.425" width="590.919" height="523.036" filterUnits="userSpaceOnUse" color-interpolation-filters="sRGB"><feFlood flood-opacity="0" result="BackgroundImageFix"/><feBlend in="SourceGraphic" in2="BackgroundImageFix" result="shape"/><feGaussianBlur stdDeviation="65.461" result="effect1_foregroundBlur_49_5235"/></filter><filter id="filter40_f_49_5235" x="1154.48" y="798.994" width="738.246" height="718.255" filterUnits="userSpaceOnUse" color-interpolation-filters="sRGB"><feFlood flood-opacity="0" result="BackgroundImageFix"/><feBlend in="SourceGraphic" in2="BackgroundImageFix" result="shape"/><feGaussianBlur stdDeviation="114.999" result="effect1_foregroundBlur_49_5235"/></filter><linearGradient id="paint0_linear_49_5235" x1="1673.71" y1="945.768" x2="1673.71" y2="-20.494" gradientUnits="userSpaceOnUse"><stop stop-color="#fff"/><stop offset="1" stop-color="#fff" stop-opacity="0"/></linearGradient><linearGradient id="paint1_linear_49_5235" x1="2753.17" y1="1045.95" x2="2753.17" y2="79.688" gradientUnits="userSpaceOnUse"><stop stop-color="#fff"/><stop offset="1" stop-color="#fff" stop-opacity="0"/></linearGradient><linearGradient id="paint2_linear_49_5235" x1="2764.39" y1="1994.31" x2="2764.39" y2="824.113" gradientUnits="userSpaceOnUse"><stop stop-color="#fff"/><stop offset="1" stop-color="#fff" stop-opacity="0"/></linearGradient><linearGradient id="paint3_linear_49_5235" x1="749.694" y1="692.361" x2="749.694" y2="0" gradientUnits="userSpaceOnUse"><stop stop-color="#fff"/><stop offset="1" stop-color="#fff" stop-opacity="0"/></linearGradient><linearGradient id="paint4_linear_49_5235" x1="1143.9" y1="1204.96" x2="1143.9" y2="176.658" gradientUnits="userSpaceOnUse"><stop stop-color="#fff"/><stop offset="1" stop-color="#fff" stop-opacity="0"/></linearGradient><linearGradient id="paint5_linear_49_5235" x1="957.769" y1="1684.03" x2="957.769" y2="1047.16" gradientUnits="userSpaceOnUse"><stop stop-color="#fff"/><stop offset="1" stop-color="#fff" stop-opacity="0"/></linearGradient><linearGradient id="paint6_linear_49_5235" x1="1768.76" y1="2327.17" x2="1768.76" y2="1599.32" gradientUnits="userSpaceOnUse"><stop stop-color="#fff"/><stop offset="1" stop-color="#fff" stop-opacity="0"/></linearGradient><linearGradient id="paint7_linear_49_5235" x1="2118.52" y1="1768.96" x2="2118.52" y2="1318.17" gradientUnits="userSpaceOnUse"><stop stop-color="#fff"/><stop offset="1" stop-color="#fff" stop-opacity="0"/></linearGradient></defs></svg>