<svg width="630" height="585" fill="none" xmlns="http://www.w3.org/2000/svg"><g clip-path="url(#clip0_21_2619)"><rect y="27" width="630" height="585" rx="20" fill="#D9D9D9"/><mask id="a" style="mask-type:alpha" maskUnits="userSpaceOnUse" x="-736" y="-161" width="1582" height="1039"><path transform="rotate(179.988 845.606 877.333)" fill="#F5288F" d="M845.606 877.333h1581.17v1038.24H845.606z"/></mask><g mask="url(#a)"><g filter="url(#filter0_f_21_2619)"><circle cx="483.628" cy="767.873" r="552.457" transform="rotate(179.988 483.628 767.873)" fill="#7A8FFF"/></g><g filter="url(#filter1_f_21_2619)"><circle cx="-995.082" cy="358.757" r="552.457" transform="rotate(179.988 -995.082 358.757)" fill="#7A8FFF"/></g><g filter="url(#filter2_f_21_2619)"><circle cx="-678.274" cy="837.327" r="402.437" transform="rotate(179.988 -678.274 837.327)" fill="#6741FF"/></g><g filter="url(#filter3_f_21_2619)"><circle cx="845.435" cy="72.46" r="552.457" transform="rotate(179.988 845.435 72.46)" fill="#45DFF9"/></g><g filter="url(#filter4_f_21_2619)"><circle cx="-92.61" cy="925.159" r="461.969" transform="rotate(179.988 -92.61 925.159)" fill="#7A8FFF"/></g><path d="M778.899 910.686C226.568 809.124 57.825 423.613-201.454-44.227L973.955 337.425c119.095 224.941 246.805 654.511-195.056 573.262z" fill="#45DFF9"/><g filter="url(#filter5_f_21_2619)"><path d="M740.058 916.431C187.728 814.87 154.853 533.052-104.426 65.212L919.115 303.17c119.095 224.94 262.805 694.51-179.057 613.261z" fill="#45DFF9"/></g><g filter="url(#filter6_f_21_2619)"><path d="M820.354 996.478C266.466 901.509 259.132 623.246 15.998 93.997L1040.43 327.372c111.27 254.691 223.04 745.077-220.076 669.105z" fill="#45DFF9"/></g><g filter="url(#filter7_f_21_2619)"><circle cx="54.795" cy="-160.737" r="461.969" transform="rotate(179.988 54.795 -160.737)" fill="#7A8FFF"/></g><path d="M1215.61 426.664C374.65 488.852-16.877-7.12-571.19-588.317l1852.48 108.113c258.43 281.56 607.08 857.118-65.68 906.868z" fill="#45DFF9"/><g filter="url(#filter8_f_21_2619)"><path d="M1308.3 536.688c-840.958 62.188-957.295-282.703-1511.608-863.9L1373.99-370.18c258.42 281.56 607.08 857.117-65.69 906.868z" fill="#B843FF"/></g><g filter="url(#filter9_f_21_2619)"><path d="M1084.43 398.624C243.474 460.812 127.136 115.922-427.177-465.275l1577.297-42.969c258.42 281.56 607.08 857.117-65.69 906.868z" fill="#B843FF"/></g><g filter="url(#filter10_f_21_2619)"><circle cx="773.945" cy="-160.892" r="552.457" transform="rotate(179.988 773.945 -160.892)" fill="#7A8FFF"/></g><g filter="url(#filter11_f_21_2619)"><path d="M621.648 329.684c-.041-189.381 153.45-342.938 342.831-342.978 189.381-.041 342.941 153.449 342.981 342.831.04 189.381-153.45 342.937-342.833 342.978-189.381.041-342.938-153.45-342.979-342.831z" fill="#45DFF9"/></g><g filter="url(#filter12_f_21_2619)"><ellipse cx="41.106" cy="31.416" rx="295.5" ry="215" transform="rotate(-180 41.106 31.416)" fill="#45E0F9"/></g></g><g filter="url(#filter13_f_21_2619)"><ellipse cx="-410.562" cy="483.514" rx="207.578" ry="315.612" transform="rotate(-34.19 -410.562 483.514)" fill="#6741FF"/></g><mask id="b" style="mask-type:alpha" maskUnits="userSpaceOnUse" x="-1190" y="-211" width="1539" height="1214"><path d="M227.837 1002.75L348.926 73.498l-858.539-283.906-254.879.636-424.568 514.458 31.77 417.611 743.678 177.052 641.449 103.401z" fill="url(#paint0_linear_21_2619)"/></mask><g mask="url(#b)"><mask id="c" style="mask-type:alpha" maskUnits="userSpaceOnUse" x="-1220" y="-271" width="1606" height="1281"><path d="M-1219.78 688.691c100.56-419.902 275.414-937.789 279.038-959.031L385.888 51.431 236.071 1009.58-1219.78 688.691z" fill="url(#paint1_linear_21_2619)"/></mask><g mask="url(#c)"><g filter="url(#filter14_f_21_2619)"><path d="M-434.866 126.565c225.789 53.755 384.985 319.386 346.05 482.929-38.936 163.544-199.004 312.256-424.792 258.501-111.889-26.638-262.603 3.433-376.147-109.656-115.585-115.121-100.839-469.938-81.198-552.438 38.936-163.543 310.299-133.09 536.087-79.336z" fill="#6741FF"/></g><g filter="url(#filter15_f_21_2619)"><path d="M-346.403 216.607c233.331 55.55 381.725 323.802 341.902 491.074-39.824 167.273-204.793 319.079-438.124 263.527-115.627-27.528-234.397-294.927-351.94-410.93-119.655-118.088-33.543-338.657-13.454-423.038 39.824-167.272 228.285 23.816 461.616 79.367z" fill="#6741FF"/></g><path d="M-507.509 150.15c203.069 52.997 320.671 317.867 277.251 484.242-43.421 166.375-196.466 318.544-399.536 265.548-100.63-26.263-234.365-13.894-332.3-127.948-99.696-116.102-12.801-335.794 9.103-419.723 43.42-166.375 242.412-255.116 445.482-202.119z" fill="#6741FF"/></g></g><mask id="d" style="mask-type:alpha" maskUnits="userSpaceOnUse" x="-241" y="-940" width="2296" height="2068"><path d="M-240.675 87.92c279.839 446.554 636.909 1016.15 649.079 1039.5L2054.61 99.496 1405.53-940-240.675 87.92z" fill="url(#paint2_linear_21_2619)"/></mask><g mask="url(#d)"><path d="M1060.99 466.336c185.67-115.936 241.82-373.502 152.2-517.027-89.62-143.524-282.392-284.943-481.6-160.554-98.718 61.641-278.487 40.542-351.144 185.249-73.961 147.306 75.416 326.104 120.624 398.505 89.619 143.525 374.251 209.763 559.92 93.827z" fill="#6741FF"/><g filter="url(#filter17_f_21_2619)"><path d="M1051.09 455.433C1250.22 331.095 1306.8 104.5 1229.77-18.869c-77.03-123.369-253.257-238.356-452.384-114.018-98.678 61.616-271.989 50.752-350.864 185.392-80.293 137.058 51.908 288.373 90.768 350.607 77.033 123.369 334.673 176.66 533.8 52.321z" fill="#6741FF"/></g><g filter="url(#filter18_f_21_2619)"><path d="M1057.12 451.664c223.18-139.359 276.98-408.75 182-560.848-94.97-152.099-303.81-299.122-526.993-159.763-110.598 69.06-319.689 33.112-403.795 190.902-85.616 160.625 82.364 361.942 130.273 438.668 94.973 152.099 395.334 230.4 618.515 91.041z" fill="#6741FF"/></g><g filter="url(#filter19_f_21_2619)"><path d="M1071.63 417.567c252.26-209.367 357.32-549.16 246.17-727.172-111.16-178.012-371.175-283.123-638.839-115.989-132.64 82.823-424.296-4.721-526.532 182.326C48.356-52.861 236.433 167.148 292.505 256.946c111.153 178.012 486.904 403.161 779.125 160.621z" fill="#6741FF"/></g><g filter="url(#filter20_f_21_2619)"><path d="M1119.49 287.555c288.2-179.959 393.1-564.236 284.43-738.279-108.68-174.043-376.75-268.163-664.957-88.204C596.144-449.749 381.26-407.891 265.697-215.27 148.059-19.188 335.555 193.661 390.376 281.457c108.676 174.044 440.906 186.057 729.114 6.098z" fill="#6741FF"/></g><g filter="url(#filter21_f_21_2619)"><path d="M1188.28 148.042c297.83-185.971 407.75-580.653 296.6-758.664-111.15-178.012-386.94-273.281-684.767-87.31-147.591 92.158-369.213 136.119-489.21 334.256-122.154 201.697 70.034 419.14 126.106 508.938 111.153 178.011 453.437 188.752 751.271 2.78z" fill="#6741FF"/></g><g filter="url(#filter22_f_21_2619)"><path d="M981.944 316.226C1242.55 153.501 1320.42-221.168 1209.27-399.18c-111.16-178.012-367.486-285.427-628.089-122.702-129.142 80.638-315.511 131.196-413.59 315.647-99.84 187.764 87.274 408.375 143.346 498.173C422.09 469.95 721.341 478.951 981.944 316.226z" fill="#6741FF"/></g></g><mask id="e" style="mask-type:alpha" maskUnits="userSpaceOnUse" x="-888" y="298" width="1299" height="789"><path d="M368.042 1086.09l42.522-433.608-1280.787-353.814-17.658 489.569L368.042 1086.09z" fill="url(#paint3_linear_21_2619)"/></mask><g mask="url(#e)"><mask id="f" style="mask-type:alpha" maskUnits="userSpaceOnUse" x="-851" y="276" width="1268" height="866"><path d="M416.606 542.581l-87.447 599.369-1179.845-339.88 64.352-525.593 1202.94 266.104z" fill="url(#paint4_linear_21_2619)"/></mask><g mask="url(#f)"><path d="M-424.592 605.116c183.019 178.057 389.98 187.815 538.904 178.8l121.996 1.069 78.128 16.418-128.001 155.973-225.57-21.211-506.621-135.063s-393.708-233.977-280.265-236.171c96.956-13.812 211.488-95.398 401.429 40.185z" fill="#5B0EFF"/><g filter="url(#filter23_f_21_2619)"><path d="M-424.592 605.116c196.617 154.141 199.11 167.291 461.33 182.356l199.57-2.487 78.128 16.418-128.001 155.973-225.57-21.211-506.621-135.063s-393.708-233.977-280.265-236.171c96.956-13.812 211.488-95.398 401.429 40.185z" fill="#5B0EFF"/></g><g filter="url(#filter24_f_21_2619)"><path d="M-424.592 605.116c261.147 242.217 264.345 158.124 526.565 173.189l75.975-2.146 79.22 8.634 57.268 16.61-128.001 155.973-225.57-21.211-506.621-135.063s-393.708-233.977-280.265-236.171c96.956-13.812 210.397-121.15 401.429 40.185z" fill="#5B0EFF"/></g><g filter="url(#filter25_f_21_2619)"><path d="M-472.032 576.438c261.147 242.217 287.844 317.021 611.794 201.537l75.975-2.146 120.938 8.253 95.056 16.28-245.578 156.694-225.57-21.211-506.621-135.063s-393.708-233.977-280.265-236.171c96.956-13.812 163.239-149.508 354.271 11.827z" fill="#5B0EFF"/></g><g filter="url(#filter26_f_21_2619)"><path d="M-478.737 563.021c174.234 235.813 326.24 283.192 566.044 208.313l314.017-87.408 41.501 65.171-11.094 51.265-245.578 156.694-225.57-21.211-506.621-135.063s-393.708-233.977-280.265-236.171c96.956-13.812 119.777-260.125 347.566-1.59z" fill="#5B0EFF"/></g></g></g><path d="M523.373 263.404c-52.414-48.054-133.839-44.504-181.879 7.918l189.797 174.017c48.039-52.429 44.49-133.885-7.918-181.935zm-383.146 16.621c-74.085 47.26-95.848 145.644-48.605 219.756l268.286-171.135c-47.239-74.11-145.597-95.88-219.681-48.621z" fill="#fff"/><path d="M522.868 361.331c-16.319 0-31.989 2.76-46.589 7.825-30.103-72.058-101.232-122.699-184.189-122.699-107.57 0-138.224 111.628-142.36 218.221-1.636-.073-60.3-26.601-61.957-26.601C30.46 438.077-16 484.557-16 541.884c0 57.329 46.46 103.804 103.773 103.804h435.095C601.364 645.688 665 582.037 665 503.51c0-78.521-63.636-142.179-142.132-142.179z" fill="#fff"/><path d="M454.109 50h-280.77c-27.985 0-51.011 22.87-51.011 50.854v331.238c0 27.983 23.028 50.183 51.011 50.183h280.77c27.985 0 51.282-22.2 51.282-50.183V100.854c0-27.983-23.298-50.854-51.282-50.854z" fill="#707384"/><path d="M504.783 158.328H122.671v-57.473c0-27.984 22.685-50.668 50.668-50.668h280.77c27.985 0 50.674 22.684 50.674 50.667v57.474z" fill="#707384"/><path d="M122.671 158.328h382.112v108.147H122.671V158.328z" fill="#5B5C6C"/><path d="M122.671 266.476h382.112v108.142H122.671V266.476z" fill="#707384"/><path d="M454.109 482.764h-280.77c-27.985 0-50.668-22.689-50.668-50.673v-57.474h382.112v57.473c0 27.985-22.69 50.674-50.674 50.674zm50.67-381.899v57.47h-60.676v-57.47c0-27.994-22.674-50.677-50.662-50.677h60.674c27.989 0 50.662 22.683 50.662 50.677h.002z" fill="#5B5C6C"/><path d="M444.103 158.335h60.674V266.47h-60.674V158.335z" fill="#3B3B47"/><path d="M444.103 266.47h60.674v108.148h-60.674V266.47z" fill="#5B5C6C"/><path d="M504.779 374.618v57.468c0 27.984-22.681 50.678-50.663 50.678h-60.675c27.989 0 50.662-22.694 50.662-50.678v-57.468h60.676z" fill="#3B3B47"/><path d="M184.868 104.258a10.709 10.709 0 01-10.705 10.706 10.706 10.706 0 1110.705-10.706z" fill="#FF6469"/><path d="M224.313 104.258c0 5.912-4.796 10.707-10.708 10.707s-10.707-4.795-10.707-10.707c0-5.912 4.795-10.707 10.707-10.707 5.912 0 10.708 4.795 10.708 10.707z" fill="#FFB96A"/><path d="M263.758 104.258c0 5.912-4.795 10.707-10.707 10.707-5.912 0-10.71-4.795-10.71-10.707 0-5.912 4.796-10.707 10.709-10.707 5.912 0 10.708 4.795 10.708 10.707z" fill="#A7D16C"/><path d="M184.868 212.4a10.709 10.709 0 01-10.705 10.706 10.706 10.706 0 01-10.706-10.706 10.7 10.7 0 0110.703-10.703c5.913 0 10.707 4.789 10.707 10.703h.001z" fill="#FF6469"/><path d="M224.313 212.4c0 5.912-4.796 10.707-10.708 10.707s-10.707-4.795-10.707-10.707c0-5.914 4.795-10.703 10.707-10.703 5.912 0 10.708 4.789 10.708 10.703z" fill="#FFB96A"/><path d="M263.758 212.4c0 5.912-4.795 10.707-10.707 10.707-5.912 0-10.71-4.795-10.71-10.707 0-5.914 4.796-10.703 10.709-10.703 5.912 0 10.708 4.789 10.708 10.703z" fill="#A7D16C"/><path d="M184.868 320.546a10.709 10.709 0 01-10.705 10.706 10.706 10.706 0 1110.705-10.706z" fill="#FF6469"/><path d="M224.313 320.546c0 5.913-4.796 10.708-10.708 10.708s-10.707-4.795-10.707-10.707c0-5.912 4.795-10.71 10.707-10.71 5.912 0 10.708 4.797 10.708 10.709z" fill="#FFB96A"/><path d="M263.758 320.546c0 5.913-4.795 10.708-10.707 10.708-5.912 0-10.71-4.795-10.71-10.707 0-5.912 4.796-10.71 10.709-10.71 5.912 0 10.708 4.797 10.708 10.709z" fill="#A7D16C"/><path d="M184.868 428.686a10.71 10.71 0 01-3.135 7.571 10.709 10.709 0 01-15.141 0 10.71 10.71 0 010-15.141 10.71 10.71 0 0115.141 0 10.709 10.709 0 013.135 7.57z" fill="#FF6469"/><path d="M224.313 428.686c0 5.914-4.796 10.71-10.708 10.71s-10.707-4.796-10.707-10.708 4.795-10.707 10.707-10.707c5.912 0 10.707 4.795 10.707 10.707l.001-.002z" fill="#FFB96A"/><path d="M263.758 428.686c0 5.914-4.795 10.71-10.707 10.71-5.912 0-10.71-4.796-10.71-10.708s4.796-10.707 10.709-10.707c5.912 0 10.708 4.795 10.708 10.707v-.002z" fill="#A7D16C"/><path d="M454.967 114.634h-52.808a10.384 10.384 0 01-7.335-3.04 10.366 10.366 0 01-3.035-7.336c0-5.731 4.639-10.375 10.37-10.375h52.808a10.372 10.372 0 0110.371 10.375c0 5.731-4.641 10.375-10.371 10.375v.001zm0 108.141h-52.808c-5.731 0-10.37-4.645-10.37-10.375s4.639-10.371 10.37-10.371h52.808c5.73 0 10.371 4.64 10.371 10.371 0 5.731-4.641 10.375-10.371 10.375zm0 108.142h-52.808c-5.731 0-10.37-4.64-10.37-10.371 0-5.731 4.639-10.375 10.37-10.375h52.808c5.73 0 10.371 4.645 10.371 10.375s-4.641 10.371-10.371 10.371zm0 108.147h-52.808a10.384 10.384 0 01-7.335-3.04 10.366 10.366 0 01-3.035-7.336 10.354 10.354 0 013.036-7.334 10.362 10.362 0 017.334-3.037h52.808a10.383 10.383 0 017.335 3.037 10.362 10.362 0 013.036 7.334c0 5.731-4.641 10.374-10.371 10.374v.002z" fill="#E4EAF7"/><path d="M406.991 503.521H665c0-78.523-63.636-142.179-142.132-142.179-66.15 0-121.742 45.201-137.599 106.412a139.378 139.378 0 00-1.087 4.515c-25.863-26.867-62.171-43.581-102.389-43.581-8.994 0-17.776.831-26.301 2.426a141.245 141.245 0 00-24.237 6.827c-23.428 8.912-43.883 23.863-59.501 42.926-.011.011-.016.021-.027.032-18.864-25.942-49.429-42.822-83.954-42.822l103.776 103.807a103.36 103.36 0 00-11.482-47.441l229.817 14.724a138.893 138.893 0 00-2.893-5.646z" fill="#fff"/><path d="M522.868 361.342c-66.15 0-121.742 45.201-137.599 106.412a139.875 139.875 0 00-2.333 10.812 41.409 41.409 0 014.187 3.465c17.986-57.895 71.949-99.942 135.746-99.942 71.449 0 130.581 52.745 140.619 121.432H665c0-78.521-63.636-142.179-142.132-142.179z" fill="#F6F7FB"/><path d="M231.255 458.994a140.772 140.772 0 0124.237-6.828 142.438 142.438 0 0126.3-2.426c37.382 0 77.197 18.139 107.081 49.665 5.388 5.684 12.652 9.232 20.471 9.731l.54.037a140.988 140.988 0 00-16.526-26.404 140.414 140.414 0 00-8.085-9.368c-25.921-27.533-62.695-44.708-103.481-44.708-8.994 0-17.775.825-26.295 2.426a140.619 140.619 0 00-24.242 6.827c-23.428 8.905-43.883 23.858-59.501 42.922-.458.56-.914 1.127-1.372 1.703-5.694 7.195-3.496 2.536-7.735 10.76l15.788 1.013c14.595-15.455 32.597-27.661 52.82-35.35z" fill="#F6F7FB"/><path d="M190.811 541.147l.738.737c0-57.327-46.465-103.807-103.776-103.807l-19.068 1.75a31.344 31.344 0 0014.141 5.752c56.622 7.907 74.88 40.651 86.877 65.699 5.299 11.077 12.407 21.188 21.088 29.869z" fill="#F6F7FB"/><g filter="url(#filter27_f_21_2619)"><path d="M595.844 898.895C327.523 849.557 245.548 662.276 119.591 435l571.012 185.405c57.854 109.276 119.898 317.961-94.759 278.49z" fill="#45DFF9"/><g filter="url(#filter28_f_21_2619)"><path d="M576.976 901.686c-268.321-49.338-284.292-186.245-410.249-413.521l497.234 115.6c57.855 109.276 127.672 337.392-86.985 297.921z" fill="#45DFF9"/></g><g filter="url(#filter29_f_21_2619)"><path d="M615.984 940.573c-269.079-46.136-272.641-181.316-390.756-438.424l497.667 113.374c54.056 123.728 108.351 361.958-106.911 325.05z" fill="#45DFF9"/></g></g></g><defs><filter id="filter0_f_21_2619" x="-621.286" y="-337.041" width="2209.83" height="2209.83" filterUnits="userSpaceOnUse" color-interpolation-filters="sRGB"><feFlood flood-opacity="0" result="BackgroundImageFix"/><feBlend in="SourceGraphic" in2="BackgroundImageFix" result="shape"/><feGaussianBlur stdDeviation="276.229" result="effect1_foregroundBlur_21_2619"/></filter><filter id="filter1_f_21_2619" x="-2100" y="-746.157" width="2209.83" height="2209.83" filterUnits="userSpaceOnUse" color-interpolation-filters="sRGB"><feFlood flood-opacity="0" result="BackgroundImageFix"/><feBlend in="SourceGraphic" in2="BackgroundImageFix" result="shape"/><feGaussianBlur stdDeviation="276.229" result="effect1_foregroundBlur_21_2619"/></filter><filter id="filter2_f_21_2619" x="-1633.17" y="-117.567" width="1909.79" height="1909.79" filterUnits="userSpaceOnUse" color-interpolation-filters="sRGB"><feFlood flood-opacity="0" result="BackgroundImageFix"/><feBlend in="SourceGraphic" in2="BackgroundImageFix" result="shape"/><feGaussianBlur stdDeviation="276.229" result="effect1_foregroundBlur_21_2619"/></filter><filter id="filter3_f_21_2619" x="-259.48" y="-1032.45" width="2209.83" height="2209.83" filterUnits="userSpaceOnUse" color-interpolation-filters="sRGB"><feFlood flood-opacity="0" result="BackgroundImageFix"/><feBlend in="SourceGraphic" in2="BackgroundImageFix" result="shape"/><feGaussianBlur stdDeviation="276.229" result="effect1_foregroundBlur_21_2619"/></filter><filter id="filter4_f_21_2619" x="-1107.04" y="-89.267" width="2028.85" height="2028.85" filterUnits="userSpaceOnUse" color-interpolation-filters="sRGB"><feFlood flood-opacity="0" result="BackgroundImageFix"/><feBlend in="SourceGraphic" in2="BackgroundImageFix" result="shape"/><feGaussianBlur stdDeviation="276.229" result="effect1_foregroundBlur_21_2619"/></filter><filter id="filter5_f_21_2619" x="-165.73" y="3.908" width="1267.19" height="983.164" filterUnits="userSpaceOnUse" color-interpolation-filters="sRGB"><feFlood flood-opacity="0" result="BackgroundImageFix"/><feBlend in="SourceGraphic" in2="BackgroundImageFix" result="shape"/><feGaussianBlur stdDeviation="30.652" result="effect1_foregroundBlur_21_2619"/></filter><filter id="filter6_f_21_2619" x="-110.698" y="-32.699" width="1377.73" height="1163.78" filterUnits="userSpaceOnUse" color-interpolation-filters="sRGB"><feFlood flood-opacity="0" result="BackgroundImageFix"/><feBlend in="SourceGraphic" in2="BackgroundImageFix" result="shape"/><feGaussianBlur stdDeviation="63.348" result="effect1_foregroundBlur_21_2619"/></filter><filter id="filter7_f_21_2619" x="-959.631" y="-1175.16" width="2028.85" height="2028.85" filterUnits="userSpaceOnUse" color-interpolation-filters="sRGB"><feFlood flood-opacity="0" result="BackgroundImageFix"/><feBlend in="SourceGraphic" in2="BackgroundImageFix" result="shape"/><feGaussianBlur stdDeviation="276.229" result="effect1_foregroundBlur_21_2619"/></filter><filter id="filter8_f_21_2619" x="-350.948" y="-517.82" width="2196.56" height="1209.35" filterUnits="userSpaceOnUse" color-interpolation-filters="sRGB"><feFlood flood-opacity="0" result="BackgroundImageFix"/><feBlend in="SourceGraphic" in2="BackgroundImageFix" result="shape"/><feGaussianBlur stdDeviation="73.82" result="effect1_foregroundBlur_21_2619"/></filter><filter id="filter9_f_21_2619" x="-536.716" y="-617.783" width="2120.36" height="1133.15" filterUnits="userSpaceOnUse" color-interpolation-filters="sRGB"><feFlood flood-opacity="0" result="BackgroundImageFix"/><feBlend in="SourceGraphic" in2="BackgroundImageFix" result="shape"/><feGaussianBlur stdDeviation="54.77" result="effect1_foregroundBlur_21_2619"/></filter><filter id="filter10_f_21_2619" x="-330.969" y="-1265.81" width="2209.83" height="2209.83" filterUnits="userSpaceOnUse" color-interpolation-filters="sRGB"><feFlood flood-opacity="0" result="BackgroundImageFix"/><feBlend in="SourceGraphic" in2="BackgroundImageFix" result="shape"/><feGaussianBlur stdDeviation="276.229" result="effect1_foregroundBlur_21_2619"/></filter><filter id="filter11_f_21_2619" x="69.191" y="-565.752" width="1790.72" height="1790.72" filterUnits="userSpaceOnUse" color-interpolation-filters="sRGB"><feFlood flood-opacity="0" result="BackgroundImageFix"/><feBlend in="SourceGraphic" in2="BackgroundImageFix" result="shape"/><feGaussianBlur stdDeviation="276.229" result="effect1_foregroundBlur_21_2619"/></filter><filter id="filter12_f_21_2619" x="-554.394" y="-483.584" width="1191" height="1030" filterUnits="userSpaceOnUse" color-interpolation-filters="sRGB"><feFlood flood-opacity="0" result="BackgroundImageFix"/><feBlend in="SourceGraphic" in2="BackgroundImageFix" result="shape"/><feGaussianBlur stdDeviation="150" result="effect1_foregroundBlur_21_2619"/></filter><filter id="filter13_f_21_2619" x="-905.95" y="-51.035" width="990.777" height="1069.1" filterUnits="userSpaceOnUse" color-interpolation-filters="sRGB"><feFlood flood-opacity="0" result="BackgroundImageFix"/><feBlend in="SourceGraphic" in2="BackgroundImageFix" result="shape"/><feGaussianBlur stdDeviation="124.268" result="effect1_foregroundBlur_21_2619"/></filter><filter id="filter14_f_21_2619" x="-1118.62" y="-50.526" width="1169.88" height="1063.92" filterUnits="userSpaceOnUse" color-interpolation-filters="sRGB"><feFlood flood-opacity="0" result="BackgroundImageFix"/><feBlend in="SourceGraphic" in2="BackgroundImageFix" result="shape"/><feGaussianBlur stdDeviation="67.105" result="effect1_foregroundBlur_21_2619"/></filter><filter id="filter15_f_21_2619" x="-1189.83" y="-262.959" width="1524.82" height="1578.88" filterUnits="userSpaceOnUse" color-interpolation-filters="sRGB"><feFlood flood-opacity="0" result="BackgroundImageFix"/><feBlend in="SourceGraphic" in2="BackgroundImageFix" result="shape"/><feGaussianBlur stdDeviation="166.519" result="effect1_foregroundBlur_21_2619"/></filter><filter id="filter17_f_21_2619" x="391.171" y="-196.361" width="881.637" height="732.565" filterUnits="userSpaceOnUse" color-interpolation-filters="sRGB"><feFlood flood-opacity="0" result="BackgroundImageFix"/><feBlend in="SourceGraphic" in2="BackgroundImageFix" result="shape"/><feGaussianBlur stdDeviation="4.971" result="effect1_foregroundBlur_21_2619"/></filter><filter id="filter18_f_21_2619" x="249.607" y="-359.626" width="1069.14" height="918.686" filterUnits="userSpaceOnUse" color-interpolation-filters="sRGB"><feFlood flood-opacity="0" result="BackgroundImageFix"/><feBlend in="SourceGraphic" in2="BackgroundImageFix" result="shape"/><feGaussianBlur stdDeviation="17.398" result="effect1_foregroundBlur_21_2619"/></filter><filter id="filter19_f_21_2619" x="71.879" y="-559.292" width="1339.73" height="1132.64" filterUnits="userSpaceOnUse" color-interpolation-filters="sRGB"><feFlood flood-opacity="0" result="BackgroundImageFix"/><feBlend in="SourceGraphic" in2="BackgroundImageFix" result="shape"/><feGaussianBlur stdDeviation="24.854" result="effect1_foregroundBlur_21_2619"/></filter><filter id="filter20_f_21_2619" x="93.415" y="-770.214" width="1486.7" height="1321.77" filterUnits="userSpaceOnUse" color-interpolation-filters="sRGB"><feFlood flood-opacity="0" result="BackgroundImageFix"/><feBlend in="SourceGraphic" in2="BackgroundImageFix" result="shape"/><feGaussianBlur stdDeviation="67.105" result="effect1_foregroundBlur_21_2619"/></filter><filter id="filter21_f_21_2619" x="-62.023" y="-1132.04" width="1922.4" height="1748.27" filterUnits="userSpaceOnUse" color-interpolation-filters="sRGB"><feFlood flood-opacity="0" result="BackgroundImageFix"/><feBlend in="SourceGraphic" in2="BackgroundImageFix" result="shape"/><feGaussianBlur stdDeviation="166.519" result="effect1_foregroundBlur_21_2619"/></filter><filter id="filter22_f_21_2619" x="-15.326" y="-756.128" width="1427.87" height="1342.38" filterUnits="userSpaceOnUse" color-interpolation-filters="sRGB"><feFlood flood-opacity="0" result="BackgroundImageFix"/><feBlend in="SourceGraphic" in2="BackgroundImageFix" result="shape"/><feGaussianBlur stdDeviation="77.046" result="effect1_foregroundBlur_21_2619"/></filter><filter id="filter23_f_21_2619" x="-858.49" y="516.064" width="1184.87" height="453.252" filterUnits="userSpaceOnUse" color-interpolation-filters="sRGB"><feFlood flood-opacity="0" result="BackgroundImageFix"/><feBlend in="SourceGraphic" in2="BackgroundImageFix" result="shape"/><feGaussianBlur stdDeviation="5.97" result="effect1_foregroundBlur_21_2619"/></filter><filter id="filter24_f_21_2619" x="-865.313" y="498.416" width="1198.51" height="477.723" filterUnits="userSpaceOnUse" color-interpolation-filters="sRGB"><feFlood flood-opacity="0" result="BackgroundImageFix"/><feBlend in="SourceGraphic" in2="BackgroundImageFix" result="shape"/><feGaussianBlur stdDeviation="9.382" result="effect1_foregroundBlur_21_2619"/></filter><filter id="filter25_f_21_2619" x="-879.242" y="465.711" width="1343.38" height="523.755" filterUnits="userSpaceOnUse" color-interpolation-filters="sRGB"><feFlood flood-opacity="0" result="BackgroundImageFix"/><feBlend in="SourceGraphic" in2="BackgroundImageFix" result="shape"/><feGaussianBlur stdDeviation="16.205" result="effect1_foregroundBlur_21_2619"/></filter><filter id="filter26_f_21_2619" x="-899.711" y="392.536" width="1395.42" height="617.4" filterUnits="userSpaceOnUse" color-interpolation-filters="sRGB"><feFlood flood-opacity="0" result="BackgroundImageFix"/><feBlend in="SourceGraphic" in2="BackgroundImageFix" result="shape"/><feGaussianBlur stdDeviation="26.44" result="effect1_foregroundBlur_21_2619"/></filter><filter id="filter27_f_21_2619" x="-30.409" y="285" width="951.841" height="809.413" filterUnits="userSpaceOnUse" color-interpolation-filters="sRGB"><feFlood flood-opacity="0" result="BackgroundImageFix"/><feBlend in="SourceGraphic" in2="BackgroundImageFix" result="shape"/><feGaussianBlur stdDeviation="75" result="effect1_foregroundBlur_21_2619"/></filter><filter id="filter28_f_21_2619" x="105.423" y="426.861" width="678.645" height="540.666" filterUnits="userSpaceOnUse" color-interpolation-filters="sRGB"><feFlood flood-opacity="0" result="BackgroundImageFix"/><feBlend in="SourceGraphic" in2="BackgroundImageFix" result="shape"/><feGaussianBlur stdDeviation="30.652" result="effect1_foregroundBlur_21_2619"/></filter><filter id="filter29_f_21_2619" x="98.533" y="375.453" width="799.594" height="695.655" filterUnits="userSpaceOnUse" color-interpolation-filters="sRGB"><feFlood flood-opacity="0" result="BackgroundImageFix"/><feBlend in="SourceGraphic" in2="BackgroundImageFix" result="shape"/><feGaussianBlur stdDeviation="63.348" result="effect1_foregroundBlur_21_2619"/></filter><linearGradient id="paint0_linear_21_2619" x1="-308.428" y1="283.85" x2="-794.447" y2="209.522" gradientUnits="userSpaceOnUse"><stop stop-color="#C4C4C4"/><stop offset=".943" stop-color="#C4C4C4" stop-opacity="0"/></linearGradient><linearGradient id="paint1_linear_21_2619" x1="-495.999" y1="40.501" x2="-624.283" y2="598.432" gradientUnits="userSpaceOnUse"><stop stop-color="#C4C4C4"/><stop offset="1" stop-color="#C4C4C4" stop-opacity="0"/></linearGradient><linearGradient id="paint2_linear_21_2619" x1="993.865" y1="532.967" x2="557.569" y2="-217.951" gradientUnits="userSpaceOnUse"><stop stop-color="#C4C4C4"/><stop offset="1" stop-color="#C4C4C4" stop-opacity="0"/></linearGradient><linearGradient id="paint3_linear_21_2619" x1="-238.819" y1="720.501" x2="-271.692" y2="867.682" gradientUnits="userSpaceOnUse"><stop stop-color="#C4C4C4"/><stop offset="1" stop-color="#C4C4C4" stop-opacity="0"/></linearGradient><linearGradient id="paint4_linear_21_2619" x1="-830.243" y1="598.206" x2="326.691" y2="830.696" gradientUnits="userSpaceOnUse"><stop stop-color="#C4C4C4" stop-opacity="0"/><stop offset=".365" stop-color="#C4C4C4"/><stop offset=".609" stop-color="#C4C4C4"/><stop offset="1" stop-color="#C4C4C4" stop-opacity="0"/></linearGradient><clipPath id="clip0_21_2619"><rect width="630" height="585" rx="20" fill="#fff"/></clipPath></defs></svg>