<svg width="630" height="585" fill="none" xmlns="http://www.w3.org/2000/svg"><g clip-path="url(#clip0_28_524)"><rect y="27" width="630" height="585" rx="20" fill="#D9D9D9"/><mask id="a" style="mask-type:alpha" maskUnits="userSpaceOnUse" x="-736" y="-161" width="1582" height="1039"><path transform="rotate(179.988 845.606 877.333)" fill="#F5288F" d="M845.606 877.333h1581.17v1038.24H845.606z"/></mask><g mask="url(#a)"><g filter="url(#filter0_f_28_524)"><circle cx="483.628" cy="767.873" r="552.457" transform="rotate(179.988 483.628 767.873)" fill="#7A8FFF"/></g><g filter="url(#filter1_f_28_524)"><circle cx="-995.082" cy="358.757" r="552.457" transform="rotate(179.988 -995.082 358.757)" fill="#7A8FFF"/></g><g filter="url(#filter2_f_28_524)"><circle cx="-678.274" cy="837.327" r="402.437" transform="rotate(179.988 -678.274 837.327)" fill="#6741FF"/></g><g filter="url(#filter3_f_28_524)"><circle cx="845.435" cy="72.46" r="552.457" transform="rotate(179.988 845.435 72.46)" fill="#45DFF9"/></g><g filter="url(#filter4_f_28_524)"><circle cx="-92.61" cy="925.159" r="461.969" transform="rotate(179.988 -92.61 925.159)" fill="#7A8FFF"/></g><path d="M778.899 910.686C226.568 809.124 57.825 423.613-201.454-44.227L973.955 337.425c119.095 224.941 246.805 654.511-195.056 573.262z" fill="#45DFF9"/><g filter="url(#filter5_f_28_524)"><path d="M740.058 916.431C187.728 814.87 154.853 533.052-104.426 65.212L919.115 303.17c119.095 224.94 262.805 694.51-179.057 613.261z" fill="#45DFF9"/></g><g filter="url(#filter6_f_28_524)"><path d="M820.354 996.478C266.466 901.509 259.132 623.246 15.998 93.997L1040.43 327.372c111.27 254.691 223.04 745.077-220.076 669.105z" fill="#45DFF9"/></g><g filter="url(#filter7_f_28_524)"><circle cx="54.795" cy="-160.737" r="461.969" transform="rotate(179.988 54.795 -160.737)" fill="#7A8FFF"/></g><path d="M1215.61 426.665C374.65 488.853-16.877-7.12-571.19-588.317l1852.48 108.114c258.43 281.56 607.08 857.117-65.68 906.868z" fill="#45DFF9"/><g filter="url(#filter8_f_28_524)"><path d="M1308.3 536.688c-840.958 62.188-957.295-282.703-1511.608-863.9L1373.99-370.18c258.42 281.56 607.08 857.117-65.69 906.868z" fill="#B843FF"/></g><g filter="url(#filter9_f_28_524)"><path d="M1084.43 398.624C243.474 460.812 127.136 115.922-427.177-465.275l1577.297-42.969c258.42 281.56 607.08 857.118-65.69 906.868z" fill="#B843FF"/></g><g filter="url(#filter10_f_28_524)"><circle cx="773.945" cy="-160.892" r="552.457" transform="rotate(179.988 773.945 -160.892)" fill="#7A8FFF"/></g><g filter="url(#filter11_f_28_524)"><path d="M621.648 329.684c-.041-189.381 153.45-342.938 342.831-342.978 189.381-.041 342.941 153.449 342.981 342.831.04 189.381-153.45 342.937-342.833 342.978-189.381.041-342.938-153.45-342.979-342.831z" fill="#45DFF9"/></g><g filter="url(#filter12_f_28_524)"><ellipse cx="41.106" cy="31.416" rx="295.5" ry="215" transform="rotate(-180 41.106 31.416)" fill="#45E0F9"/></g></g><g filter="url(#filter13_f_28_524)"><ellipse cx="-410.562" cy="483.514" rx="207.578" ry="315.612" transform="rotate(-34.19 -410.562 483.514)" fill="#6741FF"/></g><mask id="b" style="mask-type:alpha" maskUnits="userSpaceOnUse" x="-1190" y="-211" width="1539" height="1214"><path d="M227.837 1002.75L348.926 73.498l-858.539-283.906-254.879.636-424.568 514.458 31.77 417.611 743.678 177.052 641.449 103.401z" fill="url(#paint0_linear_28_524)"/></mask><g mask="url(#b)"><mask id="c" style="mask-type:alpha" maskUnits="userSpaceOnUse" x="-1220" y="-271" width="1606" height="1281"><path d="M-1219.78 688.691c100.56-419.902 275.414-937.789 279.038-959.031L385.888 51.431 236.071 1009.58-1219.78 688.691z" fill="url(#paint1_linear_28_524)"/></mask><g mask="url(#c)"><g filter="url(#filter14_f_28_524)"><path d="M-434.866 126.565c225.789 53.755 384.985 319.386 346.05 482.929-38.936 163.544-199.004 312.256-424.792 258.501-111.889-26.638-262.603 3.433-376.147-109.656-115.585-115.121-100.839-469.938-81.198-552.438 38.936-163.543 310.299-133.09 536.087-79.336z" fill="#6741FF"/></g><g filter="url(#filter15_f_28_524)"><path d="M-346.403 216.607c233.331 55.55 381.725 323.802 341.902 491.074-39.824 167.273-204.793 319.079-438.124 263.527-115.627-27.528-234.397-294.927-351.94-410.93-119.655-118.088-33.543-338.657-13.454-423.038 39.824-167.272 228.285 23.816 461.616 79.367z" fill="#6741FF"/></g><path d="M-507.509 150.15c203.069 52.997 320.671 317.867 277.251 484.242-43.421 166.375-196.466 318.544-399.536 265.548-100.63-26.263-234.365-13.894-332.3-127.948-99.696-116.102-12.801-335.794 9.103-419.723 43.42-166.375 242.412-255.116 445.482-202.119z" fill="#6741FF"/></g></g><mask id="d" style="mask-type:alpha" maskUnits="userSpaceOnUse" x="-241" y="-940" width="2296" height="2068"><path d="M-240.675 87.92c279.839 446.554 636.909 1016.15 649.079 1039.5L2054.61 99.496 1405.53-940-240.675 87.92z" fill="url(#paint2_linear_28_524)"/></mask><g mask="url(#d)"><path d="M1060.99 466.335c185.67-115.936 241.82-373.502 152.2-517.027-89.62-143.524-282.392-284.943-481.6-160.554-98.718 61.641-278.487 40.543-351.144 185.25-73.961 147.306 75.416 326.104 120.624 398.505 89.619 143.524 374.251 209.762 559.92 93.826z" fill="#6741FF"/><g filter="url(#filter17_f_28_524)"><path d="M1051.09 455.433C1250.22 331.094 1306.8 104.5 1229.77-18.869c-77.03-123.369-253.257-238.357-452.384-114.018-98.678 61.616-271.989 50.751-350.864 185.391-80.293 137.059 51.908 288.374 90.768 350.608 77.033 123.368 334.673 176.659 533.8 52.321z" fill="#6741FF"/></g><g filter="url(#filter18_f_28_524)"><path d="M1057.12 451.664c223.18-139.36 276.98-408.75 182-560.849-94.97-152.098-303.81-299.121-526.993-159.762-110.598 69.059-319.689 33.111-403.795 190.901-85.616 160.625 82.364 361.942 130.273 438.669 94.973 152.098 395.334 230.4 618.515 91.041z" fill="#6741FF"/></g><g filter="url(#filter19_f_28_524)"><path d="M1071.63 417.566c252.26-209.367 357.32-549.159 246.17-727.171-111.16-178.012-371.175-283.123-638.839-115.989-132.64 82.822-424.296-4.721-526.532 182.326C48.356-52.862 236.433 167.148 292.505 256.946c111.153 178.012 486.904 403.16 779.125 160.62z" fill="#6741FF"/></g><g filter="url(#filter20_f_28_524)"><path d="M1119.49 287.554c288.2-179.959 393.1-564.235 284.43-738.279-108.68-174.043-376.75-268.163-664.957-88.204C596.144-449.75 381.26-407.892 265.697-215.271 148.059-19.189 335.555 193.66 390.376 281.457c108.676 174.043 440.906 186.057 729.114 6.097z" fill="#6741FF"/></g><g filter="url(#filter21_f_28_524)"><path d="M1188.28 148.042c297.83-185.972 407.75-580.653 296.6-758.665-111.15-178.012-386.94-273.281-684.767-87.309-147.591 92.158-369.213 136.118-489.21 334.256-122.154 201.697 70.034 419.139 126.106 508.937 111.153 178.012 453.437 188.752 751.271 2.781z" fill="#6741FF"/></g><g filter="url(#filter22_f_28_524)"><path d="M981.944 316.225C1242.55 153.5 1320.42-221.169 1209.27-399.181c-111.16-178.011-367.486-285.427-628.089-122.702-129.142 80.638-315.511 131.196-413.59 315.647-99.84 187.765 87.274 408.375 143.346 498.173C422.09 469.949 721.341 478.95 981.944 316.225z" fill="#6741FF"/></g></g><mask id="e" style="mask-type:alpha" maskUnits="userSpaceOnUse" x="-888" y="298" width="1299" height="789"><path d="M368.042 1086.09l42.522-433.608-1280.787-353.814-17.658 489.569L368.042 1086.09z" fill="url(#paint3_linear_28_524)"/></mask><g mask="url(#e)"><mask id="f" style="mask-type:alpha" maskUnits="userSpaceOnUse" x="-851" y="276" width="1268" height="866"><path d="M416.606 542.581l-87.447 599.369-1179.845-339.88 64.352-525.593 1202.94 266.104z" fill="url(#paint4_linear_28_524)"/></mask><g mask="url(#f)"><path d="M-424.592 605.116c183.019 178.057 389.98 187.815 538.904 178.8l121.996 1.069 78.128 16.418-128.001 155.973-225.57-21.211-506.621-135.063s-393.708-233.977-280.265-236.171c96.956-13.812 211.488-95.398 401.429 40.185z" fill="#5B0EFF"/><g filter="url(#filter23_f_28_524)"><path d="M-424.592 605.116c196.617 154.141 199.11 167.291 461.33 182.356l199.57-2.487 78.128 16.418-128.001 155.973-225.57-21.211-506.621-135.063s-393.708-233.977-280.265-236.171c96.956-13.812 211.488-95.398 401.429 40.185z" fill="#5B0EFF"/></g><g filter="url(#filter24_f_28_524)"><path d="M-424.592 605.116c261.147 242.217 264.345 158.124 526.565 173.189l75.975-2.146 79.22 8.634 57.268 16.61-128.001 155.973-225.57-21.211-506.621-135.063s-393.708-233.977-280.265-236.171c96.956-13.812 210.397-121.15 401.429 40.185z" fill="#5B0EFF"/></g><g filter="url(#filter25_f_28_524)"><path d="M-472.032 576.438c261.147 242.217 287.844 317.021 611.794 201.537l75.975-2.146 120.938 8.253 95.056 16.28-245.578 156.694-225.57-21.211-506.621-135.063s-393.708-233.977-280.265-236.171c96.956-13.812 163.239-149.508 354.271 11.827z" fill="#5B0EFF"/></g><g filter="url(#filter26_f_28_524)"><path d="M-478.737 563.021c174.234 235.813 326.24 283.192 566.044 208.313l314.017-87.408 41.501 65.171-11.094 51.265-245.578 156.694-225.57-21.211-506.621-135.063s-393.708-233.977-280.265-236.171c96.956-13.812 119.777-260.125 347.566-1.59z" fill="#5B0EFF"/></g></g></g><g filter="url(#filter27_f_28_524)"><path d="M595.844 898.895C327.523 849.557 245.548 662.276 119.591 435l571.012 185.405c57.854 109.276 119.898 317.961-94.759 278.49z" fill="#45DFF9"/><g filter="url(#filter28_f_28_524)"><path d="M576.976 901.686c-268.321-49.338-284.292-186.245-410.249-413.521l497.234 115.6c57.855 109.276 127.672 337.392-86.985 297.921z" fill="#45DFF9"/></g><g filter="url(#filter29_f_28_524)"><path d="M615.984 940.573c-269.079-46.136-272.641-181.316-390.756-438.424l497.667 113.374c54.056 123.728 108.351 361.958-106.911 325.05z" fill="#45DFF9"/></g></g><g opacity=".4"><path d="M481.488 445.521l28.056-16.503 28.056 15.678-28.056 16.503-28.056-15.678z" fill="#fff"/><path d="M486.439 445.859l23.105-13.541 23.105 12.864-23.105 13.541-23.105-12.864z" fill="#797B84"/><path d="M509.544 445.521v-13.203l23.105 12.864-23.105 13.541v-13.202z" fill="#393A4A"/><path d="M481.488 445.521v33.007l28.056 16.503v-33.832l-28.056-15.678z" fill="#BDBDBD"/><path d="M509.544 461.2l28.056-16.504v33.172l-28.056 17.164V461.2z" fill="#F3F3F3"/><path d="M437.19 468.702l28.056-16.503 28.056 15.678-28.056 16.503-28.056-15.678z" fill="#fff"/><path d="M442.141 469.04l23.105-13.541 23.105 12.864-23.105 13.542-23.105-12.865z" fill="#797B84"/><path d="M465.245 468.702v-13.203l23.105 12.864-23.105 13.542v-13.203z" fill="#393A4A"/><path d="M437.19 468.702v33.007l28.056 16.503V484.38l-28.056-15.678z" fill="#BDBDBD"/><path d="M465.245 484.38l28.056-16.503v33.172l-28.056 17.163V484.38z" fill="#F3F3F3"/><path d="M525.996 468.702l28.056-16.503 28.056 15.678-28.056 16.503-28.056-15.678z" fill="#fff"/><path d="M530.947 469.04l23.105-13.541 23.105 12.864-23.105 13.542-23.105-12.865z" fill="#797B84"/><path d="M554.052 468.702v-13.203l23.104 12.864-23.104 13.542v-13.203z" fill="#393A4A"/><path d="M525.996 468.702v33.007l28.056 16.503V484.38l-28.056-15.678z" fill="#BDBDBD"/><path d="M554.052 484.38l28.055-16.503v33.172l-28.055 17.163V484.38z" fill="#F3F3F3"/><path d="M481.488 494.665l28.056-16.503L537.6 493.84l-28.056 16.503-28.056-15.678z" fill="#fff"/><path d="M486.439 495.003l23.105-13.541 23.105 12.864-23.105 13.541-23.105-12.864z" fill="#797B84"/><path d="M509.544 494.665v-13.203l23.105 12.864-23.105 13.541v-13.202z" fill="#393A4A"/><path d="M481.488 494.665v33.007l28.056 16.503v-33.832l-28.056-15.678z" fill="#BDBDBD"/><path d="M509.544 510.343L537.6 493.84v33.172l-28.056 17.163v-33.832z" fill="#F3F3F3"/><path fill-rule="evenodd" clip-rule="evenodd" d="M509.178 507.834l-66.634-38.481-62.125-299.963h262.41l-65.835 299.036-67.816 39.408z" fill="url(#paint5_linear_28_524)" fill-opacity=".8"/></g><g opacity=".4"><path d="M285.968 254.131l28.055-16.503 28.056 15.678-28.056 16.504-28.055-15.679z" fill="#fff"/><path d="M290.919 254.47l23.105-13.542 23.104 12.864-23.104 13.542-23.105-12.864z" fill="#797B84"/><path d="M314.023 254.131v-13.203l23.105 12.864-23.105 13.542v-13.203z" fill="#393A4A"/><path d="M285.968 254.131v33.007l28.056 16.504V269.81l-28.056-15.679z" fill="#BDBDBD"/><path d="M314.023 269.81l28.056-16.503v33.172l-28.056 17.163V269.81z" fill="#F3F3F3"/><path d="M241.669 277.313l28.056-16.504 28.055 15.678-28.055 16.504-28.056-15.678z" fill="#fff"/><path d="M246.62 277.651l23.105-13.542 23.105 12.865-23.105 13.541-23.105-12.864z" fill="#797B84"/><path d="M269.725 277.312v-13.203l23.104 12.865-23.104 13.541v-13.203z" fill="#393A4A"/><path d="M241.669 277.312v33.007l28.056 16.503V292.99l-28.056-15.678z" fill="#BDBDBD"/><path d="M269.725 292.991l28.055-16.504v33.172l-28.055 17.164v-33.832z" fill="#F3F3F3"/><path d="M330.475 277.313l28.056-16.504 28.056 15.678-28.056 16.504-28.056-15.678z" fill="#fff"/><path d="M335.426 277.651l23.105-13.542 23.105 12.865-23.105 13.541-23.105-12.864z" fill="#797B84"/><path d="M358.531 277.312v-13.203l23.105 12.865-23.105 13.541v-13.203z" fill="#393A4A"/><path d="M330.475 277.312v33.007l28.056 16.503V292.99l-28.056-15.678z" fill="#BDBDBD"/><path d="M358.531 292.991l28.056-16.504v33.172l-28.056 17.164v-33.832z" fill="#F3F3F3"/><path d="M285.968 303.275l28.055-16.504 28.056 15.679-28.056 16.503-28.055-15.678z" fill="#fff"/><path d="M290.919 303.614l23.105-13.542 23.104 12.864-23.104 13.542-23.105-12.864z" fill="#797B84"/><path d="M314.023 303.275v-13.203l23.105 12.864-23.105 13.542v-13.203z" fill="#393A4A"/><path d="M285.968 303.275v33.007l28.056 16.504v-33.832l-28.056-15.679z" fill="#BDBDBD"/><path d="M314.023 318.954l28.056-16.504v33.172l-28.056 17.164v-33.832z" fill="#F3F3F3"/><path fill-rule="evenodd" clip-rule="evenodd" d="M313.657 316.444l-66.634-38.481L184.898-22h262.41l-65.835 299.036-67.816 39.408z" fill="url(#paint6_linear_28_524)" fill-opacity=".8"/></g><g opacity=".4"><path d="M283.214 360.153l28.055-16.503 28.056 15.678-28.056 16.504-28.055-15.679z" fill="#fff"/><path d="M288.165 360.491l23.105-13.541 23.104 12.864-23.104 13.542-23.105-12.865z" fill="#797B84"/><path d="M311.269 360.153V346.95l23.105 12.864-23.105 13.542v-13.203z" fill="#393A4A"/><path d="M283.214 360.153v33.007l28.055 16.503v-33.832l-28.055-15.678z" fill="#BDBDBD"/><path d="M311.269 375.832l28.056-16.504V392.5l-28.056 17.164v-33.832z" fill="#F3F3F3"/><path d="M238.915 383.334l28.056-16.503 28.056 15.678-28.056 16.503-28.056-15.678z" fill="#fff"/><path d="M243.866 383.673l23.105-13.542 23.105 12.865-23.105 13.541-23.105-12.864z" fill="#797B84"/><path d="M266.971 383.334v-13.203l23.105 12.865-23.105 13.541v-13.203z" fill="#393A4A"/><path d="M238.915 383.334v33.007l28.056 16.503v-33.832l-28.056-15.678z" fill="#BDBDBD"/><path d="M266.971 399.012l28.056-16.503v33.172l-28.056 17.163v-33.832z" fill="#F3F3F3"/><path d="M327.721 383.334l28.056-16.503 28.056 15.678-28.056 16.503-28.056-15.678z" fill="#fff"/><path d="M332.672 383.673l23.105-13.542 23.105 12.865-23.105 13.541-23.105-12.864z" fill="#797B84"/><path d="M355.777 383.334v-13.203l23.105 12.865-23.105 13.541v-13.203z" fill="#393A4A"/><path d="M327.721 383.334v33.007l28.056 16.503v-33.832l-28.056-15.678z" fill="#BDBDBD"/><path d="M355.777 399.012l28.056-16.503v33.172l-28.056 17.163v-33.832z" fill="#F3F3F3"/><path d="M283.214 409.297l28.055-16.504 28.056 15.679-28.056 16.503-28.055-15.678z" fill="#fff"/><path d="M288.165 409.635l23.105-13.541 23.104 12.864-23.104 13.541-23.105-12.864z" fill="#797B84"/><path d="M311.269 409.297v-13.203l23.105 12.864-23.105 13.541v-13.202z" fill="#393A4A"/><path d="M283.214 409.297v33.007l28.055 16.503v-33.832l-28.055-15.678z" fill="#BDBDBD"/><path d="M311.269 424.975l28.056-16.503v33.172l-28.056 17.163v-33.832z" fill="#F3F3F3"/><path fill-rule="evenodd" clip-rule="evenodd" d="M310.903 422.466l-66.634-38.481-62.125-299.963h262.41l-65.835 299.036-67.816 39.408z" fill="url(#paint7_linear_28_524)" fill-opacity=".8"/></g><g opacity=".4"><path d="M100.085 316.092l28.055-16.504 28.056 15.679-28.056 16.503-28.055-15.678z" fill="#fff"/><path d="M105.036 316.43l23.105-13.541 23.105 12.864-23.105 13.541-23.105-12.864z" fill="#797B84"/><path d="M128.141 316.091v-13.202l23.104 12.864-23.104 13.541v-13.203z" fill="#393A4A"/><path d="M100.085 316.091v33.007l28.055 16.504V331.77l-28.055-15.679z" fill="#BDBDBD"/><path d="M128.141 331.77l28.055-16.503v33.172l-28.055 17.163V331.77z" fill="#F3F3F3"/><path d="M55.786 339.273l28.056-16.503 28.056 15.678-28.056 16.503-28.056-15.678z" fill="#fff"/><path d="M60.737 339.612l23.105-13.542 23.105 12.865-23.105 13.541-23.105-12.864z" fill="#797B84"/><path d="M83.842 339.273V326.07l23.105 12.865-23.105 13.541v-13.203z" fill="#393A4A"/><path d="M55.786 339.273v33.007l28.056 16.504v-33.832l-28.056-15.679z" fill="#BDBDBD"/><path d="M83.842 354.952l28.056-16.504v33.172l-28.056 17.164v-33.832z" fill="#F3F3F3"/><path d="M144.592 339.273l28.056-16.503 28.056 15.678-28.056 16.503-28.056-15.678z" fill="#fff"/><path d="M149.544 339.612l23.104-13.542 23.105 12.865-23.105 13.541-23.104-12.864z" fill="#797B84"/><path d="M172.648 339.273V326.07l23.105 12.865-23.105 13.541v-13.203z" fill="#393A4A"/><path d="M144.592 339.273v33.007l28.056 16.504v-33.832l-28.056-15.679z" fill="#BDBDBD"/><path d="M172.648 354.952l28.056-16.504v33.172l-28.056 17.164v-33.832z" fill="#F3F3F3"/><path d="M100.085 365.236l28.055-16.504 28.056 15.679-28.056 16.503-28.055-15.678z" fill="#fff"/><path d="M105.036 365.574l23.105-13.541 23.105 12.864-23.105 13.541-23.105-12.864z" fill="#797B84"/><path d="M128.141 365.235v-13.202l23.104 12.864-23.104 13.541v-13.203z" fill="#393A4A"/><path d="M100.085 365.236v33.007l28.055 16.504v-33.832l-28.055-15.679z" fill="#BDBDBD"/><path d="M128.141 380.915l28.055-16.504v33.172l-28.055 17.164v-33.832z" fill="#F3F3F3"/><path fill-rule="evenodd" clip-rule="evenodd" d="M127.774 378.405l-66.633-38.481L-.985 39.961h262.41l-65.834 299.036-67.817 39.408z" fill="url(#paint8_linear_28_524)" fill-opacity=".8"/></g><g opacity=".4"><path d="M455.327 316.091l28.056-16.504 28.056 15.679-28.056 16.503-28.056-15.678z" fill="#fff"/><path d="M460.278 316.429l23.105-13.541 23.105 12.864-23.105 13.541-23.105-12.864z" fill="#797B84"/><path d="M483.383 316.09v-13.202l23.105 12.864-23.105 13.541V316.09z" fill="#393A4A"/><path d="M455.327 316.09v33.007l28.056 16.504v-33.832l-28.056-15.679z" fill="#BDBDBD"/><path d="M483.383 331.769l28.056-16.503v33.172l-28.056 17.163v-33.832z" fill="#F3F3F3"/><path d="M411.029 339.273l28.056-16.503 28.055 15.678-28.055 16.503-28.056-15.678z" fill="#fff"/><path d="M415.98 339.612l23.105-13.542 23.105 12.865-23.105 13.541-23.105-12.864z" fill="#797B84"/><path d="M439.084 339.273V326.07l23.105 12.865-23.105 13.541v-13.203z" fill="#393A4A"/><path d="M411.029 339.273v33.007l28.056 16.504v-33.832l-28.056-15.679z" fill="#BDBDBD"/><path d="M439.084 354.952l28.056-16.504v33.172l-28.056 17.164v-33.832z" fill="#F3F3F3"/><path d="M499.835 339.273l28.056-16.503 28.056 15.678-28.056 16.503-28.056-15.678z" fill="#fff"/><path d="M504.786 339.612l23.105-13.542 23.104 12.865-23.104 13.541-23.105-12.864z" fill="#797B84"/><path d="M527.89 339.273V326.07l23.105 12.865-23.105 13.541v-13.203z" fill="#393A4A"/><path d="M499.834 339.273v33.007l28.056 16.504v-33.832l-28.056-15.679z" fill="#BDBDBD"/><path d="M527.89 354.952l28.056-16.504v33.172l-28.056 17.164v-33.832z" fill="#F3F3F3"/><path d="M455.327 365.236l28.056-16.504 28.056 15.679-28.056 16.503-28.056-15.678z" fill="#fff"/><path d="M460.278 365.574l23.105-13.541 23.105 12.864-23.105 13.541-23.105-12.864z" fill="#797B84"/><path d="M483.383 365.235v-13.202l23.105 12.864-23.105 13.541v-13.203z" fill="#393A4A"/><path d="M455.327 365.236v33.007l28.056 16.504v-33.832l-28.056-15.679z" fill="#BDBDBD"/><path d="M483.383 380.915l28.056-16.504v33.172l-28.056 17.164v-33.832z" fill="#F3F3F3"/><path fill-rule="evenodd" clip-rule="evenodd" d="M483.016 378.405l-66.633-38.481-62.125-299.963h262.409l-65.834 299.036-67.817 39.408z" fill="url(#paint9_linear_28_524)" fill-opacity=".8"/></g><g opacity=".4"><path d="M89.07 445.521l28.055-16.503 28.056 15.678-28.056 16.503-28.056-15.678z" fill="#fff"/><path d="M94.02 445.859l23.105-13.541 23.105 12.864-23.105 13.541-23.105-12.864z" fill="#797B84"/><path d="M117.125 445.521v-13.203l23.105 12.864-23.105 13.541v-13.202z" fill="#393A4A"/><path d="M89.07 445.521v33.007l28.055 16.503v-33.832l-28.056-15.678z" fill="#BDBDBD"/><path d="M117.125 461.2l28.056-16.504v33.172l-28.056 17.164V461.2z" fill="#F3F3F3"/><path d="M44.77 468.702l28.057-16.503 28.056 15.678-28.056 16.503-28.056-15.678z" fill="#fff"/><path d="M49.722 469.04l23.105-13.541 23.104 12.864-23.104 13.542-23.105-12.865z" fill="#797B84"/><path d="M72.827 468.702v-13.203l23.105 12.864-23.105 13.542v-13.203z" fill="#393A4A"/><path d="M44.77 468.702v33.007l28.057 16.503V484.38L44.77 468.702z" fill="#BDBDBD"/><path d="M72.827 484.38l28.056-16.503v33.172l-28.056 17.163V484.38z" fill="#F3F3F3"/><path d="M133.577 468.702l28.056-16.503 28.056 15.678-28.056 16.503-28.056-15.678z" fill="#fff"/><path d="M138.528 469.04l23.105-13.541 23.105 12.864-23.105 13.542-23.105-12.865z" fill="#797B84"/><path d="M161.633 468.702v-13.203l23.105 12.864-23.105 13.542v-13.203z" fill="#393A4A"/><path d="M133.577 468.702v33.007l28.056 16.503V484.38l-28.056-15.678z" fill="#BDBDBD"/><path d="M161.633 484.38l28.056-16.503v33.172l-28.056 17.163V484.38z" fill="#F3F3F3"/><path d="M89.07 494.665l28.055-16.503 28.056 15.678-28.056 16.503-28.056-15.678z" fill="#fff"/><path d="M94.02 495.003l23.105-13.541 23.105 12.864-23.105 13.541-23.105-12.864z" fill="#797B84"/><path d="M117.125 494.665v-13.203l23.105 12.864-23.105 13.541v-13.202z" fill="#393A4A"/><path d="M89.07 494.665v33.007l28.055 16.503v-33.832l-28.056-15.678z" fill="#BDBDBD"/><path d="M117.125 510.343l28.056-16.503v33.172l-28.056 17.163v-33.832z" fill="#F3F3F3"/><path fill-rule="evenodd" clip-rule="evenodd" d="M116.759 507.834l-66.634-38.481L-12 169.39h262.41l-65.835 299.036-67.816 39.408z" fill="url(#paint10_linear_28_524)" fill-opacity=".8"/></g><path d="M270.267 477.54l41.661-24.506 41.662 23.281-41.662 24.507-41.661-23.282z" fill="#06AFFF"/><path d="M277.618 478.043l34.31-20.108 34.309 19.103-34.309 20.108-34.31-19.103z" fill="#0551CA"/><path d="M311.928 477.54v-19.605l34.309 19.103-34.309 20.108V477.54z" fill="#052DAC"/><path d="M270.266 477.541v49.013l41.662 24.507v-50.239l-41.662-23.281z" fill="#2F80ED"/><path d="M311.928 500.822l41.661-24.507v49.259l-41.661 25.487v-50.239z" fill="#3C8AFE"/><path d="M204.486 511.963l41.661-24.507 41.662 23.281-41.662 24.507-41.661-23.281z" fill="#F67"/><path d="M211.837 512.466l34.31-20.109 34.309 19.103-34.309 20.108-34.31-19.102z" fill="#C13647"/><path d="M246.147 511.963v-19.606l34.31 19.103-34.31 20.108v-19.605z" fill="#A81525"/><path d="M204.485 511.963v49.013l41.662 24.507v-50.239l-41.662-23.281z" fill="#DE2424"/><path d="M246.147 535.245l41.662-24.507v49.258l-41.662 25.487v-50.238z" fill="#F32626"/><path d="M336.358 511.963l41.662-24.507 41.661 23.281-41.661 24.507-41.662-23.281z" fill="#FFEE50"/><path d="M343.71 512.466l34.309-20.109 34.31 19.103-34.31 20.108-34.309-19.102z" fill="#FED354"/><path d="M378.02 511.963v-19.606l34.309 19.103-34.309 20.108v-19.605z" fill="#EEBD43"/><path d="M336.358 511.963v49.013l41.662 24.507v-50.239l-41.662-23.281z" fill="#DCB616"/><path d="M378.02 535.245l41.661-24.507v49.258l-41.661 25.487v-50.238z" fill="#FFD215"/><path d="M270.267 550.516l41.661-24.507 41.662 23.282-41.662 24.506-41.661-23.281z" fill="#42E7AA"/><path d="M277.618 551.018l34.31-20.108 34.309 19.103-34.309 20.108-34.31-19.103z" fill="#139565"/><path d="M311.928 550.516V530.91l34.309 19.103-34.309 20.108v-19.605z" fill="#117E56"/><path d="M270.266 550.516v49.013l41.662 24.507v-50.239l-41.662-23.281z" fill="#16A568"/><path d="M311.928 573.797l41.661-24.506v49.258l-41.661 25.487v-50.239z" fill="#17CE8A"/><path fill-rule="evenodd" clip-rule="evenodd" d="M311.384 570.07l-98.948-57.141-92.253-445.43h389.665l-97.76 444.053-100.704 58.518z" fill="url(#paint11_linear_28_524)" fill-opacity=".8"/><path d="M550.122 258.162v-36.26c-1.145-12.394-8.019-24.173-19.476-34.929v36.261c11.457 10.755 18.331 22.534 19.476 34.928zm-25.348-40.05v-36.26c-4.01-3.278-8.592-6.453-13.461-9.424v36.26c4.869 2.971 9.308 6.146 13.461 9.424zm-21.768-14.34v-36.26c-5.298-2.868-11.027-5.736-17.185-8.297v36.26c6.158 2.663 11.887 5.429 17.185 8.297zm-28.641-2.254v-57.77c46.686 17.72 75.9 43.123 75.9 71.189v57.77c0-28.066-29.071-53.468-75.9-71.189zm-85.497-27.656v-10.448c-3.58-.512-7.16-.922-10.884-1.331v10.447c3.724.308 7.304.82 10.884 1.332zm-19.476-12.804v-9.218c-3.724-.41-7.447-.717-11.171-1.025v9.219c3.724.41 7.447.717 11.171 1.024zm38.237 5.224v-12.496c-3.437-.615-6.874-1.229-10.455-1.742v12.599c3.581.512 7.018 1.127 10.455 1.639zm-58.287-6.76V140.88c-3.866-.205-7.59-.41-11.456-.615v18.54c3.723.307 7.59.41 11.456.717zm-41.817-1.024v-18.643c-3.866 0-7.876.103-11.743.205v18.54c3.867 0 7.877-.102 11.743-.102zm-20.765.512v-23.354c-3.867.205-7.59.409-11.457.614v23.354c3.867-.205 7.59-.409 11.457-.614zm41.817-.41v-26.734c-3.437-.103-7.017-.103-10.597-.205h-1.289v26.734h1.289c3.58.103 7.16.103 10.597.205zm-62.01 1.741v-33.392c-3.723.307-7.447.615-11.027 1.024v33.393c3.58-.308 7.304-.717 11.027-1.025zm-34.943-36.26c26.924-4.097 55.995-6.248 86.356-6.043 40.528.307 78.622 4.712 111.56 12.394v57.77c-33.082-7.58-71.032-12.087-111.56-12.394-30.361-.205-59.576 1.946-86.356 6.044v-57.771zM82.83 216.856v12.803c4.379-8.571 7.59-10.755 11.457-16.068 5.28-5.287 7.876-7.989 14.177-12.086 6.302-4.098 35.516-20.589 59.576-28.271v-11.267a200.868 200.868 0 00-12.46 4.302c-2.005.717-4.01 1.536-6.015 2.253-19.762 7.068-39.812 20.793-39.812 20.793s-23.63 15.761-26.923 27.541zm-3.15-14.839c9.165-28.168 47.831-52.444 102.537-67.604v57.77c-54.706 15.16-93.372 39.436-102.538 67.604v-57.77z" fill="#646D82"/><path d="M83.054 216.78v12.804c4.378-8.571 7.59-10.755 11.457-16.068 5.28-5.288 7.876-7.99 14.177-12.087 6.302-4.097 35.516-20.588 59.575-28.271v-11.267a202.39 202.39 0 00-12.459 4.302c-2.005.717-4.01 1.537-6.015 2.254-19.762 7.067-39.812 20.793-39.812 20.793s-23.63 15.761-26.923 27.54z" fill="#42E7AA"/><path opacity=".753" d="M531.679 186.822c11.457 10.755 18.331 22.535 19.477 34.929v36.26c-1.146-12.394-8.02-24.173-19.477-34.929v-36.26z" fill="#42E7AA"/><path d="M512.345 172.175c4.87 3.073 9.452 6.248 13.462 9.423v36.26c-4.01-3.277-8.592-6.453-13.462-9.423v-36.26z" fill="#42E7AA"/><path opacity=".753" d="M486.855 159.064a279.866 279.866 0 0117.185 8.297v36.26c-5.299-2.868-11.027-5.736-17.185-8.297v-36.26z" fill="#42E7AA"/><path d="M397.175 152.591c3.437.512 7.017 1.127 10.454 1.742v12.598c-3.437-.614-6.874-1.229-10.454-1.741v-12.599z" fill="#42E7AA"/><path opacity=".753" d="M378.128 162.527c3.58.41 7.304.922 10.884 1.331v10.448c-3.58-.512-7.161-.922-10.884-1.331v-10.448z" fill="#42E7AA"/><path d="M358.222 151.464c3.724.307 7.447.614 11.171 1.024v9.219c-3.724-.41-7.447-.717-11.171-1.024v-9.219z" fill="#42E7AA"/><path opacity=".753" d="M337.743 140.44c3.866.205 7.733.308 11.456.615v18.54c-3.866-.205-7.59-.41-11.456-.615v-18.54zm-20.908-8.706h1.288c3.581 0 7.018.102 10.598.205v26.734c-3.437-.103-7.017-.103-10.598-.205h-1.288v-26.734z" fill="#42E7AA"/><path d="M295.782 140.236c3.867-.102 7.733-.205 11.743-.205v18.54c-3.866 0-7.876.102-11.743.205v-18.54z" fill="#42E7AA"/><path opacity=".753" d="M275.447 136.446c3.723-.205 7.59-.513 11.457-.615v23.252c-3.867.204-7.59.409-11.457.614v-23.251z" fill="#42E7AA"/><path d="M255.397 128.047c3.724-.41 7.304-.717 11.028-1.025v33.393c-3.724.307-7.447.614-11.028 1.024v-33.392z" fill="#42E7AA"/><path d="M153.146 362.206v-9.731a551.167 551.167 0 008.449 3.073v9.731c-2.864-1.024-5.585-2.049-8.449-3.073zm-26.781-12.189v-18.028c2.292 1.229 4.583 2.458 7.018 3.585v18.028c-2.435-1.229-4.726-2.458-7.018-3.585zm12.746 6.248v-21.203l7.733 3.38v21.203l-7.733-3.38zm-34.37-20.179v-23.558c1.718 1.331 3.58 2.765 5.442 4.097v23.559c-1.862-1.434-3.58-2.766-5.442-4.098zm10.168 7.17v-25.505c2.005 1.332 4.153 2.561 6.301 3.79v25.505c-2.291-1.229-4.296-2.56-6.301-3.79zm-25.778-22.637v-27.656c1.146 1.537 2.435 2.971 3.724 4.405v27.656c-1.29-1.434-2.435-2.868-3.724-4.405zm7.017 7.888v-35.953c1.432 1.434 3.008 2.868 4.583 4.302v35.953c-1.575-1.434-3.007-2.868-4.583-4.302zm-12.316-15.979v-40.665c.86 1.536 1.719 3.073 2.865 4.609v40.562c-1.146-1.434-2.005-2.97-2.865-4.506zm94.948 9.013c-53.99-15.569-91.224-40.152-99.1-68.32v57.77c7.876 28.168 45.11 52.751 99.1 68.321v-57.771zm158.389 64.325v-13.008c9.309-.41 18.474-.922 27.353-1.742v13.009c-8.879.819-18.044 1.332-27.353 1.741zm-43.679.103v-23.764c5.586.205 11.171.307 16.899.41h11.6v23.763c-3.867 0-7.733.103-11.6 0-5.728-.102-11.313-.204-16.899-.409zm-42.103-3.176v-36.26c8.736 1.025 17.758 1.742 27.066 2.356v36.26c-9.165-.512-18.187-1.331-27.066-2.356zm127.599-.102V344.28c8.736-1.025 17.329-2.254 25.635-3.585v38.308a478.747 478.747 0 01-25.635 3.688zm47.116-54.902c-34.37 7.579-73.896 11.779-115.713 11.472-29.215-.205-56.997-2.561-82.632-6.761v57.771c25.635 4.097 53.417 6.555 82.632 6.76 41.817.307 81.343-3.892 115.713-11.472v-57.77zm58.001 16.491v-11.165c37.664-15.876 62.153-37.079 66.163-60.74v11.164c-4.01 23.662-28.499 44.865-66.163 60.741zm66.736-42.508v-57.771c-1.146 28.271-31.793 53.469-79.481 70.882v57.77c47.832-17.413 78.335-42.713 79.481-70.881z" fill="#3F4658"/><path d="M550.266 272.375c-4.01 23.558-28.499 44.864-66.163 60.74v11.165c37.664-15.876 62.153-37.079 66.163-60.741v-11.164zm-271.812 76.513c-9.165-.614-18.187-1.331-27.066-2.356v36.26c8.735 1.025 17.758 1.742 27.066 2.356v-36.26zm86.069 22.228c-9.023.82-18.045 1.332-27.353 1.742v13.008c9.308-.41 18.474-.922 27.353-1.741v-13.009zm40.098-30.831a394.217 394.217 0 01-25.635 3.585v38.308c8.736-1.024 17.329-2.253 25.635-3.585v-38.308z" fill="#F3F3F3"/><path opacity=".753" d="M321.99 362.512c-3.867 0-7.733.102-11.6 0-5.728 0-11.313-.205-16.899-.41v23.764c5.586.205 11.171.307 16.899.409h11.6v-23.763z" fill="#F3F3F3"/><path d="M86.696 276.676c-1.002-1.537-2.005-3.073-2.864-4.61v40.563c.86 1.536 1.719 3.072 2.864 4.609v-40.562zm6.158 20.998a101.406 101.406 0 01-3.723-4.405v27.656c1.145 1.537 2.434 2.971 3.723 4.405v-27.656z" fill="#F3F3F3"/><path opacity=".753" d="M100.874 297.059c-1.575-1.434-3.15-2.868-4.583-4.302v35.953c1.433 1.434 3.008 2.868 4.583 4.302v-35.953z" fill="#F3F3F3"/><path d="M110.326 316.726c-1.862-1.332-3.724-2.664-5.442-4.098v23.559c1.718 1.332 3.58 2.766 5.442 4.097v-23.558zm10.74 5.019c-2.148-1.229-4.296-2.561-6.301-3.79v25.505c2.005 1.332 4.153 2.561 6.301 3.79v-25.505z" fill="#F3F3F3"/><path opacity=".753" d="M133.383 335.777c-2.435-1.126-4.726-2.355-7.018-3.585v18.028c2.292 1.229 4.583 2.458 7.018 3.585v-18.028z" fill="#F3F3F3"/><path d="M146.844 338.646l-7.734-3.38v21.203l7.734 3.38v-21.203z" fill="#F3F3F3"/><path opacity=".753" d="M161.595 355.65c-2.864-1.025-5.585-2.049-8.45-3.073v9.73c2.721 1.025 5.586 2.049 8.45 3.073v-9.73z" fill="#F3F3F3"/></g><defs><filter id="filter0_f_28_524" x="-621.286" y="-337.041" width="2209.83" height="2209.83" filterUnits="userSpaceOnUse" color-interpolation-filters="sRGB"><feFlood flood-opacity="0" result="BackgroundImageFix"/><feBlend in="SourceGraphic" in2="BackgroundImageFix" result="shape"/><feGaussianBlur stdDeviation="276.229" result="effect1_foregroundBlur_28_524"/></filter><filter id="filter1_f_28_524" x="-2100" y="-746.157" width="2209.83" height="2209.83" filterUnits="userSpaceOnUse" color-interpolation-filters="sRGB"><feFlood flood-opacity="0" result="BackgroundImageFix"/><feBlend in="SourceGraphic" in2="BackgroundImageFix" result="shape"/><feGaussianBlur stdDeviation="276.229" result="effect1_foregroundBlur_28_524"/></filter><filter id="filter2_f_28_524" x="-1633.17" y="-117.567" width="1909.79" height="1909.79" filterUnits="userSpaceOnUse" color-interpolation-filters="sRGB"><feFlood flood-opacity="0" result="BackgroundImageFix"/><feBlend in="SourceGraphic" in2="BackgroundImageFix" result="shape"/><feGaussianBlur stdDeviation="276.229" result="effect1_foregroundBlur_28_524"/></filter><filter id="filter3_f_28_524" x="-259.48" y="-1032.45" width="2209.83" height="2209.83" filterUnits="userSpaceOnUse" color-interpolation-filters="sRGB"><feFlood flood-opacity="0" result="BackgroundImageFix"/><feBlend in="SourceGraphic" in2="BackgroundImageFix" result="shape"/><feGaussianBlur stdDeviation="276.229" result="effect1_foregroundBlur_28_524"/></filter><filter id="filter4_f_28_524" x="-1107.04" y="-89.267" width="2028.85" height="2028.85" filterUnits="userSpaceOnUse" color-interpolation-filters="sRGB"><feFlood flood-opacity="0" result="BackgroundImageFix"/><feBlend in="SourceGraphic" in2="BackgroundImageFix" result="shape"/><feGaussianBlur stdDeviation="276.229" result="effect1_foregroundBlur_28_524"/></filter><filter id="filter5_f_28_524" x="-165.73" y="3.908" width="1267.19" height="983.164" filterUnits="userSpaceOnUse" color-interpolation-filters="sRGB"><feFlood flood-opacity="0" result="BackgroundImageFix"/><feBlend in="SourceGraphic" in2="BackgroundImageFix" result="shape"/><feGaussianBlur stdDeviation="30.652" result="effect1_foregroundBlur_28_524"/></filter><filter id="filter6_f_28_524" x="-110.698" y="-32.699" width="1377.73" height="1163.78" filterUnits="userSpaceOnUse" color-interpolation-filters="sRGB"><feFlood flood-opacity="0" result="BackgroundImageFix"/><feBlend in="SourceGraphic" in2="BackgroundImageFix" result="shape"/><feGaussianBlur stdDeviation="63.348" result="effect1_foregroundBlur_28_524"/></filter><filter id="filter7_f_28_524" x="-959.631" y="-1175.16" width="2028.85" height="2028.85" filterUnits="userSpaceOnUse" color-interpolation-filters="sRGB"><feFlood flood-opacity="0" result="BackgroundImageFix"/><feBlend in="SourceGraphic" in2="BackgroundImageFix" result="shape"/><feGaussianBlur stdDeviation="276.229" result="effect1_foregroundBlur_28_524"/></filter><filter id="filter8_f_28_524" x="-350.948" y="-517.82" width="2196.56" height="1209.35" filterUnits="userSpaceOnUse" color-interpolation-filters="sRGB"><feFlood flood-opacity="0" result="BackgroundImageFix"/><feBlend in="SourceGraphic" in2="BackgroundImageFix" result="shape"/><feGaussianBlur stdDeviation="73.82" result="effect1_foregroundBlur_28_524"/></filter><filter id="filter9_f_28_524" x="-536.716" y="-617.783" width="2120.36" height="1133.15" filterUnits="userSpaceOnUse" color-interpolation-filters="sRGB"><feFlood flood-opacity="0" result="BackgroundImageFix"/><feBlend in="SourceGraphic" in2="BackgroundImageFix" result="shape"/><feGaussianBlur stdDeviation="54.77" result="effect1_foregroundBlur_28_524"/></filter><filter id="filter10_f_28_524" x="-330.969" y="-1265.81" width="2209.83" height="2209.83" filterUnits="userSpaceOnUse" color-interpolation-filters="sRGB"><feFlood flood-opacity="0" result="BackgroundImageFix"/><feBlend in="SourceGraphic" in2="BackgroundImageFix" result="shape"/><feGaussianBlur stdDeviation="276.229" result="effect1_foregroundBlur_28_524"/></filter><filter id="filter11_f_28_524" x="69.191" y="-565.752" width="1790.72" height="1790.72" filterUnits="userSpaceOnUse" color-interpolation-filters="sRGB"><feFlood flood-opacity="0" result="BackgroundImageFix"/><feBlend in="SourceGraphic" in2="BackgroundImageFix" result="shape"/><feGaussianBlur stdDeviation="276.229" result="effect1_foregroundBlur_28_524"/></filter><filter id="filter12_f_28_524" x="-554.394" y="-483.584" width="1191" height="1030" filterUnits="userSpaceOnUse" color-interpolation-filters="sRGB"><feFlood flood-opacity="0" result="BackgroundImageFix"/><feBlend in="SourceGraphic" in2="BackgroundImageFix" result="shape"/><feGaussianBlur stdDeviation="150" result="effect1_foregroundBlur_28_524"/></filter><filter id="filter13_f_28_524" x="-905.95" y="-51.036" width="990.777" height="1069.1" filterUnits="userSpaceOnUse" color-interpolation-filters="sRGB"><feFlood flood-opacity="0" result="BackgroundImageFix"/><feBlend in="SourceGraphic" in2="BackgroundImageFix" result="shape"/><feGaussianBlur stdDeviation="124.268" result="effect1_foregroundBlur_28_524"/></filter><filter id="filter14_f_28_524" x="-1118.62" y="-50.526" width="1169.88" height="1063.92" filterUnits="userSpaceOnUse" color-interpolation-filters="sRGB"><feFlood flood-opacity="0" result="BackgroundImageFix"/><feBlend in="SourceGraphic" in2="BackgroundImageFix" result="shape"/><feGaussianBlur stdDeviation="67.105" result="effect1_foregroundBlur_28_524"/></filter><filter id="filter15_f_28_524" x="-1189.83" y="-262.959" width="1524.82" height="1578.88" filterUnits="userSpaceOnUse" color-interpolation-filters="sRGB"><feFlood flood-opacity="0" result="BackgroundImageFix"/><feBlend in="SourceGraphic" in2="BackgroundImageFix" result="shape"/><feGaussianBlur stdDeviation="166.519" result="effect1_foregroundBlur_28_524"/></filter><filter id="filter17_f_28_524" x="391.171" y="-196.361" width="881.637" height="732.564" filterUnits="userSpaceOnUse" color-interpolation-filters="sRGB"><feFlood flood-opacity="0" result="BackgroundImageFix"/><feBlend in="SourceGraphic" in2="BackgroundImageFix" result="shape"/><feGaussianBlur stdDeviation="4.971" result="effect1_foregroundBlur_28_524"/></filter><filter id="filter18_f_28_524" x="249.607" y="-359.626" width="1069.14" height="918.686" filterUnits="userSpaceOnUse" color-interpolation-filters="sRGB"><feFlood flood-opacity="0" result="BackgroundImageFix"/><feBlend in="SourceGraphic" in2="BackgroundImageFix" result="shape"/><feGaussianBlur stdDeviation="17.398" result="effect1_foregroundBlur_28_524"/></filter><filter id="filter19_f_28_524" x="71.879" y="-559.293" width="1339.73" height="1132.64" filterUnits="userSpaceOnUse" color-interpolation-filters="sRGB"><feFlood flood-opacity="0" result="BackgroundImageFix"/><feBlend in="SourceGraphic" in2="BackgroundImageFix" result="shape"/><feGaussianBlur stdDeviation="24.854" result="effect1_foregroundBlur_28_524"/></filter><filter id="filter20_f_28_524" x="93.415" y="-770.215" width="1486.7" height="1321.77" filterUnits="userSpaceOnUse" color-interpolation-filters="sRGB"><feFlood flood-opacity="0" result="BackgroundImageFix"/><feBlend in="SourceGraphic" in2="BackgroundImageFix" result="shape"/><feGaussianBlur stdDeviation="67.105" result="effect1_foregroundBlur_28_524"/></filter><filter id="filter21_f_28_524" x="-62.023" y="-1132.04" width="1922.4" height="1748.27" filterUnits="userSpaceOnUse" color-interpolation-filters="sRGB"><feFlood flood-opacity="0" result="BackgroundImageFix"/><feBlend in="SourceGraphic" in2="BackgroundImageFix" result="shape"/><feGaussianBlur stdDeviation="166.519" result="effect1_foregroundBlur_28_524"/></filter><filter id="filter22_f_28_524" x="-15.326" y="-756.129" width="1427.87" height="1342.38" filterUnits="userSpaceOnUse" color-interpolation-filters="sRGB"><feFlood flood-opacity="0" result="BackgroundImageFix"/><feBlend in="SourceGraphic" in2="BackgroundImageFix" result="shape"/><feGaussianBlur stdDeviation="77.046" result="effect1_foregroundBlur_28_524"/></filter><filter id="filter23_f_28_524" x="-858.49" y="516.064" width="1184.87" height="453.252" filterUnits="userSpaceOnUse" color-interpolation-filters="sRGB"><feFlood flood-opacity="0" result="BackgroundImageFix"/><feBlend in="SourceGraphic" in2="BackgroundImageFix" result="shape"/><feGaussianBlur stdDeviation="5.97" result="effect1_foregroundBlur_28_524"/></filter><filter id="filter24_f_28_524" x="-865.313" y="498.416" width="1198.51" height="477.723" filterUnits="userSpaceOnUse" color-interpolation-filters="sRGB"><feFlood flood-opacity="0" result="BackgroundImageFix"/><feBlend in="SourceGraphic" in2="BackgroundImageFix" result="shape"/><feGaussianBlur stdDeviation="9.382" result="effect1_foregroundBlur_28_524"/></filter><filter id="filter25_f_28_524" x="-879.242" y="465.711" width="1343.38" height="523.755" filterUnits="userSpaceOnUse" color-interpolation-filters="sRGB"><feFlood flood-opacity="0" result="BackgroundImageFix"/><feBlend in="SourceGraphic" in2="BackgroundImageFix" result="shape"/><feGaussianBlur stdDeviation="16.205" result="effect1_foregroundBlur_28_524"/></filter><filter id="filter26_f_28_524" x="-899.711" y="392.536" width="1395.42" height="617.4" filterUnits="userSpaceOnUse" color-interpolation-filters="sRGB"><feFlood flood-opacity="0" result="BackgroundImageFix"/><feBlend in="SourceGraphic" in2="BackgroundImageFix" result="shape"/><feGaussianBlur stdDeviation="26.44" result="effect1_foregroundBlur_28_524"/></filter><filter id="filter27_f_28_524" x="-30.409" y="285" width="951.841" height="809.413" filterUnits="userSpaceOnUse" color-interpolation-filters="sRGB"><feFlood flood-opacity="0" result="BackgroundImageFix"/><feBlend in="SourceGraphic" in2="BackgroundImageFix" result="shape"/><feGaussianBlur stdDeviation="75" result="effect1_foregroundBlur_28_524"/></filter><filter id="filter28_f_28_524" x="105.423" y="426.861" width="678.645" height="540.665" filterUnits="userSpaceOnUse" color-interpolation-filters="sRGB"><feFlood flood-opacity="0" result="BackgroundImageFix"/><feBlend in="SourceGraphic" in2="BackgroundImageFix" result="shape"/><feGaussianBlur stdDeviation="30.652" result="effect1_foregroundBlur_28_524"/></filter><filter id="filter29_f_28_524" x="98.533" y="375.453" width="799.594" height="695.655" filterUnits="userSpaceOnUse" color-interpolation-filters="sRGB"><feFlood flood-opacity="0" result="BackgroundImageFix"/><feBlend in="SourceGraphic" in2="BackgroundImageFix" result="shape"/><feGaussianBlur stdDeviation="63.348" result="effect1_foregroundBlur_28_524"/></filter><linearGradient id="paint0_linear_28_524" x1="-308.428" y1="283.85" x2="-794.447" y2="209.522" gradientUnits="userSpaceOnUse"><stop stop-color="#C4C4C4"/><stop offset=".943" stop-color="#C4C4C4" stop-opacity="0"/></linearGradient><linearGradient id="paint1_linear_28_524" x1="-495.999" y1="40.501" x2="-624.283" y2="598.432" gradientUnits="userSpaceOnUse"><stop stop-color="#C4C4C4"/><stop offset="1" stop-color="#C4C4C4" stop-opacity="0"/></linearGradient><linearGradient id="paint2_linear_28_524" x1="993.865" y1="532.966" x2="557.569" y2="-217.951" gradientUnits="userSpaceOnUse"><stop stop-color="#C4C4C4"/><stop offset="1" stop-color="#C4C4C4" stop-opacity="0"/></linearGradient><linearGradient id="paint3_linear_28_524" x1="-238.819" y1="720.501" x2="-271.692" y2="867.682" gradientUnits="userSpaceOnUse"><stop stop-color="#C4C4C4"/><stop offset="1" stop-color="#C4C4C4" stop-opacity="0"/></linearGradient><linearGradient id="paint4_linear_28_524" x1="-830.243" y1="598.206" x2="326.691" y2="830.696" gradientUnits="userSpaceOnUse"><stop stop-color="#C4C4C4" stop-opacity="0"/><stop offset=".365" stop-color="#C4C4C4"/><stop offset=".609" stop-color="#C4C4C4"/><stop offset="1" stop-color="#C4C4C4" stop-opacity="0"/></linearGradient><linearGradient id="paint5_linear_28_524" x1="502.064" y1="263.969" x2="502.064" y2="509.235" gradientUnits="userSpaceOnUse"><stop stop-color="#fff" stop-opacity="0"/><stop offset=".863" stop-color="#C4C4C4" stop-opacity=".43"/><stop offset="1" stop-color="#C4C4C4" stop-opacity="0"/></linearGradient><linearGradient id="paint6_linear_28_524" x1="306.543" y1="72.579" x2="306.543" y2="317.845" gradientUnits="userSpaceOnUse"><stop stop-color="#fff" stop-opacity="0"/><stop offset=".863" stop-color="#C4C4C4" stop-opacity=".43"/><stop offset="1" stop-color="#C4C4C4" stop-opacity="0"/></linearGradient><linearGradient id="paint7_linear_28_524" x1="303.789" y1="178.601" x2="303.789" y2="423.867" gradientUnits="userSpaceOnUse"><stop stop-color="#fff" stop-opacity="0"/><stop offset=".863" stop-color="#C4C4C4" stop-opacity=".43"/><stop offset="1" stop-color="#C4C4C4" stop-opacity="0"/></linearGradient><linearGradient id="paint8_linear_28_524" x1="120.66" y1="134.54" x2="120.66" y2="379.805" gradientUnits="userSpaceOnUse"><stop stop-color="#fff" stop-opacity="0"/><stop offset=".863" stop-color="#C4C4C4" stop-opacity=".43"/><stop offset="1" stop-color="#C4C4C4" stop-opacity="0"/></linearGradient><linearGradient id="paint9_linear_28_524" x1="475.902" y1="134.54" x2="475.902" y2="379.805" gradientUnits="userSpaceOnUse"><stop stop-color="#fff" stop-opacity="0"/><stop offset=".863" stop-color="#C4C4C4" stop-opacity=".43"/><stop offset="1" stop-color="#C4C4C4" stop-opacity="0"/></linearGradient><linearGradient id="paint10_linear_28_524" x1="109.645" y1="263.969" x2="109.645" y2="509.235" gradientUnits="userSpaceOnUse"><stop stop-color="#fff" stop-opacity="0"/><stop offset=".863" stop-color="#C4C4C4" stop-opacity=".43"/><stop offset="1" stop-color="#C4C4C4" stop-opacity="0"/></linearGradient><linearGradient id="paint11_linear_28_524" x1="300.82" y1="207.944" x2="300.82" y2="572.151" gradientUnits="userSpaceOnUse"><stop stop-color="#fff" stop-opacity="0"/><stop offset=".863" stop-color="#C4C4C4" stop-opacity=".43"/><stop offset="1" stop-color="#C4C4C4" stop-opacity="0"/></linearGradient><clipPath id="clip0_28_524"><rect width="630" height="585" rx="20" fill="#fff"/></clipPath></defs></svg>