<svg width="630" height="585" fill="none" xmlns="http://www.w3.org/2000/svg"><g clip-path="url(#clip0_22_547)"><rect y="27" width="630" height="585" rx="20" fill="#D9D9D9"/><mask id="a" style="mask-type:alpha" maskUnits="userSpaceOnUse" x="-736" y="-161" width="1582" height="1039"><path transform="rotate(179.988 845.606 877.333)" fill="#F5288F" d="M845.606 877.333h1581.17v1038.24H845.606z"/></mask><g mask="url(#a)"><g filter="url(#filter0_f_22_547)"><circle cx="483.628" cy="767.873" r="552.457" transform="rotate(179.988 483.628 767.873)" fill="#7A8FFF"/></g><g filter="url(#filter1_f_22_547)"><circle cx="-995.082" cy="358.757" r="552.457" transform="rotate(179.988 -995.082 358.757)" fill="#7A8FFF"/></g><g filter="url(#filter2_f_22_547)"><circle cx="-678.274" cy="837.327" r="402.437" transform="rotate(179.988 -678.274 837.327)" fill="#6741FF"/></g><g filter="url(#filter3_f_22_547)"><circle cx="845.435" cy="72.46" r="552.457" transform="rotate(179.988 845.435 72.46)" fill="#45DFF9"/></g><g filter="url(#filter4_f_22_547)"><circle cx="-92.61" cy="925.159" r="461.969" transform="rotate(179.988 -92.61 925.159)" fill="#7A8FFF"/></g><path d="M778.899 910.686C226.568 809.124 57.825 423.613-201.454-44.227L973.955 337.425c119.095 224.941 246.805 654.511-195.056 573.262z" fill="#45DFF9"/><g filter="url(#filter5_f_22_547)"><path d="M740.058 916.431C187.728 814.87 154.853 533.052-104.426 65.212L919.115 303.17c119.095 224.94 262.805 694.51-179.057 613.261z" fill="#45DFF9"/></g><g filter="url(#filter6_f_22_547)"><path d="M820.354 996.478C266.466 901.509 259.132 623.246 15.998 93.997L1040.43 327.372c111.27 254.691 223.04 745.077-220.076 669.105z" fill="#45DFF9"/></g><g filter="url(#filter7_f_22_547)"><circle cx="54.795" cy="-160.737" r="461.969" transform="rotate(179.988 54.795 -160.737)" fill="#7A8FFF"/></g><path d="M1215.61 426.665C374.65 488.853-16.877-7.12-571.19-588.317l1852.48 108.114c258.43 281.56 607.08 857.117-65.68 906.868z" fill="#45DFF9"/><g filter="url(#filter8_f_22_547)"><path d="M1308.3 536.688c-840.958 62.188-957.295-282.703-1511.608-863.9L1373.99-370.18c258.42 281.56 607.08 857.117-65.69 906.868z" fill="#B843FF"/></g><g filter="url(#filter9_f_22_547)"><path d="M1084.43 398.624C243.474 460.812 127.136 115.922-427.177-465.275l1577.297-42.969c258.42 281.56 607.08 857.118-65.69 906.868z" fill="#B843FF"/></g><g filter="url(#filter10_f_22_547)"><circle cx="773.945" cy="-160.892" r="552.457" transform="rotate(179.988 773.945 -160.892)" fill="#7A8FFF"/></g><g filter="url(#filter11_f_22_547)"><path d="M621.648 329.684c-.041-189.381 153.45-342.938 342.831-342.978 189.381-.041 342.941 153.449 342.981 342.831.04 189.381-153.45 342.937-342.833 342.978-189.381.041-342.938-153.45-342.979-342.831z" fill="#45DFF9"/></g><g filter="url(#filter12_f_22_547)"><ellipse cx="41.106" cy="31.416" rx="295.5" ry="215" transform="rotate(-180 41.106 31.416)" fill="#45E0F9"/></g></g><g filter="url(#filter13_f_22_547)"><ellipse cx="-410.562" cy="483.514" rx="207.578" ry="315.612" transform="rotate(-34.19 -410.562 483.514)" fill="#6741FF"/></g><mask id="b" style="mask-type:alpha" maskUnits="userSpaceOnUse" x="-1190" y="-211" width="1539" height="1214"><path d="M227.837 1002.75L348.926 73.498l-858.539-283.906-254.879.636-424.568 514.458 31.77 417.611 743.678 177.052 641.449 103.401z" fill="url(#paint0_linear_22_547)"/></mask><g mask="url(#b)"><mask id="c" style="mask-type:alpha" maskUnits="userSpaceOnUse" x="-1220" y="-271" width="1606" height="1281"><path d="M-1219.78 688.691c100.56-419.902 275.414-937.789 279.038-959.031L385.888 51.431 236.071 1009.58-1219.78 688.691z" fill="url(#paint1_linear_22_547)"/></mask><g mask="url(#c)"><g filter="url(#filter14_f_22_547)"><path d="M-434.866 126.565c225.789 53.755 384.985 319.386 346.05 482.929-38.936 163.544-199.004 312.256-424.792 258.501-111.889-26.638-262.603 3.433-376.147-109.656-115.585-115.121-100.839-469.938-81.198-552.438 38.936-163.543 310.299-133.09 536.087-79.336z" fill="#6741FF"/></g><g filter="url(#filter15_f_22_547)"><path d="M-346.403 216.607c233.331 55.55 381.725 323.802 341.902 491.074-39.824 167.273-204.793 319.079-438.124 263.527-115.627-27.528-234.397-294.927-351.94-410.93-119.655-118.088-33.543-338.657-13.454-423.038 39.824-167.272 228.285 23.816 461.616 79.367z" fill="#6741FF"/></g><path d="M-507.509 150.15c203.069 52.997 320.671 317.867 277.251 484.242-43.421 166.375-196.466 318.544-399.536 265.548-100.63-26.263-234.365-13.894-332.3-127.948-99.696-116.102-12.801-335.794 9.103-419.723 43.42-166.375 242.412-255.116 445.482-202.119z" fill="#6741FF"/></g></g><mask id="d" style="mask-type:alpha" maskUnits="userSpaceOnUse" x="-241" y="-940" width="2296" height="2068"><path d="M-240.675 87.92c279.839 446.554 636.909 1016.15 649.079 1039.5L2054.61 99.496 1405.53-940-240.675 87.92z" fill="url(#paint2_linear_22_547)"/></mask><g mask="url(#d)"><path d="M1060.99 466.335c185.67-115.936 241.82-373.502 152.2-517.027-89.62-143.524-282.392-284.943-481.6-160.554-98.718 61.641-278.487 40.543-351.144 185.25-73.961 147.306 75.416 326.104 120.624 398.505 89.619 143.524 374.251 209.762 559.92 93.826z" fill="#6741FF"/><g filter="url(#filter17_f_22_547)"><path d="M1051.09 455.433C1250.22 331.094 1306.8 104.5 1229.77-18.869c-77.03-123.369-253.257-238.357-452.384-114.018-98.678 61.616-271.989 50.751-350.864 185.391-80.293 137.059 51.908 288.374 90.768 350.608 77.033 123.368 334.673 176.659 533.8 52.321z" fill="#6741FF"/></g><g filter="url(#filter18_f_22_547)"><path d="M1057.12 451.664c223.18-139.36 276.98-408.75 182-560.849-94.97-152.098-303.81-299.121-526.993-159.762-110.598 69.059-319.689 33.111-403.795 190.901-85.616 160.625 82.364 361.942 130.273 438.669 94.973 152.098 395.334 230.4 618.515 91.041z" fill="#6741FF"/></g><g filter="url(#filter19_f_22_547)"><path d="M1071.63 417.566c252.26-209.367 357.32-549.159 246.17-727.171-111.16-178.012-371.175-283.123-638.839-115.989-132.64 82.822-424.296-4.721-526.532 182.326C48.356-52.862 236.433 167.148 292.505 256.946c111.153 178.012 486.904 403.16 779.125 160.62z" fill="#6741FF"/></g><g filter="url(#filter20_f_22_547)"><path d="M1119.49 287.554c288.2-179.959 393.1-564.235 284.43-738.279-108.68-174.043-376.75-268.163-664.957-88.204C596.144-449.75 381.26-407.892 265.697-215.271 148.059-19.189 335.555 193.66 390.376 281.457c108.676 174.043 440.906 186.057 729.114 6.097z" fill="#6741FF"/></g><g filter="url(#filter21_f_22_547)"><path d="M1188.28 148.042c297.83-185.972 407.75-580.653 296.6-758.665-111.15-178.012-386.94-273.281-684.767-87.309-147.591 92.158-369.213 136.118-489.21 334.256-122.154 201.697 70.034 419.139 126.106 508.937 111.153 178.012 453.437 188.752 751.271 2.781z" fill="#6741FF"/></g><g filter="url(#filter22_f_22_547)"><path d="M981.944 316.225C1242.55 153.5 1320.42-221.169 1209.27-399.181c-111.16-178.011-367.486-285.427-628.089-122.702-129.142 80.638-315.511 131.196-413.59 315.647-99.84 187.765 87.274 408.375 143.346 498.173C422.09 469.949 721.341 478.95 981.944 316.225z" fill="#6741FF"/></g></g><mask id="e" style="mask-type:alpha" maskUnits="userSpaceOnUse" x="-888" y="298" width="1299" height="789"><path d="M368.042 1086.09l42.522-433.608-1280.787-353.814-17.658 489.569L368.042 1086.09z" fill="url(#paint3_linear_22_547)"/></mask><g mask="url(#e)"><mask id="f" style="mask-type:alpha" maskUnits="userSpaceOnUse" x="-851" y="276" width="1268" height="866"><path d="M416.606 542.581l-87.447 599.369-1179.845-339.88 64.352-525.593 1202.94 266.104z" fill="url(#paint4_linear_22_547)"/></mask><g mask="url(#f)"><path d="M-424.592 605.116c183.019 178.057 389.98 187.815 538.904 178.8l121.996 1.069 78.128 16.418-128.001 155.973-225.57-21.211-506.621-135.063s-393.708-233.977-280.265-236.171c96.956-13.812 211.488-95.398 401.429 40.185z" fill="#5B0EFF"/><g filter="url(#filter23_f_22_547)"><path d="M-424.592 605.116c196.617 154.141 199.11 167.291 461.33 182.356l199.57-2.487 78.128 16.418-128.001 155.973-225.57-21.211-506.621-135.063s-393.708-233.977-280.265-236.171c96.956-13.812 211.488-95.398 401.429 40.185z" fill="#5B0EFF"/></g><g filter="url(#filter24_f_22_547)"><path d="M-424.592 605.116c261.147 242.217 264.345 158.124 526.565 173.189l75.975-2.146 79.22 8.634 57.268 16.61-128.001 155.973-225.57-21.211-506.621-135.063s-393.708-233.977-280.265-236.171c96.956-13.812 210.397-121.15 401.429 40.185z" fill="#5B0EFF"/></g><g filter="url(#filter25_f_22_547)"><path d="M-472.032 576.438c261.147 242.217 287.844 317.021 611.794 201.537l75.975-2.146 120.938 8.253 95.056 16.28-245.578 156.694-225.57-21.211-506.621-135.063s-393.708-233.977-280.265-236.171c96.956-13.812 163.239-149.508 354.271 11.827z" fill="#5B0EFF"/></g><g filter="url(#filter26_f_22_547)"><path d="M-478.737 563.021c174.234 235.813 326.24 283.192 566.044 208.313l314.017-87.408 41.501 65.171-11.094 51.265-245.578 156.694-225.57-21.211-506.621-135.063s-393.708-233.977-280.265-236.171c96.956-13.812 119.777-260.125 347.566-1.59z" fill="#5B0EFF"/></g></g></g><g filter="url(#filter27_f_22_547)"><path d="M595.844 898.895C327.523 849.557 245.548 662.276 119.591 435l571.012 185.405c57.854 109.276 119.898 317.961-94.759 278.49z" fill="#45DFF9"/><g filter="url(#filter28_f_22_547)"><path d="M576.976 901.686c-268.321-49.338-284.292-186.245-410.249-413.521l497.234 115.6c57.855 109.276 127.672 337.392-86.985 297.921z" fill="#45DFF9"/></g><g filter="url(#filter29_f_22_547)"><path d="M615.984 940.573c-269.079-46.136-272.641-181.316-390.756-438.424l497.667 113.374c54.056 123.728 108.351 361.958-106.911 325.05z" fill="#45DFF9"/></g></g><g filter="url(#filter30_d_22_547)"><rect x="215" y="193" width="200" height="200" rx="20" fill="#fff"/><path fill-rule="evenodd" clip-rule="evenodd" d="M319.381 282.71l5.587-6.023 15.202 16.31-39.987 42.625-49.955-16.169v-52.906l49.955-16.169 10.433 11.304-5.651 5.952-7.148-7.794-39.482 12.781v40.758l39.482 12.78 31.115-33.162-9.551-10.287zm-8.762 20.58l-5.593 6.023-15.196-16.31 39.987-42.625 49.955 16.169v52.912l-49.955 16.163-10.452-11.317 5.651-5.958 7.16 7.812 39.489-12.78v-40.758l-39.489-12.781-31.108 33.163 9.551 10.287z" fill="#307FE2"/></g><path d="M172 492.5h113c11.046 0 20-8.954 20-20V403M172 93h113c11.046 0 20 8.954 20 20v69.5m153 310H345c-11.046 0-20-8.954-20-20V403M458 93H345c-11.046 0-20 8.954-20 20v69.5" stroke="#fff" stroke-dasharray="4 4"/><g filter="url(#filter31_d_22_547)"><rect x="40" y="425" width="120" height="120" rx="10" fill="#fff"/><path d="M116.621 474.623v30.367a2.953 2.953 0 01-2.956 2.956h-27.33a2.953 2.953 0 01-2.956-2.956v-39.98a2.952 2.952 0 012.956-2.956h17.717l12.569 12.569z" fill="#23A566"/><path d="M107.268 484.901H92.732a.943.943 0 00-.944.943v12.659c0 .521.423.944.944.944h14.545a.944.944 0 00.944-.944v-12.65a.964.964 0 00-.953-.952zm-13.593 6.073h5.382v2.399h-5.382v-2.399zm7.268 0h5.382v2.399h-5.382v-2.399zm5.382-1.886h-5.382v-2.291h5.382v2.291zm-7.268-2.291v2.291h-5.382v-2.291h5.382zm-5.382 8.472h5.382v2.291h-5.382v-2.291zm7.268 2.291v-2.291h5.382v2.291h-5.382z" fill="#fff"/><path d="M105.741 474.165l10.88 8.814v-8.275l-6.172-3.585-4.708 3.046z" fill="#000" fill-opacity=".098"/><path d="M116.621 474.623h-9.613a2.953 2.953 0 01-2.956-2.956v-9.613l12.569 12.569z" fill="#8ED1B1"/></g><g filter="url(#filter32_d_22_547)"><rect x="40" y="40" width="120" height="120" rx="10" fill="#fff"/><path d="M91.905 107.035l-.386 7.636-7.089 5.382L77 106.954l15.507-27.007 7.26 4.986.242 8.077-.072.036-8.032 13.989z" fill="#1EA362"/><path d="M107.493 79.947L123 106.954l-8.364 4.231-6.622-4.186v-.045l-8.005-13.944-7.502-13.063h14.986z" fill="#FFD837"/><path d="M123 106.954l-7.43 13.018-31.14.081 7.475-13.019 16.109-.035 14.986-.045z" fill="#4587F4"/><path d="M84.43 120.053l13.027-13.027-5.552.009-7.475 13.018z" fill="#3F73D9"/></g><g filter="url(#filter33_d_22_547)"><rect x="470" y="425" width="120" height="120" rx="10" fill="#fff"/><path d="M546.118 465.486h-31.841c-.988 0-1.797.808-1.797 1.797v5.974h35.426v-5.974a1.789 1.789 0 00-1.788-1.797zm-24.518 3.603a.863.863 0 110-1.726.863.863 0 010 1.726zm17.42 0a.863.863 0 11.002-1.726.863.863 0 01-.002 1.726z" fill="#C4C4C4"/><path d="M550.574 473.679l-2.713 14.169 1.114 14.734a1.866 1.866 0 01-1.86 2.004h-33.826a1.866 1.866 0 01-1.86-2.004l1.114-14.734-2.722-14.169a2.164 2.164 0 012.12-2.569h36.495a2.167 2.167 0 012.138 2.569z" fill="#3765D0"/><path d="M547.106 504.586h-33.817a1.866 1.866 0 01-1.86-2.003l1.114-14.735h35.309l1.114 14.735a1.865 1.865 0 01-1.86 2.003z" fill="#4687F4"/><path d="M547.106 504.586h-21.868c-1.087 0-3.719-1.078-3.638-2.156l-9.057-14.582h35.309l1.114 14.735a1.865 1.865 0 01-1.86 2.003z" fill="url(#paint5_linear_22_547)"/><path d="M529.506 484.021c0-2.767-2.318-5.014-5.157-5.014s-5.157 2.247-5.157 5.014h1.716c0-1.815 1.545-3.298 3.441-3.298s3.441 1.483 3.441 3.298-1.545 3.297-3.441 3.297h-1.608v1.716h1.608c1.896 0 3.441 1.482 3.441 3.297 0 1.815-1.545 3.298-3.441 3.298s-3.441-1.483-3.441-3.298h-1.716c0 2.767 2.318 5.014 5.157 5.014s5.157-2.247 5.157-5.014c0-1.725-.898-3.252-2.273-4.16 1.375-.898 2.273-2.416 2.273-4.15zm3.342-2.085l.89 1.483 3.396-2.04v15.112h1.716v-18.139l-6.002 3.584z" fill="#fff"/></g><g filter="url(#filter34_d_22_547)"><rect x="470" y="40" width="120" height="120" rx="10" fill="#fff"/><path d="M546.657 89.596v30.439a2.968 2.968 0 01-2.965 2.965h-27.384a2.968 2.968 0 01-2.965-2.965v-40.07A2.968 2.968 0 01516.308 77h17.753l12.596 12.596z" fill="#744ABD"/><path d="M523.801 100.153h14.716v1.896h-14.716v-1.896zm-3.342 2.003a1.06 1.06 0 100-2.12 1.06 1.06 0 000 2.12zm3.342 3.387h14.716v1.896h-14.716v-1.896zm-3.342 2.004a1.06 1.06 0 10-.001-2.121 1.06 1.06 0 00.001 2.121zm3.342 3.387h14.716v1.896h-14.716v-1.896zm-3.342 2.004a1.06 1.06 0 10-.001-2.121 1.06 1.06 0 00.001 2.121z" fill="#fff"/><path d="M535.777 89.165l10.88 8.813v-8.274l-6.172-3.585-4.708 3.046z" fill="#000" fill-opacity=".098"/><path d="M546.657 89.596h-9.631a2.968 2.968 0 01-2.965-2.965V77l12.596 12.596z" fill="#B7A2DD"/></g></g><defs><filter id="filter0_f_22_547" x="-621.286" y="-337.041" width="2209.83" height="2209.83" filterUnits="userSpaceOnUse" color-interpolation-filters="sRGB"><feFlood flood-opacity="0" result="BackgroundImageFix"/><feBlend in="SourceGraphic" in2="BackgroundImageFix" result="shape"/><feGaussianBlur stdDeviation="276.229" result="effect1_foregroundBlur_22_547"/></filter><filter id="filter1_f_22_547" x="-2100" y="-746.157" width="2209.83" height="2209.83" filterUnits="userSpaceOnUse" color-interpolation-filters="sRGB"><feFlood flood-opacity="0" result="BackgroundImageFix"/><feBlend in="SourceGraphic" in2="BackgroundImageFix" result="shape"/><feGaussianBlur stdDeviation="276.229" result="effect1_foregroundBlur_22_547"/></filter><filter id="filter2_f_22_547" x="-1633.17" y="-117.567" width="1909.79" height="1909.79" filterUnits="userSpaceOnUse" color-interpolation-filters="sRGB"><feFlood flood-opacity="0" result="BackgroundImageFix"/><feBlend in="SourceGraphic" in2="BackgroundImageFix" result="shape"/><feGaussianBlur stdDeviation="276.229" result="effect1_foregroundBlur_22_547"/></filter><filter id="filter3_f_22_547" x="-259.48" y="-1032.45" width="2209.83" height="2209.83" filterUnits="userSpaceOnUse" color-interpolation-filters="sRGB"><feFlood flood-opacity="0" result="BackgroundImageFix"/><feBlend in="SourceGraphic" in2="BackgroundImageFix" result="shape"/><feGaussianBlur stdDeviation="276.229" result="effect1_foregroundBlur_22_547"/></filter><filter id="filter4_f_22_547" x="-1107.04" y="-89.267" width="2028.85" height="2028.85" filterUnits="userSpaceOnUse" color-interpolation-filters="sRGB"><feFlood flood-opacity="0" result="BackgroundImageFix"/><feBlend in="SourceGraphic" in2="BackgroundImageFix" result="shape"/><feGaussianBlur stdDeviation="276.229" result="effect1_foregroundBlur_22_547"/></filter><filter id="filter5_f_22_547" x="-165.73" y="3.908" width="1267.19" height="983.164" filterUnits="userSpaceOnUse" color-interpolation-filters="sRGB"><feFlood flood-opacity="0" result="BackgroundImageFix"/><feBlend in="SourceGraphic" in2="BackgroundImageFix" result="shape"/><feGaussianBlur stdDeviation="30.652" result="effect1_foregroundBlur_22_547"/></filter><filter id="filter6_f_22_547" x="-110.698" y="-32.699" width="1377.73" height="1163.78" filterUnits="userSpaceOnUse" color-interpolation-filters="sRGB"><feFlood flood-opacity="0" result="BackgroundImageFix"/><feBlend in="SourceGraphic" in2="BackgroundImageFix" result="shape"/><feGaussianBlur stdDeviation="63.348" result="effect1_foregroundBlur_22_547"/></filter><filter id="filter7_f_22_547" x="-959.631" y="-1175.16" width="2028.85" height="2028.85" filterUnits="userSpaceOnUse" color-interpolation-filters="sRGB"><feFlood flood-opacity="0" result="BackgroundImageFix"/><feBlend in="SourceGraphic" in2="BackgroundImageFix" result="shape"/><feGaussianBlur stdDeviation="276.229" result="effect1_foregroundBlur_22_547"/></filter><filter id="filter8_f_22_547" x="-350.948" y="-517.82" width="2196.56" height="1209.35" filterUnits="userSpaceOnUse" color-interpolation-filters="sRGB"><feFlood flood-opacity="0" result="BackgroundImageFix"/><feBlend in="SourceGraphic" in2="BackgroundImageFix" result="shape"/><feGaussianBlur stdDeviation="73.82" result="effect1_foregroundBlur_22_547"/></filter><filter id="filter9_f_22_547" x="-536.716" y="-617.783" width="2120.36" height="1133.15" filterUnits="userSpaceOnUse" color-interpolation-filters="sRGB"><feFlood flood-opacity="0" result="BackgroundImageFix"/><feBlend in="SourceGraphic" in2="BackgroundImageFix" result="shape"/><feGaussianBlur stdDeviation="54.77" result="effect1_foregroundBlur_22_547"/></filter><filter id="filter10_f_22_547" x="-330.969" y="-1265.81" width="2209.83" height="2209.83" filterUnits="userSpaceOnUse" color-interpolation-filters="sRGB"><feFlood flood-opacity="0" result="BackgroundImageFix"/><feBlend in="SourceGraphic" in2="BackgroundImageFix" result="shape"/><feGaussianBlur stdDeviation="276.229" result="effect1_foregroundBlur_22_547"/></filter><filter id="filter11_f_22_547" x="69.191" y="-565.752" width="1790.72" height="1790.72" filterUnits="userSpaceOnUse" color-interpolation-filters="sRGB"><feFlood flood-opacity="0" result="BackgroundImageFix"/><feBlend in="SourceGraphic" in2="BackgroundImageFix" result="shape"/><feGaussianBlur stdDeviation="276.229" result="effect1_foregroundBlur_22_547"/></filter><filter id="filter12_f_22_547" x="-554.394" y="-483.584" width="1191" height="1030" filterUnits="userSpaceOnUse" color-interpolation-filters="sRGB"><feFlood flood-opacity="0" result="BackgroundImageFix"/><feBlend in="SourceGraphic" in2="BackgroundImageFix" result="shape"/><feGaussianBlur stdDeviation="150" result="effect1_foregroundBlur_22_547"/></filter><filter id="filter13_f_22_547" x="-905.95" y="-51.036" width="990.777" height="1069.1" filterUnits="userSpaceOnUse" color-interpolation-filters="sRGB"><feFlood flood-opacity="0" result="BackgroundImageFix"/><feBlend in="SourceGraphic" in2="BackgroundImageFix" result="shape"/><feGaussianBlur stdDeviation="124.268" result="effect1_foregroundBlur_22_547"/></filter><filter id="filter14_f_22_547" x="-1118.62" y="-50.526" width="1169.88" height="1063.92" filterUnits="userSpaceOnUse" color-interpolation-filters="sRGB"><feFlood flood-opacity="0" result="BackgroundImageFix"/><feBlend in="SourceGraphic" in2="BackgroundImageFix" result="shape"/><feGaussianBlur stdDeviation="67.105" result="effect1_foregroundBlur_22_547"/></filter><filter id="filter15_f_22_547" x="-1189.83" y="-262.959" width="1524.82" height="1578.88" filterUnits="userSpaceOnUse" color-interpolation-filters="sRGB"><feFlood flood-opacity="0" result="BackgroundImageFix"/><feBlend in="SourceGraphic" in2="BackgroundImageFix" result="shape"/><feGaussianBlur stdDeviation="166.519" result="effect1_foregroundBlur_22_547"/></filter><filter id="filter17_f_22_547" x="391.171" y="-196.361" width="881.637" height="732.564" filterUnits="userSpaceOnUse" color-interpolation-filters="sRGB"><feFlood flood-opacity="0" result="BackgroundImageFix"/><feBlend in="SourceGraphic" in2="BackgroundImageFix" result="shape"/><feGaussianBlur stdDeviation="4.971" result="effect1_foregroundBlur_22_547"/></filter><filter id="filter18_f_22_547" x="249.607" y="-359.626" width="1069.14" height="918.686" filterUnits="userSpaceOnUse" color-interpolation-filters="sRGB"><feFlood flood-opacity="0" result="BackgroundImageFix"/><feBlend in="SourceGraphic" in2="BackgroundImageFix" result="shape"/><feGaussianBlur stdDeviation="17.398" result="effect1_foregroundBlur_22_547"/></filter><filter id="filter19_f_22_547" x="71.879" y="-559.293" width="1339.73" height="1132.64" filterUnits="userSpaceOnUse" color-interpolation-filters="sRGB"><feFlood flood-opacity="0" result="BackgroundImageFix"/><feBlend in="SourceGraphic" in2="BackgroundImageFix" result="shape"/><feGaussianBlur stdDeviation="24.854" result="effect1_foregroundBlur_22_547"/></filter><filter id="filter20_f_22_547" x="93.415" y="-770.215" width="1486.7" height="1321.77" filterUnits="userSpaceOnUse" color-interpolation-filters="sRGB"><feFlood flood-opacity="0" result="BackgroundImageFix"/><feBlend in="SourceGraphic" in2="BackgroundImageFix" result="shape"/><feGaussianBlur stdDeviation="67.105" result="effect1_foregroundBlur_22_547"/></filter><filter id="filter21_f_22_547" x="-62.023" y="-1132.04" width="1922.4" height="1748.27" filterUnits="userSpaceOnUse" color-interpolation-filters="sRGB"><feFlood flood-opacity="0" result="BackgroundImageFix"/><feBlend in="SourceGraphic" in2="BackgroundImageFix" result="shape"/><feGaussianBlur stdDeviation="166.519" result="effect1_foregroundBlur_22_547"/></filter><filter id="filter22_f_22_547" x="-15.326" y="-756.129" width="1427.87" height="1342.38" filterUnits="userSpaceOnUse" color-interpolation-filters="sRGB"><feFlood flood-opacity="0" result="BackgroundImageFix"/><feBlend in="SourceGraphic" in2="BackgroundImageFix" result="shape"/><feGaussianBlur stdDeviation="77.046" result="effect1_foregroundBlur_22_547"/></filter><filter id="filter23_f_22_547" x="-858.49" y="516.064" width="1184.87" height="453.252" filterUnits="userSpaceOnUse" color-interpolation-filters="sRGB"><feFlood flood-opacity="0" result="BackgroundImageFix"/><feBlend in="SourceGraphic" in2="BackgroundImageFix" result="shape"/><feGaussianBlur stdDeviation="5.97" result="effect1_foregroundBlur_22_547"/></filter><filter id="filter24_f_22_547" x="-865.313" y="498.416" width="1198.51" height="477.723" filterUnits="userSpaceOnUse" color-interpolation-filters="sRGB"><feFlood flood-opacity="0" result="BackgroundImageFix"/><feBlend in="SourceGraphic" in2="BackgroundImageFix" result="shape"/><feGaussianBlur stdDeviation="9.382" result="effect1_foregroundBlur_22_547"/></filter><filter id="filter25_f_22_547" x="-879.242" y="465.711" width="1343.38" height="523.755" filterUnits="userSpaceOnUse" color-interpolation-filters="sRGB"><feFlood flood-opacity="0" result="BackgroundImageFix"/><feBlend in="SourceGraphic" in2="BackgroundImageFix" result="shape"/><feGaussianBlur stdDeviation="16.205" result="effect1_foregroundBlur_22_547"/></filter><filter id="filter26_f_22_547" x="-899.711" y="392.536" width="1395.42" height="617.4" filterUnits="userSpaceOnUse" color-interpolation-filters="sRGB"><feFlood flood-opacity="0" result="BackgroundImageFix"/><feBlend in="SourceGraphic" in2="BackgroundImageFix" result="shape"/><feGaussianBlur stdDeviation="26.44" result="effect1_foregroundBlur_22_547"/></filter><filter id="filter27_f_22_547" x="-30.409" y="285" width="951.841" height="809.413" filterUnits="userSpaceOnUse" color-interpolation-filters="sRGB"><feFlood flood-opacity="0" result="BackgroundImageFix"/><feBlend in="SourceGraphic" in2="BackgroundImageFix" result="shape"/><feGaussianBlur stdDeviation="75" result="effect1_foregroundBlur_22_547"/></filter><filter id="filter28_f_22_547" x="105.423" y="426.861" width="678.645" height="540.665" filterUnits="userSpaceOnUse" color-interpolation-filters="sRGB"><feFlood flood-opacity="0" result="BackgroundImageFix"/><feBlend in="SourceGraphic" in2="BackgroundImageFix" result="shape"/><feGaussianBlur stdDeviation="30.652" result="effect1_foregroundBlur_22_547"/></filter><filter id="filter29_f_22_547" x="98.533" y="375.453" width="799.594" height="695.655" filterUnits="userSpaceOnUse" color-interpolation-filters="sRGB"><feFlood flood-opacity="0" result="BackgroundImageFix"/><feBlend in="SourceGraphic" in2="BackgroundImageFix" result="shape"/><feGaussianBlur stdDeviation="63.348" result="effect1_foregroundBlur_22_547"/></filter><filter id="filter30_d_22_547" x="175" y="157" width="280" height="280" filterUnits="userSpaceOnUse" color-interpolation-filters="sRGB"><feFlood flood-opacity="0" result="BackgroundImageFix"/><feColorMatrix in="SourceAlpha" values="0 0 0 0 0 0 0 0 0 0 0 0 0 0 0 0 0 0 127 0" result="hardAlpha"/><feOffset dy="4"/><feGaussianBlur stdDeviation="20"/><feComposite in2="hardAlpha" operator="out"/><feColorMatrix values="0 0 0 0 0.37375 0 0 0 0 0.468687 0 0 0 0 0.8625 0 0 0 1 0"/><feBlend in2="BackgroundImageFix" result="effect1_dropShadow_22_547"/><feBlend in="SourceGraphic" in2="effect1_dropShadow_22_547" result="shape"/></filter><filter id="filter31_d_22_547" x="0" y="389" width="200" height="200" filterUnits="userSpaceOnUse" color-interpolation-filters="sRGB"><feFlood flood-opacity="0" result="BackgroundImageFix"/><feColorMatrix in="SourceAlpha" values="0 0 0 0 0 0 0 0 0 0 0 0 0 0 0 0 0 0 127 0" result="hardAlpha"/><feOffset dy="4"/><feGaussianBlur stdDeviation="20"/><feComposite in2="hardAlpha" operator="out"/><feColorMatrix values="0 0 0 0 0.37375 0 0 0 0 0.468687 0 0 0 0 0.8625 0 0 0 1 0"/><feBlend in2="BackgroundImageFix" result="effect1_dropShadow_22_547"/><feBlend in="SourceGraphic" in2="effect1_dropShadow_22_547" result="shape"/></filter><filter id="filter32_d_22_547" x="0" y="4" width="200" height="200" filterUnits="userSpaceOnUse" color-interpolation-filters="sRGB"><feFlood flood-opacity="0" result="BackgroundImageFix"/><feColorMatrix in="SourceAlpha" values="0 0 0 0 0 0 0 0 0 0 0 0 0 0 0 0 0 0 127 0" result="hardAlpha"/><feOffset dy="4"/><feGaussianBlur stdDeviation="20"/><feComposite in2="hardAlpha" operator="out"/><feColorMatrix values="0 0 0 0 0.37375 0 0 0 0 0.468687 0 0 0 0 0.8625 0 0 0 1 0"/><feBlend in2="BackgroundImageFix" result="effect1_dropShadow_22_547"/><feBlend in="SourceGraphic" in2="effect1_dropShadow_22_547" result="shape"/></filter><filter id="filter33_d_22_547" x="430" y="389" width="200" height="200" filterUnits="userSpaceOnUse" color-interpolation-filters="sRGB"><feFlood flood-opacity="0" result="BackgroundImageFix"/><feColorMatrix in="SourceAlpha" values="0 0 0 0 0 0 0 0 0 0 0 0 0 0 0 0 0 0 127 0" result="hardAlpha"/><feOffset dy="4"/><feGaussianBlur stdDeviation="20"/><feComposite in2="hardAlpha" operator="out"/><feColorMatrix values="0 0 0 0 0.37375 0 0 0 0 0.468687 0 0 0 0 0.8625 0 0 0 1 0"/><feBlend in2="BackgroundImageFix" result="effect1_dropShadow_22_547"/><feBlend in="SourceGraphic" in2="effect1_dropShadow_22_547" result="shape"/></filter><filter id="filter34_d_22_547" x="430" y="4" width="200" height="200" filterUnits="userSpaceOnUse" color-interpolation-filters="sRGB"><feFlood flood-opacity="0" result="BackgroundImageFix"/><feColorMatrix in="SourceAlpha" values="0 0 0 0 0 0 0 0 0 0 0 0 0 0 0 0 0 0 127 0" result="hardAlpha"/><feOffset dy="4"/><feGaussianBlur stdDeviation="20"/><feComposite in2="hardAlpha" operator="out"/><feColorMatrix values="0 0 0 0 0.37375 0 0 0 0 0.468687 0 0 0 0 0.8625 0 0 0 1 0"/><feBlend in2="BackgroundImageFix" result="effect1_dropShadow_22_547"/><feBlend in="SourceGraphic" in2="effect1_dropShadow_22_547" result="shape"/></filter><linearGradient id="paint0_linear_22_547" x1="-308.428" y1="283.85" x2="-794.447" y2="209.522" gradientUnits="userSpaceOnUse"><stop stop-color="#C4C4C4"/><stop offset=".943" stop-color="#C4C4C4" stop-opacity="0"/></linearGradient><linearGradient id="paint1_linear_22_547" x1="-495.999" y1="40.501" x2="-624.283" y2="598.432" gradientUnits="userSpaceOnUse"><stop stop-color="#C4C4C4"/><stop offset="1" stop-color="#C4C4C4" stop-opacity="0"/></linearGradient><linearGradient id="paint2_linear_22_547" x1="993.865" y1="532.966" x2="557.569" y2="-217.951" gradientUnits="userSpaceOnUse"><stop stop-color="#C4C4C4"/><stop offset="1" stop-color="#C4C4C4" stop-opacity="0"/></linearGradient><linearGradient id="paint3_linear_22_547" x1="-238.819" y1="720.501" x2="-271.692" y2="867.682" gradientUnits="userSpaceOnUse"><stop stop-color="#C4C4C4"/><stop offset="1" stop-color="#C4C4C4" stop-opacity="0"/></linearGradient><linearGradient id="paint4_linear_22_547" x1="-830.243" y1="598.206" x2="326.691" y2="830.696" gradientUnits="userSpaceOnUse"><stop stop-color="#C4C4C4" stop-opacity="0"/><stop offset=".365" stop-color="#C4C4C4"/><stop offset=".609" stop-color="#C4C4C4"/><stop offset="1" stop-color="#C4C4C4" stop-opacity="0"/></linearGradient><linearGradient id="paint5_linear_22_547" x1="530.757" y1="504.586" x2="530.757" y2="487.848" gradientUnits="userSpaceOnUse"><stop offset=".076" stop-opacity="0"/><stop offset=".989" stop-opacity=".297"/><stop offset="1" stop-opacity=".3"/></linearGradient><clipPath id="clip0_22_547"><rect width="630" height="585" rx="20" fill="#fff"/></clipPath></defs></svg>