<svg width="630" height="585" fill="none" xmlns="http://www.w3.org/2000/svg"><g clip-path="url(#clip0_21_3101)"><rect y="27" width="630" height="585" rx="20" fill="#D9D9D9"/><mask id="a" style="mask-type:alpha" maskUnits="userSpaceOnUse" x="-736" y="-161" width="1582" height="1039"><path transform="rotate(179.988 845.606 877.333)" fill="#F5288F" d="M845.606 877.333h1581.17v1038.24H845.606z"/></mask><g mask="url(#a)"><g filter="url(#filter0_f_21_3101)"><circle cx="483.628" cy="767.873" r="552.457" transform="rotate(179.988 483.628 767.873)" fill="#7A8FFF"/></g><g filter="url(#filter1_f_21_3101)"><circle cx="-995.082" cy="358.757" r="552.457" transform="rotate(179.988 -995.082 358.757)" fill="#7A8FFF"/></g><g filter="url(#filter2_f_21_3101)"><circle cx="-678.274" cy="837.327" r="402.437" transform="rotate(179.988 -678.274 837.327)" fill="#6741FF"/></g><g filter="url(#filter3_f_21_3101)"><circle cx="845.435" cy="72.46" r="552.457" transform="rotate(179.988 845.435 72.46)" fill="#45DFF9"/></g><g filter="url(#filter4_f_21_3101)"><circle cx="-92.61" cy="925.159" r="461.969" transform="rotate(179.988 -92.61 925.159)" fill="#7A8FFF"/></g><path d="M778.899 910.686C226.568 809.124 57.825 423.613-201.454-44.227L973.955 337.424c119.095 224.941 246.805 654.511-195.056 573.262z" fill="#45DFF9"/><g filter="url(#filter5_f_21_3101)"><path d="M740.058 916.431c-552.33-101.562-585.205-383.379-844.484-851.22L919.115 303.17c119.095 224.94 262.805 694.51-179.057 613.261z" fill="#45DFF9"/></g><g filter="url(#filter6_f_21_3101)"><path d="M820.354 996.478C266.466 901.509 259.132 623.245 15.998 93.996L1040.43 327.373c111.27 254.691 223.04 745.077-220.076 669.105z" fill="#45DFF9"/></g><g filter="url(#filter7_f_21_3101)"><circle cx="54.795" cy="-160.737" r="461.969" transform="rotate(179.988 54.795 -160.737)" fill="#7A8FFF"/></g><path d="M1215.61 426.664C374.65 488.852-16.877-7.12-571.19-588.317l1852.48 108.113c258.43 281.56 607.08 857.118-65.68 906.868z" fill="#45DFF9"/><g filter="url(#filter8_f_21_3101)"><path d="M1308.3 536.688c-840.958 62.188-957.295-282.703-1511.608-863.9L1373.99-370.18c258.42 281.56 607.08 857.117-65.69 906.868z" fill="#B843FF"/></g><g filter="url(#filter9_f_21_3101)"><path d="M1084.43 398.624C243.474 460.812 127.136 115.922-427.177-465.275l1577.297-42.969c258.42 281.56 607.08 857.117-65.69 906.868z" fill="#B843FF"/></g><g filter="url(#filter10_f_21_3101)"><circle cx="773.945" cy="-160.892" r="552.457" transform="rotate(179.988 773.945 -160.892)" fill="#7A8FFF"/></g><g filter="url(#filter11_f_21_3101)"><path d="M621.648 329.684c-.041-189.381 153.45-342.938 342.831-342.978 189.381-.041 342.941 153.449 342.981 342.831.04 189.381-153.45 342.937-342.833 342.978-189.381.041-342.938-153.45-342.979-342.831z" fill="#45DFF9"/></g><g filter="url(#filter12_f_21_3101)"><ellipse cx="41.106" cy="31.416" rx="295.5" ry="215" transform="rotate(-180 41.106 31.416)" fill="#45E0F9"/></g></g><g filter="url(#filter13_f_21_3101)"><ellipse cx="-410.562" cy="483.514" rx="207.578" ry="315.612" transform="rotate(-34.19 -410.562 483.514)" fill="#6741FF"/></g><mask id="b" style="mask-type:alpha" maskUnits="userSpaceOnUse" x="-1190" y="-211" width="1539" height="1214"><path d="M227.837 1002.75L348.926 73.498l-858.539-283.906-254.879.636-424.568 514.458 31.77 417.611 743.678 177.052 641.449 103.401z" fill="url(#paint0_linear_21_3101)"/></mask><g mask="url(#b)"><mask id="c" style="mask-type:alpha" maskUnits="userSpaceOnUse" x="-1220" y="-271" width="1606" height="1281"><path d="M-1219.78 688.691c100.56-419.902 275.414-937.789 279.038-959.031L385.888 51.431 236.071 1009.58-1219.78 688.691z" fill="url(#paint1_linear_21_3101)"/></mask><g mask="url(#c)"><g filter="url(#filter14_f_21_3101)"><path d="M-434.866 126.566c225.789 53.754 384.985 319.385 346.05 482.929-38.936 163.543-199.004 312.255-424.792 258.5-111.889-26.638-262.603 3.433-376.147-109.656-115.585-115.121-100.839-469.938-81.198-552.437 38.936-163.544 310.299-133.091 536.087-79.336z" fill="#6741FF"/></g><g filter="url(#filter15_f_21_3101)"><path d="M-346.403 216.607c233.331 55.55 381.725 323.802 341.902 491.074-39.824 167.273-204.793 319.079-438.124 263.527-115.627-27.528-234.397-294.927-351.94-410.93-119.655-118.088-33.543-338.657-13.454-423.038 39.824-167.272 228.285 23.816 461.616 79.367z" fill="#6741FF"/></g><path d="M-507.509 150.149c203.069 52.997 320.671 317.868 277.251 484.243-43.421 166.375-196.466 318.544-399.536 265.547-100.63-26.262-234.365-13.893-332.3-127.947-99.696-116.102-12.801-335.795 9.103-419.723 43.42-166.375 242.412-255.117 445.482-202.12z" fill="#6741FF"/></g></g><mask id="d" style="mask-type:alpha" maskUnits="userSpaceOnUse" x="-241" y="-940" width="2296" height="2068"><path d="M-240.675 87.92c279.839 446.554 636.909 1016.15 649.079 1039.5L2054.61 99.496 1405.53-940-240.675 87.92z" fill="url(#paint2_linear_21_3101)"/></mask><g mask="url(#d)"><path d="M1060.99 466.336c185.67-115.936 241.82-373.502 152.2-517.027-89.62-143.524-282.392-284.943-481.6-160.554-98.718 61.641-278.487 40.542-351.144 185.249-73.961 147.306 75.416 326.104 120.624 398.505 89.619 143.525 374.251 209.763 559.92 93.827z" fill="#6741FF"/><g filter="url(#filter17_f_21_3101)"><path d="M1051.09 455.433C1250.22 331.095 1306.8 104.5 1229.77-18.869c-77.03-123.369-253.257-238.356-452.384-114.018-98.678 61.616-271.989 50.752-350.864 185.392-80.293 137.058 51.908 288.373 90.768 350.607 77.033 123.369 334.673 176.66 533.8 52.321z" fill="#6741FF"/></g><g filter="url(#filter18_f_21_3101)"><path d="M1057.12 451.664c223.18-139.359 276.98-408.75 182-560.848-94.97-152.099-303.81-299.122-526.993-159.763-110.598 69.06-319.689 33.112-403.795 190.902-85.616 160.625 82.364 361.942 130.273 438.668 94.973 152.099 395.334 230.4 618.515 91.041z" fill="#6741FF"/></g><g filter="url(#filter19_f_21_3101)"><path d="M1071.63 417.567c252.26-209.367 357.32-549.16 246.17-727.172-111.16-178.012-371.175-283.123-638.839-115.989-132.64 82.823-424.296-4.721-526.532 182.326C48.356-52.861 236.433 167.148 292.505 256.946c111.153 178.012 486.904 403.161 779.125 160.621z" fill="#6741FF"/></g><g filter="url(#filter20_f_21_3101)"><path d="M1119.49 287.555c288.2-179.959 393.1-564.236 284.43-738.279-108.68-174.043-376.75-268.163-664.957-88.204C596.144-449.749 381.26-407.891 265.697-215.27 148.059-19.188 335.555 193.661 390.376 281.457c108.676 174.044 440.906 186.057 729.114 6.098z" fill="#6741FF"/></g><g filter="url(#filter21_f_21_3101)"><path d="M1188.28 148.042c297.83-185.971 407.75-580.653 296.6-758.664-111.15-178.012-386.94-273.281-684.767-87.31-147.591 92.158-369.213 136.119-489.21 334.256-122.154 201.697 70.034 419.14 126.106 508.938 111.153 178.011 453.437 188.752 751.271 2.78z" fill="#6741FF"/></g><g filter="url(#filter22_f_21_3101)"><path d="M981.944 316.226C1242.55 153.501 1320.42-221.168 1209.27-399.18c-111.16-178.012-367.486-285.427-628.089-122.702-129.142 80.638-315.511 131.196-413.59 315.647-99.84 187.764 87.274 408.375 143.346 498.173C422.09 469.95 721.341 478.951 981.944 316.226z" fill="#6741FF"/></g></g><mask id="e" style="mask-type:alpha" maskUnits="userSpaceOnUse" x="-888" y="298" width="1299" height="789"><path d="M368.042 1086.09l42.522-433.608-1280.787-353.814-17.658 489.569L368.042 1086.09z" fill="url(#paint3_linear_21_3101)"/></mask><g mask="url(#e)"><mask id="f" style="mask-type:alpha" maskUnits="userSpaceOnUse" x="-851" y="276" width="1268" height="866"><path d="M416.606 542.581l-87.447 599.369-1179.845-339.88 64.352-525.593 1202.94 266.104z" fill="url(#paint4_linear_21_3101)"/></mask><g mask="url(#f)"><path d="M-424.592 605.116c183.019 178.057 389.98 187.815 538.904 178.8l121.996 1.069 78.128 16.418-128.001 155.973-225.57-21.211-506.621-135.063s-393.708-233.977-280.265-236.171c96.956-13.812 211.488-95.398 401.429 40.185z" fill="#5B0EFF"/><g filter="url(#filter23_f_21_3101)"><path d="M-424.592 605.116c196.617 154.141 199.11 167.291 461.33 182.356l199.57-2.487 78.128 16.418-128.001 155.973-225.57-21.211-506.621-135.063s-393.708-233.977-280.265-236.171c96.956-13.812 211.488-95.398 401.429 40.185z" fill="#5B0EFF"/></g><g filter="url(#filter24_f_21_3101)"><path d="M-424.592 605.116c261.147 242.217 264.345 158.124 526.565 173.189l75.975-2.146 79.22 8.634 57.268 16.61-128.001 155.973-225.57-21.211-506.621-135.063s-393.708-233.977-280.265-236.171c96.956-13.812 210.397-121.15 401.429 40.185z" fill="#5B0EFF"/></g><g filter="url(#filter25_f_21_3101)"><path d="M-472.032 576.438c261.147 242.217 287.844 317.021 611.794 201.537l75.975-2.146 120.938 8.253 95.056 16.28-245.578 156.694-225.57-21.211-506.621-135.063s-393.708-233.977-280.265-236.171c96.956-13.812 163.239-149.508 354.271 11.827z" fill="#5B0EFF"/></g><g filter="url(#filter26_f_21_3101)"><path d="M-478.737 563.021c174.234 235.813 326.24 283.192 566.044 208.313l314.017-87.408 41.501 65.171-11.094 51.265-245.578 156.694-225.57-21.211-506.621-135.063s-393.708-233.977-280.265-236.171c96.956-13.812 119.777-260.125 347.566-1.59z" fill="#5B0EFF"/></g></g></g><path d="M60 97c0-5.523 4.477-10 10-10h550c5.523 0 10 4.477 10 10v505c0 5.523-4.477 10-10 10H60V97z" fill="#F6F7FB"/><path d="M60 66a6 6 0 016-6h558a6 6 0 016 6v44H60V66z" fill="#DDEAF3"/><path fill-rule="evenodd" clip-rule="evenodd" d="M83.5 89a3.5 3.5 0 100-7 3.5 3.5 0 000 7zm10 0a3.5 3.5 0 100-7 3.5 3.5 0 000 7zm13.5-3.5a3.5 3.5 0 11-7 0 3.5 3.5 0 017 0z" fill="#F6F7FB"/><path d="M239.022 202.34v-2.525h2.052c1.547 0 2.611-.859 2.611-2.138 0-1.267-.978-2.051-2.568-2.051-1.611 0-2.664.859-2.75 2.223h-2.997c.108-2.922 2.353-4.748 5.833-4.748 3.319 0 5.575 1.708 5.575 4.201 0 1.75-1.181 3.179-2.922 3.544v.086c2.095.237 3.416 1.708 3.416 3.782 0 2.717-2.578 4.683-6.144 4.683-3.545 0-5.962-1.901-6.102-4.802h3.105c.097 1.332 1.267 2.181 3.029 2.181 1.665 0 2.782-.924 2.782-2.277 0-1.354-1.063-2.159-2.836-2.159h-2.084zm14.61 4.576c1.364 0 2.492-.892 2.492-2.138v-.838l-2.428.151c-1.171.086-1.837.612-1.837 1.428 0 .86.709 1.397 1.773 1.397zm-1.031 2.266c-2.192 0-3.857-1.418-3.857-3.491 0-2.095 1.611-3.308 4.48-3.48l2.9-.172v-.763c0-1.074-.752-1.697-1.934-1.697-1.17 0-1.912.58-2.062 1.429h-2.868c.118-2.235 2.019-3.771 5.07-3.771 2.954 0 4.877 1.525 4.877 3.846V209h-3.029v-1.762h-.065c-.644 1.225-2.073 1.944-3.512 1.944zm15.554-11.88c2.922 0 4.716 2.223 4.716 5.94 0 3.706-1.783 5.94-4.662 5.94-1.676 0-2.965-.816-3.577-2.116h-.065v5.694h-3.136v-15.276h3.093v2.009h.065c.623-1.354 1.901-2.191 3.566-2.191zm-1.052 9.356c1.568 0 2.556-1.321 2.556-3.416 0-2.084-.988-3.427-2.556-3.427-1.537 0-2.546 1.364-2.546 3.427 0 2.084 1.009 3.416 2.546 3.416zm12.793-7.101c-1.375 0-2.363 1.042-2.47 2.482h4.887c-.064-1.472-1.02-2.482-2.417-2.482zm2.46 5.919h2.879c-.343 2.256-2.406 3.771-5.253 3.771-3.544 0-5.671-2.267-5.671-5.951 0-3.674 2.148-6.059 5.553-6.059 3.352 0 5.468 2.267 5.468 5.769v.956h-7.938v.193c0 1.644 1.042 2.772 2.642 2.772 1.15 0 2.03-.57 2.32-1.451zm12.816-5.629h-4.899V209h-3.126v-11.516h8.025v2.363zM300.06 209h-3.073v-11.516h3.073v7.197h.086l4.576-7.197h3.072V209h-3.072v-7.283h-.086L300.06 209zm20.356-7.584h-2.933c-.257-.999-1.009-1.719-2.202-1.719-1.547 0-2.503 1.332-2.503 3.534 0 2.245.956 3.556 2.514 3.556 1.171 0 1.944-.634 2.213-1.719h2.922c-.28 2.546-2.245 4.179-5.167 4.179-3.459 0-5.64-2.278-5.64-6.016 0-3.674 2.181-5.994 5.618-5.994 2.965 0 4.877 1.762 5.178 4.179zm10.807-3.932v2.363h-3.427V209h-3.126v-9.153h-3.438v-2.363h9.991zm8.325-.182c2.922 0 4.716 2.223 4.716 5.94 0 3.706-1.784 5.94-4.662 5.94-1.676 0-2.965-.816-3.578-2.116h-.064v5.694h-3.137v-15.276h3.094v2.009h.064c.623-1.354 1.902-2.191 3.567-2.191zm-1.053 9.356c1.568 0 2.557-1.321 2.557-3.416 0-2.084-.989-3.427-2.557-3.427-1.536 0-2.546 1.364-2.546 3.427 0 2.084 1.01 3.416 2.546 3.416zM349.194 209h-3.072v-11.516h3.072v7.197h.086l4.576-7.197h3.073V209h-3.073v-7.283h-.085L349.194 209zm16.715-11.698c2.922 0 4.716 2.223 4.716 5.94 0 3.706-1.783 5.94-4.662 5.94-1.676 0-2.965-.816-3.577-2.116h-.065v5.694h-3.136v-15.276h3.093v2.009h.065c.623-1.354 1.901-2.191 3.566-2.191zm-1.053 9.356c1.569 0 2.557-1.321 2.557-3.416 0-2.084-.988-3.427-2.557-3.427-1.536 0-2.545 1.364-2.545 3.427 0 2.084 1.009 3.416 2.545 3.416zm12.913 2.589c-3.481 0-5.705-2.235-5.705-6.016 0-3.727 2.256-5.994 5.705-5.994 3.448 0 5.704 2.256 5.704 5.994 0 3.792-2.224 6.016-5.704 6.016zm0-2.396c1.536 0 2.513-1.299 2.513-3.609 0-2.288-.988-3.609-2.513-3.609-1.526 0-2.525 1.321-2.525 3.609 0 2.31.978 3.609 2.525 3.609zm12.45-7.38h-1.859v2.675h1.698c1.149 0 1.772-.483 1.772-1.353 0-.838-.58-1.322-1.611-1.322zm0 4.491h-1.859v3.05h1.998c1.225 0 1.902-.537 1.902-1.536s-.709-1.514-2.041-1.514zM385.288 209v-11.516h5.769c2.395 0 3.835 1.085 3.835 2.901 0 1.235-.903 2.309-2.084 2.492v.086c1.536.182 2.599 1.256 2.599 2.707 0 2.019-1.633 3.33-4.243 3.33h-5.876zm16.457-2.084c1.364 0 2.492-.892 2.492-2.138v-.838l-2.427.151c-1.171.086-1.837.612-1.837 1.428 0 .86.709 1.397 1.772 1.397zm-1.031 2.266c-2.192 0-3.857-1.418-3.857-3.491 0-2.095 1.612-3.308 4.48-3.48l2.9-.172v-.763c0-1.074-.752-1.697-1.933-1.697-1.171 0-1.912.58-2.063 1.429h-2.868c.118-2.235 2.02-3.771 5.07-3.771 2.954 0 4.877 1.525 4.877 3.846V209h-3.029v-1.762h-.064c-.645 1.225-2.074 1.944-3.513 1.944zm18.057-11.698v2.363h-3.426V209h-3.126v-9.153h-3.438v-2.363h9.99zm6.457 5.64h-1.73v3.534h1.73c1.138 0 1.869-.72 1.869-1.773 0-1.052-.742-1.761-1.869-1.761zM420.372 209v-11.516h3.126v3.33h2.245c2.718 0 4.458 1.59 4.458 4.093s-1.74 4.093-4.458 4.093h-5.371zm21.946-7.584h-2.932c-.258-.999-1.01-1.719-2.202-1.719-1.547 0-2.503 1.332-2.503 3.534 0 2.245.956 3.556 2.513 3.556 1.171 0 1.945-.634 2.213-1.719h2.922c-.279 2.546-2.245 4.179-5.167 4.179-3.459 0-5.64-2.278-5.64-6.016 0-3.674 2.181-5.994 5.619-5.994 2.964 0 4.877 1.762 5.177 4.179zm6.36 1.665h1.88v-3.266h-1.88c-1.107 0-1.805.655-1.805 1.676 0 .924.709 1.59 1.805 1.59zm1.88 5.919v-3.717h-1.257L446.744 209h-3.48l3.029-4.19c-1.568-.494-2.535-1.675-2.535-3.33 0-2.449 1.815-3.996 4.608-3.996h5.253V209h-3.061z" fill="#1F2128"/><rect x="155.5" y="250.5" width="379" height="65" rx="4.5" stroke="#E8EAF1"/><path d="M187.437 291v-12.332h-.172L178.886 291h-1.912v-15.501h1.912v12.375h.172l8.379-12.375h1.912V291h-1.912zm9.356-9.657h-2.675v3.126h2.396c1.407 0 2.084-.516 2.084-1.59 0-.989-.634-1.536-1.805-1.536zm-.129 4.629h-2.546v3.513h2.879c1.354 0 2.084-.612 2.084-1.74 0-1.193-.784-1.773-2.417-1.773zM192.271 291v-11.172h4.78c2.095 0 3.373 1.085 3.373 2.857 0 1.139-.806 2.192-1.837 2.407v.085c1.407.194 2.331 1.214 2.331 2.611 0 1.976-1.461 3.212-3.835 3.212h-4.812zm14.48-1.397c1.762 0 3.115-1.235 3.115-2.846v-.913l-2.986.182c-1.504.097-2.363.763-2.363 1.816 0 1.063.891 1.761 2.234 1.761zm-.419 1.59c-2.224 0-3.717-1.343-3.717-3.351 0-1.913 1.472-3.116 4.05-3.266l3.201-.183v-.934c0-1.365-.902-2.181-2.449-2.181-1.439 0-2.342.677-2.578 1.773h-1.805c.129-1.934 1.783-3.416 4.426-3.416 2.621 0 4.275 1.417 4.275 3.641V291h-1.772v-1.923h-.043c-.666 1.278-2.084 2.116-3.588 2.116zm15.34-.193v-5.028h-5.511V291h-1.848v-11.172h1.848v4.608h5.511v-4.608h1.848V291h-1.848zm21.441 0h-1.912v-13.74h-8.293V291h-1.944v-15.501h12.149V291zm7.423-9.743c-1.751 0-2.975 1.342-3.094 3.201h6.07c-.043-1.869-1.214-3.201-2.976-3.201zm2.933 6.542h1.837c-.323 1.955-2.213 3.394-4.652 3.394-3.201 0-5.145-2.224-5.145-5.736 0-3.47 1.976-5.822 5.059-5.822 3.019 0 4.877 2.191 4.877 5.575v.709h-8.013v.107c0 2.138 1.256 3.545 3.265 3.545 1.418 0 2.46-.72 2.772-1.772zm11.795-7.971v1.536h-3.61V291h-1.847v-9.636h-3.61v-1.536h9.067zm7.165-.193c2.846 0 4.78 2.277 4.78 5.779s-1.923 5.779-4.737 5.779c-1.601 0-2.89-.784-3.556-2.009h-.043v5.543h-1.869v-14.899h1.772v1.891h.043c.688-1.257 1.988-2.084 3.61-2.084zm-.366 9.915c1.988 0 3.234-1.601 3.234-4.136 0-2.525-1.246-4.136-3.234-4.136-1.912 0-3.201 1.654-3.201 4.136 0 2.492 1.289 4.136 3.201 4.136zm11.86 1.643c-3.094 0-5.178-2.224-5.178-5.779 0-3.567 2.084-5.779 5.178-5.779 3.083 0 5.167 2.212 5.167 5.779 0 3.555-2.084 5.779-5.167 5.779zm0-1.643c1.976 0 3.265-1.504 3.265-4.136s-1.289-4.136-3.265-4.136c-1.977 0-3.277 1.504-3.277 4.136s1.3 4.136 3.277 4.136zm11.763-8.207h-2.675v3.126h2.395c1.407 0 2.084-.516 2.084-1.59 0-.989-.634-1.536-1.804-1.536zm-.129 4.629h-2.546v3.513h2.879c1.353 0 2.084-.612 2.084-1.74 0-1.193-.785-1.773-2.417-1.773zM291.163 291v-11.172h4.78c2.095 0 3.373 1.085 3.373 2.857 0 1.139-.805 2.192-1.837 2.407v.085c1.408.194 2.332 1.214 2.332 2.611 0 1.976-1.461 3.212-3.835 3.212h-4.813z" fill="#1F2128"/><rect x="155.5" y="326.5" width="379" height="65" rx="4.5" stroke="#E8EAF1"/><path d="M176.687 367v-11.172h1.869V367h-1.869zm.934-13.052c-.634 0-1.16-.526-1.16-1.16 0-.645.526-1.16 1.16-1.16.645 0 1.171.515 1.171 1.16a1.17 1.17 0 01-1.171 1.16zm12.622 1.88L186.14 367h-1.912l-4.115-11.172h1.966l3.083 9.184h.043l3.094-9.184h1.944zm4.942 9.775c1.761 0 3.115-1.235 3.115-2.846v-.913l-2.987.182c-1.503.097-2.363.763-2.363 1.816 0 1.063.892 1.761 2.235 1.761zm-.419 1.59c-2.224 0-3.717-1.343-3.717-3.351 0-1.913 1.472-3.116 4.05-3.266l3.201-.183v-.934c0-1.365-.903-2.181-2.449-2.181-1.44 0-2.342.677-2.579 1.773h-1.804c.129-1.934 1.783-3.416 4.426-3.416 2.621 0 4.275 1.417 4.275 3.641V367h-1.773v-1.923h-.042c-.666 1.278-2.084 2.116-3.588 2.116zm7.777-.193v-11.172h1.762v1.783h.043c.623-1.203 1.815-1.976 3.545-1.976 2.449 0 3.867 1.579 3.867 4.114V367h-1.869v-6.918c0-1.805-.849-2.793-2.568-2.793-1.761 0-2.911 1.246-2.911 3.137V367h-1.869zm17.026-11.365c2.847 0 4.781 2.277 4.781 5.779s-1.923 5.779-4.738 5.779c-1.6 0-2.889-.784-3.555-2.009h-.043v5.543h-1.869v-14.899h1.772v1.891h.043c.687-1.257 1.987-2.084 3.609-2.084zm-.365 9.915c1.987 0 3.234-1.601 3.234-4.136 0-2.525-1.247-4.136-3.234-4.136-1.912 0-3.201 1.654-3.201 4.136 0 2.492 1.289 4.136 3.201 4.136zm11.516-8.293c-1.751 0-2.976 1.342-3.094 3.201h6.069c-.043-1.869-1.214-3.201-2.975-3.201zm2.932 6.542h1.837c-.322 1.955-2.213 3.394-4.651 3.394-3.201 0-5.146-2.224-5.146-5.736 0-3.47 1.977-5.822 5.06-5.822 3.019 0 4.877 2.191 4.877 5.575v.709h-8.014v.107c0 2.138 1.257 3.545 3.266 3.545 1.418 0 2.46-.72 2.771-1.772zm4.469-10.667h1.869v2.696h2.17v1.536h-2.17v6.639c0 1.02.43 1.482 1.386 1.482.215 0 .645-.032.773-.054V367c-.225.053-.741.086-1.181.086-2.052 0-2.847-.838-2.847-2.987v-6.735h-1.665v-1.536h1.665v-2.696zM244.158 367v-11.172h1.762v1.826h.043c.365-1.235 1.396-2.019 2.707-2.019.322 0 .601.053.752.075v1.815c-.151-.054-.548-.107-.999-.107-1.45 0-2.396 1.042-2.396 2.621V367h-1.869zm10.882.193c-3.094 0-5.178-2.224-5.178-5.779 0-3.567 2.084-5.779 5.178-5.779 3.083 0 5.167 2.212 5.167 5.779 0 3.555-2.084 5.779-5.167 5.779zm0-1.643c1.977 0 3.266-1.504 3.266-4.136s-1.289-4.136-3.266-4.136-3.276 1.504-3.276 4.136 1.299 4.136 3.276 4.136zm15.898-9.722L266.835 367h-1.912l-4.114-11.172h1.965l3.083 9.184h.043l3.094-9.184h1.944zM273.345 367l7.014-13.74v-.042h-8.346v-1.719h10.258v1.794L275.375 367h-2.03zm11.043-11.032c0-2.708 2.191-4.727 5.113-4.727 2.771 0 4.952 1.88 4.952 4.254 0 1.729-.784 3.018-3.373 5.693l-3.921 4.05v.043h7.552V367h-10.227v-1.332l5.457-5.747c2.084-2.192 2.579-3.019 2.579-4.308 0-1.493-1.365-2.686-3.073-2.686-1.815 0-3.19 1.311-3.19 3.041v.01h-1.869v-.01zm20.85 1.632c-1.439 0-2.288 1.118-2.288 2.997 0 1.87.86 3.008 2.267 3.008 1.471 0 2.417-1.171 2.417-3.008s-.935-2.997-2.396-2.997zm.376-6.015c4.995 0 8.615 3.169 8.615 7.906 0 3.437-1.525 5.726-4.039 5.726-1.224 0-2.277-.731-2.406-1.805h-.086c-.462 1.085-1.461 1.708-2.728 1.708-2.235 0-3.739-1.837-3.739-4.566 0-2.61 1.537-4.436 3.739-4.436 1.149 0 2.191.601 2.599 1.515h.086v-1.311h1.622v6.306c0 .698.387 1.192 1.214 1.192 1.279 0 2.224-1.568 2.224-4.351 0-3.899-2.965-6.531-7.24-6.531-4.179 0-7.219 3.18-7.219 7.67 0 4.866 3.244 7.541 7.562 7.541 1.44 0 2.901-.204 3.599-.515v1.353c-.945.333-2.234.526-3.62.526-5.242 0-9.056-3.19-9.056-8.969 0-5.361 3.653-8.959 8.873-8.959zm11.462 19.593c-.225 0-.601-.021-.805-.064v-1.568c.204.043.494.053.73.053 1.042 0 1.622-.505 2.052-1.804l.258-.785-4.125-11.182h1.998l3.093 9.303h.033l3.093-9.303h1.966l-4.393 11.956c-.956 2.61-1.88 3.394-3.9 3.394zm13.245-5.575c1.762 0 3.116-1.235 3.116-2.846v-.913l-2.987.182c-1.504.097-2.363.763-2.363 1.816 0 1.063.892 1.761 2.234 1.761zm-.419 1.59c-2.223 0-3.716-1.343-3.716-3.351 0-1.913 1.471-3.116 4.049-3.266l3.202-.183v-.934c0-1.365-.903-2.181-2.45-2.181-1.439 0-2.341.677-2.578 1.773h-1.805c.129-1.934 1.784-3.416 4.426-3.416 2.621 0 4.276 1.417 4.276 3.641V367h-1.773v-1.923h-.043c-.666 1.278-2.084 2.116-3.588 2.116zm7.778-.193v-11.172h1.761v1.783h.043c.623-1.203 1.816-1.976 3.545-1.976 2.45 0 3.867 1.579 3.867 4.114V367h-1.869v-6.918c0-1.805-.848-2.793-2.567-2.793-1.762 0-2.911 1.246-2.911 3.137V367h-1.869zm15.834.193c-2.847 0-4.781-2.277-4.781-5.779s1.923-5.779 4.738-5.779c1.6 0 2.889.784 3.555 2.008h.043v-6.144h1.869V367h-1.783v-1.891h-.032c-.72 1.289-1.998 2.084-3.609 2.084zm.354-9.915c-1.976 0-3.222 1.611-3.222 4.136 0 2.535 1.246 4.136 3.222 4.136 1.923 0 3.212-1.633 3.212-4.136 0-2.492-1.289-4.136-3.212-4.136zm12.074-.021c-1.751 0-2.975 1.342-3.093 3.201h6.069c-.043-1.869-1.214-3.201-2.976-3.201zm2.933 6.542h1.837c-.322 1.955-2.213 3.394-4.651 3.394-3.202 0-5.146-2.224-5.146-5.736 0-3.47 1.977-5.822 5.06-5.822 3.018 0 4.877 2.191 4.877 5.575v.709h-8.014v.107c0 2.138 1.257 3.545 3.266 3.545 1.417 0 2.459-.72 2.771-1.772zm7.605-1.053h-.042L373.741 367h-2.073l3.803-5.586-3.739-5.586h2.084l2.686 4.189h.043l2.653-4.189h2.084l-3.77 5.511 3.717 5.661h-2.074l-2.675-4.254zm7.96 4.361a1.21 1.21 0 01-1.224-1.224 1.21 1.21 0 011.224-1.225 1.21 1.21 0 011.225 1.225 1.21 1.21 0 01-1.225 1.224zm4.007-.107v-11.172h1.762v1.826h.043c.365-1.235 1.396-2.019 2.707-2.019.322 0 .602.053.752.075v1.815c-.15-.054-.548-.107-.999-.107-1.45 0-2.396 1.042-2.396 2.621V367h-1.869zm15.963-11.172V367h-1.772v-1.816h-.043c-.666 1.289-1.826 2.009-3.545 2.009-2.439 0-3.867-1.579-3.867-4.114v-7.251h1.869v6.918c0 1.815.848 2.793 2.578 2.793 1.815 0 2.911-1.246 2.911-3.148v-6.563h1.869z" fill="#1F2128"/><rect x="155.5" y="402.5" width="379" height="65" rx="4.5" stroke="#E8EAF1" stroke-dasharray="4 4"/><rect x="180.946" y="402.449" width="380" height="66" rx="5" transform="rotate(-3 180.946 402.449)" fill="#2C7BE5"/><path d="M286.866 437.955l-1.931.101-.369-7.048-8.496.445.369 7.048-1.931.101-.811-15.479 1.931-.102.351 6.694 8.496-.445-.351-6.694 1.931-.101.811 15.48zm6.535-1.741c1.759-.092 3.047-1.397 2.962-3.006l-.048-.912-2.972.339c-1.497.175-2.32.885-2.265 1.936.055 1.062.982 1.713 2.323 1.643zm-.335 1.609c-2.221.117-3.782-1.146-3.887-3.152-.1-1.91 1.307-3.188 3.873-3.473l3.187-.35-.048-.933c-.072-1.363-1.016-2.131-2.56-2.05-1.438.076-2.304.799-2.482 1.905l-1.802.095c.027-1.938 1.602-3.505 4.24-3.643 2.618-.138 4.344 1.192 4.461 3.413l.404 7.713-1.77.092-.101-1.92-.043.002c-.598 1.312-1.97 2.223-3.472 2.301zm16.467-1.056l-1.845.096-.252-4.816-.161.008c-.574.547-1.446.947-2.658 1.011-2.671.14-4.161-1.406-4.286-3.788l-.168-3.207 1.845-.097.167 3.186c.076 1.459.908 2.351 2.41 2.273 1.384-.073 2.269-.636 2.753-1.242l-.235-4.484 1.846-.097.584 11.157zm6.246-1.726c1.759-.092 3.046-1.397 2.962-3.006l-.048-.912-2.973.339c-1.497.175-2.32.885-2.265 1.937.056 1.062.983 1.712 2.324 1.642zm-.335 1.61c-2.221.116-3.782-1.147-3.888-3.153-.1-1.909 1.307-3.188 3.874-3.473l3.187-.35-.049-.933c-.071-1.362-1.015-2.131-2.56-2.05-1.437.076-2.303.799-2.482 1.905l-1.802.095c.028-1.938 1.602-3.505 4.241-3.643 2.617-.137 4.344 1.192 4.46 3.413l.404 7.713-1.77.093-.1-1.921-.043.003c-.598 1.311-1.971 2.222-3.472 2.301zm15.324-12.184l.081 1.534-3.605.189.505 9.622-1.846.097-.504-9.623-3.604.189-.081-1.534 9.054-.474zm5.921 4.799l-2.081.109.237 4.527 2.081-.109c1.448-.076 2.334-1.026 2.263-2.388-.072-1.373-1.063-2.214-2.5-2.139zm-3.609 6.267l-.585-11.157 1.846-.097.186 3.562 2.113-.111c2.554-.134 4.272 1.25 4.394 3.578.122 2.328-1.442 3.884-3.995 4.017l-3.959.208zm19.341-.82c-3.089.162-5.287-1.95-5.473-5.501-.187-3.561 1.779-5.88 4.868-6.042 3.079-.161 5.276 1.939 5.463 5.501.186 3.551-1.779 5.88-4.858 6.042zm-.086-1.642c1.974-.103 3.183-1.672 3.045-4.301-.138-2.628-1.504-4.062-3.478-3.959-1.974.104-3.193 1.674-3.055 4.302.137 2.628 1.514 4.062 3.488 3.958zm12.101 1.012c-3.422.179-5.345-2.022-5.577-6.452-.323-6.158 1.174-8.807 5.499-9.195l.824-.076c1.07-.109 2.261-.387 2.876-.753l.085 1.631c-.337.34-1.502.681-2.787.802l-.824.076c-3.094.28-3.945 1.691-4.221 5.051l.086-.005c.66-1.358 2.019-2.117 3.735-2.207 3.015-.158 5.046 1.865 5.221 5.191.183 3.508-1.688 5.768-4.917 5.937zm-.087-1.652c2.092-.11 3.228-1.621 3.094-4.185-.128-2.435-1.412-3.756-3.504-3.646-2.103.11-3.242 1.558-3.115 3.993.135 2.564 1.423 3.948 3.525 3.838zm8.202 5.218c-.226.011-.602.01-.808-.023l-.082-1.566c.206.032.496.028.732.016 1.04-.055 1.593-.589 1.954-1.91l.217-.797-4.705-10.951 1.995-.105 3.577 9.129.032-.002 2.603-9.452 1.963-.103-3.762 12.17c-.818 2.656-1.7 3.488-3.716 3.594zm18.232-5.14l-1.845.096-.252-4.816-.161.008c-.574.547-1.446.947-2.658 1.011-2.671.14-4.161-1.406-4.286-3.788l-.168-3.207 1.845-.097.167 3.186c.076 1.459.908 2.351 2.41 2.272 1.384-.072 2.269-.635 2.753-1.241l-.235-4.484 1.845-.097.585 11.157zm6.603-10.103c-1.749.092-2.902 1.497-2.922 3.359l6.061-.318c-.141-1.864-1.38-3.133-3.139-3.041zm3.27 6.38l1.835-.096c-.22 1.969-2.032 3.505-4.467 3.633-3.197.167-5.255-1.951-5.439-5.459-.182-3.465 1.669-5.918 4.748-6.079 3.014-.158 4.985 1.933 5.162 5.312l.037.708-8.003.419.006.108c.112 2.134 1.441 3.474 3.447 3.369 1.416-.074 2.418-.848 2.674-1.915zm11.561 2.599l-.264-5.02-5.503.288.263 5.021-1.845.097-.584-11.157 1.845-.097.241 4.602 5.503-.288-.241-4.602 1.845-.097.585 11.157-1.845.096zm6.318-.331l-1.845.097-.585-11.157 1.845-.096.436 8.303.085-.005 5.143-8.595 1.846-.097.584 11.157-1.845.096-.435-8.303-.086.005-5.143 8.595zm14.101-10.495c-1.749.091-2.901 1.496-2.922 3.358l6.061-.317c-.141-1.865-1.38-3.133-3.139-3.041zm3.271 6.379l1.834-.096c-.219 1.969-2.032 3.506-4.467 3.633-3.197.168-5.255-1.951-5.439-5.459-.181-3.465 1.669-5.917 4.748-6.079 3.015-.158 4.985 1.933 5.162 5.313l.037.708-8.002.419.005.107c.112 2.135 1.441 3.474 3.447 3.369 1.416-.074 2.419-.847 2.675-1.915z" fill="#fff"/><g clip-path="url(#clip1_21_3101)"><path d="M460.163 408.845c-6.607.346-11.702 6.004-11.356 12.612.347 6.607 6.005 11.702 12.612 11.355 6.608-.346 11.702-6.004 11.356-12.611-.347-6.608-6.005-11.702-12.612-11.356zm7.16 8.479l-7.26 8a1.18 1.18 0 01-1.65.117l-4.249-3.482a1.22 1.22 0 01-.178-1.677 1.19 1.19 0 011.679-.148l3.368 2.774 6.489-7.206a1.198 1.198 0 011.712-.09c.505.456.545 1.206.089 1.712z" fill="#fff"/></g><g filter="url(#filter27_f_21_3101)"><path d="M595.844 898.895C327.523 849.557 245.548 662.276 119.591 435l571.012 185.405c57.854 109.276 119.898 317.961-94.759 278.49z" fill="#45DFF9"/><g filter="url(#filter28_f_21_3101)"><path d="M576.976 901.686c-268.321-49.338-284.292-186.245-410.249-413.521l497.234 115.599c57.855 109.276 127.672 337.393-86.985 297.922z" fill="#45DFF9"/></g><g filter="url(#filter29_f_21_3101)"><path d="M615.984 940.573c-269.079-46.136-272.641-181.316-390.756-438.424l497.667 113.374c54.056 123.728 108.351 361.958-106.911 325.05z" fill="#45DFF9"/></g></g><g clip-path="url(#clip2_21_3101)" fill-rule="evenodd" clip-rule="evenodd"><path d="M564.328 503.887a.912.912 0 01-.681-.292l-19.728-19.713-13.779 17.314a.995.995 0 01-.941.356.946.946 0 01-.746-.681l-9.369-31.335v-.017l-7.928-29.066a.953.953 0 01.244-.94.955.955 0 01.94-.243l29.066 7.927c.016 0 .016 0 .032.016l31.125 9.581c.341.113.6.389.665.746a.96.96 0 01-.357.94l-16.892 13.358 19.729 19.728a1 1 0 01.292.681c0 .26-.097.503-.292.681l-10.699 10.699c-.187.168-.43.26-.681.26z" fill="#fff"/><path d="M506.731 436.012a.934.934 0 01-.681-.292l-6.954-6.939a.987.987 0 010-1.377.988.988 0 011.378 0l6.954 6.954a.988.988 0 010 1.378 1.057 1.057 0 01-.697.276zm7.262-3.129a.975.975 0 01-.972-.973v-9.824c0-.535.437-.972.972-.972.535 0 .973.437.973.972v9.824a.976.976 0 01-.973.973zm7.344 2.918a.935.935 0 01-.681-.292.988.988 0 010-1.378l6.954-6.955a.99.99 0 011.378 0c.389.373.373.989 0 1.378l-6.954 6.955a.909.909 0 01-.697.292zm-21.35 21.787a.934.934 0 01-.681-.291.988.988 0 010-1.378l6.955-6.955a.988.988 0 011.378 0 .99.99 0 010 1.378l-6.955 6.955a1.028 1.028 0 01-.697.291zm3.81-14.217h-9.824a.975.975 0 01-.973-.972c0-.535.438-.973.973-.973h9.824c.535 0 .972.438.972.973a.964.964 0 01-.972.972z" fill="#FAE20B"/></g></g><defs><filter id="filter0_f_21_3101" x="-621.286" y="-337.041" width="2209.83" height="2209.83" filterUnits="userSpaceOnUse" color-interpolation-filters="sRGB"><feFlood flood-opacity="0" result="BackgroundImageFix"/><feBlend in="SourceGraphic" in2="BackgroundImageFix" result="shape"/><feGaussianBlur stdDeviation="276.229" result="effect1_foregroundBlur_21_3101"/></filter><filter id="filter1_f_21_3101" x="-2100" y="-746.157" width="2209.83" height="2209.83" filterUnits="userSpaceOnUse" color-interpolation-filters="sRGB"><feFlood flood-opacity="0" result="BackgroundImageFix"/><feBlend in="SourceGraphic" in2="BackgroundImageFix" result="shape"/><feGaussianBlur stdDeviation="276.229" result="effect1_foregroundBlur_21_3101"/></filter><filter id="filter2_f_21_3101" x="-1633.17" y="-117.567" width="1909.79" height="1909.79" filterUnits="userSpaceOnUse" color-interpolation-filters="sRGB"><feFlood flood-opacity="0" result="BackgroundImageFix"/><feBlend in="SourceGraphic" in2="BackgroundImageFix" result="shape"/><feGaussianBlur stdDeviation="276.229" result="effect1_foregroundBlur_21_3101"/></filter><filter id="filter3_f_21_3101" x="-259.48" y="-1032.45" width="2209.83" height="2209.83" filterUnits="userSpaceOnUse" color-interpolation-filters="sRGB"><feFlood flood-opacity="0" result="BackgroundImageFix"/><feBlend in="SourceGraphic" in2="BackgroundImageFix" result="shape"/><feGaussianBlur stdDeviation="276.229" result="effect1_foregroundBlur_21_3101"/></filter><filter id="filter4_f_21_3101" x="-1107.04" y="-89.267" width="2028.85" height="2028.85" filterUnits="userSpaceOnUse" color-interpolation-filters="sRGB"><feFlood flood-opacity="0" result="BackgroundImageFix"/><feBlend in="SourceGraphic" in2="BackgroundImageFix" result="shape"/><feGaussianBlur stdDeviation="276.229" result="effect1_foregroundBlur_21_3101"/></filter><filter id="filter5_f_21_3101" x="-165.73" y="3.908" width="1267.19" height="983.164" filterUnits="userSpaceOnUse" color-interpolation-filters="sRGB"><feFlood flood-opacity="0" result="BackgroundImageFix"/><feBlend in="SourceGraphic" in2="BackgroundImageFix" result="shape"/><feGaussianBlur stdDeviation="30.652" result="effect1_foregroundBlur_21_3101"/></filter><filter id="filter6_f_21_3101" x="-110.698" y="-32.699" width="1377.73" height="1163.78" filterUnits="userSpaceOnUse" color-interpolation-filters="sRGB"><feFlood flood-opacity="0" result="BackgroundImageFix"/><feBlend in="SourceGraphic" in2="BackgroundImageFix" result="shape"/><feGaussianBlur stdDeviation="63.348" result="effect1_foregroundBlur_21_3101"/></filter><filter id="filter7_f_21_3101" x="-959.631" y="-1175.16" width="2028.85" height="2028.85" filterUnits="userSpaceOnUse" color-interpolation-filters="sRGB"><feFlood flood-opacity="0" result="BackgroundImageFix"/><feBlend in="SourceGraphic" in2="BackgroundImageFix" result="shape"/><feGaussianBlur stdDeviation="276.229" result="effect1_foregroundBlur_21_3101"/></filter><filter id="filter8_f_21_3101" x="-350.948" y="-517.82" width="2196.56" height="1209.35" filterUnits="userSpaceOnUse" color-interpolation-filters="sRGB"><feFlood flood-opacity="0" result="BackgroundImageFix"/><feBlend in="SourceGraphic" in2="BackgroundImageFix" result="shape"/><feGaussianBlur stdDeviation="73.82" result="effect1_foregroundBlur_21_3101"/></filter><filter id="filter9_f_21_3101" x="-536.716" y="-617.783" width="2120.36" height="1133.15" filterUnits="userSpaceOnUse" color-interpolation-filters="sRGB"><feFlood flood-opacity="0" result="BackgroundImageFix"/><feBlend in="SourceGraphic" in2="BackgroundImageFix" result="shape"/><feGaussianBlur stdDeviation="54.77" result="effect1_foregroundBlur_21_3101"/></filter><filter id="filter10_f_21_3101" x="-330.969" y="-1265.81" width="2209.83" height="2209.83" filterUnits="userSpaceOnUse" color-interpolation-filters="sRGB"><feFlood flood-opacity="0" result="BackgroundImageFix"/><feBlend in="SourceGraphic" in2="BackgroundImageFix" result="shape"/><feGaussianBlur stdDeviation="276.229" result="effect1_foregroundBlur_21_3101"/></filter><filter id="filter11_f_21_3101" x="69.191" y="-565.752" width="1790.72" height="1790.72" filterUnits="userSpaceOnUse" color-interpolation-filters="sRGB"><feFlood flood-opacity="0" result="BackgroundImageFix"/><feBlend in="SourceGraphic" in2="BackgroundImageFix" result="shape"/><feGaussianBlur stdDeviation="276.229" result="effect1_foregroundBlur_21_3101"/></filter><filter id="filter12_f_21_3101" x="-554.394" y="-483.584" width="1191" height="1030" filterUnits="userSpaceOnUse" color-interpolation-filters="sRGB"><feFlood flood-opacity="0" result="BackgroundImageFix"/><feBlend in="SourceGraphic" in2="BackgroundImageFix" result="shape"/><feGaussianBlur stdDeviation="150" result="effect1_foregroundBlur_21_3101"/></filter><filter id="filter13_f_21_3101" x="-905.95" y="-51.035" width="990.777" height="1069.1" filterUnits="userSpaceOnUse" color-interpolation-filters="sRGB"><feFlood flood-opacity="0" result="BackgroundImageFix"/><feBlend in="SourceGraphic" in2="BackgroundImageFix" result="shape"/><feGaussianBlur stdDeviation="124.268" result="effect1_foregroundBlur_21_3101"/></filter><filter id="filter14_f_21_3101" x="-1118.62" y="-50.526" width="1169.88" height="1063.92" filterUnits="userSpaceOnUse" color-interpolation-filters="sRGB"><feFlood flood-opacity="0" result="BackgroundImageFix"/><feBlend in="SourceGraphic" in2="BackgroundImageFix" result="shape"/><feGaussianBlur stdDeviation="67.105" result="effect1_foregroundBlur_21_3101"/></filter><filter id="filter15_f_21_3101" x="-1189.83" y="-262.959" width="1524.82" height="1578.88" filterUnits="userSpaceOnUse" color-interpolation-filters="sRGB"><feFlood flood-opacity="0" result="BackgroundImageFix"/><feBlend in="SourceGraphic" in2="BackgroundImageFix" result="shape"/><feGaussianBlur stdDeviation="166.519" result="effect1_foregroundBlur_21_3101"/></filter><filter id="filter17_f_21_3101" x="391.171" y="-196.361" width="881.637" height="732.565" filterUnits="userSpaceOnUse" color-interpolation-filters="sRGB"><feFlood flood-opacity="0" result="BackgroundImageFix"/><feBlend in="SourceGraphic" in2="BackgroundImageFix" result="shape"/><feGaussianBlur stdDeviation="4.971" result="effect1_foregroundBlur_21_3101"/></filter><filter id="filter18_f_21_3101" x="249.607" y="-359.626" width="1069.14" height="918.686" filterUnits="userSpaceOnUse" color-interpolation-filters="sRGB"><feFlood flood-opacity="0" result="BackgroundImageFix"/><feBlend in="SourceGraphic" in2="BackgroundImageFix" result="shape"/><feGaussianBlur stdDeviation="17.398" result="effect1_foregroundBlur_21_3101"/></filter><filter id="filter19_f_21_3101" x="71.879" y="-559.292" width="1339.73" height="1132.64" filterUnits="userSpaceOnUse" color-interpolation-filters="sRGB"><feFlood flood-opacity="0" result="BackgroundImageFix"/><feBlend in="SourceGraphic" in2="BackgroundImageFix" result="shape"/><feGaussianBlur stdDeviation="24.854" result="effect1_foregroundBlur_21_3101"/></filter><filter id="filter20_f_21_3101" x="93.415" y="-770.214" width="1486.7" height="1321.77" filterUnits="userSpaceOnUse" color-interpolation-filters="sRGB"><feFlood flood-opacity="0" result="BackgroundImageFix"/><feBlend in="SourceGraphic" in2="BackgroundImageFix" result="shape"/><feGaussianBlur stdDeviation="67.105" result="effect1_foregroundBlur_21_3101"/></filter><filter id="filter21_f_21_3101" x="-62.023" y="-1132.04" width="1922.4" height="1748.27" filterUnits="userSpaceOnUse" color-interpolation-filters="sRGB"><feFlood flood-opacity="0" result="BackgroundImageFix"/><feBlend in="SourceGraphic" in2="BackgroundImageFix" result="shape"/><feGaussianBlur stdDeviation="166.519" result="effect1_foregroundBlur_21_3101"/></filter><filter id="filter22_f_21_3101" x="-15.326" y="-756.128" width="1427.87" height="1342.38" filterUnits="userSpaceOnUse" color-interpolation-filters="sRGB"><feFlood flood-opacity="0" result="BackgroundImageFix"/><feBlend in="SourceGraphic" in2="BackgroundImageFix" result="shape"/><feGaussianBlur stdDeviation="77.046" result="effect1_foregroundBlur_21_3101"/></filter><filter id="filter23_f_21_3101" x="-858.49" y="516.064" width="1184.87" height="453.252" filterUnits="userSpaceOnUse" color-interpolation-filters="sRGB"><feFlood flood-opacity="0" result="BackgroundImageFix"/><feBlend in="SourceGraphic" in2="BackgroundImageFix" result="shape"/><feGaussianBlur stdDeviation="5.97" result="effect1_foregroundBlur_21_3101"/></filter><filter id="filter24_f_21_3101" x="-865.313" y="498.416" width="1198.51" height="477.723" filterUnits="userSpaceOnUse" color-interpolation-filters="sRGB"><feFlood flood-opacity="0" result="BackgroundImageFix"/><feBlend in="SourceGraphic" in2="BackgroundImageFix" result="shape"/><feGaussianBlur stdDeviation="9.382" result="effect1_foregroundBlur_21_3101"/></filter><filter id="filter25_f_21_3101" x="-879.242" y="465.711" width="1343.38" height="523.755" filterUnits="userSpaceOnUse" color-interpolation-filters="sRGB"><feFlood flood-opacity="0" result="BackgroundImageFix"/><feBlend in="SourceGraphic" in2="BackgroundImageFix" result="shape"/><feGaussianBlur stdDeviation="16.205" result="effect1_foregroundBlur_21_3101"/></filter><filter id="filter26_f_21_3101" x="-899.711" y="392.536" width="1395.42" height="617.4" filterUnits="userSpaceOnUse" color-interpolation-filters="sRGB"><feFlood flood-opacity="0" result="BackgroundImageFix"/><feBlend in="SourceGraphic" in2="BackgroundImageFix" result="shape"/><feGaussianBlur stdDeviation="26.44" result="effect1_foregroundBlur_21_3101"/></filter><filter id="filter27_f_21_3101" x="-30.409" y="285" width="951.841" height="809.413" filterUnits="userSpaceOnUse" color-interpolation-filters="sRGB"><feFlood flood-opacity="0" result="BackgroundImageFix"/><feBlend in="SourceGraphic" in2="BackgroundImageFix" result="shape"/><feGaussianBlur stdDeviation="75" result="effect1_foregroundBlur_21_3101"/></filter><filter id="filter28_f_21_3101" x="105.423" y="426.861" width="678.645" height="540.665" filterUnits="userSpaceOnUse" color-interpolation-filters="sRGB"><feFlood flood-opacity="0" result="BackgroundImageFix"/><feBlend in="SourceGraphic" in2="BackgroundImageFix" result="shape"/><feGaussianBlur stdDeviation="30.652" result="effect1_foregroundBlur_21_3101"/></filter><filter id="filter29_f_21_3101" x="98.533" y="375.453" width="799.594" height="695.655" filterUnits="userSpaceOnUse" color-interpolation-filters="sRGB"><feFlood flood-opacity="0" result="BackgroundImageFix"/><feBlend in="SourceGraphic" in2="BackgroundImageFix" result="shape"/><feGaussianBlur stdDeviation="63.348" result="effect1_foregroundBlur_21_3101"/></filter><linearGradient id="paint0_linear_21_3101" x1="-308.428" y1="283.85" x2="-794.447" y2="209.522" gradientUnits="userSpaceOnUse"><stop stop-color="#C4C4C4"/><stop offset=".943" stop-color="#C4C4C4" stop-opacity="0"/></linearGradient><linearGradient id="paint1_linear_21_3101" x1="-495.999" y1="40.501" x2="-624.283" y2="598.432" gradientUnits="userSpaceOnUse"><stop stop-color="#C4C4C4"/><stop offset="1" stop-color="#C4C4C4" stop-opacity="0"/></linearGradient><linearGradient id="paint2_linear_21_3101" x1="993.865" y1="532.967" x2="557.569" y2="-217.951" gradientUnits="userSpaceOnUse"><stop stop-color="#C4C4C4"/><stop offset="1" stop-color="#C4C4C4" stop-opacity="0"/></linearGradient><linearGradient id="paint3_linear_21_3101" x1="-238.819" y1="720.501" x2="-271.692" y2="867.682" gradientUnits="userSpaceOnUse"><stop stop-color="#C4C4C4"/><stop offset="1" stop-color="#C4C4C4" stop-opacity="0"/></linearGradient><linearGradient id="paint4_linear_21_3101" x1="-830.243" y1="598.206" x2="326.691" y2="830.696" gradientUnits="userSpaceOnUse"><stop stop-color="#C4C4C4" stop-opacity="0"/><stop offset=".365" stop-color="#C4C4C4"/><stop offset=".609" stop-color="#C4C4C4"/><stop offset="1" stop-color="#C4C4C4" stop-opacity="0"/></linearGradient><clipPath id="clip0_21_3101"><rect width="630" height="585" rx="20" fill="#fff"/></clipPath><clipPath id="clip1_21_3101"><path fill="#fff" transform="rotate(-3 8042.661 -8352.896)" d="M0 0h24v24H0z"/></clipPath><clipPath id="clip2_21_3101"><path fill="#fff" transform="translate(493 421)" d="M0 0h83v83H0z"/></clipPath></defs></svg>