<svg width="40" height="40" fill="none" xmlns="http://www.w3.org/2000/svg"><path d="M20 33.75v5L5 34.375v-5l15 4.375z" fill="#ED6571"/><path d="M35 29.375v5L20 38.75v-5l15-4.375z" fill="#68607C"/><path d="M20 25l15 4.375-15 4.375-15-4.375L20 25z" fill="#F69489"/><path d="M19.375 14.375h1.25V30h-1.25V14.375z" fill="#68607C"/><path d="M20 30.884l-2.942-2.942.884-.884L20 29.116l2.058-2.058.884.884L20 30.884zm6.25-6.25l-2.942-2.942.884-.884 2.058 2.058 2.058-2.058.884.884-2.942 2.942z" fill="#68607C"/><path d="M26.875 23.75h-1.25v-2.5a3.129 3.129 0 013.125-3.125h1.875A1.877 1.877 0 0032.5 16.25v-1.875h1.25v1.875a3.129 3.129 0 01-3.125 3.125H28.75a1.877 1.877 0 00-1.875 1.875v2.5zm-13.125.884l-2.942-2.942.884-.884 2.058 2.058 2.058-2.058.884.884-2.942 2.942z" fill="#68607C"/><path d="M14.375 23.75h-1.25v-2.5a1.877 1.877 0 00-1.875-1.875H9.375A3.129 3.129 0 016.25 16.25v-1.875H7.5v1.875c0 1.034.841 1.875 1.875 1.875h1.875a3.129 3.129 0 013.125 3.125v2.5z" fill="#68607C"/><path d="M28.125 15.625V1.875h6.25l3.75 3.75v10h-10z" fill="#91CBD7"/><path d="M38.125 5.625h-3.75v-3.75l3.75 3.75z" fill="#4E9BB9"/><path d="M15 15.625V1.875h6.25L25 5.625v10H15zm-13.125 0V1.875h6.25l3.75 3.75v10h-10z" fill="#91CBD7"/><path d="M25 5.625h-3.75v-3.75L25 5.625zm-13.125 0h-3.75v-3.75l3.75 3.75z" fill="#4E9BB9"/><path d="M16.875 7.5h6.25v1.25h-6.25V7.5zm0 2.5h6.25v1.25h-6.25V10zm0-5h2.5v1.25h-2.5V5zM3.75 7.5H10v1.25H3.75V7.5zm0 2.5H10v1.25H3.75V10zm0 2.5H10v1.25H3.75V12.5zm0-7.5h2.5v1.25h-2.5V5zM30 7.5h6.25v1.25H30V7.5zm0 2.5h6.25v1.25H30V10zm0 2.5h6.25v1.25H30V12.5zM30 5h2.5v1.25H30V5zm-13.125 7.5h1.25v1.25h-1.25V12.5zm2.5 0h1.25v1.25h-1.25V12.5zm2.5 0h1.25v1.25h-1.25V12.5z" fill="#68607C"/></svg>