<svg width="40" height="40" fill="none" xmlns="http://www.w3.org/2000/svg"><g clip-path="url(#clip0_1_204)"><path d="M19.922 28.906H4.297A4.302 4.302 0 010 24.61V4.297A4.302 4.302 0 014.297 0h15.625a4.302 4.302 0 014.297 4.297v20.312a4.302 4.302 0 01-4.297 4.297z" fill="#FFE137"/><path d="M19.922 0h-7.813v28.906h7.813a4.302 4.302 0 004.297-4.297V4.297A4.302 4.302 0 0019.922 0z" fill="#FAC814"/><path d="M18.36 23.438H5.86a1.172 1.172 0 010-2.344h12.5a1.172 1.172 0 110 2.343z" fill="#646E6E"/><path d="M19.531 22.266c0-.648-.524-1.172-1.172-1.172h-6.25v2.343h6.25a1.17 1.17 0 001.172-1.171z" fill="#3C4646"/><path d="M18.36 14.063H5.86a1.172 1.172 0 010-2.344h12.5a1.172 1.172 0 110 2.344z" fill="#646E6E"/><path d="M19.531 12.89a1.17 1.17 0 00-1.172-1.171h-6.25v2.344h6.25c.648 0 1.172-.525 1.172-1.172z" fill="#3C4646"/><path d="M18.36 18.75H5.86a1.172 1.172 0 010-2.344h12.5a1.172 1.172 0 010 2.344z" fill="#646E6E"/><path d="M19.531 17.578c0-.647-.524-1.172-1.172-1.172h-6.25v2.344h6.25c.648 0 1.172-.525 1.172-1.172z" fill="#3C4646"/><path d="M16.067 5.86H8.152a1.172 1.172 0 01-1.088-.737L5.014 0h14.19l-2.05 5.123a1.171 1.171 0 01-1.087.736z" fill="#FAC814"/><path d="M12.11 0v5.86h3.957a1.172 1.172 0 001.088-.737L19.205 0h-7.096z" fill="#F0AA00"/><path d="M32.969 11.094h-12.89a4.302 4.302 0 00-4.298 4.297v20.312A4.302 4.302 0 0020.078 40h15.625A4.302 4.302 0 0040 35.703V18.125l-7.031-7.031z" fill="#EDF2F2"/><path d="M32.969 11.094H27.89V40h7.812A4.302 4.302 0 0040 35.703V18.125l-7.031-7.031z" fill="#C9DCDC"/><path d="M40 18.125h-5.86a1.172 1.172 0 01-1.171-1.172v-5.86L40 18.126z" fill="#A5BFBF"/><path d="M34.14 25.156h-12.5a1.172 1.172 0 110-2.343h12.5a1.172 1.172 0 010 2.343zm0 4.688h-12.5a1.172 1.172 0 010-2.344h12.5a1.172 1.172 0 010 2.344zm0 4.687h-12.5a1.172 1.172 0 110-2.343h12.5a1.172 1.172 0 010 2.343z" fill="#646E6E"/><path d="M35.313 23.984c0-.647-.525-1.172-1.172-1.172h-6.25v2.344h6.25c.647 0 1.172-.524 1.172-1.172zm0 4.688c0-.647-.525-1.172-1.172-1.172h-6.25v2.344h6.25c.647 0 1.172-.525 1.172-1.172zm-1.172 5.86a1.172 1.172 0 100-2.344h-6.25v2.343h6.25z" fill="#3C4646"/></g><defs><clipPath id="clip0_1_204"><path fill="#fff" d="M0 0h40v40H0z"/></clipPath></defs></svg>