<svg width="40" height="40" fill="none" xmlns="http://www.w3.org/2000/svg"><g clip-path="url(#clip0_1_462)"><path d="M3.103 0h27.583a2.758 2.758 0 012.758 2.758v22.067a2.758 2.758 0 01-2.759 2.758H3.104a2.758 2.758 0 01-2.758-2.758V2.758A2.758 2.758 0 013.103 0z" fill="#87CED9"/><path d="M2.413 2.069h1.38v1.379h-1.38v-1.38zm2.759 0H6.55v1.379H5.17v-1.38zm2.758 0h1.379v1.379h-1.38v-1.38zm-.69 3.448h27.583a2.758 2.758 0 012.758 2.758V30.34a2.758 2.758 0 01-2.758 2.758H7.24a2.758 2.758 0 01-2.758-2.758V8.275A2.758 2.758 0 017.24 5.517z" fill="#4398D1"/><path d="M34.823 5.517h-3.276C26.605 21.252 17.14 29.205 10.589 33.099h24.234a2.758 2.758 0 002.758-2.758V8.275a2.758 2.758 0 00-2.758-2.758z" fill="#3F8FC4"/><path d="M6.55 7.585h1.38v1.38H6.55v-1.38zm2.759 0h1.379v1.38h-1.38v-1.38zm2.758 0h1.38v1.38h-1.38v-1.38z" fill="#87CED9"/><path d="M6.55 27.583h28.963v1.379H6.55v-1.38zm1.38-5.517h1.379v4.138h-1.38v-4.138zm2.758-4.137h1.38v8.275h-1.38v-8.275zm2.758 2.069h1.38v6.206h-1.38v-6.206zm2.759-4.827h1.379v11.033h-1.38V15.17zm2.758-1.38h1.38v12.413h-1.38V13.792zm2.758.69h1.38v4.827h-1.38v-4.827zm2.758-2.758h1.38v7.585h-1.38v-7.585zm2.759-1.38h1.379v8.965h-1.38v-8.964zm2.758 2.759h1.38v13.102h-1.38V13.102zm2.758 2.758h1.38v10.344h-1.38V15.86z" fill="#3685BA"/><path d="M39.656 37.931L37.587 40l-8.275-8.275 2.069-2.069 8.275 8.275z" fill="#FDB62F"/><path d="M34.134 32.412l-2.069 2.069-2.758-2.758 2.069-2.07 2.758 2.76z" fill="#FA962A"/><path d="M25.169 35.168a8.964 8.964 0 100-17.929 8.964 8.964 0 000 17.93z" fill="#FDB62F"/><path d="M25.169 32.41a6.206 6.206 0 100-12.412 6.206 6.206 0 000 12.412z" fill="#87CED9"/><path d="M19.122 27.583c.109.478.275.94.494 1.379h11.106c.22-.438.385-.901.494-1.38H19.122zm6.736-1.38v-6.165a5.837 5.837 0 00-1.379 0v6.166h1.38zm-2.758 0v-5.845c-.486.17-.95.401-1.379.686v5.16h1.38zm5.517 0v-5.159a6.173 6.173 0 00-1.38-.686v5.846h1.38zm-8.275-3.896a6.177 6.177 0 00-1.38 3.897h1.38v-3.897zm9.654 3.897h1.38a6.178 6.178 0 00-1.38-3.897v3.897z" fill="#4398D1"/></g><defs><clipPath id="clip0_1_462"><path fill="#fff" d="M0 0h40v40H0z"/></clipPath></defs></svg>