<svg width="40" height="40" fill="none" xmlns="http://www.w3.org/2000/svg"><g clip-path="url(#clip0_45_3909)"><path d="M39.333 20A19.34 19.34 0 0110.96 37.093a22.375 22.375 0 01-6.013 2.214 1.101 1.101 0 01-1.26-1.487 24.368 24.368 0 001.453-5.447A19.333 19.333 0 1139.333 20z" fill="#219CF7"/><path d="M23.477 29.603l.733.245a.666.666 0 01.456.632v.853a.667.667 0 01-.667.667H16a.667.667 0 01-.667-.667v-.853a.666.666 0 01.456-.632l.724-.242a1.2 1.2 0 00.82-1.14v-9.6a1.2 1.2 0 00-.82-1.138l-.724-.242a.667.667 0 01-.456-.634V16a.667.667 0 01.667-.667h6a.666.666 0 01.667.667v12.48a1.184 1.184 0 00.81 1.123zM20 12a2.667 2.667 0 100-5.334A2.667 2.667 0 0020 12z" fill="#fff"/></g><defs><clipPath id="clip0_45_3909"><path fill="#fff" d="M0 0h40v40H0z"/></clipPath></defs></svg>