<svg width="40" height="40" fill="none" xmlns="http://www.w3.org/2000/svg"><path d="M8.667 36v2.667C8.667 39.403 9.264 40 10 40h25.333c.737 0 1.334-.597 1.334-1.333V5.333c0-.736-.597-1.333-1.334-1.333h-2.666l-24 32z" fill="#D3E2EB"/><path d="M4.667 34.667C4.667 35.403 5.264 36 6 36h25.333c.737 0 1.334-.597 1.334-1.333V1.333C32.667.597 32.07 0 31.333 0H6c-.736 0-1.333.597-1.333 1.333v33.334z" fill="#ECF0F9"/><path d="M31.333 0h-1.85c.736 0 1.332.597 1.332 1.333v33.334c0 .736-.596 1.333-1.333 1.333h1.851c.737 0 1.334-.597 1.334-1.333V1.333C32.667.597 32.07 0 31.333 0z" fill="#D8E4F0"/><path d="M35.333 4h-1.85c.736 0 1.333.597 1.333 1.333v33.334c0 .736-.597 1.333-1.334 1.333h1.851c.737 0 1.334-.597 1.334-1.333V5.333c0-.736-.597-1.333-1.334-1.333z" fill="#B0C4D8"/><path d="M12.667 6.667a5.333 5.333 0 100 10.666 5.333 5.333 0 000-10.666zm0 6.666a1.333 1.333 0 110-2.667 1.333 1.333 0 010 2.667z" fill="#90C962"/><path d="M25.356 9.333H21.31a.644.644 0 01-.643-.644V7.31a.644.644 0 01.643-.643h4.046A.644.644 0 0126 7.31v1.38a.644.644 0 01-.644.643z" fill="#4C9CD6"/><path d="M30 12.604h-9.333a.604.604 0 110-1.207H30a.604.604 0 110 1.207zm0 2.666h-9.333a.604.604 0 110-1.207H30a.604.604 0 110 1.207zm-4 2.667h-5.333a.604.604 0 110-1.207H26a.603.603 0 110 1.207z" fill="#595A66"/><path d="M12.023 25.333H7.977a.644.644 0 01-.644-.644V23.31a.644.644 0 01.644-.643h4.046a.644.644 0 01.644.643v1.38a.644.644 0 01-.644.643z" fill="#4C9CD6"/><path d="M16.667 28.604H7.333a.604.604 0 110-1.207h9.334a.604.604 0 110 1.207zm0 2.666H7.333a.604.604 0 110-1.207h9.334a.604.604 0 110 1.207zm-4 2.667H7.333a.604.604 0 110-1.207h5.334a.604.604 0 110 1.207z" fill="#595A66"/><path d="M19.333 29.937a.603.603 0 01-.426-1.03l2.666-2.667a.604.604 0 01.618-.146l3.646 1.215 3.736-3.736a.604.604 0 11.854.854l-4 4a.604.604 0 01-.618.146l-3.646-1.216-2.403 2.403a.604.604 0 01-.427.177z" fill="#4C9CD6"/><path d="M28.667 33.937h-9.334a.604.604 0 110-1.207h9.334a.73.73 0 00.73-.73v-9.333a.604.604 0 111.207 0V32a1.94 1.94 0 01-1.937 1.937z" fill="#595A66"/><path d="M12.667 6.667v4a1.333 1.333 0 01.943 2.276l2.828 2.828a5.333 5.333 0 00-3.771-9.105zM8.023 5.332H4.62a1.288 1.288 0 01-1.288-1.288v-.09c0-.712.577-1.288 1.288-1.288h3.402a.644.644 0 01.644.643v1.38a.644.644 0 01-.644.643z" fill="#FFCB5B"/><path d="M8.023 2.667H6.172a.644.644 0 01.644.643v1.38a.644.644 0 01-.644.643h1.85a.644.644 0 00.645-.644V3.31a.644.644 0 00-.644-.643z" fill="#FFB85B"/></svg>