<svg width="200" height="200" fill="none" xmlns="http://www.w3.org/2000/svg"><path d="M91.667 189.583a81.253 81.253 0 01-70.31-40.664 81.248 81.248 0 0170.37-121.836 81.25 81.25 0 0170.357 40.584A6.338 6.338 0 01159.75 76a6.249 6.249 0 01-8.333-2.25 68.75 68.75 0 109 34.583 6.249 6.249 0 1112.5 0 81.33 81.33 0 01-81.25 81.25z" fill="#2C7BE5"/><path d="M88.667 139.583a6.499 6.499 0 01-4-1.416l-30.333-25a6.374 6.374 0 01-2.197-4.362 6.385 6.385 0 013.493-6.171 6.384 6.384 0 017.037.866L88.501 125l79.333-71.667a6.257 6.257 0 018.333 9.334l-83.333 75a6.08 6.08 0 01-4.167 1.916z" fill="#2C7BE5"/></svg>